<?xml version="1.0" encoding="utf-8"?>
<!-- Generator: Adobe Illustrator 22.0.0, SVG Export Plug-In . SVG Version: 6.00 Build 0)  -->
<svg version="1.1" id="Layer_1" xmlns="http://www.w3.org/2000/svg" xmlns:xlink="http://www.w3.org/1999/xlink" x="0px" y="0px"
	 viewBox="0 0 189.8 189.8" style="enable-background:new 0 0 189.8 189.8;" xml:space="preserve">
<style type="text/css">
	.st0{fill:#FFFFFF;}
	.st1{fill:#1E1E1E;}
	.st2{fill:#F44336;}
	.st3{fill:#808080;}
</style>
<g>
	<g>
		<path class="st3" d="M94.9,190.1c-24.5,0-55,0-74.9-20c-20-20-20-50.5-20-74.9s0-55,20-74.9c20-20,50.5-20,74.9-20
			c24.5,0,55,0,74.9,20c20,20,20,50.5,20,74.9s0,55-20,74.9C149.9,190.1,119.4,190.1,94.9,190.1z M94.9,4.3
			c-23.8,0-53.3,0-72.1,18.8C4,41.8,4,71.4,4,95.2s0,53.3,18.8,72.1s48.4,18.8,72.1,18.8s53.3,0,72.1-18.8s18.8-48.4,18.8-72.1
			c0-23.8,0-53.3-18.8-72.1S118.7,4.3,94.9,4.3z"/>
	</g>
	<ellipse class="st1" cx="106.4" cy="133.1" rx="38.4" ry="11.5"/>
	<g>
		<path class="st0" d="M93.4,70.3c0,0,6-17.7,13.2-18.7c0,0-6.4,1.7-10.3,19.7C95.6,71.6,93.4,70.3,93.4,70.3z"/>
		<path class="st0" d="M97.3,69.8c0,0-15.7-10.2-21.9-6.5c0,0,6.1-2.6,20.3,9.1C96.4,72.1,97.3,69.8,97.3,69.8z"/>
		<path class="st0" d="M97.7,69.5c0,0-6.9-12.2-13.7-11c0,0,6.1-0.4,11.1,12.6C95.7,71.1,97.7,69.5,97.7,69.5z"/>
		<path class="st0" d="M95.6,69.5c0,0,9.3-10.4,15.7-7.9c0,0-5.9-1.7-13.5,10C97.2,71.4,95.6,69.5,95.6,69.5z"/>
		<path class="st2" d="M133.4,102.2c0,21.2-17.2,38.4-38.4,38.4s-38.4-17.2-38.4-38.4c0-20,11.6-32.9,31.1-34.6
			c1.2-0.1,6.1,1.7,7.4,1.7c2,0,5.7-1.7,7.6-1.4C121,70.4,133.4,83,133.4,102.2z"/>
		<g>
			<path class="st0" d="M63,89c1.4-4,3.6-7.7,6.4-10.9c2.8-3.2,6.4-5.8,10.6-7.1c2.1-0.6,4.3-0.8,6.4-0.7c1.1,0,2.1,0.2,3.2,0.4
				c1,0.2,2.1,0.3,3.1,0.5c2.1,0.3,4.1,0.3,6.2-0.3c1-0.2,2.1-0.4,3.2-0.4s2.1,0.2,3.2,0.4c-1.1-0.1-2.1-0.2-3.1-0.2
				s-2.1,0.3-3.1,0.6c-2,0.7-4.3,0.7-6.4,0.6l-1.6-0.2l-1.6-0.2c-1-0.1-2.1-0.3-3.1-0.3c-2.1-0.1-4.1,0.2-6.1,0.8
				c-4,1.1-7.5,3.6-10.3,6.6c-1.4,1.5-2.7,3.2-3.9,4.9C65,85.2,63.9,87.1,63,89z"/>
		</g>
	</g>
</g>
</svg>
