<?xml version="1.0" encoding="utf-8"?>
<!-- Generator: Adobe Illustrator 22.0.0, SVG Export Plug-In . SVG Version: 6.00 Build 0)  -->
<svg version="1.1" id="Layer_1" xmlns="http://www.w3.org/2000/svg" xmlns:xlink="http://www.w3.org/1999/xlink" x="0px" y="0px"
	 viewBox="0 0 189.8 189.8" style="enable-background:new 0 0 189.8 189.8;" xml:space="preserve">
<style type="text/css">
	.st0{fill:#FFFFFF;}
	.st1{fill:#1E1E1E;}
	.st2{fill:#F44336;}
	.st3{fill:#808080;}
</style>
<g>
	<path class="st3" d="M95,190c-24.5,0-55,0-74.9-20c-20-20-20-50.5-20-74.9s0-55,20-74.9c20-20,50.5-20,74.9-20s55,0,74.9,20
		c20,20,20,50.5,20,74.9s0,55-20,74.9l0,0C150,190,119.5,190,95,190z M95,4.2c-23.8,0-53.3,0-72.1,18.8S4.1,71.3,4.1,95.1
		s0,53.3,18.8,72.1S71.3,186,95,186c23.8,0,53.3,0,72.1-18.8C186,148.4,186,118.8,186,95.1c0-23.8,0-53.3-18.8-72.1
		S118.8,4.2,95,4.2z"/>
</g>
<g>
	<g>
		<ellipse class="st1" cx="73.8" cy="135" rx="20.6" ry="7.5"/>
	</g>
	<g>
		<ellipse class="st1" cx="125.5" cy="135" rx="20.6" ry="7.5"/>
	</g>
	<g>
		<g>
			<g>
				<g>
					<path class="st0" d="M109.4,79.7c0,0-4.9-3.4-7.4-10.2l1.2,4.9c0,0,3.8,4.6,6.3,5.8L109.4,79.7z"/>
				</g>
			</g>
			<path class="st0" d="M123.5,80.9c-6.8-8.5-15.2-1.5-15.2-1.5s4.8,17.4,16.4,18.5s11.5-0.3,11.5-0.3
				C132.1,95.5,130.3,89.4,123.5,80.9z M121.1,88.2c-1.7-2.4-11.7-8.5-11.7-8.5s8.4,2.5,14.1,9.8c5.3,6.7,8.8,7.2,9.3,7.3
				c0,0,0,0,0.1,0c0,0,0,0-0.1,0C128.5,96.7,122.8,90.6,121.1,88.2z"/>
			<g>
				<g>
					<path class="st2" d="M137,114.4c3.1,10.5-2.9,21.5-13.4,24.5c-10.5,3.1-21.5-2.9-24.5-13.4c-3.1-10.5,2.4-23,13.4-24.5
						C123.3,96.6,134,103.9,137,114.4z"/>
				</g>
			</g>
			<g>
				<g>
					<path class="st0" d="M118.2,101.5c0.1,0.3,0,0.6-0.2,0.9s-0.4,0.5-0.6,0.7c-0.5,0.4-1,0.8-1.5,1.1c-1.1,0.6-2.2,1.1-3.5,1.3
						c-1.3,0.2-2.6-0.1-3.8-0.4c-0.3-0.1-0.6-0.1-0.7-0.1s-0.4,0.2-0.6,0.3c-0.5,0.3-1,0.7-1.4,1c-1.8,1.5-3.1,3.6-4,5.8
						c-0.4,1.1-0.7,2.3-0.8,3.5c-0.2,1.2-0.1,2.4-0.1,3.6c-0.6-2.4-0.6-5,0.1-7.4s2.1-4.6,4-6.3c0.5-0.4,1-0.8,1.6-1.1
						c0.3-0.2,0.5-0.3,1-0.4c0.4,0,0.8,0.1,1.1,0.1c1.2,0.4,2.3,0.6,3.5,0.5c1.1-0.1,2.3-0.5,3.4-1c0.6-0.2,1.1-0.5,1.6-0.9
						c0.2-0.2,0.5-0.4,0.7-0.6C118.1,102.1,118.2,101.8,118.2,101.5z"/>
				</g>
			</g>
			<g>
				<g>
					<path class="st0" d="M113.8,103.3c-9.4-25-11.2-50.6-11.2-50.6l-4.3-2c2.4,18.1,13.4,52.9,13.4,52.9S113.5,104.3,113.8,103.3z"
						/>
				</g>
			</g>
			<g>
				<g>
					<path class="st2" d="M83.2,129.1c-5.2,9.6-17.2,13.2-26.8,8s-13.2-17.2-7.9-26.8s17.9-14.6,26.8-8
						C86,106.8,88.4,119.5,83.2,129.1z"/>
				</g>
			</g>
			<g>
				<g>
					<path class="st0" d="M78.9,106.6c-0.1,0.3-0.3,0.5-0.6,0.6c-0.3,0.1-0.5,0.2-0.8,0.2c-0.5,0-1.1,0-1.6-0.1
						c-1.1-0.2-2.1-0.6-3-1.1s-1.8-1.1-2.6-1.9c-0.4-0.4-0.7-0.8-1-1.3c-0.1-0.2-0.2-0.5-0.3-0.8c-0.1-0.3,0-0.6,0.1-0.8
						c-0.1,0.5,0.2,0.9,0.6,1.3c0.3,0.4,0.7,0.7,1.1,1c0.8,0.6,1.7,1.1,2.5,1.6c0.9,0.5,1.8,0.9,2.7,1.2c0.5,0.2,0.9,0.3,1.4,0.4
						C78,106.9,78.5,107,78.9,106.6z"/>
				</g>
			</g>
			<g>
				<g>
					<path class="st0" d="M74.5,104.8c11-24.4,27.8-43.8,27.8-43.8l-1.6-4.4c-11,14.5-27.8,46.9-27.8,46.9S73.6,105.3,74.5,104.8z"
						/>
				</g>
			</g>
		</g>
		<g>
			<path class="st0" d="M48.9,117.8c0.2-2.1,0.9-4.1,1.8-5.9c0.9-1.9,2.2-3.6,3.7-5.1c0.4-0.3,0.8-0.7,1.2-1l1.3-0.9
				c0.5-0.3,0.9-0.5,1.4-0.7c0.5-0.3,1-0.4,1.5-0.6c2-0.8,4.1-0.8,6.2-0.7c-2,0.3-4.1,0.6-5.9,1.4c-1.8,0.8-3.6,1.8-5,3.2
				c-1.5,1.4-2.7,3-3.7,4.7C50.4,114,49.5,115.9,48.9,117.8z"/>
		</g>
	</g>
</g>
</svg>
