<?xml version="1.0" encoding="utf-8"?>
<!-- Generator: Adobe Illustrator 22.0.0, SVG Export Plug-In . SVG Version: 6.00 Build 0)  -->
<svg version="1.1" id="Layer_1" xmlns="http://www.w3.org/2000/svg" xmlns:xlink="http://www.w3.org/1999/xlink" x="0px" y="0px"
	 viewBox="0 0 189.8 189.8" style="enable-background:new 0 0 189.8 189.8;" xml:space="preserve">
<style type="text/css">
	.st0{fill:#FFFFFF;}
	.st1{fill:#1E1E1E;}
	.st2{fill:#F44336;}
</style>
<g>
	<g>
		<path class="st0" d="M95.4,190.1c-24.5,0-55,0-74.9-20c-20-20-20-50.5-20-74.9s0-55,20-74.9c20-20,50.5-20,74.9-20s55,0,74.9,20
			c20,20,20,50.5,20,74.9s0,55-20,74.9l0,0C150.4,190.1,119.9,190.1,95.4,190.1z M95.4,4.3c-23.8,0-53.3,0-72.1,18.8
			C4.5,41.8,4.5,71.4,4.5,95.2s0,53.3,18.8,72.1s48.4,18.8,72.1,18.8c23.8,0,53.3,0,72.1-18.8s18.8-48.4,18.8-72.1
			c0-23.8,0-53.3-18.8-72.1C148.8,4.3,119.2,4.3,95.4,4.3z"/>
	</g>
	<path class="st1" d="M166.8,106c-0.1-0.9-0.3-1.9-0.7-2.9l-0.8-2.4c-1.8-16.2-54.7-45.5-92-30.8c-25,9.9-34.6,31-33.1,46.3
		c0,0.1,0,0.3,0,0.4c0,0.2,0,0.3,0.1,0.5c0.9,8.2,4.6,16.3,10.6,21.8c6.5,6,15.3,9.3,24.2,8.5c13.6-1.2,25-10.8,33.5-20.8
		c0.4-0.5,0.9-1,1.3-1.5C123.9,108.3,167.7,121.1,166.8,106z"/>
	<g>
		<g>
			<g>
				<path class="st0" d="M163.1,97.1l-1.8-5.3c0,0-57.5-35.6-89.6-23C58.3,74.1,44.9,82,39.3,95.7c-5.1,12.4-1.2,28.3,8.6,37.4
					c6.5,6,15.3,9.3,24.2,8.5c13.6-1.2,25-10.8,33.5-20.8c0.4-0.5,0.9-1,1.3-1.5c14-17,57.8-4.1,56.9-19.3
					C163.7,99.1,163.5,98.1,163.1,97.1z"/>
			</g>
		</g>
		<g>
			<path class="st2" d="M162.4,95.2c0.9,15.1-42.9,2.3-56.9,19.3c-31.4,38-59,19.5-66.1,4.1c-6.8-14.7,1-42.7,31-54.6
				C108,49.2,161.5,79.1,162.4,95.2z"/>
		</g>
		<g>
			<g>
				<path class="st0" d="M157,98.2c-3.5,1.7-10.1,2.1-17.1,2.5c-9.5,0.6-20.3,1.3-28.5,5.2c-3.5,1.6-6.3,3.8-8.5,6.4
					c-7,8.5-14.2,14.5-21.4,17.9c-7.9,3.7-15.5,4.3-22.8,1.7c-8.5-3.1-14-9.6-16.3-14.7c-5.6-12.2,0.2-36.5,25.5-48.4
					c1.2-0.6,2.5-1.1,3.8-1.6c10.6-4.2,23.6-4.9,37.6-2.1c11.9,2.4,24.4,7.4,34.3,13.7c11.2,7.2,15.4,13.5,15.6,16.7
					C159.1,96.3,159,97.3,157,98.2z"/>
			</g>
		</g>
		<g>
			<path class="st2" d="M103.2,106.5c0-0.2,0.1-0.5,0.1-0.7c0.2-4.7-3.9-7.7-6.6-11c-3.2-3.8-5.4-8.2-5.9-13.2
				c-0.6-6.3-0.4-14.6-9.1-13.9c-10.2,0.7-20,7.1-26.9,14.3c-3.5,3.7-6.3,7.8-8.2,12.2c-3.3,7.7-3.8,16-1.2,21.6
				c2.1,4.5,7,10.3,14.4,13c6.4,2.3,13.2,1.8,20.2-1.5c5.4-2.6,10.5-6,14.9-10.2C98,114.2,102.5,111,103.2,106.5z"/>
		</g>
		<g>
			<path class="st2" d="M141.6,80.2c-9.5-6.1-21.6-9.6-33.1-11.9c-2.7-0.5-13.5-4.4-15.2-1c-0.3,0.5-0.2,1.1-0.2,1.7
				c0.2,6.3,0.6,13.1,3.4,18.9c1.7,3.3,4.4,5.9,6.8,8.7c1.6,1.9,2.2,5.2,4.7,6.3c4.7,1.9,9.7-1.9,14.1-3.2c5.4-1.6,11-1.8,16.6-1.9
				c4,0,9,1.7,12.7-0.2C161.1,92.5,145,82.4,141.6,80.2z"/>
		</g>
		<g>
			<path class="st0" d="M80.1,98.8c1.7,3.6-2,8.9-8.2,11.8s-12.6,2.4-14.3-1.2s2-8.9,8.2-11.8C72,94.7,78.4,95.2,80.1,98.8z"/>
		</g>
		<g>
			<path class="st2" d="M74,101.7c0.8,1.6-0.9,4.1-3.7,5.4c-2.8,1.3-5.8,1.1-6.6-0.5c-0.8-1.6,0.9-4.1,3.7-5.4
				C70.3,99.8,73.2,100.1,74,101.7z"/>
		</g>
	</g>
</g>
</svg>
