<?xml version="1.0" encoding="utf-8"?>
<!-- Generator: Adobe Illustrator 22.0.0, SVG Export Plug-In . SVG Version: 6.00 Build 0)  -->
<svg version="1.1" id="Layer_1" xmlns="http://www.w3.org/2000/svg" xmlns:xlink="http://www.w3.org/1999/xlink" x="0px" y="0px"
	 viewBox="0 0 189.8 189.8" style="enable-background:new 0 0 189.8 189.8;" xml:space="preserve">
<style type="text/css">
	.st0{fill:#1E1E1E;}
	.st1{fill:#FFFFFF;}
	.st2{fill:#FCD227;}
</style>
<g>
	<g>
		<path class="st0" d="M139.5,61.7c-6.5-4.2-14.5-6.3-23.3-6.3c-7.6,0-15.3,0.8-22.9-0.6c-7.6-1.3-15.4-3.7-23.1-2
			c-22.3,5-25.3,30-22.6,49c2.7,19.5,11.6,48.9,33.4,54.4c1.9,0.5,3.8,0.8,5.7,0.8c12.1,0.5,22.2-6.6,31.6-13.3
			c21.4-15.3,43.7-31.2,35.5-61.7C151.3,72.9,146.3,66.1,139.5,61.7z"/>
		<path class="st1" d="M135.5,56.7c-6.5-4.2-14.5-6.3-23.3-6.3c-7.6,0-15.3,0.8-22.9-0.6c-7.6-1.3-15.4-3.7-23.1-2
			c-22.3,5-25.3,30-22.6,49c2.7,19.5,11.6,48.9,33.4,54.4c1.9,0.5,3.8,0.8,5.7,0.8c12.1,0.5,22.2-6.6,31.6-13.3
			c21.4-15.3,43.7-31.2,35.5-61.7C147.3,67.9,142.3,61.1,135.5,56.7z"/>
		<ellipse class="st2" cx="93.2" cy="95.2" rx="20" ry="20"/>
		<g>
			<path class="st1" d="M79,103c-1-1.6-1.7-3.4-2.1-5.2c-0.3-1.9-0.4-3.8-0.1-5.7c0.6-3.8,2.7-7.3,5.6-9.8c3-2.4,6.8-3.8,10.6-3.7
				c1.9,0,3.8,0.4,5.6,1.1c1.8,0.7,3.4,1.7,4.8,3c-3-2.2-6.7-3.4-10.3-3.3c-3.6,0.1-7.2,1.4-10,3.7c-2.8,2.3-4.7,5.6-5.5,9.1
				C76.9,95.8,77.4,99.6,79,103z"/>
		</g>
	</g>
	<g>
		<path class="st1" d="M94.6,190.1c-24.5,0-55,0-74.9-20c-20-20-20-50.5-20-74.9s0-55,20-74.9c20-20,50.5-20,74.9-20s55,0,74.9,20
			c20,20,20,50.5,20,74.9s0,55-20,74.9C149.6,190.1,119.1,190.1,94.6,190.1z M94.6,4.3c-23.8,0-53.3,0-72.1,18.8
			C3.7,41.8,3.7,71.4,3.7,95.2s0,53.3,18.8,72.1s48.4,18.8,72.1,18.8c23.8,0,53.3,0,72.1-18.8s18.8-48.4,18.8-72.1
			c0-23.8,0-53.3-18.8-72.1S118.4,4.3,94.6,4.3z"/>
	</g>
</g>
</svg>
