<?xml version="1.0" encoding="utf-8"?>
<!-- Generator: Adobe Illustrator 15.0.0, SVG Export Plug-In . SVG Version: 6.00 Build 0)  -->
<!DOCTYPE svg PUBLIC "-//W3C//DTD SVG 1.1//EN" "http://www.w3.org/Graphics/SVG/1.1/DTD/svg11.dtd">
<svg version="1.1" id="Layer_1" xmlns="http://www.w3.org/2000/svg" xmlns:xlink="http://www.w3.org/1999/xlink" x="0px" y="0px"
	 width="200px" height="200px" viewBox="0 0 200 200" enable-background="new 0 0 200 200" xml:space="preserve">
<g>
	<g>
		<path fill="#808080" d="M100,200.316c-25.817,0-57.956,0-78.925-21.075C0,158.166,0,126.027,0,100.316
			C0,74.605,0,42.36,21.075,21.391C42.149,0.316,74.289,0.316,100,0.316c25.816,0,57.955,0,78.926,21.075
			C200,42.466,200,74.605,200,100.316c0,25.711,0,57.956-21.074,78.925C157.955,200.316,125.816,200.316,100,200.316z M100,4.531
			c-25.079,0-56.165,0-75.975,19.81c-19.81,19.705-19.81,50.896-19.81,75.975c0,25.079,0,56.165,19.811,75.975
			c19.81,19.811,51.001,19.811,75.975,19.811c24.974,0,56.164,0,75.976-19.811c19.811-19.811,19.811-51.002,19.811-75.975
			c0-25.079,0-56.164-19.811-75.975C156.164,4.531,125.079,4.531,100,4.531z"/>
	</g>
	<ellipse fill="#1E1E1E" cx="104.242" cy="162.027" rx="51.93" ry="12.118"/>
	<g display="none">
		<path display="inline" fill="#FFFFFF" d="M98.419,74.078c0,0,6.323-18.651,13.909-19.705c0,0-6.743,1.792-10.854,20.759
			C100.738,75.448,98.419,74.078,98.419,74.078z"/>
		<path display="inline" fill="#FFFFFF" d="M102.529,73.551c0,0-16.544-10.749-23.077-6.85c0,0,6.428-2.74,21.391,9.589
			C101.58,75.975,102.529,73.551,102.529,73.551z"/>
		<path display="inline" fill="#FFFFFF" d="M102.951,73.235c0,0-7.271-12.855-14.437-11.591c0,0,6.428-0.422,11.697,13.277
			C100.843,74.921,102.951,73.235,102.951,73.235z"/>
		<path display="inline" fill="#FFFFFF" d="M100.738,73.235c0,0,9.799-10.959,16.543-8.324c0,0-6.217-1.792-14.227,10.537
			C102.424,75.237,100.738,73.235,100.738,73.235z"/>
		<path display="inline" fill="#F44336" d="M140.568,107.691c0,22.34-18.123,40.465-40.463,40.465
			c-22.339,0-40.464-18.125-40.464-40.465c0-21.074,12.224-34.667,32.771-36.458c1.265-0.105,6.428,1.792,7.798,1.792
			c2.106,0,6.006-1.792,8.008-1.476C127.502,74.183,140.568,87.46,140.568,107.691z"/>
		<g display="inline">
			<path fill="#FFFFFF" d="M66.386,93.783c1.475-4.215,3.793-8.114,6.744-11.485c2.951-3.372,6.744-6.112,11.17-7.482
				c2.213-0.632,4.531-0.843,6.744-0.737c1.159,0,2.213,0.21,3.372,0.421c1.054,0.211,2.213,0.316,3.267,0.527
				c2.213,0.316,4.32,0.316,6.533-0.316c1.054-0.211,2.214-0.422,3.372-0.422c1.159,0,2.213,0.211,3.372,0.422
				c-1.159-0.105-2.213-0.211-3.267-0.211c-1.055,0-2.213,0.316-3.268,0.632c-2.107,0.737-4.531,0.737-6.744,0.632l-1.686-0.211
				l-1.686-0.211c-1.054-0.105-2.212-0.316-3.267-0.316c-2.212-0.105-4.32,0.211-6.428,0.843c-4.215,1.159-7.903,3.793-10.854,6.955
				c-1.475,1.581-2.845,3.372-4.109,5.163C68.493,89.779,67.334,91.781,66.386,93.783z"/>
		</g>
	</g>
	<path fill="#C3D8E5" d="M142.631,69.196h-8.475c-3.014,0-5.396-2.688-5.184-5.848l0.576-8.524c0.084-1.238-0.85-2.291-2.031-2.291
		h-68.09c-1.181,0-2.114,1.053-2.031,2.291l5.44,80.473c0.327,5.04,0.164,10.103-0.486,15.108l-0.463,3.567
		c-0.498,3.835,2.339,7.249,6.022,7.249h50.829c3.617,0,6.434-3.298,6.043-7.074l-0.49-4.742c-0.287-1.472-0.398-3.572-0.43-5.505
		c-0.043-2.657,1.834-4.9,4.342-5.253c8.494-1.193,17.129-5.827,22.051-12.9c3.871-5.561,5.918-12.142,5.918-19.031V83.424
		C156.172,75.566,150.109,69.196,142.631,69.196z M148.865,106.716c0,5.35-1.619,10.455-4.68,14.742
		c-3.418,4.787-8.859,8.001-14.559,9.243c-2.656,0.578-5.107-1.658-4.936-4.502l2.678-44.249c0.541-2.861,2.805-5.076,5.531-5.076
		h9.73c3.443,0,6.234,2.932,6.234,6.55V106.716L148.865,106.716z"/>
	<path fill="#E6E6E6" d="M127.52,52.533H59.428c-1.181,0-2.114,1.053-2.031,2.291l1.784,26.389h68.374l1.994-26.389
		C129.633,53.586,128.699,52.533,127.52,52.533z"/>
	<path fill="#FFD57F" d="M124.689,126.74c-0.01-0.177-0.01-0.358,0.002-0.541l2.678-44.249c0.049-0.252,0.113-0.496,0.188-0.737
		H59.181l3.11,46.013l0.545,8.071c0.036,0.553,0.064,1.106,0.087,1.66c0.006,0.127,0.012,0.254,0.017,0.381
		c0.018,0.485,0.032,0.971,0.041,1.455c0.004,0.224,0.007,0.447,0.01,0.67c0.003,0.298,0.004,0.597,0.004,0.895
		c0,0.445-0.004,0.891-0.012,1.335c-0.002,0.13-0.005,0.261-0.008,0.39c-0.015,0.671-0.038,1.343-0.07,2.014
		c0,0.001,0,0.001,0,0.003c1.314,3.192,4.337,5.478,7.927,5.478h45.065c3.623,0,6.674-2.333,7.967-5.59
		c-0.002-0.028-0.002-0.058-0.002-0.086c-0.004-0.261,0.016-0.515,0.047-0.766c-0.053-2.271-0.014-4.542,0.135-6.809L124.689,126.74
		z"/>
	<path fill="#E1EFFB" d="M124.291,149.405c-0.189-1.849-0.311-3.703-0.369-5.559c-1.258,3.33-4.35,5.729-8.025,5.729H70.832
		c-3.589,0-6.613-2.285-7.927-5.478c-0.102,2.107-0.283,4.212-0.555,6.307l-0.463,3.567c-0.498,3.834,2.339,7.249,6.022,7.249
		h50.829c3.617,0,6.434-3.298,6.043-7.074L124.291,149.405z"/>
	<path fill="#DBDDDD" d="M127.52,52.533h-13.418c1.182,0,2.113,1.053,2.029,2.291l-1.781,26.389h13.205l1.994-26.389
		C129.633,53.586,128.699,52.533,127.52,52.533z"/>
	<path fill="#FAF9F3" d="M121.545,39.761c-0.363-4.698-4.104-8.393-8.668-8.393c-2.492,0-4.738,1.103-6.324,2.869
		c-4.039-2.753-9.271-4.416-14.989-4.416c-10.842,0-19.942,5.975-22.46,14.042c-1.765-1.103-3.826-1.739-6.029-1.739
		c-6.523,0-11.812,5.557-11.812,12.41s5.288,12.41,11.812,12.41c0.644,0,2.131,0,4.227,0V85.14c0,3.411,2.631,6.176,5.877,6.176l0,0
		c3.246,0,5.877-2.765,5.877-6.176v-2.878V78.15v-0.959c0-3.411,2.632-6.176,5.878-6.176l0,0c3.246,0,5.877,2.765,5.877,6.176v0.959
		v4.111v10.785c0,3.411,2.632,6.176,5.878,6.176l0,0c3.246,0,5.877-2.765,5.877-6.176V66.945c8.85,0,16.154,0,17.92,0
		c7.811,0,14.143-6.095,14.143-13.613C134.629,46.157,128.861,40.283,121.545,39.761z"/>
	<path fill="#EAE9E4" d="M121.545,39.761c-0.363-4.698-4.104-8.393-8.668-8.393c-2.492,0-4.738,1.103-6.324,2.869
		c-0.01-0.007-0.021-0.013-0.031-0.02c0.049,0.12,0.096,0.24,0.141,0.363c1.025,2.844,3.033,5.19,5.705,6.361
		c4.887,2.143,8.287,6.883,8.287,12.391c0,7.519-6.332,13.613-14.143,13.613c7.014,0,12.48,0,13.975,0
		c7.813,0,14.143-6.095,14.143-13.613C134.629,46.157,128.861,40.283,121.545,39.761z"/>
	<path fill="#C3D8E5" d="M124.781,154.147l-0.49-4.742c-0.051-0.492-0.096-0.984-0.137-1.477c-0.023-0.294-0.045-0.589-0.066-0.884
		c-0.012-0.175-0.025-0.349-0.037-0.522c-0.025-0.392-0.047-0.783-0.066-1.175c-0.004-0.06-0.008-0.12-0.01-0.18
		c-0.021-0.44-0.039-0.881-0.053-1.321c-1.258,3.331-4.35,5.729-8.025,5.729h-5.006l1.201,11.646h6.646
		C122.355,161.222,125.172,157.924,124.781,154.147z"/>
	<path fill="#F7C169" d="M124.689,126.74c-0.01-0.177-0.01-0.358,0.002-0.541l2.678-44.249c0.049-0.252,0.113-0.496,0.188-0.737
		h-13.209l-3.725,55.113c-0.283,4.358-0.199,8.735,0.25,13.079l0.018,0.17h5.006c3.623,0,6.676-2.333,7.967-5.589
		c0-0.029-0.002-0.059-0.002-0.087c-0.004-0.26,0.016-0.515,0.047-0.765c-0.053-2.271-0.014-4.542,0.135-6.809L124.689,126.74z"/>
</g>
</svg>
