<?xml version="1.0" encoding="utf-8"?>
<!-- Generator: Adobe Illustrator 15.0.0, SVG Export Plug-In . SVG Version: 6.00 Build 0)  -->
<!DOCTYPE svg PUBLIC "-//W3C//DTD SVG 1.1//EN" "http://www.w3.org/Graphics/SVG/1.1/DTD/svg11.dtd">
<svg version="1.1" id="Layer_1" xmlns="http://www.w3.org/2000/svg" xmlns:xlink="http://www.w3.org/1999/xlink" x="0px" y="0px"
	 width="200px" height="200px" viewBox="0 0 200 200" enable-background="new 0 0 200 200" xml:space="preserve">
<g>
	<g>
		<path fill="#808080" d="M100,200.316c-25.817,0-57.956,0-78.925-21.075C0,158.166,0,126.027,0,100.316
			C0,74.605,0,42.36,21.075,21.391C42.149,0.316,74.289,0.316,100,0.316c25.816,0,57.955,0,78.926,21.075
			C200,42.466,200,74.605,200,100.316c0,25.711,0,57.956-21.074,78.925C157.955,200.316,125.816,200.316,100,200.316z M100,4.531
			c-25.079,0-56.165,0-75.975,19.81c-19.81,19.705-19.81,50.896-19.81,75.975c0,25.079,0,56.165,19.811,75.975
			c19.81,19.811,51.001,19.811,75.975,19.811c24.974,0,56.164,0,75.976-19.811c19.811-19.811,19.811-51.002,19.811-75.975
			c0-25.079,0-56.164-19.811-75.975C156.164,4.531,125.079,4.531,100,4.531z"/>
	</g>
	<ellipse fill="#1E1E1E" cx="89.775" cy="158.027" rx="40.463" ry="12.118"/>
	<g display="none">
		<path display="inline" fill="#FFFFFF" d="M98.419,74.078c0,0,6.323-18.651,13.909-19.705c0,0-6.743,1.792-10.854,20.759
			C100.738,75.448,98.419,74.078,98.419,74.078z"/>
		<path display="inline" fill="#FFFFFF" d="M102.529,73.551c0,0-16.544-10.749-23.077-6.85c0,0,6.428-2.74,21.391,9.589
			C101.58,75.975,102.529,73.551,102.529,73.551z"/>
		<path display="inline" fill="#FFFFFF" d="M102.951,73.235c0,0-7.271-12.855-14.437-11.591c0,0,6.428-0.422,11.697,13.277
			C100.843,74.921,102.951,73.235,102.951,73.235z"/>
		<path display="inline" fill="#FFFFFF" d="M100.738,73.235c0,0,9.799-10.959,16.543-8.324c0,0-6.217-1.792-14.227,10.537
			C102.424,75.237,100.738,73.235,100.738,73.235z"/>
		<path display="inline" fill="#F44336" d="M140.568,107.691c0,22.34-18.123,40.465-40.463,40.465
			c-22.339,0-40.464-18.125-40.464-40.465c0-21.074,12.224-34.667,32.771-36.458c1.265-0.105,6.428,1.792,7.798,1.792
			c2.106,0,6.006-1.792,8.008-1.476C127.502,74.183,140.568,87.46,140.568,107.691z"/>
		<g display="inline">
			<path fill="#FFFFFF" d="M66.386,93.783c1.475-4.215,3.793-8.114,6.744-11.485c2.951-3.372,6.744-6.112,11.17-7.482
				c2.213-0.632,4.531-0.843,6.744-0.737c1.159,0,2.213,0.21,3.372,0.421c1.054,0.211,2.213,0.316,3.267,0.527
				c2.213,0.316,4.32,0.316,6.533-0.316c1.054-0.211,2.214-0.422,3.372-0.422c1.159,0,2.213,0.211,3.372,0.422
				c-1.159-0.105-2.213-0.211-3.267-0.211c-1.055,0-2.213,0.316-3.268,0.632c-2.107,0.737-4.531,0.737-6.744,0.632l-1.686-0.211
				l-1.686-0.211c-1.054-0.105-2.212-0.316-3.267-0.316c-2.212-0.105-4.32,0.211-6.428,0.843c-4.215,1.159-7.903,3.793-10.854,6.955
				c-1.475,1.581-2.845,3.372-4.109,5.163C68.493,89.779,67.334,91.781,66.386,93.783z"/>
		</g>
	</g>
</g>
<g>
	<path fill="#583E68" d="M141.356,83.137c0.008,0.006,0.017,0.015,0.023,0.02l-0.044-0.029
		C141.346,83.129,141.351,83.133,141.356,83.137c-2.044-1.475-2.872-3.874-1.843-5.368c-1.033,1.5-3.544,1.522-5.606,0.049
		c-2.063-1.475-2.897-3.888-1.864-5.388c-1.033,1.5-3.546,1.521-5.608,0.048c-2.062-1.475-2.896-3.888-1.865-5.388
		c-0.952,1.387-3.16,1.495-5.12,0.347c-2.921,2.165-6.164,5.102-9.721,9.094c0,0-15.391,14.65-37.103,18.682
		c-2.008,0.374-4,0.87-5.872,1.697c-0.84,0.372-2.706,1.365-2.706,1.365c-12.778,7.198-19.599,22.562-15.589,37.554
		c3.598,13.462,14.868,22.678,27.7,24.127c5.89,0.664,11.814-0.643,17.176-3.209c11.937-5.711,36.281-22.196,46.348-64.356
		c0,0,1.52-3.821,2.604-8.773C141.968,83.498,141.655,83.347,141.356,83.137z"/>
	<path fill="#6A3311" d="M140.81,61.169c-1.053,0-1.908-0.869-1.908-1.943s0.855-1.944,1.908-1.944c3.669,0,6.69-1.141,7.889-2.976
		c0.861-1.319,0.834-3.112-0.079-5.328c-0.406-0.989,0.051-2.129,1.023-2.544c0.976-0.419,2.089,0.05,2.498,1.04
		c1.79,4.348,0.846,7.285-0.264,8.983C149.951,59.408,145.815,61.169,140.81,61.169z"/>
	<path fill="#659C35" d="M118.924,67.107c-1.896-1.356-2.402-3.953-1.131-5.8c1.272-1.849,3.843-2.248,5.739-0.89
		c4.072-5.914,11.406-5.39,17.479-1.049c6.072,4.34,8.815,11.019,4.744,16.931c1.896,1.357,2.403,3.954,1.131,5.8
		c-1.272,1.846-3.65,2.383-5.546,1.028l0.041,0.029c-2.063-1.475-2.898-3.888-1.865-5.388c-1.033,1.5-3.544,1.522-5.607,0.049
		c-2.063-1.475-2.897-3.888-1.863-5.388c-1.034,1.5-3.545,1.521-5.609,0.048c-2.062-1.475-2.897-3.888-1.862-5.388
		c-1.035,1.5-3.545,1.522-5.609,0.049"/>
	<path fill="#6F58A8" d="M62.094,144.08c-0.643,0-1.272-0.333-1.631-0.933c-4.547-7.604-5.068-17.721-1.356-26.41
		c0.419-0.985,1.545-1.439,2.511-1.008c0.966,0.428,1.408,1.574,0.989,2.555c-3.223,7.548-2.794,16.3,1.117,22.839
		c0.547,0.918,0.264,2.113-0.636,2.671C62.774,143.989,62.432,144.08,62.094,144.08z"/>
	<path fill="#6F58A8" d="M64.658,113.239c-0.44,0-0.883-0.155-1.244-0.472c-0.798-0.701-0.888-1.927-0.198-2.74
		c2.341-2.768,5.286-4.935,8.514-6.274c0.975-0.402,2.09,0.077,2.487,1.071c0.396,0.993-0.073,2.128-1.05,2.533
		c-2.671,1.104-5.114,2.906-7.06,5.207C65.727,113.01,65.192,113.239,64.658,113.239z"/>
</g>
</svg>
