<?xml version="1.0" encoding="utf-8"?>
<!-- Generator: Adobe Illustrator 15.0.0, SVG Export Plug-In . SVG Version: 6.00 Build 0)  -->
<!DOCTYPE svg PUBLIC "-//W3C//DTD SVG 1.1//EN" "http://www.w3.org/Graphics/SVG/1.1/DTD/svg11.dtd">
<svg version="1.1" id="Layer_1" xmlns="http://www.w3.org/2000/svg" xmlns:xlink="http://www.w3.org/1999/xlink" x="0px" y="0px"
	 width="200px" height="200px" viewBox="0 0 200 200" enable-background="new 0 0 200 200" xml:space="preserve">
<g>
	<g>
		<path fill="#808080" d="M100,200.316c-25.817,0-57.956,0-78.925-21.075C0,158.166,0,126.027,0,100.316
			C0,74.605,0,42.36,21.075,21.391C42.149,0.316,74.289,0.316,100,0.316c25.816,0,57.955,0,78.926,21.075
			C200,42.466,200,74.605,200,100.316c0,25.711,0,57.956-21.074,78.925C157.955,200.316,125.816,200.316,100,200.316z M100,4.531
			c-25.079,0-56.165,0-75.975,19.81c-19.81,19.705-19.81,50.896-19.81,75.975c0,25.079,0,56.165,19.811,75.975
			c19.81,19.811,51.001,19.811,75.975,19.811c24.974,0,56.164,0,75.976-19.811c19.811-19.811,19.811-51.002,19.811-75.975
			c0-25.079,0-56.164-19.811-75.975C156.164,4.531,125.079,4.531,100,4.531z"/>
	</g>
	<ellipse fill="#1E1E1E" cx="99.394" cy="158.027" rx="60.106" ry="12.118"/>
	<g display="none">
		<path display="inline" fill="#FFFFFF" d="M98.419,74.078c0,0,6.323-18.651,13.909-19.705c0,0-6.743,1.792-10.854,20.759
			C100.738,75.448,98.419,74.078,98.419,74.078z"/>
		<path display="inline" fill="#FFFFFF" d="M102.529,73.551c0,0-16.544-10.749-23.077-6.85c0,0,6.428-2.74,21.391,9.589
			C101.58,75.975,102.529,73.551,102.529,73.551z"/>
		<path display="inline" fill="#FFFFFF" d="M102.951,73.235c0,0-7.271-12.855-14.437-11.591c0,0,6.428-0.422,11.697,13.277
			C100.843,74.921,102.951,73.235,102.951,73.235z"/>
		<path display="inline" fill="#FFFFFF" d="M100.738,73.235c0,0,9.799-10.959,16.543-8.324c0,0-6.217-1.792-14.227,10.537
			C102.424,75.237,100.738,73.235,100.738,73.235z"/>
		<path display="inline" fill="#F44336" d="M140.568,107.691c0,22.34-18.123,40.465-40.463,40.465
			c-22.339,0-40.464-18.125-40.464-40.465c0-21.074,12.224-34.667,32.771-36.458c1.265-0.105,6.428,1.792,7.798,1.792
			c2.106,0,6.006-1.792,8.008-1.476C127.502,74.183,140.568,87.46,140.568,107.691z"/>
		<g display="inline">
			<path fill="#FFFFFF" d="M66.386,93.783c1.475-4.215,3.793-8.114,6.744-11.485c2.951-3.372,6.744-6.112,11.17-7.482
				c2.213-0.632,4.531-0.843,6.744-0.737c1.159,0,2.213,0.21,3.372,0.421c1.054,0.211,2.213,0.316,3.267,0.527
				c2.213,0.316,4.32,0.316,6.533-0.316c1.054-0.211,2.214-0.422,3.372-0.422c1.159,0,2.213,0.211,3.372,0.422
				c-1.159-0.105-2.213-0.211-3.267-0.211c-1.055,0-2.213,0.316-3.268,0.632c-2.107,0.737-4.531,0.737-6.744,0.632l-1.686-0.211
				l-1.686-0.211c-1.054-0.105-2.212-0.316-3.267-0.316c-2.212-0.105-4.32,0.211-6.428,0.843c-4.215,1.159-7.903,3.793-10.854,6.955
				c-1.475,1.581-2.845,3.372-4.109,5.163C68.493,89.779,67.334,91.781,66.386,93.783z"/>
		</g>
	</g>
</g>
<path fill="#00B04B" d="M109.285,66.771c-3.305,0.859-6.669-0.574-8.223-3.213c-3.485-5.983-13.066-7.399-18.345-2.582
	c-2.579,2.296-6.322,2.332-8.842,0.712c-5.905-3.694-14.858-1.393-17.589,5.187c-1.206,2.919-4.429,4.535-7.703,3.965
	c-3.326-0.624-7.341,1.009-9.297,3.083l40.403,37.665c2.588,0.2,5.22,0.354,7.885,0.461l36.367-34.469
	C124.317,70.714,116.525,64.857,109.285,66.771z"/>
<path fill="#FF5368" d="M102.782,76.479c7.726,7.202,19.927,7.688,28.254,1.456c0.98-0.733,1.048-2.104,0.159-2.932l-26.83-25.012
	c-0.888-0.828-2.358-0.766-3.145,0.147C94.537,57.902,95.058,69.277,102.782,76.479z"/>
<path fill="#C5324F" d="M104.39,74.981c-7.384-6.884-7.384-18.084,0-24.968c-1.855-1.729-4.946-1.413-6.364,0.644
	c-5.846,8.473-4.796,19.912,3.15,27.319c7.945,7.408,20.216,8.387,29.305,2.938c2.206-1.323,2.546-4.204,0.691-5.934
	C123.787,81.864,111.773,81.864,104.39,74.981z"/>
<path fill="#FF7C8B" d="M113.496,66.492c2.366,2.207,6.203,2.207,8.569,0l-8.569-7.99C111.128,60.708,111.128,64.285,113.496,66.492
	z"/>
<g>
	<path fill="#FFCF5D" d="M103.494,60.909c-0.146,1.146-0.133,2.307,0.037,3.45c0.173,1.158,1.321,1.967,2.564,1.806
		c0.509-0.066,0.955-0.284,1.293-0.599c0.485-0.453,0.747-1.106,0.644-1.791c-0.116-0.785-0.126-1.581-0.025-2.368
		c0.147-1.162-0.743-2.215-1.99-2.353C104.771,58.917,103.641,59.748,103.494,60.909z"/>
	<path fill="#FFCF5D" d="M111.768,69.769c-0.332-0.239-0.651-0.501-0.95-0.78c-0.301-0.281-0.585-0.582-0.844-0.894
		c-0.767-0.927-2.192-1.099-3.187-0.385c-0.994,0.713-1.179,2.044-0.413,2.971c0.378,0.456,0.791,0.895,1.229,1.304
		c0.435,0.406,0.901,0.788,1.387,1.138c0.914,0.658,2.197,0.565,2.994-0.177c0.067-0.063,0.132-0.132,0.193-0.205
		C112.944,71.814,112.761,70.483,111.768,69.769z"/>
</g>
<path fill="#4FE267" d="M78.494,106.388c-1.913-1.229-2.647-3.516-1.699-5.518c2.131-4.517-1.063-9.787-5.922-10.684
	c-2.096-0.361-3.92-2.105-3.978-4.433c-0.054-4.82-5.521-8.54-10.398-7.188c-2.159,0.589-4.573-0.253-5.747-2.203
	c-2.554-4.289-9.485-4.985-12.927-1.414c-1.637,1.742-4.167,1.937-6.59,1.44c-4.92-1.043-9.877,3.103-7.79,7.532
	c0.601,1.307,1.722,2.359,2.968,3.02c2.201,1.176,4.027,2.839,3.727,5.21c-0.314,2.538,0.597,5.161,2.54,7.057
	c1.713,1.617,3.105,2.013,4.189,2.432c-0.749-0.402-1.417-0.792-2.001-1.163c0.584,0.371,1.252,0.761,2.001,1.163
	c0.437,0.169,0.823,0.342,1.16,0.599c2.523,1.25,5.871,2.6,10.276,3.924c9.464,2.845,21.095,4.759,33.681,5.592
	C81.634,109.552,80.336,107.536,78.494,106.388z"/>
<path fill="#FF5368" d="M78.799,71.932c-11.714,0-21.21,8.853-21.21,19.773c0,3.867,1.195,7.473,3.255,10.521
	c9.966,1.925,21.346,3.028,33.223,3.198c3.677-3.556,5.943-8.39,5.943-13.719C100.01,80.785,90.513,71.932,78.799,71.932z"/>
<g>
	<path fill="#FF7C8B" d="M81.071,103.004V80.406c0-1.17-1.018-2.119-2.272-2.119s-2.272,0.948-2.272,2.119v22.598
		c0,0.6,0.268,1.14,0.696,1.524c0.936,0.088,1.877,0.169,2.825,0.244C80.664,104.394,81.071,103.743,81.071,103.004z"/>
	<ellipse fill="#FF7C8B" cx="78.799" cy="91.704" rx="6.06" ry="5.649"/>
</g>
<path fill="#C5324F" d="M78.799,69.813c-12.949,0-23.483,9.821-23.483,21.892c0,3.567,0.926,6.935,2.556,9.913
	c2.013,0.435,4.089,0.835,6.224,1.198c-2.646-3.037-4.235-6.904-4.235-11.111c0-9.734,8.496-17.655,18.938-17.655
	c10.442,0,18.938,7.92,18.938,17.655c0,5.493-2.706,10.407-6.939,13.647c2.072,0.061,4.161,0.092,6.265,0.094
	c3.261-3.76,5.22-8.54,5.22-13.741C102.282,79.634,91.747,69.813,78.799,69.813z"/>
<g>
	<path fill="#FFCF5D" d="M69.9,81.165c-0.972,0.714-1.844,1.543-2.59,2.464c-0.756,0.934-0.558,2.263,0.443,2.968
		c0.41,0.288,0.891,0.429,1.368,0.429c0.688,0,1.368-0.291,1.815-0.842c0.512-0.632,1.11-1.201,1.778-1.691
		c0.985-0.725,1.155-2.057,0.377-2.976S70.886,80.44,69.9,81.165z"/>
	<path fill="#FFCF5D" d="M72.706,98.912c-0.667-0.491-1.264-1.061-1.776-1.693c-0.755-0.935-2.18-1.121-3.182-0.416
		c-1.002,0.704-1.202,2.032-0.447,2.967c0.745,0.922,1.616,1.752,2.587,2.467c0.417,0.308,0.914,0.457,1.407,0.457
		c0.671,0,1.336-0.276,1.785-0.806C73.858,100.97,73.691,99.638,72.706,98.912z"/>
	<path fill="#FFCF5D" d="M69.032,92.884c-0.054-0.388-0.081-0.784-0.081-1.179c0-0.397,0.028-0.797,0.083-1.188
		c0.161-1.16-0.717-2.223-1.962-2.373c-1.244-0.151-2.385,0.669-2.545,1.829c-0.08,0.571-0.12,1.153-0.12,1.732
		c0,0.573,0.04,1.152,0.118,1.718c0.147,1.069,1.125,1.85,2.251,1.85c0.097,0,0.194-0.006,0.292-0.018
		C68.312,95.105,69.191,94.044,69.032,92.884z"/>
	<path fill="#FFCF5D" d="M84.892,84.498c0.666,0.491,1.264,1.061,1.775,1.693c0.446,0.553,1.127,0.843,1.816,0.843
		c0.477,0,0.956-0.139,1.366-0.427c1.002-0.704,1.202-2.033,0.446-2.967c-0.745-0.922-1.616-1.752-2.587-2.468
		c-0.985-0.725-2.414-0.569-3.192,0.35C83.738,82.44,83.906,83.772,84.892,84.498z"/>
	<path fill="#FFCF5D" d="M89.844,96.813c-1.002-0.705-2.427-0.521-3.184,0.413c-0.512,0.632-1.11,1.201-1.777,1.691
		c-0.985,0.724-1.154,2.057-0.378,2.976c0.448,0.53,1.114,0.807,1.786,0.807c0.493,0,0.988-0.148,1.406-0.455
		c0.972-0.715,1.843-1.544,2.59-2.465C91.043,98.848,90.845,97.519,89.844,96.813z"/>
	<path fill="#FFCF5D" d="M93.073,89.986c-0.159-1.16-1.299-1.98-2.543-1.831c-1.244,0.148-2.124,1.211-1.965,2.371
		c0.054,0.388,0.081,0.784,0.081,1.179c0,0.396-0.027,0.796-0.082,1.188c-0.161,1.16,0.717,2.223,1.962,2.373
		c0.099,0.012,0.197,0.018,0.294,0.018c1.125,0,2.103-0.778,2.252-1.847c0.079-0.57,0.119-1.153,0.119-1.731
		C93.191,91.131,93.151,90.553,93.073,89.986z"/>
</g>
<path fill="#4FE267" d="M161.66,66.69c-3.479,0.71-7.114,0.431-9.464-2.057c-4.943-5.102-14.895-4.107-18.563,2.02
	c-1.686,2.786-5.151,3.99-8.252,3.148c-7.003-1.933-14.852,3.381-14.93,10.268c-0.081,3.323-2.7,5.816-5.711,6.332
	c-6.978,1.28-11.563,8.81-8.504,15.262c1.361,2.86,0.309,6.127-2.438,7.883c-1.082,0.67-2.031,1.549-2.812,2.567
	c2.349,0.074,4.722,0.113,7.111,0.113c18.049,0,35.154-2.153,48.163-6.064c1.743-0.523,4.888-1.65,6.313-2.175
	c1.62-2.455,2.879-0.819,7.011-4.698c2.789-2.708,4.098-6.456,3.646-10.081c-0.431-3.388,2.19-5.763,5.352-7.442
	c1.788-0.943,3.398-2.448,4.261-4.315C175.842,71.124,168.724,65.201,161.66,66.69z"/>
<path fill="#C5324F" d="M145.699,101.729c-0.714-7.707-7.667-13.776-16.114-13.776c-8.921,0-16.179,6.766-16.179,15.082
	c0,2.006,0.425,3.92,1.192,5.673c9.157-1.021,17.599-2.644,24.787-4.806C141.793,103.179,143.884,102.447,145.699,101.729z"/>
<path fill="#FF5368" d="M136.674,94.56c0-0.02,0-0.039,0-0.059c-0.015-3.593-3.173-6.535-7.025-6.549c-0.021,0-0.043,0-0.063,0
	c-8.921,0-16.179,6.766-16.179,15.082c0,0.02,0,0.039,0,0.059c0.01,2.23,1.23,4.211,3.076,5.394
	c5.086-0.619,9.933-1.429,14.447-2.414C134.439,103.304,136.674,99.172,136.674,94.56z"/>
<g>
	<path fill="#FF7E40" d="M77.587,54.18c-1.768-1.647-4.661-1.647-6.428,0c-1.768,1.648-1.768,4.345,0,5.993l6.428,5.992
		c1.768,1.647,4.66,1.647,6.428,0s1.768-4.344,0-5.992L77.587,54.18z"/>
	<path fill="#FF7E40" d="M148.793,75.708h-9.09c-2.5,0-4.545,1.907-4.545,4.237s2.045,4.237,4.545,4.237h9.09
		c2.5,0,4.546-1.906,4.546-4.237S151.293,75.708,148.793,75.708z"/>
	<path fill="#FF7E40" d="M47.892,84.97l-6.428,5.992c-1.768,1.647-1.768,4.345,0,5.992s4.66,1.647,6.428,0l6.428-5.992
		c1.768-1.647,1.768-4.344,0-5.992C52.552,83.322,49.66,83.322,47.892,84.97z"/>
</g>
<path fill="#B6B0A2" d="M161.067,101.511H97.286l-41.819,42.602h0.007c0,0.177,0.003,0.354,0.01,0.529
	c0.287,7.5,6.99,13.364,14.938,13.364h26.865h26.864c7.949,0,14.652-5.863,14.939-13.364c0.006-0.176,0.01-0.353,0.01-0.529h0.006
	c15.363-7.363,26.544-18.669,30.545-31.828C171.291,106.89,167.011,101.511,161.067,101.511z"/>
<path fill="#E9E3D5" d="M114.965,131.316L114.965,131.316c9.879-12.2,0.667-29.806-15.597-29.806H33.505
	c-5.921,0-10.225,5.349-8.598,10.726c3.989,13.181,15.183,24.504,30.567,31.876h31.964c10.703,0,20.852-4.63,27.392-12.631
	C114.875,131.427,114.92,131.372,114.965,131.316z"/>
</svg>
