<?xml version="1.0" encoding="utf-8"?>
<!-- Generator: Adobe Illustrator 15.0.0, SVG Export Plug-In . SVG Version: 6.00 Build 0)  -->
<!DOCTYPE svg PUBLIC "-//W3C//DTD SVG 1.1//EN" "http://www.w3.org/Graphics/SVG/1.1/DTD/svg11.dtd">
<svg version="1.1" id="Layer_1" xmlns="http://www.w3.org/2000/svg" xmlns:xlink="http://www.w3.org/1999/xlink" x="0px" y="0px"
	 width="200px" height="200px" viewBox="0 0 200 200" enable-background="new 0 0 200 200" xml:space="preserve">
<g>
	<g>
		<path fill="#808080" d="M100,200.316c-25.817,0-57.956,0-78.925-21.075C0,158.166,0,126.027,0,100.316
			C0,74.605,0,42.36,21.075,21.391C42.149,0.316,74.289,0.316,100,0.316c25.816,0,57.955,0,78.926,21.075
			C200,42.466,200,74.605,200,100.316c0,25.711,0,57.956-21.074,78.925C157.955,200.316,125.816,200.316,100,200.316z M100,4.531
			c-25.079,0-56.165,0-75.975,19.81c-19.81,19.705-19.81,50.896-19.81,75.975c0,25.079,0,56.165,19.811,75.975
			c19.81,19.811,51.001,19.811,75.975,19.811c24.974,0,56.164,0,75.976-19.811c19.811-19.811,19.811-51.002,19.811-75.975
			c0-25.079,0-56.164-19.811-75.975C156.164,4.531,125.079,4.531,100,4.531z"/>
	</g>
	<ellipse fill="#1E1E1E" cx="98.01" cy="152.027" rx="48.699" ry="12.118"/>
	<g display="none">
		<path display="inline" fill="#FFFFFF" d="M98.419,74.078c0,0,6.323-18.651,13.909-19.705c0,0-6.743,1.792-10.854,20.759
			C100.738,75.448,98.419,74.078,98.419,74.078z"/>
		<path display="inline" fill="#FFFFFF" d="M102.529,73.551c0,0-16.544-10.749-23.077-6.85c0,0,6.428-2.74,21.391,9.589
			C101.58,75.975,102.529,73.551,102.529,73.551z"/>
		<path display="inline" fill="#FFFFFF" d="M102.951,73.235c0,0-7.271-12.855-14.437-11.591c0,0,6.428-0.422,11.697,13.277
			C100.843,74.921,102.951,73.235,102.951,73.235z"/>
		<path display="inline" fill="#FFFFFF" d="M100.738,73.235c0,0,9.799-10.959,16.543-8.324c0,0-6.217-1.792-14.227,10.537
			C102.424,75.237,100.738,73.235,100.738,73.235z"/>
		<path display="inline" fill="#F44336" d="M140.568,107.691c0,22.34-18.123,40.465-40.463,40.465
			c-22.339,0-40.464-18.125-40.464-40.465c0-21.074,12.224-34.667,32.771-36.458c1.265-0.105,6.428,1.792,7.798,1.792
			c2.106,0,6.006-1.792,8.008-1.476C127.502,74.183,140.568,87.46,140.568,107.691z"/>
		<g display="inline">
			<path fill="#FFFFFF" d="M66.386,93.783c1.475-4.215,3.793-8.114,6.744-11.485c2.951-3.372,6.744-6.112,11.17-7.482
				c2.213-0.632,4.531-0.843,6.744-0.737c1.159,0,2.213,0.21,3.372,0.421c1.054,0.211,2.213,0.316,3.267,0.527
				c2.213,0.316,4.32,0.316,6.533-0.316c1.054-0.211,2.214-0.422,3.372-0.422c1.159,0,2.213,0.211,3.372,0.422
				c-1.159-0.105-2.213-0.211-3.267-0.211c-1.055,0-2.213,0.316-3.268,0.632c-2.107,0.737-4.531,0.737-6.744,0.632l-1.686-0.211
				l-1.686-0.211c-1.054-0.105-2.212-0.316-3.267-0.316c-2.212-0.105-4.32,0.211-6.428,0.843c-4.215,1.159-7.903,3.793-10.854,6.955
				c-1.475,1.581-2.845,3.372-4.109,5.163C68.493,89.779,67.334,91.781,66.386,93.783z"/>
		</g>
	</g>
</g>
<path fill="#23B75F" d="M138.088,81.777c-5.784,0.896-7.26,8.547-11.48,10.457c-8.641,3.912-17.271,2.685-17.271,2.685
	s-0.108-7.776,4.217-17.058c1.647-3.532,9.02-5.304,9.823-9.853c5.693-2.35,11.992-3.655,18.617-3.655
	C141.994,70.554,140.599,76.449,138.088,81.777z"/>
<g>
	<path fill="#A3E261" d="M158.193,82.376c0,0-16.1,29.933-48.856,12.543c0,0,11.123-10.411,28.751-13.142
		C144.096,80.844,150.857,80.806,158.193,82.376z"/>
	<path fill="#A3E261" d="M123.377,68.008c-2.917,16.5-14.041,26.911-14.041,26.911c-18.471-30.476,13.016-45.544,13.398-45.724
		l0.003-0.002C124.416,56.059,124.375,62.388,123.377,68.008z"/>
</g>
<path fill="#93CC52" d="M109.336,94.92c-18.471-30.477,13.016-45.545,13.398-45.724C122.497,49.572,105.676,76.378,109.336,94.92z"
	/>
<path fill="#F94848" d="M111.896,92.523c0,0,18.523,9.721,12.614,34.37c-5.71,23.819-64.577,28.692-72.286,21.478
	s-2.502-62.311,22.948-67.654C101.51,75.187,111.896,92.523,111.896,92.523z"/>
<g>
	<path fill="#E23D3D" d="M75.172,80.718c-25.253,5.302-30.574,59.592-23.123,67.477c0.057,0.062,0.116,0.12,0.176,0.177
		c2.769,2.591,12.135,3.623,23.268,2.778c-4.557-0.441-7.958-1.385-9.447-2.778c-3.901-3.651-4.494-19.563-0.831-35.083
		c6.016-9.453,13.532-18.073,21.498-21.77c13.172-6.113,19.65-4.377,22.696-2.107C104.953,84.698,94.248,76.712,75.172,80.718z"/>
	<ellipse fill="#E23D3D" cx="101.206" cy="113.494" rx="4.769" ry="4.464"/>
	<ellipse fill="#E23D3D" cx="94.164" cy="130.446" rx="4.77" ry="4.463"/>
	<ellipse fill="#E23D3D" cx="64.906" cy="126.495" rx="4.769" ry="4.463"/>
	<ellipse fill="#E23D3D" cx="82.567" cy="120.387" rx="4.769" ry="4.464"/>
	<ellipse fill="#E23D3D" cx="113.664" cy="123.621" rx="4.769" ry="4.463"/>
	<ellipse fill="#E23D3D" cx="71.817" cy="109.247" rx="4.769" ry="4.464"/>
	<ellipse fill="#E23D3D" cx="90.123" cy="101.725" rx="4.77" ry="4.463"/>
	<ellipse fill="#E23D3D" cx="76.424" cy="137.272" rx="4.769" ry="4.464"/>
</g>
<g>
	<path fill="#FFD41D" d="M77.774,93.359c-0.491,0-0.982-0.175-1.357-0.525c-0.75-0.702-0.75-1.84,0-2.541l3.037-2.843
		c0.75-0.701,1.965-0.701,2.715,0c0.75,0.702,0.75,1.84,0,2.541l-3.037,2.843C78.756,93.185,78.265,93.359,77.774,93.359z"/>
	<path fill="#FFD41D" d="M89.49,104.325c-0.492,0-0.982-0.175-1.357-0.526c-0.75-0.701-0.75-1.839,0-2.54l3.037-2.843
		c0.749-0.702,1.965-0.702,2.715,0c0.75,0.701,0.75,1.839,0,2.541l-3.037,2.842C90.473,104.15,89.981,104.325,89.49,104.325z"/>
	<path fill="#FFD41D" d="M112.922,126.256c-0.491,0-0.982-0.176-1.357-0.526c-0.75-0.702-0.75-1.84,0-2.541l3.037-2.842
		c0.75-0.702,1.965-0.702,2.715,0c0.75,0.701,0.75,1.839,0,2.54l-3.037,2.843C113.904,126.08,113.413,126.256,112.922,126.256z"/>
	<path fill="#FFD41D" d="M101.206,115.29c-0.491,0-0.982-0.175-1.357-0.526c-0.749-0.701-0.749-1.839,0-2.54l3.036-2.843
		c0.75-0.702,1.966-0.702,2.716,0c0.749,0.702,0.749,1.84,0,2.541l-3.038,2.842C102.189,115.115,101.697,115.29,101.206,115.29z"/>
	<path fill="#FFD41D" d="M70.574,111.064c-0.491,0-0.982-0.176-1.357-0.526c-0.75-0.702-0.75-1.839,0-2.541l3.037-2.842
		c0.75-0.702,1.965-0.702,2.715,0c0.75,0.701,0.75,1.839,0,2.54l-3.037,2.843C71.556,110.889,71.065,111.064,70.574,111.064z"/>
	<path fill="#FFD41D" d="M94.006,132.994c-0.492,0-0.982-0.175-1.357-0.526c-0.75-0.701-0.75-1.838,0-2.54l3.037-2.843
		c0.75-0.701,1.965-0.701,2.715,0c0.749,0.702,0.749,1.84,0,2.541l-3.037,2.842C94.988,132.819,94.496,132.994,94.006,132.994z"/>
	<path fill="#FFD41D" d="M82.29,122.029c-0.491,0-0.982-0.175-1.357-0.526c-0.75-0.702-0.75-1.84,0-2.54l3.037-2.843
		c0.75-0.702,1.965-0.702,2.714,0c0.75,0.701,0.75,1.839,0,2.541l-3.037,2.842C83.272,121.854,82.781,122.029,82.29,122.029z"/>
	<path fill="#FFD41D" d="M75.089,139.733c-0.491,0-0.983-0.175-1.357-0.526c-0.75-0.701-0.75-1.839,0-2.54l3.037-2.843
		c0.75-0.701,1.965-0.701,2.714,0c0.75,0.702,0.75,1.839,0,2.541l-3.037,2.842C76.072,139.559,75.581,139.733,75.089,139.733z"/>
	<path fill="#FFD41D" d="M63.373,128.769c-0.491,0-0.982-0.176-1.357-0.526c-0.75-0.701-0.75-1.839,0-2.541l3.037-2.842
		c0.75-0.702,1.965-0.702,2.715,0c0.75,0.701,0.75,1.839,0,2.54l-3.037,2.843C64.355,128.593,63.864,128.769,63.373,128.769z"/>
</g>
</svg>
