<?xml version="1.0" encoding="utf-8"?>
<!-- Generator: Adobe Illustrator 15.0.0, SVG Export Plug-In . SVG Version: 6.00 Build 0)  -->
<!DOCTYPE svg PUBLIC "-//W3C//DTD SVG 1.1//EN" "http://www.w3.org/Graphics/SVG/1.1/DTD/svg11.dtd">
<svg version="1.1" id="Layer_1" xmlns="http://www.w3.org/2000/svg" xmlns:xlink="http://www.w3.org/1999/xlink" x="0px" y="0px"
	 width="200px" height="200px" viewBox="0 0 200 200" enable-background="new 0 0 200 200" xml:space="preserve">
<g>
	<g>
		<path fill="#808080" d="M100,200.316c-25.817,0-57.956,0-78.925-21.075C0,158.166,0,126.027,0,100.316
			C0,74.605,0,42.36,21.075,21.391C42.149,0.316,74.289,0.316,100,0.316c25.816,0,57.955,0,78.926,21.075
			C200,42.466,200,74.605,200,100.316c0,25.711,0,57.956-21.074,78.925C157.955,200.316,125.816,200.316,100,200.316z M100,4.531
			c-25.079,0-56.165,0-75.975,19.81c-19.81,19.705-19.81,50.896-19.81,75.975c0,25.079,0,56.165,19.811,75.975
			c19.81,19.811,51.001,19.811,75.975,19.811c24.974,0,56.164,0,75.976-19.811c19.811-19.811,19.811-51.002,19.811-75.975
			c0-25.079,0-56.164-19.811-75.975C156.164,4.531,125.079,4.531,100,4.531z"/>
	</g>
	<ellipse fill="#1E1E1E" cx="97.63" cy="164.648" rx="64.358" ry="12.118"/>
	<g display="none">
		<path display="inline" fill="#FFFFFF" d="M98.419,74.078c0,0,6.323-18.651,13.909-19.705c0,0-6.743,1.792-10.854,20.759
			C100.738,75.448,98.419,74.078,98.419,74.078z"/>
		<path display="inline" fill="#FFFFFF" d="M102.529,73.551c0,0-16.544-10.749-23.077-6.85c0,0,6.428-2.74,21.391,9.589
			C101.58,75.975,102.529,73.551,102.529,73.551z"/>
		<path display="inline" fill="#FFFFFF" d="M102.951,73.235c0,0-7.271-12.855-14.437-11.591c0,0,6.428-0.422,11.697,13.277
			C100.843,74.921,102.951,73.235,102.951,73.235z"/>
		<path display="inline" fill="#FFFFFF" d="M100.738,73.235c0,0,9.799-10.959,16.543-8.324c0,0-6.217-1.792-14.227,10.537
			C102.424,75.237,100.738,73.235,100.738,73.235z"/>
		<path display="inline" fill="#F44336" d="M140.568,107.691c0,22.34-18.123,40.465-40.463,40.465
			c-22.339,0-40.464-18.125-40.464-40.465c0-21.074,12.224-34.667,32.771-36.458c1.265-0.105,6.428,1.792,7.798,1.792
			c2.106,0,6.006-1.792,8.008-1.476C127.502,74.183,140.568,87.46,140.568,107.691z"/>
		<g display="inline">
			<path fill="#FFFFFF" d="M66.386,93.783c1.475-4.215,3.793-8.114,6.744-11.485c2.951-3.372,6.744-6.112,11.17-7.482
				c2.213-0.632,4.531-0.843,6.744-0.737c1.159,0,2.213,0.21,3.372,0.421c1.054,0.211,2.213,0.316,3.267,0.527
				c2.213,0.316,4.32,0.316,6.533-0.316c1.054-0.211,2.214-0.422,3.372-0.422c1.159,0,2.213,0.211,3.372,0.422
				c-1.159-0.105-2.213-0.211-3.267-0.211c-1.055,0-2.213,0.316-3.268,0.632c-2.107,0.737-4.531,0.737-6.744,0.632l-1.686-0.211
				l-1.686-0.211c-1.054-0.105-2.212-0.316-3.267-0.316c-2.212-0.105-4.32,0.211-6.428,0.843c-4.215,1.159-7.903,3.793-10.854,6.955
				c-1.475,1.581-2.845,3.372-4.109,5.163C68.493,89.779,67.334,91.781,66.386,93.783z"/>
		</g>
	</g>
</g>
<g>
	<path fill="#E9E3D5" d="M156.271,81.181c-3.321,0-6.642-1.367-9.17-4.102c-0.766-0.828-0.778-2.185-0.028-3.03
		s1.979-0.859,2.744-0.031c3.559,3.849,9.35,3.849,12.908,0c2.232-2.415,3.462-5.623,3.462-9.032s-1.229-6.616-3.462-9.031
		c-5.983-6.472-15.713-6.478-21.688-0.014c-0.766,0.828-1.995,0.814-2.744-0.032c-0.751-0.845-0.738-2.202,0.027-3.03
		c7.474-8.084,19.641-8.079,27.121,0.014c2.983,3.228,4.628,7.522,4.628,12.092s-1.644,8.865-4.628,12.093
		C162.913,79.813,159.593,81.181,156.271,81.181z"/>
	<path fill="#E9E3D5" d="M139.678,56.509c-0.438,0-0.875-0.161-1.237-0.493c-0.825-0.755-0.94-2.106-0.257-3.017
		c0.153-0.205,3.776-5.031,5.086-6.645c1.802-2.218,1.817-4.986,0.039-7.052c-0.599-0.695-1.387-1.078-2.219-1.078
		c-0.833,0-1.621,0.383-2.219,1.078c-0.893,1.037-0.893,2.178,0,3.215c0.738,0.858,0.707,2.214-0.07,3.03
		c-0.777,0.815-2.005,0.781-2.744-0.077c-2.311-2.685-2.311-6.435,0-9.12c1.339-1.555,3.126-2.411,5.033-2.411
		c1.906,0,3.693,0.856,5.032,2.411c3.177,3.69,3.192,8.98,0.038,12.865c-1.261,1.552-4.95,6.469-4.988,6.518
		C140.789,56.244,140.235,56.509,139.678,56.509z"/>
	<path fill="#E9E3D5" d="M147.234,30.494c-1.072,0-1.941-0.959-1.941-2.143c0-1.765-1.335-2.788-1.348-2.797
		c-0.903-0.638-1.166-1.963-0.588-2.96c0.577-0.997,1.777-1.288,2.681-0.649c1.165,0.824,3.137,3.1,3.137,6.406
		C149.175,29.534,148.306,30.494,147.234,30.494z"/>
	<path fill="#E9E3D5" d="M139.643,30.939c-0.463,0-0.926-0.181-1.297-0.55c-0.172-0.17-0.823-0.371-1.316-0.405
		c-1.064-0.076-1.881-1.087-1.819-2.264c0.063-1.177,0.973-2.074,2.034-2.016c0.388,0.022,2.391,0.201,3.697,1.5
		c0.797,0.792,0.861,2.146,0.145,3.026C140.703,30.7,140.174,30.939,139.643,30.939z"/>
	<path fill="#E9E3D5" d="M170.556,55.256c-0.622,0-1.233-0.33-1.607-0.941c-0.138-0.223-0.78-0.606-1.18-0.739
		c-1.025-0.344-1.604-1.541-1.292-2.674c0.312-1.132,1.396-1.771,2.422-1.426c0.371,0.125,2.276,0.829,3.263,2.436
		c0.601,0.98,0.368,2.312-0.519,2.976C171.31,55.137,170.931,55.256,170.556,55.256z"/>
</g>
<path fill="#00BD4F" d="M93.96,83.982c-9.655,4.115-18.44,10.411-25.776,18.511l-23.477,25.921c-3.675,4.058-3.675,10.636,0,14.693
	l17.744,19.592c3.675,4.057,9.633,4.057,13.308,0l23.477-25.922c7.335-8.1,13.038-17.799,16.764-28.46l-4.365-19.515L93.96,83.982z"
	/>
<path fill="#00973C" d="M111.656,102.688c-3.261,10.8-8.764,20.961-16.537,29.543c0,0,0,0-0.001,0.001l-23.477,25.922
	c-1.402,1.548-3.671,1.548-5.074,0l-17.744-19.592c-1.829-2.02-4.57-2.41-6.757-1.183c0.298,2.097,1.177,4.112,2.64,5.729
	l17.744,19.591c3.675,4.057,9.633,4.057,13.308,0l23.477-25.922c7.336-8.1,13.038-17.799,16.765-28.46l-2.494-11.147
	c-0.662,1.792-1.279,3.628-1.849,5.514C111.657,102.686,111.656,102.687,111.656,102.688z"/>
<path fill="#FFCF5D" d="M117.18,104.722c3.646-12.079,9.789-23.054,17.943-32.057l3.127-3.452c-1.286-1.421-7.585-8.375-8.871-9.796
	l-3.127,3.453c-8.154,9.002-18.094,15.786-29.034,19.812c-1.097,0.404-2.181,0.843-3.257,1.301
	c0.97,1.071,21.076,23.27,22.04,24.335C116.416,107.13,116.814,105.933,117.18,104.722z"/>
<g>
	<path fill="#FFB545" d="M147.122,59.417c-1.286-1.42-7.585-8.375-8.872-9.795c-0.613-0.677-1.605-0.677-2.218,0l-8.872,9.795
		c-0.613,0.676-0.613,1.772,0,2.449c1.286,1.42,7.585,8.375,8.872,9.795c0.612,0.677,1.604,0.677,2.218,0l8.872-9.795
		C147.733,61.189,147.733,60.093,147.122,59.417z"/>
	<path fill="#FFB545" d="M147.122,59.417c-0.461-0.509-1.566-1.729-2.853-3.149c-0.954,0.593-0.608,0.328-8.436,8.97
		c-1.416,0.052-2.803,0.671-3.919,1.879l0,0l0,0c-10.622,11.729-16.354,22.989-20.454,36.189c2.466,2.722,4.267,4.711,4.539,5.012
		c2.369-6.777,5.335-20.429,20.032-36.656c0.612,0.677,1.604,0.677,2.218,0l8.872-9.795
		C147.733,61.189,147.733,60.093,147.122,59.417z"/>
</g>
<path fill="#FFF9EB" d="M91.89,123.901l-8.029-8.864l-4.015-4.433c-2.217-2.448-5.812-2.448-8.029,0L55.58,128.53
	c-2.217,2.449-2.217,6.418,0,8.866l4.015,4.433l8.029,8.864c2.217,2.449,5.812,2.449,8.029,0l16.236-17.926
	C94.107,130.319,94.107,126.351,91.89,123.901z"/>
<ellipse fill="#FF983B" cx="104.98" cy="96.15" rx="6.469" ry="7.143"/>
<path fill="#CE795F" d="M162.369,26.347l-6.249,7.654c-0.748,0.98-0.632,2.446,0.26,3.268l2.762,2.548
	c0.886,0.817,2.204,0.69,2.947-0.285l6.26-7.668L162.369,26.347z"/>
<path fill="#A05A4B" d="M162.851,32.393c-2.599-2.397-3.431-5.52-1.977-7.424s4.396-1.547,6.993,0.85
	c2.599,2.397,3.43,5.52,1.977,7.424C168.39,35.147,165.448,34.79,162.851,32.393z"/>
</svg>
