<?xml version="1.0" encoding="utf-8"?>
<!-- Generator: Adobe Illustrator 15.0.0, SVG Export Plug-In . SVG Version: 6.00 Build 0)  -->
<!DOCTYPE svg PUBLIC "-//W3C//DTD SVG 1.1//EN" "http://www.w3.org/Graphics/SVG/1.1/DTD/svg11.dtd">
<svg version="1.1" id="Layer_1" xmlns="http://www.w3.org/2000/svg" xmlns:xlink="http://www.w3.org/1999/xlink" x="0px" y="0px"
	 width="200px" height="200px" viewBox="0 0 200 200" enable-background="new 0 0 200 200" xml:space="preserve">
<g>
	<g>
		<path fill="#808080" d="M100,200.316c-25.817,0-57.956,0-78.925-21.075C0,158.166,0,126.027,0,100.316
			C0,74.605,0,42.36,21.075,21.391C42.149,0.316,74.289,0.316,100,0.316c25.816,0,57.955,0,78.926,21.075
			C200,42.466,200,74.605,200,100.316c0,25.711,0,57.956-21.074,78.925C157.955,200.316,125.816,200.316,100,200.316z M100,4.531
			c-25.079,0-56.165,0-75.975,19.81C4.215,44.046,4.215,75.237,4.215,100.316s0,56.165,19.811,75.975
			c19.81,19.811,51.001,19.811,75.975,19.811s56.164,0,75.975-19.811s19.811-51.002,19.811-75.975c0-25.079,0-56.164-19.811-75.975
			C156.164,4.531,125.079,4.531,100,4.531z"/>
	</g>
	<path fill="#1E1E1E" d="M102.099,147.5c26.841,0,48.603,6.066,48.603,13.548c0,7.483-21.762,13.55-48.603,13.55
		c-26.839,0-48.599-6.066-48.599-13.55C53.5,153.566,75.26,147.5,102.099,147.5z"/>
	<g display="none">
		<path display="inline" fill="#FFFFFF" d="M98.419,74.078c0,0,6.323-18.651,13.909-19.705c0,0-6.743,1.792-10.854,20.759
			C100.738,75.448,98.419,74.078,98.419,74.078z"/>
		<path display="inline" fill="#FFFFFF" d="M102.529,73.551c0,0-16.544-10.749-23.077-6.85c0,0,6.428-2.74,21.391,9.589
			C101.58,75.975,102.529,73.551,102.529,73.551z"/>
		<path display="inline" fill="#FFFFFF" d="M102.951,73.235c0,0-7.271-12.855-14.437-11.591c0,0,6.428-0.422,11.697,13.277
			C100.843,74.921,102.951,73.235,102.951,73.235z"/>
		<path display="inline" fill="#FFFFFF" d="M100.738,73.235c0,0,9.799-10.959,16.543-8.324c0,0-6.217-1.792-14.226,10.537
			C102.424,75.237,100.738,73.235,100.738,73.235z"/>
		<path display="inline" fill="#F44336" d="M140.568,107.692c0,22.339-18.123,40.464-40.463,40.464
			c-22.339,0-40.464-18.125-40.464-40.464c0-21.075,12.224-34.668,32.771-36.459c1.265-0.105,6.428,1.792,7.798,1.792
			c2.107,0,6.006-1.792,8.008-1.476C127.502,74.183,140.568,87.46,140.568,107.692z"/>
		<g display="inline">
			<path fill="#FFFFFF" d="M66.386,93.783c1.475-4.215,3.793-8.114,6.744-11.485c2.951-3.372,6.744-6.112,11.17-7.482
				c2.213-0.632,4.531-0.843,6.744-0.737c1.159,0,2.213,0.21,3.372,0.421c1.054,0.211,2.213,0.316,3.267,0.527
				c2.213,0.316,4.32,0.316,6.533-0.316c1.054-0.211,2.213-0.422,3.372-0.422s2.213,0.211,3.372,0.422
				c-1.159-0.105-2.213-0.211-3.267-0.211s-2.213,0.316-3.267,0.632c-2.107,0.737-4.531,0.737-6.744,0.632l-1.686-0.211
				l-1.686-0.211c-1.054-0.105-2.212-0.316-3.267-0.316c-2.212-0.105-4.32,0.211-6.428,0.843c-4.215,1.159-7.903,3.793-10.854,6.955
				c-1.475,1.581-2.845,3.372-4.109,5.163C68.493,89.779,67.334,91.781,66.386,93.783z"/>
		</g>
	</g>
</g>
<g display="none">
	<path display="inline" fill="#583E68" d="M152.838,76.479c0.009,0.007,0.019,0.017,0.027,0.023l-0.05-0.034
		C152.825,76.47,152.831,76.475,152.838,76.479c-2.403-1.729-3.375-4.54-2.165-6.292c-1.215,1.759-4.166,1.784-6.59,0.057
		c-2.425-1.729-3.406-4.557-2.191-6.315c-1.215,1.758-4.167,1.784-6.591,0.057c-2.423-1.729-3.404-4.557-2.191-6.315
		c-1.12,1.625-3.716,1.752-6.018,0.406c-3.434,2.538-7.245,5.98-11.425,10.659c0,0-18.088,17.171-43.605,21.897
		c-2.36,0.438-4.701,1.019-6.901,1.989c-0.987,0.436-3.18,1.6-3.18,1.6c-15.017,8.436-23.034,26.444-18.322,44.017
		c4.229,15.778,17.474,26.579,32.555,28.279c6.921,0.778,13.884-0.754,20.186-3.762c14.029-6.693,42.639-26.015,54.471-75.431
		c0,0,1.785-4.479,3.06-10.283C153.556,76.902,153.189,76.725,152.838,76.479z"/>
	<path display="inline" fill="#6A3311" d="M152.196,50.731c-1.238,0-2.243-1.019-2.243-2.278s1.005-2.278,2.243-2.278
		c4.312,0,7.863-1.337,9.271-3.488c1.011-1.546,0.981-3.647-0.093-6.244c-0.478-1.16,0.06-2.495,1.202-2.982
		c1.146-0.492,2.455,0.059,2.936,1.219c2.104,5.096,0.994,8.538-0.31,10.529C162.94,48.667,158.078,50.731,152.196,50.731z"/>
	<path display="inline" fill="#659C35" d="M126.475,57.691c-2.229-1.59-2.825-4.634-1.33-6.798c1.496-2.167,4.516-2.634,6.746-1.043
		c4.785-6.931,13.405-6.318,20.541-1.23c7.136,5.087,10.36,12.915,5.575,19.845c2.229,1.59,2.825,4.634,1.33,6.798
		c-1.496,2.164-4.291,2.793-6.519,1.205l0.049,0.034c-2.424-1.729-3.407-4.557-2.192-6.315c-1.215,1.759-4.165,1.784-6.59,0.057
		c-2.424-1.729-3.406-4.557-2.191-6.315c-1.215,1.758-4.166,1.784-6.591,0.057c-2.424-1.729-3.406-4.557-2.19-6.315
		c-1.216,1.758-4.166,1.784-6.591,0.057"/>
	<path display="inline" fill="#6F58A8" d="M59.684,147.909c-0.755,0-1.495-0.39-1.917-1.092c-5.344-8.912-5.956-20.771-1.594-30.956
		c0.493-1.154,1.816-1.686,2.951-1.182c1.136,0.503,1.655,1.846,1.163,2.996c-3.788,8.846-3.284,19.104,1.312,26.769
		c0.643,1.075,0.31,2.476-0.747,3.13C60.484,147.802,60.082,147.909,59.684,147.909z"/>
	<path display="inline" fill="#6F58A8" d="M62.698,111.761c-0.518,0-1.038-0.182-1.462-0.552c-0.938-0.822-1.043-2.259-0.233-3.212
		c2.751-3.243,6.212-5.784,10.006-7.354c1.146-0.472,2.456,0.089,2.922,1.255c0.466,1.165-0.086,2.495-1.234,2.969
		c-3.139,1.294-6.01,3.406-8.297,6.104C63.954,111.492,63.326,111.761,62.698,111.761z"/>
</g>
<path display="none" fill="#75A4C8" d="M142.625,161.781c0.102,0,0.203-0.002,0.303-0.004c4.385-0.082,8.432-1.898,11.412-5.113
	c5.631-6.074,5.631-15.588,0-21.662c-4.512-4.873-11.66-6.443-17.803-3.908c-1.875,0.773-4.049,0.313-5.549-1.178L43.74,42.667
	c-1.184-1.182-3.112-1.182-4.298,0c-1.172,1.182-1.172,3.098,0,4.28l87.28,87.25c3.211,3.225,7.994,4.201,12.119,2.49
	c3.82-1.574,8.26-0.598,11.063,2.428c3.484,3.768,3.484,9.668,0,13.434c-1.844,1.998-4.373,3.125-7.09,3.176
	c-2.707,0.053-5.266-0.977-7.166-2.895c-1.186-1.184-3.113-1.184-4.297,0c-1.186,1.182-1.186,3.098,0,4.279
	C134.363,160.129,138.355,161.781,142.625,161.781z"/>
<path display="none" fill="#FFBD47" d="M96.363,91.483c0,4.461-3.613,8.079-8.079,8.079c-4.466,0-8.078-3.617-8.078-8.079
	c0-4.462,3.612-8.079,8.078-8.079C92.75,83.404,96.363,87.021,96.363,91.483z"/>
<path display="none" fill="#C87C5B" d="M103.723,115.42l8.496-8.494c1.947-1.945,1.947-5.099,0-7.043l-8.496-8.494
	c-1.938-1.946-5.1-1.946-7.047,0l-8.483,8.494c-1.962,1.944-1.962,5.098,0,7.043l8.483,8.494
	C98.623,117.365,101.785,117.365,103.723,115.42z"/>
<path display="none" fill="#A46243" d="M88.193,106.926l8.481,8.496c1.949,1.945,5.111,1.943,7.051-0.002l4.869-4.881
	c-1.932,1.943-5.08,1.943-7.043,0l-8.482-8.495c-1.944-1.946-1.944-5.097,0-7.042l-4.875,4.881
	C86.232,101.827,86.23,104.982,88.193,106.926z"/>
<path display="none" fill="#FF5555" d="M105.922,127.4c-0.029-0.023-0.033-0.043-0.055-0.064c-5.049-5.047-5.049-13.229,0-18.273
	s13.225-5.045,18.275,0c0.025,0.021,0.027,0.045,0.049,0.066L105.922,127.4z"/>
<path display="none" fill="#FF5555" d="M39.771,55.994c-1.3,1.298-0.75,3.522,1.014,4.035c4.396,1.278,9.321,0.188,12.763-3.268
	c3.472-3.455,4.539-8.381,3.265-12.764c-0.496-1.762-2.718-2.32-4.016-1.022L39.771,55.994z"/>
<path display="none" fill="#76BC4D" d="M112.939,133.613l17.467-17.463c2.178-2.164,2.178-5.672,0-7.838
	c-2.146-2.164-5.656-2.164-7.836,0l-17.465,17.463c-2.148,2.164-2.148,5.674,0,7.838
	C107.285,135.777,110.793,135.777,112.939,133.613z"/>
<path display="none" fill="#76BC4D" d="M74.833,95.492L92.296,78.03c2.153-2.164,2.153-5.673,0-7.838
	c-2.174-2.164-5.682-2.164-7.853,0L66.985,87.655c-2.164,2.164-2.164,5.672,0,7.836C69.148,97.657,72.657,97.657,74.833,95.492z"/>
<path display="none" fill="#E6F072" d="M70.297,85.123l11.617-11.612c1.83-1.839,1.83-4.821,0-6.661l-1.177-1.177
	c-1.831-1.84-4.828-1.84-6.657,0L62.461,77.285c-1.83,1.84-1.83,4.822,0,6.661l1.179,1.176
	C65.471,86.962,68.467,86.962,70.297,85.123z"/>
<path display="none" fill="#C87C5B" d="M64.488,76.186l8.479-8.494c1.964-1.945,1.964-5.099,0-7.043l-8.479-8.494
	c-1.957-1.945-5.116-1.945-7.047,0l-8.504,8.494c-1.939,1.945-1.939,5.098,0,7.043l8.504,8.494
	C59.373,78.13,62.532,78.13,64.488,76.186z"/>
<path display="none" fill="#A46243" d="M48.937,67.691l8.502,8.495c1.933,1.946,5.092,1.944,7.049-0.001l4.872-4.881
	c-1.934,1.945-5.083,1.945-7.046,0l-8.48-8.495c-1.964-1.945-1.964-5.097,0-7.042l-4.896,4.88
	C46.998,62.593,46.996,65.747,48.937,67.691z"/>
<path display="none" fill="#A46243" d="M100.006,100.165c-0.457,0-0.918-0.174-1.27-0.522c-0.713-0.704-0.721-1.85-0.018-2.562
	l0.021-0.021c0.701-0.711,1.848-0.717,2.563-0.014c0.713,0.703,0.717,1.85,0.014,2.561l-0.023,0.022
	C100.938,99.986,100.471,100.165,100.006,100.165z"/>
<path display="none" fill="#A46243" d="M100.199,105.215c-0.457,0-0.916-0.174-1.27-0.523c-0.713-0.703-0.721-1.85-0.018-2.561
	l0.027-0.021c0.703-0.711,1.844-0.718,2.557-0.014c0.713,0.703,0.721,1.85,0.018,2.559l-0.027,0.023
	C101.131,105.035,100.666,105.215,100.199,105.215z"/>
<path display="none" fill="#A46243" d="M63,70.285c-0.469,0-0.937-0.174-1.291-0.524c-0.705-0.703-0.705-1.849-0.001-2.56
	l0.011-0.022c0.704-0.711,1.864-0.718,2.567-0.014c0.703,0.703,0.711,1.849,0.007,2.56l-0.007,0.022
	C63.937,70.105,63.469,70.285,63,70.285z"/>
<g display="none">
	<path display="inline" fill="#A46F3E" d="M139.905,89.477l11.667-5.375c7.293-1.986,11.641-9.594,9.662-16.906
		c-1.981-7.312-9.569-11.671-16.864-9.684L126.1,70.168c-1.626,0.75-3.378-0.684-3-2.437c0.442-2.054,4.901-2.428,4.901-12.695
		c0-11.63-2.378-29.889-23.137-29.889c-21.796,0-24.295,16.73-24.295,30.06c0,7.672,4.618,10.944,4.951,12.525
		c0.36,1.715-1.359,3.113-2.964,2.417l-21.974-13.98c-7.294-1.986-14.881,2.373-16.864,9.688l0,0
		c-1.983,7.312,2.365,14.919,9.658,16.905l15.01,6.516c5.024,3.086,14.608,11.052,10.05,24.964L66.14,135.758
		c-6.816,1.641-11.706,8.394-10.322,15.956c1.211,6.601,7.276,11.205,13.975,11.205h4.53c0.197,0,0.389-0.023,0.586-0.03
		c0.213-0.011,0.425-0.013,0.635-0.032c0.707-0.063,1.394-0.188,2.066-0.355c0.172-0.043,0.345-0.085,0.515-0.133
		c0.667-0.196,1.309-0.441,1.932-0.729c0.197-0.09,0.389-0.182,0.582-0.283c0.567-0.295,1.107-0.634,1.625-1.002
		c0.224-0.16,0.444-0.321,0.659-0.495c0.475-0.384,0.919-0.806,1.339-1.247c0.193-0.204,0.382-0.404,0.563-0.622
		c0.438-0.521,0.829-1.081,1.189-1.662c0.068-0.111,0.158-0.196,0.22-0.31l13.925-19.776c2.021-2.87,6.27-2.87,8.29,0l13.926,19.776
		c0.065,0.113,0.152,0.198,0.22,0.31c0.36,0.582,0.75,1.142,1.189,1.662c0.181,0.215,0.369,0.418,0.563,0.622
		c0.419,0.441,0.864,0.86,1.339,1.247c0.215,0.172,0.435,0.335,0.66,0.495c0.517,0.371,1.057,0.707,1.623,1.002
		c0.193,0.102,0.386,0.19,0.583,0.283c0.622,0.288,1.264,0.536,1.931,0.729c0.173,0.051,0.343,0.09,0.516,0.133
		c0.672,0.168,1.359,0.293,2.066,0.355c0.213,0.02,0.422,0.021,0.635,0.032c0.202,0.007,0.395,0.03,0.592,0.03h4.53
		c6.697,0,12.763-4.604,13.973-11.207c1.386-7.563-3.503-14.315-10.322-15.956l-12.296-21.519
		C125.716,100.619,134.806,92.698,139.905,89.477z"/>
	<ellipse display="inline" fill="#ED3F32" cx="104.308" cy="114.073" rx="6.245" ry="6.262"/>
	<ellipse display="inline" fill="#88C057" cx="104.308" cy="91.528" rx="6.245" ry="6.263"/>
	<ellipse display="inline" fill="#FFF5BB" cx="113.053" cy="42.682" rx="4.998" ry="5.01"/>
	<ellipse display="inline" fill="#FFF5BB" cx="95.562" cy="42.682" rx="4.998" ry="5.01"/>
	<path display="inline" fill="#FFF5BB" d="M104.308,66.166c-6.649-0.068-13.743-4.489-13.743-10.959
		c0-1.385,1.117-2.505,2.499-2.505s2.498,1.12,2.498,2.505c0,3.011,4.263,5.902,8.773,5.949c4.387,0,8.718-2.948,8.718-5.949
		c0-1.385,1.116-2.505,2.499-2.505c1.382,0,2.499,1.12,2.499,2.505C118.051,61.664,110.809,66.166,104.308,66.166z"/>
	<path display="inline" fill="#FFF5BB" d="M143.547,58.083l-4.146,2.87l12.038,23.211l0.133-0.061
		c1.621-0.441,3.085-1.172,4.378-2.104L143.547,58.083z"/>
	<polygon display="inline" fill="#FFF5BB" points="114.807,145.267 139.565,130.668 137.082,126.319 111.916,141.158 	"/>
	<path display="inline" fill="#FFF5BB" d="M119.791,152.348l25.974-15.317c-1.029-0.556-2.129-0.994-3.29-1.274l-1.11-1.943
		L116.9,148.237L119.791,152.348z"/>
	<polygon display="inline" fill="#FFF5BB" points="97.943,139.393 71.604,126.191 69.119,130.545 95.027,143.533 	"/>
	<path display="inline" fill="#FFF5BB" d="M90.339,150.191l2.924-4.151l-25.866-12.483l-1.257,2.201
		c-1.122,0.271-2.185,0.691-3.181,1.217L90.339,150.191z"/>
	<path display="inline" fill="#FFF5BB" d="M50.586,81.649c0.874,0.461,1.8,0.844,2.79,1.112l1.832,0.794l9.802-24.568l-4.293-2.73
		L50.586,81.649z"/>
</g>
<path display="none" fill="#3BBC56" d="M105.438,46.376c-0.48-4.201-3.741-22.748-24.111-27.375
	c-0.969-0.221-1.892,0.524-1.908,1.545c-0.104,6.34,1.507,26.299,25.759,26.674C105.264,46.938,105.351,46.657,105.438,46.376z"/>
<path display="none" fill="#30AA44" d="M85.089,20.547c0.003-0.156,0.029-0.306,0.072-0.447c-1.206-0.421-2.48-0.792-3.833-1.098
	c-0.969-0.221-1.892,0.524-1.908,1.545c-0.104,6.34,1.507,26.299,25.759,26.674c0.048-0.159,0.097-0.315,0.145-0.473
	C86.347,43.658,84.996,26.367,85.089,20.547z"/>
<path display="none" fill="#93603E" d="M127.57,27.092l-5.418-5.788c-1.238-1.322-3.331-1.188-4.397,0.283
	c-3.582,4.941-11.066,16.854-14.339,31.855c1.258-0.037,2.47,0.173,3.62,0.612c3.775-7.868,10.256-17.632,20.128-23.751
	C128.27,29.617,128.467,28.049,127.57,27.092z"/>
<path display="none" fill="#7F573C" d="M121.724,23.861c0.45-0.621,1.084-1,1.758-1.136l-1.329-1.42
	c-1.239-1.322-3.331-1.188-4.397,0.283c-3.582,4.941-11.067,16.854-14.339,31.855c1.258-0.037,2.469,0.173,3.62,0.612
	c0.465-0.969,0.972-1.967,1.521-2.984C112.198,38.277,118.52,28.28,121.724,23.861z"/>
<path display="none" fill="#F2D422" d="M136.123,114.01c3.073-22.162-6.084-42.581-21.335-50.776
	c-0.726-0.39-1.205-1.12-1.323-1.953c-1.352-9.533-13.963-11.589-18.09-2.903c-0.431,0.907-1.23,1.581-2.191,1.788
	c-16.748,3.612-30.948,20.516-34.005,42.554c-3.047,21.976,5.93,42.235,20.948,50.566c0.946,0.524,1.576,1.48,1.775,2.568
	c1.702,9.261,13.942,10.99,18.005,2.537c0.448-0.931,1.267-1.622,2.253-1.835C118.89,152.925,133.069,136.029,136.123,114.01z"/>
<path display="none" fill="#E2C01A" d="M87.651,155.968c-0.202-1.068-0.833-2.01-1.78-2.529
	c-15.034-8.225-24.056-28.161-21.061-49.753c3.004-21.655,17.16-38.234,33.893-41.742c0.959-0.201,1.758-0.861,2.186-1.751
	c1.838-3.816,5.378-5.512,8.853-5.382c-4.432-3.328-11.478-2.513-14.367,3.568c-0.431,0.907-1.231,1.581-2.191,1.788
	c-16.749,3.611-30.948,20.516-34.005,42.554c-3.047,21.976,5.929,42.235,20.947,50.566c0.947,0.524,1.577,1.48,1.776,2.568
	c1.168,6.357,7.304,9.165,12.351,7.566C91.096,162.449,88.396,159.897,87.651,155.968z"/>
<g display="none">
	<path display="inline" fill="#D6B013" d="M114.636,117.047c0.485,0.283,1.077,0.359,1.615,0.206
		c0.101-0.027,0.199-0.065,0.295-0.108c0.186-0.085,0.359-0.194,0.514-0.33c0.083-0.074,0.163-0.155,0.232-0.238
		c0.094-0.111,0.175-0.228,0.243-0.352c0.068-0.125,0.125-0.256,0.169-0.395c0.034-0.105,0.061-0.217,0.08-0.329
		c0.034-0.204,0.037-0.415,0.012-0.622c-0.012-0.107-0.032-0.214-0.062-0.315c-0.146-0.556-0.513-1.037-0.998-1.321
		c-0.486-0.284-1.076-0.359-1.615-0.205c-0.1,0.026-0.199,0.063-0.296,0.107c-0.187,0.084-0.361,0.197-0.517,0.334
		c-0.081,0.073-0.16,0.151-0.229,0.235c-0.094,0.108-0.175,0.226-0.243,0.35c-0.068,0.125-0.125,0.257-0.168,0.396
		c-0.034,0.102-0.061,0.211-0.079,0.321c-0.035,0.207-0.039,0.42-0.014,0.628c0.013,0.107,0.032,0.214,0.061,0.316
		C113.784,116.28,114.15,116.763,114.636,117.047z"/>
	<path display="inline" fill="#D6B013" d="M108.02,128.439c0.486,0.284,1.077,0.361,1.615,0.205
		c0.101-0.026,0.199-0.063,0.295-0.107c0.186-0.084,0.36-0.195,0.515-0.33c0.082-0.074,0.162-0.154,0.231-0.237
		c0.095-0.11,0.175-0.228,0.243-0.354c0.068-0.123,0.125-0.254,0.169-0.394c0.034-0.104,0.061-0.216,0.08-0.328
		c0.034-0.205,0.036-0.415,0.012-0.621c-0.012-0.108-0.031-0.214-0.062-0.317c-0.146-0.556-0.513-1.037-0.998-1.321
		c-0.486-0.282-1.076-0.36-1.614-0.204c-0.101,0.027-0.2,0.063-0.296,0.107c-0.188,0.085-0.362,0.197-0.518,0.334
		c-0.081,0.072-0.16,0.152-0.229,0.234c-0.094,0.109-0.175,0.228-0.243,0.351c-0.068,0.124-0.125,0.257-0.168,0.395
		c-0.035,0.104-0.062,0.212-0.079,0.321c-0.035,0.208-0.038,0.42-0.014,0.629c0.013,0.107,0.031,0.215,0.062,0.316
		C107.168,127.674,107.534,128.157,108.02,128.439z"/>
	<path display="inline" fill="#D6B013" d="M101.773,140.05c0.486,0.282,1.076,0.359,1.614,0.205
		c0.101-0.027,0.199-0.064,0.296-0.108c0.185-0.084,0.359-0.194,0.513-0.33c0.084-0.074,0.164-0.155,0.233-0.237
		c0.093-0.111,0.174-0.228,0.243-0.352c0.068-0.125,0.125-0.256,0.169-0.396c0.034-0.104,0.061-0.216,0.079-0.327
		c0.033-0.206,0.037-0.416,0.013-0.623c-0.014-0.107-0.032-0.214-0.062-0.315c-0.146-0.556-0.514-1.038-0.999-1.321
		s-1.076-0.36-1.614-0.205c-0.101,0.025-0.199,0.063-0.295,0.106c-0.188,0.085-0.364,0.198-0.518,0.334
		c-0.083,0.074-0.161,0.153-0.229,0.235c-0.093,0.109-0.174,0.227-0.242,0.352c-0.069,0.124-0.126,0.256-0.17,0.394
		c-0.033,0.103-0.06,0.212-0.078,0.322c-0.034,0.206-0.038,0.419-0.014,0.628c0.013,0.108,0.032,0.213,0.063,0.317
		C100.922,139.283,101.288,139.765,101.773,140.05z"/>
	<path display="inline" fill="#D6B013" d="M119.496,127.607c0.498,0.26,1.092,0.308,1.622,0.127c0.1-0.031,0.197-0.073,0.291-0.121
		c0.181-0.094,0.351-0.213,0.498-0.355c0.08-0.077,0.156-0.161,0.222-0.248c0.087-0.114,0.164-0.235,0.227-0.362
		c0.063-0.128,0.113-0.261,0.15-0.403c0.03-0.105,0.051-0.219,0.064-0.331c0.024-0.206,0.02-0.417-0.016-0.622
		c-0.018-0.106-0.042-0.212-0.075-0.313c-0.172-0.547-0.56-1.01-1.057-1.27c-0.498-0.261-1.092-0.309-1.623-0.129
		c-0.099,0.032-0.196,0.073-0.29,0.123c-0.183,0.094-0.353,0.214-0.502,0.357c-0.078,0.076-0.152,0.159-0.217,0.245
		c-0.089,0.114-0.164,0.235-0.228,0.362c-0.063,0.127-0.112,0.262-0.15,0.401c-0.029,0.105-0.05,0.216-0.063,0.325
		c-0.024,0.208-0.021,0.422,0.015,0.628c0.018,0.108,0.042,0.214,0.076,0.313C118.61,126.883,118.999,127.347,119.496,127.607z"/>
	<path display="inline" fill="#D6B013" d="M113.782,139.503c0.498,0.26,1.092,0.309,1.623,0.128c0.099-0.032,0.195-0.074,0.29-0.122
		c0.181-0.094,0.35-0.212,0.498-0.354c0.08-0.078,0.155-0.162,0.222-0.249c0.088-0.113,0.164-0.234,0.226-0.362
		c0.063-0.127,0.114-0.262,0.151-0.402c0.03-0.106,0.051-0.22,0.064-0.331c0.024-0.207,0.019-0.417-0.016-0.622
		c-0.017-0.106-0.042-0.212-0.075-0.313c-0.172-0.547-0.56-1.012-1.058-1.271s-1.092-0.308-1.622-0.127
		c-0.1,0.032-0.196,0.074-0.291,0.122c-0.183,0.093-0.353,0.214-0.501,0.358c-0.078,0.076-0.153,0.158-0.219,0.245
		c-0.087,0.114-0.163,0.234-0.226,0.362c-0.063,0.127-0.114,0.261-0.15,0.401c-0.029,0.104-0.05,0.215-0.063,0.326
		c-0.026,0.208-0.021,0.42,0.014,0.628c0.018,0.107,0.043,0.211,0.076,0.313C112.897,138.779,113.284,139.243,113.782,139.503z"/>
</g>
<path display="none" fill="#7F6E5D" d="M152.783,77.147h-0.101c-1.024,14.555-25.428,26.21-55.46,26.21
	c-30.03,0-54.435-11.655-55.459-26.21h-0.101C38.1,85.519,36.11,94.834,36.11,104.65c0,36.422,27.362,65.947,61.112,65.947
	c33.752,0,61.113-29.525,61.113-65.947C158.336,94.834,156.347,85.519,152.783,77.147z"/>
<path display="none" fill="none" stroke="#CBB292" stroke-width="2" stroke-linecap="round" stroke-miterlimit="10" d="
	M55.555,116.288c0,20.012,17.396,36.206,38.891,36.206"/>
<path display="none" fill="#CBB292" d="M117.449,55.926c-6.272-1.086-13.081-1.705-20.227-1.705
	c-30.684,0-55.557,10.999-55.557,24.568s24.873,24.568,55.557,24.568c30.685,0,55.558-10.999,55.558-24.568
	c0-8.402-9.554-15.814-24.104-20.244"/>
<ellipse display="none" fill="#070707" stroke="#0096E6" stroke-miterlimit="10" cx="69.444" cy="77.496" rx="2.778" ry="2.586"/>
<path display="none" fill="#F4E6CE" d="M111.448,65.458c-4.311-0.556-9.044-0.892-14.226-0.892
	c-28.87,0-44.444,10.096-44.444,14.224s15.574,14.224,44.444,14.224c28.871,0,44.447-10.097,44.447-14.224
	c0-2.656-6.479-7.769-18.76-11.086L111.448,65.458z"/>
<ellipse display="none" fill="#CBB292" cx="80.557" cy="77.496" rx="2.777" ry="2.586"/>
<ellipse display="none" fill="#CBB292" cx="88.89" cy="82.669" rx="2.778" ry="2.586"/>
<ellipse display="none" fill="#CBB292" cx="91.668" cy="72.324" rx="2.777" ry="2.586"/>
<line display="none" fill="none" stroke="#7F6E5D" stroke-width="2" stroke-linecap="round" stroke-linejoin="round" stroke-miterlimit="10" x1="51.794" y1="44.958" x2="69.444" y2="77.497"/>
<path display="none" fill="#A4E869" d="M108.26,85.912c-0.917,0-1.848-0.212-2.703-0.657c-2.678-1.394-3.64-4.544-2.142-7.037
	l30.546-48.515c2.274-3.649,6.078-6.008,10.48-6.541c4.395-0.545,8.728,0.833,11.866,3.758l17.065,15.887
	c2.169,2.02,2.169,5.293,0,7.313c-2.168,2.02-5.689,2.02-7.855,0l-17.065-15.887c-0.933-0.867-2.005-0.89-2.575-0.815
	c-0.561,0.067-1.602,0.341-2.264,1.402l-30.498,48.441C112.099,84.958,110.206,85.912,108.26,85.912z"/>
<path display="none" fill="#F0C419" stroke="#F0C419" stroke-width="2" stroke-linecap="round" stroke-linejoin="round" stroke-miterlimit="10" d="
	M28.538,57.459c-1.533-2.475,0.536-6.261,3.637-7.926c3.1-1.666,6.854-1.011,8.392,1.461c-1.533-2.475-0.265-5.829,2.836-7.497
	c3.101-1.666,6.855-1.011,8.392,1.461c-1.533-2.475-0.264-5.83,2.836-7.497c3.101-1.668,6.856-1.012,8.393,1.461
	c-1.533-2.475-0.264-5.829,2.836-7.497c3.101-1.668,6.855-1.011,8.393,1.461c-7.286-11.751-23.426-15.778-36.049-8.992
	C25.58,30.68,21.252,45.708,28.538,57.459z"/>
<g display="none">
	<path display="inline" fill="#EEAF4B" d="M100.276,133.383L100.276,133.383c-3.711,0-6.956-2.201-7.904-5.364L78.506,81.827
		c-1.117-5.514,3.692-10.578,10.045-10.578h23.446c6.354,0,11.164,5.064,10.046,10.578l-13.863,46.191
		C107.23,131.182,103.986,133.383,100.276,133.383z"/>
	<path display="inline" fill="#F4C44E" d="M147.791,83.694c-8.348-5.346-19.795-8.353-26.699-7.507
		c0.964,1.671,1.361,3.624,0.954,5.641l-13.866,46.191c-0.217,0.724-0.566,1.388-1.002,1.995c1.143,0.608,2.456,1.025,3.894,1.123
		l0,0c11.992,3.408,30.773-17.941,40.392-30.217C156.394,94.622,154.813,88.189,147.791,83.694z"/>
	<path display="inline" fill="#F4C44E" d="M92.372,128.019L78.506,81.827c-0.413-2.037-0.008-4.007,0.977-5.689
		c-6.935-0.708-18.155,2.297-26.366,7.554c-7.022,4.496-8.604,10.931-3.672,17.229c9.615,12.277,28.399,33.625,40.391,30.217l0,0
		c1.327-0.091,2.547-0.452,3.63-0.982C92.981,129.513,92.606,128.796,92.372,128.019z"/>
	<g display="inline">
		<path fill="#F1B501" d="M49.446,100.92c-0.949-1.211-1.651-2.428-2.127-3.635c-6.769,5.984-12.084,13.065-15.402,20.912
			c-3.57,8.444,4.554,17.158,13.736,14.788l27.937-7.205C64.543,119.217,55.299,108.393,49.446,100.92z"/>
		<path fill="#F1B501" d="M171.151,118.2c-3.595-8.499-9.515-16.112-17.108-22.391c-0.4,1.687-1.244,3.404-2.58,5.112
			c-5.729,7.316-14.715,17.852-23.578,24.45l29.533,7.617C166.598,135.355,174.723,126.644,171.151,118.2z"/>
	</g>
	<path display="inline" fill="#F4C44E" d="M88.551,71.249c-0.105,0-0.201,0.027-0.304,0.031l4.125,13.747
		c0.948,3.163,4.193,5.364,7.904,5.364c3.71,0,6.954-2.201,7.903-5.364l4.125-13.747c-0.105-0.004-0.198-0.031-0.305-0.031H88.551z"
		/>
</g>
<g display="none">
	<path display="inline" fill="#EEAF4B" d="M165.448,89.459c0-20.031-29.753-36.269-66.453-36.269
		c-36.701,0-66.453,16.237-66.453,36.269v16.313c0,0.002,0,0.006,0,0.008c0,20.031,29.752,36.269,66.453,36.269
		c36.7,0,66.453-16.237,66.453-36.269c0-0.002,0-0.006,0-0.008V89.459z M100.161,98.526c-12.878,0-23.317-4.871-23.317-10.881
		s10.439-10.88,23.317-10.88s23.317,4.87,23.317,10.88C123.479,93.653,113.039,98.526,100.161,98.526z"/>
	<g display="inline">
		<path fill="#FBD490" d="M100.161,87.287c8.373,0,16.074,1.304,22.302,3.478c0.64-0.988,1.016-2.029,1.016-3.115
			c0-6.01-10.439-10.881-23.317-10.881S76.844,81.64,76.844,87.649c0,1.086,0.375,2.127,1.014,3.115
			C84.084,88.591,91.785,87.287,100.161,87.287z"/>
	</g>
	<path display="inline" fill="#E6E6E6" d="M166.871,85.531C162.657,66.77,133.6,52.248,98.59,52.248
		c-33.535,0-61.304,13.325-67.245,30.937c-1.252,3.71,0.902,7.563,5.095,9.691c3.328,1.689,2.561,14.598,3.442,17.365
		c0.597,1.879,2.418,3.435,4.898,3.872c3.658,0.646,12.915-0.631,14.664,4.326c0.262,0.742,0.524,1.453,0.646,2.164
		c0.294,1.711,2.567,2.774,4.629,2.047c2.059-0.726,5.636-4.349,9.467-4.814c13.234-1.608,6.904,7.98,9.803,11.265
		c1.521,1.724,4.416,2.24,6.86,1.315c2.158-0.816,2.558-5.19,7.167-5.133c5.88,0.074,4.643,4.25,6.676,4.955
		c2.665,0.923,5.92,0.379,7.622-1.431c2.929-3.118,5.489-10.521,10.882-10.97c6.97-0.582,8.453,4.192,10.694,5.092
		c1.899,0.764,4.156-0.095,4.438-1.714c0.642-3.676,2.02-10.767,14.272-7.988c1.801,0.408,3.15-1.452,3.612-2.836
		c1.551-4.645,2.903-16.546,6.883-18.388C166.004,90.656,167.444,88.083,166.871,85.531z M100.161,98.526
		c-12.878,0-23.317-4.871-23.317-10.881s10.439-10.88,23.317-10.88s23.317,4.87,23.317,10.88
		C123.479,93.653,113.039,98.526,100.161,98.526z"/>
</g>
<g display="none">
	<path display="inline" fill="#6A3311" d="M139.907,62.592v-2.965H62.075v3.004c-2.022,7.477-11.791,10.749-11.791,27.926v43.821
		c0,18.343,13.606,33.211,30.387,33.211h30.936h9.705c16.784,0,30.388-14.871,30.388-33.211V90.561
		C151.699,73.353,141.892,70.12,139.907,62.592z"/>
	<path display="inline" fill="#A46F3E" d="M66.727,137.374c-1.515,0-2.74-1.338-2.74-2.995V90.558
		c0-10.138,3.24-15.977,6.063-19.931c0.931-1.307,2.651-1.543,3.846-0.519c1.196,1.016,1.407,2.9,0.475,4.203
		c-2.423,3.397-4.9,7.98-4.9,16.246v43.821C69.469,136.036,68.243,137.374,66.727,137.374z"/>
	<path display="inline" fill="#FFFFFF" d="M148.826,140.256h-43.724V89.329h45.018c0.872,0,1.579,0.772,1.579,1.725v46.061
		C151.699,138.849,150.413,140.256,148.826,140.256z"/>
	<path display="inline" fill="#E22F37" d="M148.826,125.11h-24.798v-20.734h26.095c0.871,0,1.578,0.774,1.578,1.727v15.864
		C151.699,123.705,150.413,125.11,148.826,125.11z"/>
	<path display="inline" fill="#E6E6E6" d="M143.163,59.372H58.779c-3.181,0-5.757-2.816-5.757-6.288V38.698
		c0-3.472,2.576-6.288,5.757-6.288h84.384c3.177,0,5.754,2.816,5.754,6.288v14.385C148.917,56.556,146.34,59.372,143.163,59.372z"/>
</g>
<g>
	<path fill="#659C35" d="M100.677,49.53c-1.195,0-2.256-0.775-2.48-1.884c-1.405-6.905-4.805-12.508-8.664-14.276
		c-1.248-0.571-1.752-1.957-1.125-3.093c0.627-1.138,2.144-1.597,3.393-1.025c7.976,3.653,10.715,14.359,11.364,17.556
		c0.256,1.251-0.652,2.452-2.023,2.688C100.983,49.516,100.829,49.53,100.677,49.53z"/>
	<path d="M100.506,55.699c-2.346,0-4.61-0.763-6.306-2.309c-0.989-0.901-0.989-2.358,0-3.259c0.988-0.901,2.585-0.901,3.573,0
		c0.764,0.696,1.84,1.035,3.076,0.959c1.354-0.087,2.682-0.666,3.737-1.63c0.989-0.901,2.586-0.901,3.574,0
		c0.988,0.901,0.988,2.358,0,3.259C105.995,54.694,103.197,55.699,100.506,55.699z"/>
	<path fill="#D7CC56" d="M101.486,41.928c5.656-0.058,11.227,2.704,14.019,7.523c2.382,4.112,3.528,9.09,5.038,13.495
		c2.13,6.221,3.682,12.62,5.853,18.812c2.247,6.412,6.356,12.428,9.866,18.314c3.047,5.109,6.885,10.231,8.854,15.783
		c2.561,7.224,2.141,15.227-0.688,22.335c-5.224,13.137-18.507,21.796-33.348,24.101c-3.151,0.489-6.371,0.72-9.594,0.703h-0.166
		c-3.224,0.014-6.443-0.214-9.594-0.703c-14.839-2.305-28.123-10.962-33.35-24.101c-2.828-7.111-3.247-15.111-0.687-22.335
		c1.968-5.552,5.805-10.671,8.853-15.783c3.511-5.889,7.62-11.902,9.867-18.314c2.171-6.195,3.723-12.594,5.853-18.812
		c1.51-4.407,2.656-9.385,5.038-13.495c2.793-4.819,8.362-7.583,14.02-7.523"/>
	<path fill="#E3E82A" d="M88.509,150.209c-0.192,0-0.387-0.018-0.582-0.062c-7.597-1.632-13.66-6.108-16.638-12.287
		c-0.561-1.166,0.021-2.526,1.297-3.038c1.281-0.51,2.77,0.019,3.331,1.183c2.33,4.84,7.13,8.357,13.165,9.654
		c1.36,0.291,2.201,1.533,1.881,2.771C90.691,149.495,89.652,150.209,88.509,150.209z"/>
	<path fill="#E3E82A" d="M71.57,126.516c-0.068,0-0.137-0.002-0.207-0.007c-1.39-0.101-2.427-1.212-2.315-2.482
		c0.212-2.398,0.657-4.833,1.321-7.239c0.345-1.235,1.719-1.976,3.071-1.671c1.352,0.311,2.174,1.565,1.832,2.801
		c-0.597,2.157-0.998,4.335-1.188,6.48C73.98,125.604,72.875,126.516,71.57,126.516z"/>
</g>
</svg>
