<?xml version="1.0" encoding="utf-8"?>
<!-- Generator: Adobe Illustrator 22.0.0, SVG Export Plug-In . SVG Version: 6.00 Build 0)  -->
<svg version="1.1" id="Layer_1" xmlns="http://www.w3.org/2000/svg" xmlns:xlink="http://www.w3.org/1999/xlink" x="0px" y="0px"
	 viewBox="0 0 189.8 189.8" style="enable-background:new 0 0 189.8 189.8;" xml:space="preserve">
<style type="text/css">
	.st0{fill:#1E1E1E;}
	.st1{fill:#FFFFFF;}
	.st2{fill:#EDA023;}
	.st3{fill:#FCD227;}
	.st4{fill:#FBC02D;}
	.st5{fill:#808080;}
	.st6{fill:#15bd23;}
</style>
<g>
	<ellipse class="st0" cx="105.2" cy="140.7" rx="37.1" ry="8.9"/>
	<g>
		<path class="st5" d="M95,190.1c-24.5,0-55,0-74.9-20c-20-20-20-50.5-20-74.9s0-55,20-74.9c20-20,50.5-20,74.9-20
			c24.5,0,55,0,74.9,20c20,20,20,50.5,20,74.9s0,55-20,74.9l0,0C149.9,190.1,119.5,190.1,95,190.1z M95,4.3
			c-23.8,0-53.3,0-72.1,18.8C4,41.8,4,71.4,4,95.2s0,53.3,18.8,72.1s48.4,18.8,72.1,18.8c23.8,0,53.3,0,72.1-18.8
			s18.8-48.4,18.8-72.1c0-23.8,0-53.3-18.8-72.1C148.3,4.3,118.7,4.3,95,4.3z"/>
	</g>
	<g>
		<path class="st6" d="M115.9,70.9c-3.6-0.4-7.3,1.2-8.4,1.9c-2-2.3-15.6-5.3-23.8-0.8c-0.7-0.5-3.9-3-7.4-2.2
			c0.2-0.3,0.4-0.6,0.7-1c0.4-0.4,0.9-0.8,1.6-1.3l0,0c3.7-2,8.7-0.9,12.1-2.8c3.3-1.9,2.6-6,2.8-9.3c0.5-6,3.6-11.5,10.4-8.8
			c2.9,1.1,7.9,8,2.8,8.9c-3.1,0.5-3.6-3.3-6-3.8c-4.4-1.1-2.4,11.7,0.4,13c6.9,3.4,13.1,1.3,14.5,5.3
			C115.8,70.2,115.9,70.6,115.9,70.9z"/>
		<path class="st2" d="M112.4,96.2L112.4,96.2c0-0.3,0.1-0.4,0.1-0.6L112.4,96.2z"/>
		<g>
			<path class="st3" d="M123.1,74.7c-2-1-4.3-1.6-7-1.7c-1.6-0.1-2.8,0.1-3.9,0.6c-0.5,0.2-0.9,0.5-1.2,0.8c0.7,0.6,1.4,1.4,1.9,2.2
				c4.3,6.2,2.1,15.7-0.2,25.8l-0.4,1.9c-0.6,2.7-1.1,4.8-1.4,6.7c-2.6,14.3-5.8,27.7-11.8,32.5c0.6,0.6,1.5,1,2.8,1c0,0,0,0,0.1,0
				c2-0.1,4.2-0.4,6.5-1.2c0.2-0.1,0.3-0.1,0.5-0.2c0.6-0.3,1.2-0.5,1.8-0.8c0.2-0.1,0.3-0.2,0.4-0.2c0.2-0.1,0.4-0.2,0.6-0.4
				c0.2-0.1,0.4-0.2,0.6-0.4c0.2-0.1,0.4-0.3,0.7-0.5c0.2-0.2,0.5-0.3,0.7-0.5c5.2-4.1,10.7-12.1,15.5-27.6
				C134.1,97.1,133.9,80.1,123.1,74.7z"/>
		</g>
		<path class="st4" d="M83,126.4c0.1,0.5,0.2,0.9,0.3,1.3c2.2,10.3,5.4,15.4,9.7,15.5c0.1,0,0.2,0,0.2,0c7.8,0,11.8-16.5,14.7-32.6
			c0.3-2,0.8-4.1,1.4-6.8l0.4-1.9c2.2-9.6,4.2-18.7,0.5-24.2c-1.9-2.8-5.3-4.5-10.3-5.3l0,0h-0.1c-1.3-0.2-2.6-0.3-4-0.4
			c-6.7-0.3-11.2,1-13.9,4c-4.8,5.2-3.5,15-2.1,25.3c0.3,2.6,0.7,5.4,1,8.1c0.5,5,1,9.3,1.6,12.9l0.1,0.4c0.1,0.3,0.1,0.6,0.2,0.9
			l0.1,0.4l0,0C82.7,125,82.8,125.7,83,126.4z"/>
		<g>
			<path class="st3" d="M80.3,128.1c-0.1-0.4-0.2-0.9-0.3-1.3c-0.2-0.8-0.3-1.7-0.5-2.6l-0.1-0.4l0,0c0-0.2-0.1-0.4-0.1-0.5
				l-0.1-0.4c-0.6-3.7-1.1-8-1.6-13.1c-0.2-2.6-0.6-5.4-0.9-8c-1.4-10.8-2.7-21.1,2.6-27c0.5-0.5,1-0.9,1.5-1.4
				c-1.2-1.2-2.8-1.8-5.1-1.9C58.1,70.8,54.8,91.1,59.4,110c4,16.1,8.9,24.6,13.9,29c5.2,4.6,10.4,5,14.5,5.1c0.1,0,0.1,0,0.2,0
				C84.7,141.9,82.1,136.6,80.3,128.1z"/>
		</g>
		<g>
			<path class="st3" d="M109.7,101.9l-0.4,1.9c-0.6,2.8-1.1,4.8-1.4,6.8c-2.9,16.2-6.9,32.7-14.7,32.7c-0.1,0-0.2,0-0.2,0
				c-4.3-0.2-7.4-5.3-9.7-15.5c-0.1-0.4-0.2-0.8-0.3-1.3c-0.2-0.7-0.3-1.4-0.4-2.1l0,0l-0.1-0.5c-0.1-0.3-0.1-0.6-0.2-0.9l-0.1-0.4
				c-0.6-3.7-1.1-7.9-1.6-13c-0.3-2.7-0.6-5.4-1-8c-1-8-2-15.7-0.2-21.2c0.5-1.6,1.3-3,2.3-4.1c2.7-3,7.3-4.3,13.9-4
				c1.3,0,2.6,0.2,4,0.3h0.1h0.1c5,0.8,8.3,2.5,10.3,5.3c0.1,0.2,0.3,0.4,0.4,0.7C113.8,83.9,111.8,92.7,109.7,101.9z"/>
		</g>
		<g>
			<path class="st1" d="M83.2,99.1c-0.9-2.5-1.4-5-1.6-7.7c-0.2-2.6-0.1-5.3,0.5-7.9c0.3-1.3,0.8-2.6,1.4-3.8
				c0.6-1.2,1.5-2.4,2.5-3.3s2.3-1.6,3.6-2c1.3-0.4,2.7-0.5,4-0.4c-1.3,0.3-2.5,0.7-3.6,1.3c-1.1,0.6-2,1.3-2.8,2.2
				c-1.6,1.8-2.5,4.1-3.1,6.5s-0.8,4.9-0.9,7.4C83,94,83.1,96.5,83.2,99.1z"/>
		</g>
	</g>
</g>
</svg>
