<?xml version="1.0" encoding="utf-8"?>
<!-- Generator: Adobe Illustrator 15.0.0, SVG Export Plug-In . SVG Version: 6.00 Build 0)  -->
<!DOCTYPE svg PUBLIC "-//W3C//DTD SVG 1.1//EN" "http://www.w3.org/Graphics/SVG/1.1/DTD/svg11.dtd">
<svg version="1.1" id="Layer_1" xmlns="http://www.w3.org/2000/svg" xmlns:xlink="http://www.w3.org/1999/xlink" x="0px" y="0px"
	 width="200px" height="200px" viewBox="0 0 200 200" enable-background="new 0 0 200 200" xml:space="preserve">
<g>
	<g>
		<path fill="#808080" d="M100,200.316c-25.817,0-57.956,0-78.925-21.075C0,158.166,0,126.027,0,100.316
			C0,74.605,0,42.36,21.075,21.391C42.149,0.316,74.289,0.316,100,0.316c25.816,0,57.955,0,78.926,21.075
			C200,42.466,200,74.605,200,100.316c0,25.711,0,57.956-21.074,78.925C157.955,200.316,125.816,200.316,100,200.316z M100,4.531
			c-25.079,0-56.165,0-75.975,19.81c-19.81,19.705-19.81,50.896-19.81,75.975c0,25.079,0,56.165,19.811,75.975
			c19.81,19.811,51.001,19.811,75.975,19.811c24.974,0,56.164,0,75.976-19.811c19.811-19.811,19.811-51.002,19.811-75.975
			c0-25.079,0-56.164-19.811-75.975C156.164,4.531,125.079,4.531,100,4.531z"/>
	</g>
	<ellipse fill="#1E1E1E" cx="104.688" cy="158.027" rx="73.188" ry="12.118"/>
	<g display="none">
		<path display="inline" fill="#FFFFFF" d="M98.419,74.078c0,0,6.323-18.651,13.909-19.705c0,0-6.743,1.792-10.854,20.759
			C100.738,75.448,98.419,74.078,98.419,74.078z"/>
		<path display="inline" fill="#FFFFFF" d="M102.529,73.551c0,0-16.544-10.749-23.077-6.85c0,0,6.428-2.74,21.391,9.589
			C101.58,75.975,102.529,73.551,102.529,73.551z"/>
		<path display="inline" fill="#FFFFFF" d="M102.951,73.235c0,0-7.271-12.855-14.437-11.591c0,0,6.428-0.422,11.697,13.277
			C100.843,74.921,102.951,73.235,102.951,73.235z"/>
		<path display="inline" fill="#FFFFFF" d="M100.738,73.235c0,0,9.799-10.959,16.543-8.324c0,0-6.217-1.792-14.227,10.537
			C102.424,75.237,100.738,73.235,100.738,73.235z"/>
		<path display="inline" fill="#F44336" d="M140.568,107.691c0,22.34-18.123,40.465-40.463,40.465
			c-22.339,0-40.464-18.125-40.464-40.465c0-21.074,12.224-34.667,32.771-36.458c1.265-0.105,6.428,1.792,7.798,1.792
			c2.106,0,6.006-1.792,8.008-1.476C127.502,74.183,140.568,87.46,140.568,107.691z"/>
		<g display="inline">
			<path fill="#FFFFFF" d="M66.386,93.783c1.475-4.215,3.793-8.114,6.744-11.485c2.951-3.372,6.744-6.112,11.17-7.482
				c2.213-0.632,4.531-0.843,6.744-0.737c1.159,0,2.213,0.21,3.372,0.421c1.054,0.211,2.213,0.316,3.267,0.527
				c2.213,0.316,4.32,0.316,6.533-0.316c1.054-0.211,2.214-0.422,3.372-0.422c1.159,0,2.213,0.211,3.372,0.422
				c-1.159-0.105-2.213-0.211-3.267-0.211c-1.055,0-2.213,0.316-3.268,0.632c-2.107,0.737-4.531,0.737-6.744,0.632l-1.686-0.211
				l-1.686-0.211c-1.054-0.105-2.212-0.316-3.267-0.316c-2.212-0.105-4.32,0.211-6.428,0.843c-4.215,1.159-7.903,3.793-10.854,6.955
				c-1.475,1.581-2.845,3.372-4.109,5.163C68.493,89.779,67.334,91.781,66.386,93.783z"/>
		</g>
	</g>
</g>
<path fill="#FFC73B" d="M101.185,53.683c5.517-1.941,14.156-6.279,14.156-14.439c0,0,15.327,9.542,30.421,4.297
	c-6.215,12.737,5.094,25.67,5.094,25.67c-4.055,0-7.313,1.28-9.898,3.113l-24.018,15.499l-19.018-8.023"/>
<path fill="#EFB025" d="M107.724,77.607c-0.567,0-1.135-0.17-1.589-0.514c-0.978-0.741-1.057-2.009-0.179-2.833l21.815-20.476
	c0.877-0.824,2.381-0.891,3.357-0.15c0.977,0.74,1.057,2.009,0.178,2.833l-21.814,20.476
	C109.021,77.382,108.374,77.607,107.724,77.607z"/>
<path fill="#ADC165" d="M87.347,71.401V53.683h24.853v17.718"/>
<path fill="#99AA52" d="M87.347,71.401V53.683h7.721v17.718"/>
<path fill="#99AA52" d="M88.932,70.732c-0.997,0-1.925-0.533-2.256-1.375c-3.169-8.048-8.943-14.713-14.414-18.693
	c-0.684,3.542-2.463,6.791-5.29,9.6c-3.42,3.397-7.987,4.63-12.529,3.38c-4.861-1.336-8.661-5.385-9.034-9.629
	c-0.367-4.168,2.458-7.838,7.752-10.07c4.58-1.931,9.363-2.113,14.23-0.545c-0.776-3.293-2.269-5.609-2.405-5.815
	c-0.637-0.966-0.229-2.188,0.916-2.729c1.144-0.54,2.589-0.199,3.232,0.766c0.092,0.139,2.273,3.45,3.119,8.092
	c0.122,0.667,0.209,1.328,0.264,1.983c9.254,5.334,16.075,15.803,18.672,22.397c0.415,1.051-0.26,2.187-1.506,2.536
	C89.434,70.699,89.181,70.732,88.932,70.732z M60.916,46.359c-1.906,0-3.772,0.391-5.63,1.174c-3.584,1.51-5.36,3.648-5.135,6.184
	c0.232,2.646,2.711,5.274,5.764,6.113c1.878,0.516,4.692,0.56,7.433-2.163c3.181-3.16,4.333-6.573,4.488-9.672
	c-0.58-0.272-1.144-0.505-1.69-0.696C64.357,46.672,62.62,46.359,60.916,46.359z"/>
<path fill="#ADC165" d="M99.195,57.028c-0.707,0-1.406-0.266-1.875-0.771c-7.034-7.593-12.02-18.626-2.927-24.734
	c3.485-2.341,7.377-2.792,10.675-1.237c3.384,1.595,5.42,5.005,4.948,8.293c-0.438,3.062-2.906,5.334-6.771,6.233
	c-1.268,0.293-2.575-0.333-2.925-1.401c-0.348-1.067,0.395-2.173,1.66-2.468c1.997-0.463,3.112-1.421,3.315-2.846
	c0.238-1.66-0.857-3.513-2.547-4.31c-1.988-0.937-4.031-0.042-5.395,0.874c-2.864,1.924-3.758,4.715-2.732,8.532
	c0.874,3.254,3.223,7.115,6.444,10.593c0.809,0.873,0.625,2.133-0.408,2.815C100.223,56.888,99.707,57.028,99.195,57.028z"/>
<path fill="#E87425" d="M61.87,115.099c0,19.939,10.686,36.84,25.477,42.71v0.988c-1.046,0.211-2.102,0.396-3.17,0.553
	c-3.008,0.444-6.099,0.677-9.256,0.677c-29.411,0-53.248-20.116-53.248-44.928c0-24.813,23.837-44.929,53.248-44.929
	c3.157,0,6.248,0.232,9.256,0.676c1.068,0.158,2.124,0.342,3.17,0.554v0.987C72.556,78.258,61.87,95.159,61.87,115.099z"/>
<path fill="#FF903E" d="M112.199,158.797c3.988,0.806,8.146,1.23,12.426,1.23c29.41,0,53.251-20.116,53.251-44.929
	c0-24.813-23.841-44.929-53.251-44.929c-4.279,0-8.438,0.425-12.426,1.231"/>
<path fill="#E87425" d="M163.75,115.099c0,24.812-23.84,44.928-53.248,44.928c-1.813,0-3.601-0.077-5.366-0.228
	c26.891-2.266,47.884-21.415,47.884-44.7s-20.99-42.434-47.88-44.702c1.765-0.153,3.553-0.227,5.362-0.227
	C139.91,70.17,163.75,90.286,163.75,115.099z"/>
<path fill="#FF903E" d="M153.022,115.099c0,24.813-23.841,44.929-53.249,44.929c-29.408,0-53.248-20.116-53.248-44.929
	c0-24.814,23.84-44.93,53.248-44.93C129.182,70.168,153.022,90.285,153.022,115.099z"/>
<path fill="#FF903E" d="M87.347,157.809c2.945,1.172,6.054,1.905,9.274,2.135c-1.055,0.054-2.116,0.083-3.188,0.083
	c-3.158,0-6.252-0.232-9.256-0.677c-24.995-3.696-43.991-22.103-43.991-44.251c0-22.149,18.996-40.556,43.991-44.252
	c3.004-0.444,6.099-0.676,9.256-0.676c1.072,0,2.133,0.029,3.188,0.082c-3.22,0.23-6.33,0.964-9.274,2.135
	C72.556,78.258,61.87,95.159,61.87,115.099C61.87,135.038,72.556,151.938,87.347,157.809z"/>
<path fill="#E87425" d="M68.209,115.099c0-23.911,15.367-43.456,34.752-44.847c-1.055-0.053-2.116-0.083-3.188-0.083
	c-29.408,0-53.248,20.116-53.248,44.93c0,24.813,23.84,44.929,53.248,44.929c1.071,0,2.133-0.03,3.188-0.082
	C83.576,158.553,68.209,139.009,68.209,115.099z"/>
</svg>
