<?xml version="1.0" encoding="utf-8"?>
<!-- Generator: Adobe Illustrator 15.0.0, SVG Export Plug-In . SVG Version: 6.00 Build 0)  -->
<!DOCTYPE svg PUBLIC "-//W3C//DTD SVG 1.1//EN" "http://www.w3.org/Graphics/SVG/1.1/DTD/svg11.dtd">
<svg version="1.1" id="Layer_1" xmlns="http://www.w3.org/2000/svg" xmlns:xlink="http://www.w3.org/1999/xlink" x="0px" y="0px"
	 width="200px" height="200px" viewBox="0 0 200 200" enable-background="new 0 0 200 200" xml:space="preserve">
<g>
	<g>
		<path fill="#808080" d="M100,200.316c-25.817,0-57.956,0-78.925-21.075C0,158.166,0,126.027,0,100.316
			C0,74.605,0,42.36,21.075,21.391C42.149,0.316,74.289,0.316,100,0.316c25.816,0,57.955,0,78.926,21.075
			C200,42.466,200,74.605,200,100.316c0,25.711,0,57.956-21.074,78.925C157.955,200.316,125.816,200.316,100,200.316z M100,4.531
			c-25.079,0-56.165,0-75.975,19.81c-19.81,19.705-19.81,50.896-19.81,75.975c0,25.079,0,56.165,19.811,75.975
			c19.81,19.811,51.001,19.811,75.975,19.811c24.974,0,56.164,0,75.976-19.811c19.811-19.811,19.811-51.002,19.811-75.975
			c0-25.079,0-56.164-19.811-75.975C156.164,4.531,125.079,4.531,100,4.531z"/>
	</g>
	<ellipse fill="#1E1E1E" cx="102.229" cy="157.706" rx="52.271" ry="10.892"/>
	<g display="none">
		<path display="inline" fill="#FFFFFF" d="M98.419,74.078c0,0,6.323-18.651,13.909-19.705c0,0-6.743,1.792-10.854,20.759
			C100.738,75.448,98.419,74.078,98.419,74.078z"/>
		<path display="inline" fill="#FFFFFF" d="M102.529,73.551c0,0-16.544-10.749-23.077-6.85c0,0,6.428-2.74,21.391,9.589
			C101.58,75.975,102.529,73.551,102.529,73.551z"/>
		<path display="inline" fill="#FFFFFF" d="M102.951,73.235c0,0-7.271-12.855-14.437-11.591c0,0,6.428-0.422,11.697,13.277
			C100.843,74.921,102.951,73.235,102.951,73.235z"/>
		<path display="inline" fill="#FFFFFF" d="M100.738,73.235c0,0,9.799-10.959,16.543-8.324c0,0-6.217-1.792-14.227,10.537
			C102.424,75.237,100.738,73.235,100.738,73.235z"/>
		<path display="inline" fill="#F44336" d="M140.568,107.691c0,22.34-18.123,40.465-40.463,40.465
			c-22.339,0-40.464-18.125-40.464-40.465c0-21.074,12.224-34.667,32.771-36.458c1.265-0.105,6.428,1.792,7.798,1.792
			c2.106,0,6.006-1.792,8.008-1.476C127.502,74.183,140.568,87.46,140.568,107.691z"/>
		<g display="inline">
			<path fill="#FFFFFF" d="M66.386,93.783c1.475-4.215,3.793-8.114,6.744-11.485c2.951-3.372,6.744-6.112,11.17-7.482
				c2.213-0.632,4.531-0.843,6.744-0.737c1.159,0,2.213,0.21,3.372,0.421c1.054,0.211,2.213,0.316,3.267,0.527
				c2.213,0.316,4.32,0.316,6.533-0.316c1.054-0.211,2.214-0.422,3.372-0.422c1.159,0,2.213,0.211,3.372,0.422
				c-1.159-0.105-2.213-0.211-3.267-0.211c-1.055,0-2.213,0.316-3.268,0.632c-2.107,0.737-4.531,0.737-6.744,0.632l-1.686-0.211
				l-1.686-0.211c-1.054-0.105-2.212-0.316-3.267-0.316c-2.212-0.105-4.32,0.211-6.428,0.843c-4.215,1.159-7.903,3.793-10.854,6.955
				c-1.475,1.581-2.845,3.372-4.109,5.163C68.493,89.779,67.334,91.781,66.386,93.783z"/>
		</g>
	</g>
</g>
<g display="none">
	<path display="inline" fill="#583E68" d="M152.838,76.479c0.01,0.007,0.02,0.017,0.027,0.023l-0.051-0.034
		C152.825,76.47,152.831,76.475,152.838,76.479c-2.402-1.729-3.375-4.54-2.165-6.292c-1.215,1.759-4.166,1.784-6.59,0.057
		c-2.425-1.729-3.405-4.557-2.19-6.315c-1.215,1.758-4.168,1.784-6.592,0.057c-2.423-1.729-3.404-4.557-2.191-6.315
		c-1.119,1.625-3.715,1.752-6.018,0.406c-3.434,2.538-7.244,5.98-11.425,10.659c0,0-18.088,17.171-43.605,21.897
		c-2.36,0.438-4.701,1.019-6.901,1.989c-0.987,0.436-3.18,1.6-3.18,1.6c-15.017,8.436-23.034,26.444-18.322,44.016
		c4.229,15.779,17.474,26.58,32.555,28.279c6.921,0.778,13.884-0.754,20.186-3.762c14.03-6.693,42.639-26.016,54.471-75.431
		c0,0,1.785-4.479,3.061-10.283C153.557,76.902,153.189,76.725,152.838,76.479z"/>
	<path display="inline" fill="#6A3311" d="M152.195,50.731c-1.237,0-2.242-1.019-2.242-2.278c0-1.259,1.005-2.278,2.242-2.278
		c4.313,0,7.863-1.337,9.271-3.488c1.012-1.546,0.98-3.647-0.093-6.244c-0.478-1.16,0.06-2.495,1.202-2.982
		c1.146-0.492,2.455,0.059,2.936,1.219c2.104,5.096,0.994,8.538-0.31,10.529C162.939,48.667,158.078,50.731,152.195,50.731z"/>
	<path display="inline" fill="#659C35" d="M126.475,57.691c-2.229-1.59-2.824-4.634-1.33-6.798c1.496-2.167,4.517-2.634,6.746-1.043
		c4.785-6.931,13.405-6.318,20.541-1.23c7.137,5.087,10.36,12.915,5.575,19.845c2.229,1.59,2.825,4.634,1.33,6.798
		c-1.496,2.164-4.291,2.793-6.519,1.205l0.049,0.034c-2.424-1.729-3.407-4.557-2.192-6.315c-1.215,1.759-4.165,1.784-6.59,0.057
		c-2.424-1.729-3.405-4.557-2.19-6.315c-1.215,1.758-4.166,1.784-6.592,0.057c-2.424-1.729-3.406-4.557-2.189-6.315
		c-1.217,1.758-4.166,1.784-6.592,0.057"/>
	<path display="inline" fill="#6F58A8" d="M59.684,147.909c-0.755,0-1.495-0.39-1.917-1.093c-5.344-8.912-5.956-20.771-1.594-30.955
		c0.493-1.154,1.816-1.687,2.951-1.182c1.136,0.502,1.655,1.846,1.163,2.995c-3.788,8.847-3.284,19.104,1.312,26.769
		c0.643,1.076,0.31,2.477-0.747,3.131C60.484,147.803,60.082,147.909,59.684,147.909z"/>
	<path display="inline" fill="#6F58A8" d="M62.698,111.762c-0.518,0-1.038-0.183-1.462-0.553c-0.938-0.822-1.043-2.259-0.233-3.212
		c2.751-3.243,6.212-5.784,10.006-7.354c1.146-0.472,2.456,0.09,2.922,1.256c0.466,1.164-0.086,2.494-1.234,2.969
		c-3.139,1.294-6.01,3.406-8.297,6.104C63.954,111.492,63.326,111.762,62.698,111.762z"/>
</g>
<path display="none" fill="#75A4C8" d="M142.625,161.781c0.102,0,0.203-0.002,0.303-0.004c4.385-0.082,8.432-1.898,11.412-5.113
	c5.631-6.074,5.631-15.588,0-21.662c-4.512-4.873-11.66-6.443-17.803-3.908c-1.875,0.773-4.049,0.313-5.549-1.178L43.74,42.667
	c-1.184-1.182-3.112-1.182-4.298,0c-1.172,1.182-1.172,3.098,0,4.28l87.281,87.25c3.211,3.225,7.993,4.201,12.118,2.49
	c3.82-1.574,8.261-0.599,11.063,2.428c3.484,3.768,3.484,9.668,0,13.434c-1.844,1.998-4.373,3.125-7.09,3.176
	c-2.707,0.053-5.267-0.977-7.166-2.895c-1.187-1.184-3.113-1.184-4.297,0c-1.187,1.182-1.187,3.098,0,4.279
	C134.363,160.129,138.355,161.781,142.625,161.781z"/>
<path display="none" fill="#FFBD47" d="M96.363,91.483c0,4.461-3.613,8.079-8.079,8.079c-4.466,0-8.078-3.617-8.078-8.079
	s3.612-8.079,8.078-8.079C92.75,83.404,96.363,87.021,96.363,91.483z"/>
<path display="none" fill="#C87C5B" d="M103.723,115.42l8.496-8.494c1.947-1.945,1.947-5.099,0-7.043l-8.496-8.494
	c-1.938-1.946-5.1-1.946-7.047,0l-8.483,8.494c-1.962,1.944-1.962,5.098,0,7.043l8.483,8.494
	C98.623,117.365,101.785,117.365,103.723,115.42z"/>
<path display="none" fill="#A46243" d="M88.193,106.926l8.481,8.496c1.949,1.945,5.111,1.943,7.051-0.002l4.869-4.881
	c-1.932,1.943-5.08,1.943-7.043,0l-8.482-8.495c-1.944-1.946-1.944-5.097,0-7.042l-4.875,4.881
	C86.232,101.827,86.23,104.982,88.193,106.926z"/>
<path display="none" fill="#FF5555" d="M105.922,127.4c-0.029-0.023-0.033-0.043-0.055-0.064c-5.049-5.047-5.049-13.229,0-18.273
	c5.049-5.043,13.225-5.045,18.275,0c0.024,0.021,0.026,0.045,0.049,0.066L105.922,127.4z"/>
<path display="none" fill="#FF5555" d="M39.771,55.994c-1.3,1.298-0.75,3.522,1.014,4.035c4.396,1.278,9.321,0.188,12.763-3.268
	c3.472-3.455,4.539-8.381,3.265-12.764c-0.496-1.762-2.718-2.32-4.016-1.022L39.771,55.994z"/>
<path display="none" fill="#76BC4D" d="M112.939,133.613l17.467-17.463c2.178-2.164,2.178-5.672,0-7.838
	c-2.146-2.164-5.656-2.164-7.836,0l-17.465,17.463c-2.148,2.164-2.148,5.674,0,7.838
	C107.285,135.777,110.793,135.777,112.939,133.613z"/>
<path display="none" fill="#76BC4D" d="M74.833,95.492L92.296,78.03c2.153-2.164,2.153-5.673,0-7.838
	c-2.174-2.164-5.682-2.164-7.853,0L66.985,87.655c-2.164,2.164-2.164,5.672,0,7.836C69.148,97.657,72.657,97.657,74.833,95.492z"/>
<path display="none" fill="#E6F072" d="M70.297,85.123l11.617-11.612c1.83-1.839,1.83-4.821,0-6.661l-1.177-1.177
	c-1.831-1.84-4.828-1.84-6.657,0L62.461,77.285c-1.83,1.84-1.83,4.822,0,6.661l1.179,1.176
	C65.471,86.962,68.467,86.962,70.297,85.123z"/>
<path display="none" fill="#C87C5B" d="M64.488,76.186l8.479-8.494c1.964-1.945,1.964-5.099,0-7.043l-8.479-8.494
	c-1.957-1.945-5.116-1.945-7.047,0l-8.504,8.494c-1.939,1.945-1.939,5.098,0,7.043l8.504,8.494
	C59.373,78.13,62.532,78.13,64.488,76.186z"/>
<path display="none" fill="#A46243" d="M48.937,67.691l8.502,8.495c1.933,1.946,5.092,1.944,7.049-0.001l4.872-4.881
	c-1.934,1.945-5.083,1.945-7.046,0l-8.48-8.495c-1.964-1.945-1.964-5.097,0-7.042l-4.896,4.88
	C46.998,62.593,46.996,65.747,48.937,67.691z"/>
<path display="none" fill="#A46243" d="M100.006,100.165c-0.457,0-0.918-0.174-1.27-0.522c-0.713-0.704-0.721-1.85-0.018-2.562
	l0.021-0.021c0.701-0.711,1.848-0.717,2.564-0.014c0.713,0.703,0.717,1.85,0.014,2.561l-0.023,0.022
	C100.938,99.986,100.471,100.165,100.006,100.165z"/>
<path display="none" fill="#A46243" d="M100.199,105.215c-0.457,0-0.916-0.174-1.27-0.523c-0.713-0.703-0.721-1.85-0.018-2.561
	l0.027-0.021c0.703-0.711,1.844-0.717,2.557-0.014s0.721,1.85,0.019,2.559l-0.027,0.023
	C101.131,105.035,100.666,105.215,100.199,105.215z"/>
<path display="none" fill="#A46243" d="M63,70.285c-0.469,0-0.937-0.174-1.291-0.524c-0.705-0.703-0.705-1.849-0.001-2.56
	l0.011-0.022c0.704-0.711,1.864-0.718,2.567-0.014c0.703,0.703,0.711,1.849,0.007,2.56l-0.007,0.022
	C63.937,70.105,63.469,70.285,63,70.285z"/>
<g>
	<path fill="#A46F3E" d="M130.106,97.687l8.795-4.557c5.498-1.684,8.775-8.134,7.283-14.333c-1.493-6.199-7.213-9.895-12.712-8.209
		L119.7,81.316c-1.225,0.636-2.546-0.58-2.262-2.066c0.334-1.741,3.695-2.059,3.695-10.763c0-9.86-1.793-25.34-17.442-25.34
		c-16.429,0-18.313,14.184-18.313,25.485c0,6.504,3.481,9.278,3.732,10.619c0.271,1.454-1.024,2.64-2.234,2.049L70.312,69.448
		c-5.498-1.684-11.217,2.012-12.712,8.214l0,0c-1.495,6.199,1.783,12.648,7.281,14.333l11.314,5.524
		c3.787,2.616,11.012,9.371,7.576,21.166l-9.269,18.241c-5.138,1.391-8.824,7.117-7.781,13.527c0.913,5.597,5.485,9.5,10.535,9.5
		h3.415c0.149,0,0.293-0.02,0.442-0.025c0.16-0.01,0.32-0.011,0.479-0.026c0.533-0.055,1.051-0.16,1.557-0.302
		c0.13-0.036,0.26-0.072,0.388-0.112c0.503-0.167,0.987-0.375,1.457-0.618c0.148-0.077,0.293-0.154,0.439-0.24
		c0.427-0.25,0.834-0.538,1.225-0.85c0.169-0.136,0.335-0.271,0.497-0.42c0.358-0.325,0.693-0.683,1.01-1.057
		c0.146-0.173,0.288-0.343,0.424-0.527c0.33-0.441,0.625-0.917,0.896-1.409c0.051-0.094,0.119-0.166,0.166-0.263l10.497-16.767
		c1.523-2.434,4.727-2.434,6.249,0l10.498,16.767c0.049,0.096,0.114,0.167,0.166,0.263c0.271,0.493,0.565,0.968,0.896,1.409
		c0.136,0.182,0.277,0.354,0.425,0.527c0.314,0.374,0.65,0.729,1.008,1.057c0.162,0.146,0.328,0.284,0.498,0.42
		c0.39,0.315,0.796,0.6,1.224,0.85c0.146,0.087,0.291,0.161,0.439,0.24c0.469,0.243,0.953,0.454,1.455,0.618
		c0.131,0.043,0.259,0.076,0.39,0.112c0.506,0.143,1.023,0.248,1.557,0.302c0.16,0.017,0.318,0.017,0.479,0.026
		c0.152,0.006,0.298,0.025,0.446,0.025h3.415c5.048,0,9.62-3.903,10.532-9.502c1.045-6.412-2.641-12.137-7.781-13.527l-9.268-18.244
		C119.411,107.133,126.264,100.417,130.106,97.687z"/>
	<ellipse fill="#ED3F32" cx="103.273" cy="118.54" rx="4.707" ry="5.309"/>
	<ellipse fill="#88C057" cx="103.273" cy="99.426" rx="4.707" ry="5.31"/>
	<ellipse fill="#FFF5BB" cx="109.865" cy="58.013" rx="3.768" ry="4.248"/>
	<ellipse fill="#FFF5BB" cx="96.681" cy="58.013" rx="3.768" ry="4.248"/>
	<path fill="#FFF5BB" d="M103.273,77.923c-5.012-0.057-10.36-3.806-10.36-9.291c0-1.174,0.842-2.124,1.884-2.124
		s1.883,0.949,1.883,2.124c0,2.553,3.213,5.004,6.612,5.043c3.309,0,6.572-2.499,6.572-5.043c0-1.174,0.842-2.124,1.885-2.124
		c1.041,0,1.883,0.949,1.883,2.124C113.633,74.107,108.174,77.923,103.273,77.923z"/>
	<path fill="#FFF5BB" d="M132.852,71.071l-3.125,2.433l9.075,19.679l0.1-0.052c1.223-0.374,2.326-0.994,3.301-1.784L132.852,71.071z
		"/>
	<polygon fill="#FFF5BB" points="111.188,144.987 129.85,132.609 127.979,128.922 109.008,141.503 	"/>
	<path fill="#FFF5BB" d="M114.944,150.989l19.58-12.985c-0.775-0.472-1.604-0.843-2.48-1.08l-0.837-1.646l-18.441,12.227
		L114.944,150.989z"/>
	<polygon fill="#FFF5BB" points="98.475,140.006 78.621,128.814 76.748,132.505 96.277,143.517 	"/>
	<path fill="#FFF5BB" d="M92.743,149.161l2.205-3.52l-19.499-10.583l-0.947,1.866c-0.846,0.229-1.647,0.586-2.398,1.031
		L92.743,149.161z"/>
	<path fill="#FFF5BB" d="M62.777,91.05c0.659,0.391,1.357,0.716,2.104,0.943l1.381,0.673l7.389-20.83l-3.237-2.314L62.777,91.05z"/>
</g>
</svg>
