<?xml version="1.0" encoding="utf-8"?>
<!-- Generator: Adobe Illustrator 15.0.0, SVG Export Plug-In . SVG Version: 6.00 Build 0)  -->
<!DOCTYPE svg PUBLIC "-//W3C//DTD SVG 1.1//EN" "http://www.w3.org/Graphics/SVG/1.1/DTD/svg11.dtd">
<svg version="1.1" id="Layer_1" xmlns="http://www.w3.org/2000/svg" xmlns:xlink="http://www.w3.org/1999/xlink" x="0px" y="0px"
	 width="200px" height="200px" viewBox="0 0 200 200" enable-background="new 0 0 200 200" xml:space="preserve">
<g>
	<g>
		<path fill="#808080" d="M100,199.316c-25.817,0-57.956,0-78.925-21.075C0,157.166,0,125.027,0,99.316
			C0,73.605,0,41.36,21.075,20.391C42.149-0.684,74.289-0.684,100-0.684c25.816,0,57.955,0,78.926,21.075
			C200,41.466,200,73.605,200,99.316c0,25.711,0,57.956-21.074,78.925C157.955,199.316,125.816,199.316,100,199.316z M100,3.531
			c-25.079,0-56.165,0-75.975,19.81C4.215,43.046,4.215,74.237,4.215,99.316c0,25.079,0,56.165,19.811,75.975
			c19.81,19.811,51.001,19.811,75.975,19.811c24.974,0,56.164,0,75.976-19.811c19.811-19.811,19.811-51.002,19.811-75.975
			c0-25.079,0-56.164-19.811-75.975C156.164,3.531,125.079,3.531,100,3.531z"/>
	</g>
	<path fill="#1E1E1E" d="M101.678,148.5c25.095,0,45.443,2.484,45.443,5.549c0,3.065-20.349,5.549-45.443,5.549
		c-25.095,0-45.441-2.483-45.441-5.549C56.237,150.984,76.583,148.5,101.678,148.5z"/>
	<g display="none">
		<path display="inline" fill="#FFFFFF" d="M98.419,73.078c0,0,6.323-18.651,13.909-19.705c0,0-6.743,1.792-10.854,20.759
			C100.738,74.448,98.419,73.078,98.419,73.078z"/>
		<path display="inline" fill="#FFFFFF" d="M102.529,72.551c0,0-16.544-10.749-23.077-6.85c0,0,6.428-2.74,21.391,9.589
			C101.58,74.975,102.529,72.551,102.529,72.551z"/>
		<path display="inline" fill="#FFFFFF" d="M102.951,72.235c0,0-7.271-12.855-14.437-11.591c0,0,6.428-0.422,11.697,13.277
			C100.843,73.921,102.951,72.235,102.951,72.235z"/>
		<path display="inline" fill="#FFFFFF" d="M100.738,72.235c0,0,9.799-10.959,16.543-8.324c0,0-6.217-1.792-14.227,10.537
			C102.424,74.237,100.738,72.235,100.738,72.235z"/>
		<path display="inline" fill="#F44336" d="M140.568,106.691c0,22.34-18.123,40.465-40.463,40.465
			c-22.339,0-40.464-18.125-40.464-40.465c0-21.074,12.224-34.667,32.771-36.458c1.265-0.105,6.428,1.792,7.798,1.792
			c2.106,0,6.006-1.792,8.008-1.476C127.502,73.183,140.568,86.46,140.568,106.691z"/>
		<g display="inline">
			<path fill="#FFFFFF" d="M66.386,92.783c1.475-4.215,3.793-8.114,6.744-11.485c2.951-3.372,6.744-6.112,11.17-7.482
				c2.213-0.632,4.531-0.843,6.744-0.737c1.159,0,2.213,0.21,3.372,0.421c1.054,0.211,2.213,0.316,3.267,0.527
				c2.213,0.316,4.32,0.316,6.533-0.316c1.054-0.211,2.214-0.422,3.372-0.422c1.159,0,2.213,0.211,3.372,0.422
				c-1.159-0.105-2.213-0.211-3.267-0.211c-1.055,0-2.213,0.316-3.268,0.632c-2.107,0.737-4.531,0.737-6.744,0.632l-1.686-0.211
				l-1.686-0.211c-1.054-0.105-2.212-0.316-3.267-0.316c-2.212-0.105-4.32,0.211-6.428,0.843c-4.215,1.159-7.903,3.793-10.854,6.955
				c-1.475,1.581-2.845,3.372-4.109,5.163C68.493,88.779,67.334,90.781,66.386,92.783z"/>
		</g>
	</g>
</g>
<g display="none">
	<path display="inline" fill="#583E68" d="M152.838,76.479c0.01,0.007,0.02,0.017,0.027,0.023l-0.051-0.034
		C152.825,76.47,152.831,76.475,152.838,76.479c-2.402-1.729-3.375-4.54-2.165-6.292c-1.215,1.759-4.166,1.784-6.59,0.057
		c-2.425-1.729-3.405-4.557-2.19-6.315c-1.215,1.758-4.168,1.784-6.592,0.057c-2.423-1.729-3.404-4.557-2.191-6.315
		c-1.119,1.625-3.715,1.752-6.018,0.406c-3.434,2.538-7.244,5.98-11.425,10.659c0,0-18.088,17.171-43.605,21.897
		c-2.36,0.438-4.701,1.019-6.901,1.989c-0.987,0.436-3.18,1.6-3.18,1.6c-15.017,8.436-23.034,26.444-18.322,44.016
		c4.229,15.779,17.474,26.58,32.555,28.279c6.921,0.778,13.884-0.754,20.186-3.762c14.03-6.693,42.639-26.016,54.471-75.431
		c0,0,1.785-4.479,3.061-10.283C153.557,76.902,153.189,76.725,152.838,76.479z"/>
	<path display="inline" fill="#6A3311" d="M152.195,50.731c-1.237,0-2.242-1.019-2.242-2.278c0-1.259,1.005-2.278,2.242-2.278
		c4.313,0,7.863-1.337,9.271-3.488c1.012-1.546,0.98-3.647-0.093-6.244c-0.478-1.16,0.06-2.495,1.202-2.982
		c1.146-0.492,2.455,0.059,2.936,1.219c2.104,5.096,0.994,8.538-0.31,10.529C162.939,48.667,158.078,50.731,152.195,50.731z"/>
	<path display="inline" fill="#659C35" d="M126.475,57.691c-2.229-1.59-2.824-4.634-1.33-6.798c1.496-2.167,4.517-2.634,6.746-1.043
		c4.785-6.931,13.405-6.318,20.541-1.23c7.137,5.087,10.36,12.915,5.575,19.845c2.229,1.59,2.825,4.634,1.33,6.798
		c-1.496,2.164-4.291,2.793-6.519,1.205l0.049,0.034c-2.424-1.729-3.407-4.557-2.192-6.315c-1.215,1.759-4.165,1.784-6.59,0.057
		c-2.424-1.729-3.405-4.557-2.19-6.315c-1.215,1.758-4.166,1.784-6.592,0.057c-2.424-1.729-3.406-4.557-2.189-6.315
		c-1.217,1.758-4.166,1.784-6.592,0.057"/>
	<path display="inline" fill="#6F58A8" d="M59.684,147.909c-0.755,0-1.495-0.39-1.917-1.093c-5.344-8.912-5.956-20.771-1.594-30.955
		c0.493-1.154,1.816-1.687,2.951-1.182c1.136,0.502,1.655,1.846,1.163,2.995c-3.788,8.847-3.284,19.104,1.312,26.769
		c0.643,1.076,0.31,2.477-0.747,3.131C60.484,147.803,60.082,147.909,59.684,147.909z"/>
	<path display="inline" fill="#6F58A8" d="M62.698,111.762c-0.518,0-1.038-0.183-1.462-0.553c-0.938-0.822-1.043-2.259-0.233-3.212
		c2.751-3.243,6.212-5.784,10.006-7.354c1.146-0.472,2.456,0.09,2.922,1.256c0.466,1.164-0.086,2.494-1.234,2.969
		c-3.139,1.294-6.01,3.406-8.297,6.104C63.954,111.492,63.326,111.762,62.698,111.762z"/>
</g>
<path display="none" fill="#75A4C8" d="M142.625,161.781c0.102,0,0.203-0.002,0.303-0.004c4.385-0.082,8.432-1.898,11.412-5.113
	c5.631-6.074,5.631-15.588,0-21.662c-4.512-4.873-11.66-6.443-17.803-3.908c-1.875,0.773-4.049,0.313-5.549-1.178L43.74,42.667
	c-1.184-1.182-3.112-1.182-4.298,0c-1.172,1.182-1.172,3.098,0,4.28l87.281,87.25c3.211,3.225,7.993,4.201,12.118,2.49
	c3.82-1.574,8.261-0.599,11.063,2.428c3.484,3.768,3.484,9.668,0,13.434c-1.844,1.998-4.373,3.125-7.09,3.176
	c-2.707,0.053-5.267-0.977-7.166-2.895c-1.187-1.184-3.113-1.184-4.297,0c-1.187,1.182-1.187,3.098,0,4.279
	C134.363,160.129,138.355,161.781,142.625,161.781z"/>
<path display="none" fill="#FFBD47" d="M96.363,91.483c0,4.461-3.613,8.079-8.079,8.079c-4.466,0-8.078-3.617-8.078-8.079
	s3.612-8.079,8.078-8.079C92.75,83.404,96.363,87.021,96.363,91.483z"/>
<path display="none" fill="#C87C5B" d="M103.723,115.42l8.496-8.494c1.947-1.945,1.947-5.099,0-7.043l-8.496-8.494
	c-1.938-1.946-5.1-1.946-7.047,0l-8.483,8.494c-1.962,1.944-1.962,5.098,0,7.043l8.483,8.494
	C98.623,117.365,101.785,117.365,103.723,115.42z"/>
<path display="none" fill="#A46243" d="M88.193,106.926l8.481,8.496c1.949,1.945,5.111,1.943,7.051-0.002l4.869-4.881
	c-1.932,1.943-5.08,1.943-7.043,0l-8.482-8.495c-1.944-1.946-1.944-5.097,0-7.042l-4.875,4.881
	C86.232,101.827,86.23,104.982,88.193,106.926z"/>
<path display="none" fill="#FF5555" d="M105.922,127.4c-0.029-0.023-0.033-0.043-0.055-0.064c-5.049-5.047-5.049-13.229,0-18.273
	c5.049-5.043,13.225-5.045,18.275,0c0.024,0.021,0.026,0.045,0.049,0.066L105.922,127.4z"/>
<path display="none" fill="#FF5555" d="M39.771,55.994c-1.3,1.298-0.75,3.522,1.014,4.035c4.396,1.278,9.321,0.188,12.763-3.268
	c3.472-3.455,4.539-8.381,3.265-12.764c-0.496-1.762-2.718-2.32-4.016-1.022L39.771,55.994z"/>
<path display="none" fill="#76BC4D" d="M112.939,133.613l17.467-17.463c2.178-2.164,2.178-5.672,0-7.838
	c-2.146-2.164-5.656-2.164-7.836,0l-17.465,17.463c-2.148,2.164-2.148,5.674,0,7.838
	C107.285,135.777,110.793,135.777,112.939,133.613z"/>
<path display="none" fill="#76BC4D" d="M74.833,95.492L92.296,78.03c2.153-2.164,2.153-5.673,0-7.838
	c-2.174-2.164-5.682-2.164-7.853,0L66.985,87.655c-2.164,2.164-2.164,5.672,0,7.836C69.148,97.657,72.657,97.657,74.833,95.492z"/>
<path display="none" fill="#E6F072" d="M70.297,85.123l11.617-11.612c1.83-1.839,1.83-4.821,0-6.661l-1.177-1.177
	c-1.831-1.84-4.828-1.84-6.657,0L62.461,77.285c-1.83,1.84-1.83,4.822,0,6.661l1.179,1.176
	C65.471,86.962,68.467,86.962,70.297,85.123z"/>
<path display="none" fill="#C87C5B" d="M64.488,76.186l8.479-8.494c1.964-1.945,1.964-5.099,0-7.043l-8.479-8.494
	c-1.957-1.945-5.116-1.945-7.047,0l-8.504,8.494c-1.939,1.945-1.939,5.098,0,7.043l8.504,8.494
	C59.373,78.13,62.532,78.13,64.488,76.186z"/>
<path display="none" fill="#A46243" d="M48.937,67.691l8.502,8.495c1.933,1.946,5.092,1.944,7.049-0.001l4.872-4.881
	c-1.934,1.945-5.083,1.945-7.046,0l-8.48-8.495c-1.964-1.945-1.964-5.097,0-7.042l-4.896,4.88
	C46.998,62.593,46.996,65.747,48.937,67.691z"/>
<path display="none" fill="#A46243" d="M100.006,100.165c-0.457,0-0.918-0.174-1.27-0.522c-0.713-0.704-0.721-1.85-0.018-2.562
	l0.021-0.021c0.701-0.711,1.848-0.717,2.564-0.014c0.713,0.703,0.717,1.85,0.014,2.561l-0.023,0.022
	C100.938,99.986,100.471,100.165,100.006,100.165z"/>
<path display="none" fill="#A46243" d="M100.199,105.215c-0.457,0-0.916-0.174-1.27-0.523c-0.713-0.703-0.721-1.85-0.018-2.561
	l0.027-0.021c0.703-0.711,1.844-0.717,2.557-0.014s0.721,1.85,0.019,2.559l-0.027,0.023
	C101.131,105.035,100.666,105.215,100.199,105.215z"/>
<path display="none" fill="#A46243" d="M63,70.285c-0.469,0-0.937-0.174-1.291-0.524c-0.705-0.703-0.705-1.849-0.001-2.56
	l0.011-0.022c0.704-0.711,1.864-0.718,2.567-0.014c0.703,0.703,0.711,1.849,0.007,2.56l-0.007,0.022
	C63.937,70.105,63.469,70.285,63,70.285z"/>
<g display="none">
	<path display="inline" fill="#A46F3E" d="M139.904,89.477l11.668-5.375c7.293-1.986,11.641-9.594,9.662-16.906
		c-1.981-7.312-9.569-11.671-16.864-9.684L126.1,70.168c-1.625,0.75-3.377-0.684-3-2.437c0.442-2.054,4.901-2.428,4.901-12.695
		c0-11.63-2.378-29.889-23.138-29.889c-21.795,0-24.294,16.73-24.294,30.06c0,7.672,4.618,10.944,4.951,12.525
		c0.36,1.715-1.359,3.113-2.964,2.417l-21.974-13.98c-7.294-1.986-14.881,2.373-16.864,9.688l0,0
		c-1.983,7.312,2.365,14.919,9.658,16.905l15.01,6.516c5.024,3.086,14.608,11.052,10.05,24.964L66.14,135.758
		c-6.816,1.641-11.706,8.395-10.322,15.956c1.211,6.601,7.276,11.205,13.975,11.205h4.53c0.197,0,0.389-0.022,0.586-0.03
		c0.213-0.011,0.425-0.013,0.635-0.031c0.707-0.063,1.394-0.188,2.066-0.355c0.172-0.043,0.345-0.085,0.515-0.133
		c0.667-0.196,1.309-0.441,1.932-0.729c0.197-0.091,0.389-0.183,0.582-0.283c0.567-0.295,1.107-0.635,1.625-1.002
		c0.224-0.16,0.444-0.321,0.659-0.496c0.475-0.383,0.919-0.805,1.339-1.246c0.193-0.204,0.382-0.404,0.563-0.622
		c0.438-0.521,0.829-1.081,1.189-1.662c0.068-0.11,0.158-0.196,0.22-0.31l13.925-19.776c2.021-2.87,6.271-2.87,8.29,0l13.926,19.776
		c0.064,0.112,0.152,0.197,0.221,0.31c0.359,0.582,0.75,1.142,1.188,1.662c0.181,0.215,0.368,0.418,0.563,0.622
		c0.418,0.441,0.863,0.859,1.338,1.246c0.215,0.172,0.436,0.336,0.66,0.496c0.518,0.371,1.057,0.707,1.623,1.002
		c0.193,0.102,0.387,0.189,0.584,0.283c0.621,0.287,1.264,0.535,1.93,0.729c0.174,0.051,0.344,0.09,0.517,0.133
		c0.672,0.168,1.358,0.293,2.065,0.355c0.213,0.02,0.422,0.021,0.636,0.031c0.202,0.008,0.396,0.03,0.592,0.03h4.53
		c6.697,0,12.763-4.604,13.973-11.207c1.387-7.563-3.503-14.315-10.322-15.956l-12.295-21.52
		C125.716,100.619,134.807,92.698,139.904,89.477z"/>
	<ellipse display="inline" fill="#ED3F32" cx="104.309" cy="114.073" rx="6.244" ry="6.262"/>
	<ellipse display="inline" fill="#88C057" cx="104.309" cy="91.528" rx="6.244" ry="6.263"/>
	<ellipse display="inline" fill="#FFF5BB" cx="113.053" cy="42.682" rx="4.998" ry="5.01"/>
	<ellipse display="inline" fill="#FFF5BB" cx="95.562" cy="42.682" rx="4.999" ry="5.01"/>
	<path display="inline" fill="#FFF5BB" d="M104.309,66.166c-6.649-0.068-13.744-4.489-13.744-10.959
		c0-1.385,1.117-2.505,2.499-2.505s2.498,1.12,2.498,2.505c0,3.011,4.263,5.902,8.773,5.949c4.388,0,8.718-2.948,8.718-5.949
		c0-1.385,1.116-2.505,2.5-2.505c1.381,0,2.498,1.12,2.498,2.505C118.051,61.664,110.809,66.166,104.309,66.166z"/>
	<path display="inline" fill="#FFF5BB" d="M143.547,58.083l-4.146,2.87l12.039,23.211l0.133-0.061
		c1.621-0.441,3.085-1.172,4.378-2.104L143.547,58.083z"/>
	<polygon display="inline" fill="#FFF5BB" points="114.807,145.268 139.564,130.668 137.082,126.318 111.916,141.158 	"/>
	<path display="inline" fill="#FFF5BB" d="M119.791,152.348l25.975-15.316c-1.029-0.557-2.129-0.994-3.291-1.274l-1.109-1.942
		L116.9,148.236L119.791,152.348z"/>
	<polygon display="inline" fill="#FFF5BB" points="97.943,139.393 71.604,126.191 69.119,130.545 95.027,143.533 	"/>
	<path display="inline" fill="#FFF5BB" d="M90.339,150.191l2.924-4.151l-25.866-12.483l-1.257,2.201
		c-1.122,0.271-2.185,0.691-3.181,1.217L90.339,150.191z"/>
	<path display="inline" fill="#FFF5BB" d="M50.586,81.649c0.874,0.461,1.8,0.844,2.79,1.112l1.832,0.794l9.802-24.568l-4.293-2.73
		L50.586,81.649z"/>
</g>
<path display="none" fill="#3BBC56" d="M105.438,46.376c-0.479-4.201-3.74-22.748-24.11-27.375
	c-0.969-0.221-1.892,0.524-1.908,1.545c-0.104,6.34,1.507,26.299,25.759,26.674C105.264,46.938,105.352,46.657,105.438,46.376z"/>
<path display="none" fill="#30AA44" d="M85.089,20.547c0.003-0.156,0.029-0.306,0.072-0.447c-1.206-0.421-2.48-0.792-3.833-1.098
	c-0.969-0.221-1.892,0.524-1.908,1.545c-0.104,6.34,1.507,26.299,25.76,26.674c0.047-0.159,0.096-0.315,0.145-0.473
	C86.347,43.658,84.996,26.367,85.089,20.547z"/>
<path display="none" fill="#93603E" d="M127.57,27.092l-5.418-5.788c-1.238-1.322-3.332-1.188-4.397,0.283
	c-3.582,4.941-11.065,16.854-14.339,31.855c1.258-0.037,2.471,0.173,3.62,0.612c3.774-7.868,10.256-17.632,20.128-23.751
	C128.27,29.617,128.467,28.049,127.57,27.092z"/>
<path display="none" fill="#7F573C" d="M121.725,23.861c0.449-0.621,1.084-1,1.758-1.136l-1.33-1.42
	c-1.238-1.322-3.33-1.188-4.396,0.283c-3.582,4.941-11.066,16.854-14.339,31.855c1.258-0.037,2.47,0.173,3.62,0.612
	c0.465-0.969,0.972-1.967,1.521-2.984C112.197,38.277,118.52,28.28,121.725,23.861z"/>
<path display="none" fill="#F2D422" d="M136.123,114.01c3.072-22.162-6.084-42.581-21.335-50.776
	c-0.726-0.39-1.205-1.12-1.323-1.953c-1.352-9.533-13.963-11.589-18.09-2.903c-0.431,0.907-1.23,1.581-2.191,1.788
	c-16.748,3.612-30.948,20.516-34.005,42.555c-3.047,21.975,5.93,42.234,20.948,50.565c0.946,0.524,1.576,1.479,1.775,2.567
	c1.702,9.262,13.942,10.99,18.005,2.537c0.448-0.931,1.267-1.621,2.253-1.834C118.891,152.925,133.068,136.029,136.123,114.01z"/>
<path display="none" fill="#E2C01A" d="M87.651,155.969c-0.202-1.068-0.833-2.011-1.78-2.529
	c-15.034-8.226-24.056-28.162-21.061-49.754c3.004-21.655,17.16-38.233,33.893-41.742c0.959-0.201,1.758-0.861,2.186-1.751
	c1.838-3.816,5.379-5.512,8.854-5.382c-4.432-3.328-11.478-2.513-14.367,3.568c-0.431,0.907-1.231,1.581-2.191,1.788
	c-16.749,3.611-30.948,20.516-34.005,42.554c-3.047,21.977,5.929,42.235,20.947,50.566c0.947,0.523,1.577,1.48,1.776,2.568
	c1.168,6.356,7.304,9.164,12.351,7.565C91.096,162.449,88.396,159.896,87.651,155.969z"/>
<g display="none">
	<path display="inline" fill="#D6B013" d="M114.637,117.047c0.484,0.283,1.076,0.359,1.614,0.206
		c0.101-0.026,0.199-0.065,0.295-0.108c0.187-0.084,0.358-0.193,0.515-0.33c0.082-0.073,0.162-0.154,0.231-0.237
		c0.095-0.111,0.175-0.228,0.243-0.353s0.125-0.256,0.169-0.395c0.034-0.105,0.062-0.217,0.08-0.329
		c0.034-0.204,0.036-0.415,0.012-0.622c-0.012-0.107-0.032-0.214-0.062-0.314c-0.146-0.557-0.514-1.037-0.998-1.321
		c-0.486-0.284-1.076-0.359-1.615-0.205c-0.1,0.026-0.199,0.063-0.296,0.106c-0.187,0.084-0.361,0.197-0.517,0.334
		c-0.082,0.074-0.16,0.151-0.229,0.235c-0.095,0.108-0.175,0.226-0.243,0.351s-0.125,0.256-0.168,0.396
		c-0.034,0.103-0.061,0.211-0.079,0.321c-0.034,0.207-0.039,0.42-0.014,0.628c0.013,0.106,0.032,0.214,0.062,0.315
		C113.784,116.279,114.15,116.764,114.637,117.047z"/>
	<path display="inline" fill="#D6B013" d="M108.02,128.439c0.486,0.283,1.078,0.36,1.615,0.205c0.102-0.026,0.199-0.063,0.295-0.107
		c0.187-0.084,0.36-0.195,0.516-0.33c0.082-0.074,0.162-0.154,0.23-0.236c0.096-0.111,0.176-0.229,0.243-0.354
		c0.067-0.123,0.125-0.255,0.169-0.394c0.034-0.104,0.061-0.217,0.08-0.328c0.034-0.205,0.036-0.416,0.012-0.621
		c-0.012-0.108-0.031-0.215-0.062-0.317c-0.146-0.556-0.513-1.037-0.998-1.321c-0.486-0.281-1.076-0.359-1.614-0.203
		c-0.102,0.026-0.199,0.063-0.296,0.106c-0.188,0.085-0.362,0.196-0.519,0.334c-0.08,0.071-0.159,0.151-0.229,0.233
		c-0.094,0.109-0.175,0.229-0.242,0.352c-0.068,0.124-0.125,0.257-0.168,0.395c-0.035,0.104-0.063,0.213-0.08,0.321
		c-0.035,0.208-0.037,0.42-0.014,0.63c0.014,0.106,0.031,0.215,0.063,0.315C107.168,127.674,107.534,128.156,108.02,128.439z"/>
	<path display="inline" fill="#D6B013" d="M101.773,140.05c0.485,0.282,1.076,0.359,1.613,0.205
		c0.102-0.026,0.199-0.063,0.297-0.108c0.185-0.084,0.358-0.193,0.512-0.33c0.084-0.073,0.164-0.154,0.234-0.236
		c0.092-0.111,0.174-0.229,0.242-0.352c0.068-0.125,0.125-0.256,0.169-0.396c0.034-0.104,0.062-0.216,0.079-0.327
		c0.033-0.206,0.037-0.416,0.014-0.623c-0.015-0.106-0.033-0.214-0.063-0.315c-0.146-0.555-0.514-1.037-0.999-1.32
		s-1.076-0.359-1.614-0.205c-0.101,0.025-0.199,0.063-0.295,0.105c-0.188,0.086-0.363,0.199-0.518,0.334
		c-0.084,0.074-0.161,0.153-0.229,0.235c-0.093,0.109-0.174,0.228-0.241,0.353c-0.07,0.123-0.127,0.256-0.17,0.394
		c-0.033,0.103-0.061,0.212-0.078,0.322c-0.035,0.206-0.039,0.419-0.015,0.628c0.013,0.107,0.032,0.213,0.063,0.316
		C100.922,139.283,101.288,139.766,101.773,140.05z"/>
	<path display="inline" fill="#D6B013" d="M119.496,127.607c0.498,0.26,1.092,0.308,1.622,0.127c0.1-0.031,0.196-0.073,0.291-0.121
		c0.181-0.094,0.351-0.213,0.498-0.355c0.079-0.076,0.155-0.16,0.222-0.248c0.087-0.113,0.164-0.234,0.227-0.361
		c0.063-0.129,0.113-0.262,0.15-0.403c0.03-0.104,0.051-0.22,0.064-0.331c0.023-0.206,0.02-0.417-0.016-0.622
		c-0.019-0.106-0.043-0.212-0.076-0.313c-0.172-0.547-0.56-1.01-1.057-1.27c-0.498-0.262-1.092-0.309-1.623-0.129
		c-0.099,0.031-0.195,0.072-0.29,0.123c-0.183,0.094-0.353,0.214-0.502,0.357c-0.077,0.076-0.151,0.158-0.217,0.244
		c-0.089,0.114-0.164,0.235-0.228,0.362s-0.112,0.263-0.15,0.401c-0.029,0.104-0.051,0.216-0.063,0.324
		c-0.024,0.209-0.021,0.422,0.014,0.629c0.019,0.107,0.043,0.213,0.076,0.313C118.609,126.883,118.999,127.348,119.496,127.607z"/>
	<path display="inline" fill="#D6B013" d="M113.782,139.503c0.497,0.261,1.092,0.31,1.622,0.128c0.1-0.031,0.195-0.074,0.291-0.121
		c0.181-0.095,0.35-0.213,0.498-0.355c0.08-0.077,0.154-0.161,0.222-0.248c0.088-0.113,0.164-0.234,0.226-0.362
		c0.063-0.127,0.114-0.262,0.151-0.401c0.03-0.106,0.051-0.221,0.063-0.332c0.024-0.207,0.02-0.416-0.016-0.621
		c-0.017-0.106-0.042-0.213-0.074-0.313c-0.173-0.547-0.561-1.012-1.059-1.271c-0.498-0.26-1.092-0.309-1.622-0.127
		c-0.101,0.031-0.196,0.074-0.291,0.121c-0.183,0.094-0.353,0.215-0.501,0.358c-0.078,0.076-0.152,0.158-0.219,0.245
		c-0.088,0.113-0.163,0.234-0.227,0.361c-0.063,0.127-0.113,0.262-0.149,0.401c-0.029,0.104-0.05,0.216-0.063,0.326
		c-0.025,0.208-0.021,0.42,0.014,0.628c0.019,0.107,0.043,0.211,0.076,0.313C112.896,138.779,113.284,139.243,113.782,139.503z"/>
</g>
<path display="none" fill="#7F6E5D" d="M152.783,77.147h-0.102c-1.023,14.555-25.428,26.21-55.459,26.21
	c-30.03,0-54.435-11.655-55.459-26.21h-0.101C38.1,85.519,36.11,94.834,36.11,104.65c0,36.422,27.362,65.947,61.112,65.947
	c33.752,0,61.113-29.525,61.113-65.947C158.336,94.834,156.348,85.519,152.783,77.147z"/>
<path display="none" fill="none" stroke="#CBB292" stroke-width="2" stroke-linecap="round" stroke-miterlimit="10" d="
	M55.555,116.288c0,20.012,17.396,36.206,38.891,36.206"/>
<path display="none" fill="#CBB292" d="M117.449,55.926c-6.272-1.086-13.081-1.705-20.227-1.705
	c-30.684,0-55.557,10.999-55.557,24.568s24.873,24.568,55.557,24.568c30.685,0,55.557-11,55.557-24.568
	c0-8.402-9.553-15.814-24.104-20.244"/>
<ellipse display="none" fill="#070707" stroke="#0096E6" stroke-miterlimit="10" cx="69.444" cy="77.496" rx="2.778" ry="2.586"/>
<path display="none" fill="#F4E6CE" d="M111.447,65.458c-4.311-0.556-9.043-0.892-14.225-0.892
	c-28.87,0-44.444,10.096-44.444,14.224s15.574,14.224,44.444,14.224c28.871,0,44.447-10.097,44.447-14.224
	c0-2.656-6.479-7.769-18.76-11.086L111.447,65.458z"/>
<ellipse display="none" fill="#CBB292" cx="80.557" cy="77.496" rx="2.777" ry="2.586"/>
<ellipse display="none" fill="#CBB292" cx="88.89" cy="82.669" rx="2.778" ry="2.586"/>
<ellipse display="none" fill="#CBB292" cx="91.668" cy="72.324" rx="2.777" ry="2.586"/>
<line display="none" fill="none" stroke="#7F6E5D" stroke-width="2" stroke-linecap="round" stroke-linejoin="round" stroke-miterlimit="10" x1="51.794" y1="44.958" x2="69.444" y2="77.497"/>
<path display="none" fill="#A4E869" d="M108.26,85.912c-0.917,0-1.848-0.212-2.703-0.657c-2.678-1.394-3.64-4.544-2.142-7.037
	l30.546-48.515c2.273-3.649,6.078-6.008,10.48-6.541c4.395-0.545,8.728,0.833,11.865,3.758l17.065,15.887
	c2.169,2.02,2.169,5.293,0,7.313c-2.168,2.02-5.688,2.02-7.854,0l-17.065-15.887c-0.933-0.867-2.005-0.89-2.575-0.815
	c-0.561,0.067-1.602,0.341-2.264,1.402l-30.498,48.441C112.1,84.958,110.206,85.912,108.26,85.912z"/>
<path display="none" fill="#F0C419" stroke="#F0C419" stroke-width="2" stroke-linecap="round" stroke-linejoin="round" stroke-miterlimit="10" d="
	M28.538,57.459c-1.533-2.475,0.536-6.261,3.637-7.926c3.1-1.666,6.854-1.011,8.392,1.461c-1.533-2.475-0.265-5.829,2.836-7.497
	c3.101-1.666,6.855-1.011,8.392,1.461c-1.533-2.475-0.264-5.83,2.836-7.497c3.101-1.668,6.856-1.012,8.393,1.461
	c-1.533-2.475-0.264-5.829,2.836-7.497c3.101-1.668,6.855-1.011,8.393,1.461c-7.286-11.751-23.426-15.778-36.049-8.992
	C25.58,30.68,21.252,45.708,28.538,57.459z"/>
<g display="none">
	<path display="inline" fill="#EEAF4B" d="M100.276,133.383L100.276,133.383c-3.711,0-6.956-2.201-7.904-5.363L78.506,81.827
		c-1.117-5.514,3.692-10.578,10.045-10.578h23.446c6.354,0,11.164,5.064,10.046,10.578l-13.863,46.19
		C107.23,131.182,103.986,133.383,100.276,133.383z"/>
	<path display="inline" fill="#F4C44E" d="M147.791,83.694c-8.348-5.346-19.795-8.353-26.699-7.507
		c0.965,1.671,1.361,3.624,0.954,5.641L108.18,128.02c-0.217,0.724-0.566,1.387-1.002,1.994c1.143,0.608,2.456,1.025,3.895,1.123
		l0,0c11.992,3.408,30.773-17.941,40.392-30.217C156.395,94.622,154.813,88.189,147.791,83.694z"/>
	<path display="inline" fill="#F4C44E" d="M92.372,128.02L78.506,81.827c-0.413-2.037-0.008-4.007,0.977-5.689
		c-6.935-0.708-18.155,2.297-26.366,7.554c-7.022,4.496-8.604,10.931-3.672,17.229c9.615,12.276,28.399,33.625,40.391,30.218l0,0
		c1.327-0.092,2.547-0.453,3.63-0.982C92.981,129.514,92.606,128.796,92.372,128.02z"/>
	<g display="inline">
		<path fill="#F1B501" d="M49.446,100.92c-0.949-1.211-1.651-2.428-2.127-3.635c-6.769,5.984-12.084,13.064-15.402,20.912
			c-3.57,8.443,4.554,17.158,13.736,14.787l27.937-7.205C64.543,119.217,55.299,108.393,49.446,100.92z"/>
		<path fill="#F1B501" d="M171.15,118.2c-3.594-8.499-9.514-16.112-17.107-22.391c-0.4,1.687-1.244,3.404-2.58,5.112
			c-5.729,7.315-14.715,17.853-23.578,24.45l29.533,7.617C166.598,135.355,174.723,126.645,171.15,118.2z"/>
	</g>
	<path display="inline" fill="#F4C44E" d="M88.551,71.249c-0.105,0-0.201,0.027-0.304,0.031l4.125,13.747
		c0.948,3.163,4.193,5.364,7.904,5.364c3.71,0,6.955-2.201,7.904-5.364l4.125-13.747c-0.105-0.004-0.199-0.031-0.306-0.031H88.551z"
		/>
</g>
<g display="none">
	<path display="inline" fill="#EEAF4B" d="M165.447,89.459c0-20.031-29.752-36.269-66.452-36.269
		c-36.701,0-66.453,16.237-66.453,36.269v16.313c0,0.002,0,0.006,0,0.008c0,20.031,29.752,36.27,66.453,36.27
		c36.7,0,66.452-16.236,66.452-36.27c0-0.002,0-0.006,0-0.008V89.459z M100.161,98.526c-12.878,0-23.317-4.871-23.317-10.881
		s10.439-10.88,23.317-10.88s23.317,4.87,23.317,10.88C123.479,93.653,113.039,98.526,100.161,98.526z"/>
	<g display="inline">
		<path fill="#FBD490" d="M100.161,87.287c8.373,0,16.073,1.304,22.302,3.478c0.641-0.988,1.016-2.029,1.016-3.115
			c0-6.01-10.438-10.881-23.316-10.881s-23.318,4.871-23.318,10.88c0,1.086,0.375,2.127,1.014,3.115
			C84.084,88.591,91.785,87.287,100.161,87.287z"/>
	</g>
	<path display="inline" fill="#E6E6E6" d="M166.871,85.531C162.657,66.77,133.6,52.248,98.59,52.248
		c-33.535,0-61.304,13.325-67.245,30.937c-1.252,3.71,0.902,7.563,5.095,9.691c3.328,1.689,2.561,14.599,3.442,17.365
		c0.597,1.879,2.418,3.435,4.898,3.872c3.658,0.646,12.915-0.631,14.664,4.326c0.262,0.742,0.524,1.453,0.646,2.164
		c0.294,1.711,2.567,2.773,4.629,2.047c2.059-0.727,5.636-4.35,9.467-4.814c13.234-1.607,6.904,7.98,9.803,11.266
		c1.521,1.724,4.416,2.239,6.86,1.314c2.158-0.816,2.558-5.189,7.167-5.133c5.88,0.074,4.643,4.25,6.675,4.955
		c2.666,0.923,5.92,0.379,7.623-1.432c2.929-3.117,5.488-10.521,10.881-10.97c6.971-0.582,8.453,4.192,10.695,5.093
		c1.898,0.764,4.155-0.096,4.438-1.715c0.643-3.676,2.02-10.768,14.271-7.988c1.801,0.408,3.15-1.451,3.612-2.836
		c1.552-4.645,2.903-16.545,6.884-18.388C166.004,90.656,167.443,88.083,166.871,85.531z M100.161,98.526
		c-12.878,0-23.317-4.871-23.317-10.881s10.439-10.88,23.317-10.88s23.317,4.87,23.317,10.88
		C123.479,93.653,113.039,98.526,100.161,98.526z"/>
</g>
<g display="none">
	<path display="inline" fill="#6A3311" d="M139.907,62.592v-2.965H62.075v3.004c-2.022,7.477-11.791,10.749-11.791,27.926v43.821
		c0,18.343,13.606,33.211,30.387,33.211h30.937h9.705c16.783,0,30.388-14.871,30.388-33.211V90.561
		C151.699,73.353,141.893,70.12,139.907,62.592z"/>
	<path display="inline" fill="#A46F3E" d="M66.727,137.374c-1.515,0-2.74-1.338-2.74-2.995V90.558
		c0-10.138,3.24-15.977,6.063-19.931c0.931-1.307,2.651-1.543,3.846-0.519c1.196,1.016,1.407,2.9,0.475,4.203
		c-2.423,3.397-4.9,7.98-4.9,16.246v43.821C69.469,136.036,68.243,137.374,66.727,137.374z"/>
	<path display="inline" fill="#FFFFFF" d="M148.826,140.256h-43.725V89.329h45.019c0.872,0,1.579,0.772,1.579,1.725v46.061
		C151.699,138.85,150.413,140.256,148.826,140.256z"/>
	<path display="inline" fill="#E22F37" d="M148.826,125.109h-24.799v-20.733h26.096c0.871,0,1.578,0.774,1.578,1.728v15.863
		C151.699,123.705,150.413,125.109,148.826,125.109z"/>
	<path display="inline" fill="#E6E6E6" d="M143.163,59.372H58.779c-3.181,0-5.757-2.816-5.757-6.288V38.698
		c0-3.472,2.576-6.288,5.757-6.288h84.384c3.177,0,5.754,2.816,5.754,6.288v14.385C148.917,56.556,146.34,59.372,143.163,59.372z"/>
</g>
<g display="none">
	<path display="inline" fill="#659C35" d="M100.678,49.53c-1.196,0-2.257-0.775-2.481-1.884c-1.405-6.905-4.805-12.508-8.664-14.276
		c-1.248-0.571-1.752-1.957-1.125-3.093c0.627-1.138,2.144-1.597,3.393-1.025c7.976,3.653,10.715,14.359,11.364,17.556
		c0.256,1.251-0.651,2.452-2.022,2.688C100.982,49.516,100.829,49.53,100.678,49.53z"/>
	<path display="inline" d="M100.506,55.699c-2.346,0-4.61-0.763-6.306-2.309c-0.989-0.901-0.989-2.358,0-3.259
		c0.988-0.901,2.585-0.901,3.573,0c0.764,0.696,1.84,1.035,3.077,0.959c1.354-0.087,2.682-0.666,3.736-1.63
		c0.989-0.901,2.586-0.901,3.574,0s0.988,2.358,0,3.259C105.995,54.694,103.197,55.699,100.506,55.699z"/>
	<path display="inline" fill="#D7CC56" d="M101.486,41.928c5.656-0.058,11.227,2.704,14.019,7.523
		c2.382,4.112,3.528,9.09,5.038,13.495c2.13,6.221,3.682,12.62,5.854,18.812c2.246,6.412,6.355,12.428,9.865,18.314
		c3.047,5.11,6.885,10.231,8.854,15.784c2.562,7.224,2.141,15.227-0.688,22.334c-5.224,13.138-18.507,21.797-33.348,24.102
		c-3.15,0.488-6.371,0.721-9.594,0.703h-0.166c-3.224,0.014-6.443-0.215-9.594-0.703c-14.839-2.305-28.123-10.962-33.35-24.102
		c-2.828-7.11-3.247-15.11-0.687-22.334c1.968-5.553,5.805-10.672,8.853-15.784c3.511-5.889,7.62-11.902,9.867-18.314
		c2.171-6.195,3.723-12.594,5.853-18.812c1.51-4.407,2.656-9.385,5.038-13.495c2.793-4.819,8.362-7.583,14.021-7.523"/>
	<path display="inline" fill="#E3E82A" d="M88.509,150.209c-0.192,0-0.387-0.018-0.582-0.063
		c-7.597-1.631-13.66-6.107-16.638-12.287c-0.561-1.166,0.021-2.525,1.297-3.037c1.281-0.51,2.77,0.019,3.331,1.183
		c2.33,4.841,7.13,8.356,13.165,9.654c1.36,0.291,2.201,1.532,1.881,2.771C90.691,149.495,89.652,150.209,88.509,150.209z"/>
	<path display="inline" fill="#E3E82A" d="M71.57,126.516c-0.068,0-0.137-0.002-0.207-0.007c-1.39-0.101-2.427-1.212-2.315-2.481
		c0.212-2.398,0.657-4.834,1.321-7.239c0.345-1.235,1.719-1.976,3.071-1.671c1.352,0.311,2.174,1.564,1.832,2.801
		c-0.597,2.157-0.998,4.335-1.188,6.48C73.98,125.604,72.875,126.516,71.57,126.516z"/>
</g>
<g display="none">
	<path display="inline" fill="#FBD490" d="M57.73,64.844c-28.864,30.314-14.787,68.591,6.771,102.669l97.761-102.669
		C133.396,34.528,86.597,34.528,57.73,64.844z"/>
	<path display="inline" fill="#ED7161" d="M84.854,56.413c-0.925,0-1.799-0.58-2.163-1.538l-4.657-12.226
		c-0.478-1.254,0.103-2.677,1.297-3.179c1.199-0.499,2.55,0.107,3.027,1.364l4.656,12.227c0.478,1.254-0.103,2.677-1.297,3.179
		C85.433,56.357,85.142,56.413,84.854,56.413z"/>
	<path display="inline" fill="#659C35" d="M120.549,56.675c-0.191,0-0.387-0.024-0.58-0.076c-1.246-0.338-1.994-1.67-1.677-2.979
		l3.115-12.754c0.321-1.306,1.586-2.093,2.834-1.761c1.245,0.338,1.995,1.67,1.677,2.979l-3.113,12.754
		C122.532,55.941,121.587,56.675,120.549,56.675z"/>
	<path display="inline" fill="#ED7161" d="M82.525,61.304c-0.597,0-1.192-0.24-1.647-0.717c-0.91-0.956-0.91-2.501,0-3.458
		L92.52,44.904c0.911-0.957,2.383-0.957,3.293,0c0.91,0.956,0.91,2.501,0,3.458L84.171,60.587
		C83.714,61.064,83.121,61.304,82.525,61.304z"/>
	<path display="inline" fill="#ED7161" d="M66.226,71.084h-13.97c-1.284,0-2.328-1.093-2.328-2.444c0-1.353,1.044-2.446,2.328-2.446
		h13.97c1.286,0,2.329,1.093,2.329,2.446C68.555,69.991,67.512,71.084,66.226,71.084z"/>
	<path display="inline" fill="#659C35" d="M145.393,61.304c-0.854,0-1.678-0.494-2.086-1.353c-0.576-1.208-0.109-2.677,1.041-3.281
		l4.655-2.445c1.151-0.604,2.55-0.115,3.124,1.093c0.575,1.208,0.109,2.678-1.04,3.282l-4.657,2.445
		C146.096,61.218,145.741,61.304,145.393,61.304z"/>
	<path display="inline" fill="#E6E6E6" d="M40.615,141.996c-0.977,0-1.884-0.648-2.21-1.672c-0.407-1.281,0.251-2.668,1.472-3.094
		l6.985-2.445c1.224-0.434,2.539,0.264,2.945,1.545c0.407,1.281-0.252,2.668-1.472,3.094l-6.985,2.445
		C41.106,141.955,40.856,141.996,40.615,141.996z"/>
	<path display="inline" fill="#ED7161" d="M45.27,110.208c-0.35,0-0.705-0.083-1.039-0.257l-4.656-2.444
		c-1.15-0.604-1.616-2.073-1.041-3.282c0.575-1.205,1.97-1.691,3.124-1.093l4.657,2.445c1.15,0.604,1.615,2.073,1.04,3.28
		C46.945,109.712,46.124,110.208,45.27,110.208z"/>
	<path display="inline" fill="#E6E6E6" d="M56.913,166.449c-0.596,0-1.192-0.24-1.646-0.717c-0.91-0.957-0.91-2.502,0-3.459
		l2.329-2.444c0.91-0.956,2.382-0.956,3.292,0c0.91,0.956,0.91,2.502,0,3.458l-2.328,2.445
		C58.103,166.209,57.509,166.449,56.913,166.449z"/>
	<path display="inline" fill="#659C35" d="M74.329,64.529c-2.922,0-5.354-2.24-5.823-5.169c-0.221,1.11-1.157,1.944-2.28,1.944
		c-1.284,0-2.327-1.093-2.327-2.445c0-5.394,4.177-9.781,9.313-9.781c4.366,0,7.917,3.729,7.917,8.311
		C81.128,61.326,78.078,64.529,74.329,64.529z M70.753,55.882c1.284,0,2.328,1.093,2.328,2.445c0,0.724,0.562,1.311,1.248,1.311
		c1.181,0,2.143-1.01,2.143-2.25c0-1.885-1.463-3.421-3.261-3.421c-1.813,0-3.388,1.093-4.155,2.688
		C69.479,56.178,70.082,55.882,70.753,55.882z"/>
	<path display="inline" fill="#7A3726" d="M51.092,90.646c-4.493,0-8.148-3.839-8.148-8.559c0-4.719,3.655-8.558,8.148-8.558
		c4.494,0,8.149,3.839,8.149,8.558C59.241,86.808,55.583,90.646,51.092,90.646z M51.092,78.42c-1.925,0-3.492,1.646-3.492,3.668
		s1.567,3.668,3.492,3.668c1.927,0,3.493-1.646,3.493-3.668S53.019,78.42,51.092,78.42z"/>
	<path display="inline" fill="#7A3726" d="M102.314,56.413c-4.493,0-8.148-3.839-8.148-8.558c0-4.719,3.656-8.558,8.148-8.558
		c4.494,0,8.148,3.839,8.148,8.558C110.463,52.574,106.807,56.413,102.314,56.413z M102.314,44.187
		c-1.924,0-3.493,1.646-3.493,3.668s1.568,3.667,3.493,3.667c1.927,0,3.492-1.646,3.492-3.667
		C105.809,45.833,104.241,44.187,102.314,44.187z"/>
	<path display="inline" fill="#659C35" d="M42.94,127.325c-0.349,0-0.705-0.083-1.041-0.257c-3.713-1.955-5.227-6.715-3.368-10.617
		c1.602-3.364,5.506-4.733,8.71-3.053c1.353,0.709,2.361,1.933,2.84,3.438c0.48,1.505,0.371,3.117-0.306,4.535
		c-0.575,1.208-1.976,1.692-3.126,1.094c-1.15-0.606-1.615-2.075-1.038-3.282c0.16-0.34,0.103-0.648,0.054-0.805
		c-0.049-0.152-0.18-0.439-0.503-0.609c-0.91-0.48-2.012-0.086-2.464,0.867c-0.71,1.488-0.132,3.311,1.288,4.055
		c1.15,0.604,1.615,2.076,1.039,3.281C44.617,126.828,43.793,127.325,42.94,127.325z"/>
	<path display="inline" fill="#659C35" d="M50.859,160.578c-2.927,0-5.309-2.5-5.309-5.575c0-1.353,1.043-2.444,2.328-2.444
		s2.329,1.092,2.329,2.444c0,0.376,0.29,0.685,0.651,0.685c0.771,0,1.396-0.658,1.396-1.467c0-1.351-1.045-2.445-2.328-2.445
		c-1.285,0-2.328-1.094-2.328-2.445s1.043-2.443,2.328-2.443c3.852,0,6.985,3.291,6.985,7.336
		C56.913,157.727,54.196,160.578,50.859,160.578z"/>
	<path display="inline" fill="#7A3726" d="M133.748,58.858c-0.598,0-1.191-0.24-1.646-0.716c-3.476-3.648-3.476-9.59,0-13.238
		c2.961-3.108,7.781-3.108,10.744,0c1.235,1.296,1.916,3.02,1.916,4.856c0,1.836-0.681,3.563-1.916,4.858
		c-1.873,1.964-4.734,2.279-6.921,0.929c0.312,0.871,0.136,1.89-0.532,2.595C134.938,58.619,134.344,58.858,133.748,58.858z
		 M137.473,47.459c-0.754,0-1.506,0.301-2.078,0.902c-0.992,1.044-1.394,2.477-1.196,3.832c0.106-0.377,0.303-0.734,0.585-1.032
		c0.908-0.956,2.383-0.956,3.294,0c0.405,0.423,1.069,0.428,1.478,0c0.355-0.374,0.551-0.871,0.551-1.401
		c0-0.528-0.194-1.024-0.551-1.396C138.979,47.76,138.227,47.459,137.473,47.459z"/>
	<path display="inline" fill="#7A3726" d="M153.307,70.104c-2.928,0-5.31-2.499-5.31-5.575c0-1.352,1.043-2.445,2.329-2.445
		c1.283,0,2.326,1.093,2.326,2.445c0,0.376,0.293,0.685,0.652,0.685c0.771,0,1.396-0.658,1.396-1.467
		c0-1.35-1.045-2.445-2.328-2.445c-1.284,0-2.328-1.093-2.328-2.445s1.044-2.445,2.328-2.445c3.852,0,6.984,3.292,6.984,7.336
		C159.359,67.253,156.643,70.104,153.307,70.104z"/>
	<path display="inline" fill="#E6E6E6" d="M110.277,56.413c-3.748,0-6.799-3.203-6.799-7.14c0-3.069,2.135-5.626,4.928-6.116
		c-1.061-0.232-1.854-1.215-1.854-2.394c0-1.352,1.043-2.445,2.327-2.445c5.138,0,9.313,4.387,9.313,9.781
		C118.193,52.682,114.643,56.413,110.277,56.413z M110.973,43.73c0.453,0.447,0.737,1.081,0.737,1.785
		c0,1.352-1.043,2.445-2.328,2.445c-0.688,0-1.248,0.587-1.248,1.311c0,1.24,0.962,2.25,2.142,2.25c1.799,0,3.262-1.536,3.262-3.423
		C113.538,46.192,112.492,44.537,110.973,43.73z"/>
	<path display="inline" fill="#EEAF4B" d="M64.634,70.967c-25.349,26.622-25.349,69.785,0,96.406l91.798-96.406
		C131.084,44.344,89.984,44.344,64.634,70.967z"/>
	<ellipse display="inline" fill="#FBD490" cx="113.957" cy="84.531" rx="3.492" ry="3.667"/>
	<ellipse display="inline" fill="#DC9628" cx="53.421" cy="123.654" rx="3.492" ry="3.668"/>
	<ellipse display="inline" fill="#DC9628" cx="74.375" cy="96.757" rx="5.821" ry="6.113"/>
	<ellipse display="inline" fill="#DC9628" cx="99.987" cy="113.874" rx="5.82" ry="6.112"/>
	<ellipse display="inline" fill="#DC9628" cx="102.314" cy="64.969" rx="5.822" ry="6.113"/>
	<ellipse display="inline" fill="#DC9628" cx="74.375" cy="138.326" rx="3.493" ry="3.668"/>
	<ellipse display="inline" fill="#FBD490" cx="76.704" cy="77.195" rx="3.492" ry="3.668"/>
	<ellipse display="inline" fill="#FBD490" cx="58.077" cy="99.202" rx="3.492" ry="3.668"/>
	<ellipse display="inline" fill="#FBD490" cx="89.51" cy="90.644" rx="2.328" ry="2.445"/>
	<ellipse display="inline" fill="#FBD490" cx="70.884" cy="119.986" rx="2.327" ry="2.445"/>
	<ellipse display="inline" fill="#FBD490" cx="136.076" cy="73.527" rx="2.328" ry="2.445"/>
	<ellipse display="inline" fill="#FBD490" cx="84.854" cy="115.096" rx="2.328" ry="2.445"/>
	<ellipse display="inline" fill="#FBD490" cx="61.569" cy="141.994" rx="2.329" ry="2.445"/>
</g>
<path fill="#8CB4EB" d="M147.87,101.064c-5.58-9.532-18.543-12.454-28.953-6.524c-10.41,5.929-14.326,18.463-8.746,27.996
	c5.579,9.533,18.542,12.454,28.952,6.525C149.533,123.132,153.449,110.598,147.87,101.064z"/>
<path fill="#739BD7" d="M141.196,123.687c-10.41,5.929-23.374,3.007-28.953-6.526c-0.626-1.068-1.13-2.175-1.52-3.306
	c-1.01,0.387-2.105,0.629-2.983,1.252c0.267,2.563,1.06,5.087,2.432,7.431c5.58,9.533,18.543,12.455,28.953,6.526
	c5.697-3.245,9.465-8.524,10.78-14.15C147.982,118.391,145.015,121.512,141.196,123.687z"/>
<path fill="#739BD7" d="M140.415,102.765c-1.694-1.672-4.143-1.967-5.468-0.66c-1.324,1.308-1.025,3.723,0.669,5.395
	c1.695,1.672,4.144,1.967,5.469,0.66C142.41,106.852,142.109,104.437,140.415,102.765z"/>
<path fill="#7DBE81" d="M108.016,113.368c-0.712,0-1.377-0.447-1.611-1.151c-1.909-5.724-2.378-11.809-2.369-16.445
	c-4.383,5.439-9.899,6.597-10.206,6.658c-0.927,0.18-1.813-0.408-1.997-1.313c-0.184-0.906,0.41-1.786,1.328-1.969
	c0.376-0.079,8.181-1.822,11.423-11.413c0.278-0.821,1.14-1.297,1.998-1.099c0.854,0.198,1.413,1.007,1.291,1.864
	c-0.019,0.122-1.711,12.28,1.755,22.67c0.293,0.877-0.191,1.824-1.081,2.112C108.37,113.34,108.191,113.368,108.016,113.368z"/>
<path fill="#8CB4EB" d="M53.084,97.006c-6.057,10.348-1.806,23.951,9.493,30.387c11.299,6.435,25.368,3.265,31.424-7.083
	c6.056-10.346,1.806-23.95-9.494-30.385C73.208,83.489,59.139,86.66,53.084,97.006z"/>
<path fill="#739BD7" d="M65.341,121.751c-9.796-5.579-14.282-16.546-11.358-26.108c-0.31,0.444-0.622,0.888-0.9,1.362
	c-6.056,10.347-1.805,23.951,9.494,30.387c11.3,6.435,25.369,3.264,31.425-7.083c0.806-1.376,1.416-2.813,1.864-4.279
	C89.407,125.269,76.122,127.891,65.341,121.751z"/>
<path fill="#739BD7" d="M68.83,104.88c2.277-2.855,2.333-6.56,0.123-8.274c-2.209-1.715-5.846-0.789-8.123,2.066
	s-2.333,6.56-0.124,8.274C62.916,108.66,66.553,107.735,68.83,104.88z"/>
<path fill="#8CB4EB" d="M128.364,133.449c0-12.939-11.394-23.43-25.448-23.43s-25.447,10.49-25.447,23.43
	s11.393,23.429,25.447,23.429S128.364,146.389,128.364,133.449z"/>
<path fill="#739BD7" d="M108.006,151.857c-14.054,0-25.448-10.489-25.448-23.429c0-4.934,1.665-9.505,4.493-13.28
	c-5.835,4.293-9.582,10.89-9.582,18.301c0,12.939,11.393,23.429,25.447,23.429c8.696,0,16.384-4.032,20.974-10.158
	C119.538,149.921,114.01,151.857,108.006,151.857z"/>
<path fill="#739BD7" d="M111.398,130.103c0,5.545-4.557,10.04-10.179,10.04c-5.621,0-10.179-4.495-10.179-10.04
	c0-5.546,4.558-10.041,10.179-10.041C106.842,120.062,111.398,124.557,111.398,130.103z"/>
<path fill="#5F87CD" d="M101.22,120.062c-3.681,0-6.91,1.934-8.697,4.821c1.543-0.93,3.364-1.475,5.305-1.475
	c5.621,0,10.179,4.495,10.179,10.041c0,1.914-0.554,3.712-1.496,5.233c2.928-1.763,4.889-4.949,4.889-8.58
	C111.398,124.557,106.842,120.062,101.22,120.062z"/>
<path fill="#5F87CD" d="M68.954,96.607c-1.394-1.082-3.364-1.109-5.195-0.267c0.694,0.108,1.352,0.371,1.909,0.804
	c2.209,1.715,2.154,5.419-0.123,8.274c-0.841,1.054-1.865,1.842-2.936,2.334c2.058,0.319,4.519-0.735,6.222-2.871
	C71.108,102.026,71.164,98.321,68.954,96.607z"/>
<path fill="#AFDC82" d="M93.43,60.092c-4.855-5.036-11.61-7.319-18.492-6.927c-1.344,0.076-2.45,1.113-2.595,2.435
	c-0.742,6.759,1.232,13.528,6.087,18.564c5.385,5.585,13.107,7.785,20.747,6.703C100.655,73.395,98.814,65.676,93.43,60.092z"/>
<path fill="#AFDC82" d="M131.488,76.47c4.286-4.021,6.229-9.614,5.896-15.313c-0.065-1.113-0.948-2.028-2.071-2.148
	c-5.753-0.614-11.514,1.021-15.799,5.04c-4.753,4.459-6.626,10.854-5.705,17.18C120.167,82.452,126.736,80.929,131.488,76.47z"/>
<path fill="#96CD82" d="M106.31,89.938c-0.449,0-0.896-0.174-1.229-0.52L81.645,65.11c-0.647-0.669-0.618-1.729,0.059-2.365
	c0.678-0.638,1.755-0.61,2.398,0.06l22.272,23.099l20.58-19.179c0.681-0.635,1.756-0.604,2.396,0.067
	c0.645,0.672,0.613,1.73-0.067,2.365l-21.81,20.324C107.146,89.787,106.729,89.938,106.31,89.938z"/>
</svg>
