<?xml version="1.0" encoding="utf-8"?>
<!-- Generator: Adobe Illustrator 15.0.0, SVG Export Plug-In . SVG Version: 6.00 Build 0)  -->
<!DOCTYPE svg PUBLIC "-//W3C//DTD SVG 1.1//EN" "http://www.w3.org/Graphics/SVG/1.1/DTD/svg11.dtd">
<svg version="1.1" id="Layer_1" xmlns="http://www.w3.org/2000/svg" xmlns:xlink="http://www.w3.org/1999/xlink" x="0px" y="0px"
	 width="200px" height="200px" viewBox="0 0 200 200" enable-background="new 0 0 200 200" xml:space="preserve">
<g>
	<g>
		<path fill="#808080" d="M100,200.316c-25.817,0-57.956,0-78.925-21.075C0,158.166,0,126.027,0,100.316
			C0,74.605,0,42.36,21.075,21.391C42.149,0.316,74.289,0.316,100,0.316c25.816,0,57.955,0,78.926,21.075
			C200,42.466,200,74.605,200,100.316c0,25.711,0,57.956-21.074,78.925C157.955,200.316,125.816,200.316,100,200.316z M100,4.531
			c-25.079,0-56.165,0-75.975,19.81c-19.81,19.705-19.81,50.896-19.81,75.975c0,25.079,0,56.165,19.811,75.975
			c19.81,19.811,51.001,19.811,75.975,19.811c24.974,0,56.164,0,75.976-19.811c19.811-19.811,19.811-51.002,19.811-75.975
			c0-25.079,0-56.164-19.811-75.975C156.164,4.531,125.079,4.531,100,4.531z"/>
	</g>
	<ellipse fill="#1E1E1E" cx="69.775" cy="132.027" rx="40.463" ry="12.118"/>
	<g display="none">
		<path display="inline" fill="#FFFFFF" d="M98.419,74.078c0,0,6.323-18.651,13.909-19.705c0,0-6.743,1.792-10.854,20.759
			C100.738,75.448,98.419,74.078,98.419,74.078z"/>
		<path display="inline" fill="#FFFFFF" d="M102.529,73.551c0,0-16.544-10.749-23.077-6.85c0,0,6.428-2.74,21.391,9.589
			C101.58,75.975,102.529,73.551,102.529,73.551z"/>
		<path display="inline" fill="#FFFFFF" d="M102.951,73.235c0,0-7.271-12.855-14.437-11.591c0,0,6.428-0.422,11.697,13.277
			C100.843,74.921,102.951,73.235,102.951,73.235z"/>
		<path display="inline" fill="#FFFFFF" d="M100.738,73.235c0,0,9.799-10.959,16.543-8.324c0,0-6.217-1.792-14.227,10.537
			C102.424,75.237,100.738,73.235,100.738,73.235z"/>
		<path display="inline" fill="#F44336" d="M140.568,107.691c0,22.34-18.123,40.465-40.463,40.465
			c-22.339,0-40.464-18.125-40.464-40.465c0-21.074,12.224-34.667,32.771-36.458c1.265-0.105,6.428,1.792,7.798,1.792
			c2.106,0,6.006-1.792,8.008-1.476C127.502,74.183,140.568,87.46,140.568,107.691z"/>
		<g display="inline">
			<path fill="#FFFFFF" d="M66.386,93.783c1.475-4.215,3.793-8.114,6.744-11.485c2.951-3.372,6.744-6.112,11.17-7.482
				c2.213-0.632,4.531-0.843,6.744-0.737c1.159,0,2.213,0.21,3.372,0.421c1.054,0.211,2.213,0.316,3.267,0.527
				c2.213,0.316,4.32,0.316,6.533-0.316c1.054-0.211,2.214-0.422,3.372-0.422c1.159,0,2.213,0.211,3.372,0.422
				c-1.159-0.105-2.213-0.211-3.267-0.211c-1.055,0-2.213,0.316-3.268,0.632c-2.107,0.737-4.531,0.737-6.744,0.632l-1.686-0.211
				l-1.686-0.211c-1.054-0.105-2.212-0.316-3.267-0.316c-2.212-0.105-4.32,0.211-6.428,0.843c-4.215,1.159-7.903,3.793-10.854,6.955
				c-1.475,1.581-2.845,3.372-4.109,5.163C68.493,89.779,67.334,91.781,66.386,93.783z"/>
		</g>
	</g>
</g>
<path fill="#B4E6A0" d="M130.785,85.163c0,25.541-16.785,46.244-52.098,46.244c-35.313,0-52.099-20.703-52.099-46.244
	c0-25.541,16.785-46.245,52.098-46.245S130.785,59.622,130.785,85.163z"/>
<path fill="#96D7A5" d="M88.16,119.237c-35.313,0-52.1-20.704-52.1-46.245c0-7.921,1.633-15.468,4.914-21.986
	c-9.69,8.442-14.386,20.656-14.386,34.156c0,25.541,16.785,46.246,52.098,46.246c24.359,0,39.895-9.856,47.193-24.352
	C117.286,114.598,104.808,119.237,88.16,119.237z"/>
<g>
	<path fill="#96CD82" d="M122.738,58.018c-0.494-0.126-1.08-0.281-1.57-0.401c-1.661-0.4-3.378-0.816-4.917-1.461
		c-1.216-0.512-2.488-1.373-3.837-2.283c-2.223-1.505-4.743-3.208-7.846-3.893c-2.45-0.544-4.992-0.208-7.452,0.115
		c-1.902,0.247-3.868,0.505-5.693,0.336c-1.485-0.138-3.117-0.695-4.845-1.284c-2.351-0.802-5.014-1.711-7.877-1.711
		s-5.529,0.909-7.882,1.711c-1.727,0.589-3.358,1.146-4.84,1.284c-1.825,0.171-3.791-0.087-5.688-0.337
		c-2.463-0.325-4.999-0.66-7.444-0.116c-3.103,0.685-5.625,2.389-7.848,3.893c-1.349,0.909-2.62,1.769-3.835,2.28
		c-1.537,0.645-3.256,1.06-4.916,1.462c-0.506,0.122-1.016,0.25-1.523,0.382c-1.641,2.307-3.134,4.864-4.272,7.466
		c0.268-0.291,0.644-0.666,0.943-0.906c1.384-1.104,3.595-1.638,5.937-2.205c1.839-0.444,3.739-0.904,5.622-1.693
		c1.643-0.689,3.168-1.722,4.646-2.719c2.059-1.392,4.003-2.706,6.242-3.201c1.655-0.363,3.693-0.097,5.849,0.187
		c2.15,0.283,4.373,0.575,6.713,0.357c2.028-0.189,4.001-0.861,5.908-1.511c2.207-0.753,4.291-1.465,6.388-1.465
		c2.098,0,4.18,0.71,6.385,1.463c1.908,0.652,3.88,1.324,5.911,1.513c2.343,0.216,4.564-0.075,6.718-0.357
		c2.163-0.281,4.207-0.549,5.858-0.185c2.236,0.495,4.181,1.809,6.239,3.201c1.476,0.999,3.004,2.031,4.648,2.723
		c1.882,0.79,3.783,1.25,5.621,1.694c2.339,0.565,4.549,1.101,5.931,2.207c0.294,0.235,0.634,0.591,0.898,0.878
		C125.771,62.827,124.385,60.333,122.738,58.018z"/>
	<path fill="#96CD82" d="M129.94,75.549c-0.313-0.243-0.644-0.506-0.976-0.774c-1.827-1.477-4.1-3.315-7.199-4.053
		c-1.981-0.471-4.067-0.156-6.085,0.147c-1.688,0.255-3.438,0.518-5.036,0.303c-1.129-0.154-2.441-0.769-3.834-1.417
		c-1.929-0.9-4.116-1.921-6.606-2.109c-2.068-0.142-4.071,0.417-6.011,0.968c-1.705,0.484-3.305,0.932-4.838,0.895
		c-1.23-0.041-2.664-0.56-4.185-1.11c-1.929-0.699-4.114-1.49-6.471-1.49c-2.359,0-4.549,0.792-6.477,1.492
		c-1.521,0.549-2.957,1.069-4.187,1.109c-1.501,0.064-3.129-0.41-4.831-0.896c-1.938-0.551-3.937-1.121-6.007-0.969
		c-2.49,0.188-4.675,1.21-6.604,2.11c-1.392,0.651-2.705,1.263-3.834,1.417c-1.601,0.216-3.346-0.048-5.037-0.303
		c-2.015-0.305-4.103-0.625-6.086-0.148c-3.098,0.737-5.368,2.575-7.192,4.05c-0.348,0.28-0.677,0.538-1.004,0.789
		c-0.354,1.953-0.572,3.957-0.702,5.991l1.254-0.604c1.199-0.587,2.258-1.444,3.38-2.351c1.604-1.299,3.266-2.643,5.332-3.134
		c1.114-0.26,2.676-0.029,4.329,0.222c1.913,0.291,4.091,0.62,6.349,0.312c1.824-0.247,3.527-1.042,5.171-1.811
		c1.721-0.803,3.347-1.563,4.993-1.687c1.239-0.103,2.772,0.344,4.391,0.805c1.881,0.538,4.032,1.144,6.25,1.071
		c1.962-0.063,3.815-0.736,5.607-1.384c1.725-0.626,3.355-1.215,4.905-1.215c1.547,0,3.172,0.589,4.896,1.213
		c1.792,0.648,3.644,1.32,5.609,1.384c2.25,0.061,4.375-0.533,6.25-1.069c1.622-0.46,3.148-0.912,4.399-0.803
		c1.648,0.125,3.274,0.882,4.995,1.685c1.645,0.769,3.347,1.564,5.174,1.811c2.255,0.311,4.43-0.021,6.346-0.31
		c1.655-0.25,3.215-0.483,4.327-0.223c2.069,0.493,3.73,1.838,5.34,3.137c1.119,0.907,2.178,1.764,3.374,2.351l1.253,0.591
		C130.534,79.501,130.298,77.506,129.94,75.549z"/>
	<path fill="#96CD82" d="M129.406,89.378c-1.197,0.587-2.257,1.442-3.378,2.351c-1.605,1.299-3.266,2.641-5.336,3.134
		c-1.112,0.262-2.672,0.027-4.327-0.223c-1.919-0.291-4.095-0.619-6.348-0.313c-1.825,0.249-3.526,1.043-5.171,1.811
		c-1.721,0.803-3.346,1.563-4.994,1.687c-1.249,0.109-2.775-0.343-4.39-0.805c-1.878-0.534-3.999-1.13-6.249-1.07
		c-1.964,0.064-3.817,0.736-5.609,1.385c-1.726,0.625-3.354,1.215-4.903,1.215s-3.176-0.59-4.9-1.215
		c-1.79-0.649-3.644-1.32-5.605-1.384c-2.229-0.052-4.373,0.534-6.254,1.069c-1.621,0.46-3.154,0.901-4.398,0.804
		c-1.648-0.124-3.275-0.883-4.995-1.686c-1.645-0.769-3.347-1.563-5.173-1.811c-2.253-0.31-4.43,0.022-6.347,0.312
		c-1.65,0.251-3.207,0.486-4.324,0.222c-2.069-0.494-3.732-1.837-5.34-3.138c-1.121-0.905-2.178-1.762-3.379-2.35l-1.245-0.6
		c0.13,2.035,0.348,4.042,0.703,5.994c0.324,0.25,0.649,0.504,0.993,0.781c1.825,1.478,4.098,3.316,7.2,4.054
		c1.979,0.475,4.064,0.158,6.081-0.147c1.69-0.257,3.432-0.521,5.037-0.303c1.128,0.153,2.442,0.768,3.835,1.417
		c1.929,0.901,4.116,1.922,6.606,2.11c2.079,0.153,4.073-0.417,6.011-0.97c1.707-0.485,3.278-0.959,4.84-0.895
		c1.228,0.041,2.662,0.56,4.18,1.109c1.931,0.697,4.116,1.491,6.475,1.491c2.359,0,4.547-0.794,6.478-1.491
		c1.52-0.551,2.955-1.07,4.187-1.11c1.535-0.034,3.129,0.41,4.831,0.896c1.934,0.552,3.937,1.115,6.003,0.971
		c2.491-0.189,4.679-1.21,6.606-2.111c1.393-0.649,2.707-1.263,3.835-1.417c1.601-0.215,3.347,0.046,5.035,0.303
		c2.019,0.309,4.106,0.624,6.087,0.148c3.099-0.737,5.369-2.574,7.195-4.05c0.335-0.271,0.652-0.518,0.969-0.761
		c0.355-1.958,0.576-3.966,0.707-6.005L129.406,89.378z"/>
	<path fill="#96CD82" d="M126.005,105.771c-1.383,1.104-3.594,1.639-5.937,2.205c-1.839,0.445-3.74,0.902-5.622,1.693
		c-1.644,0.688-3.173,1.721-4.65,2.721c-2.058,1.391-4.004,2.706-6.237,3.198c-1.655,0.363-3.693,0.099-5.851-0.187
		c-2.15-0.281-4.368-0.573-6.711-0.357c-2.031,0.189-4.003,0.861-5.911,1.513c-2.207,0.753-4.288,1.463-6.385,1.463
		c-2.099,0-4.182-0.71-6.389-1.463c-1.907-0.651-3.88-1.323-5.91-1.513c-2.343-0.215-4.565,0.076-6.716,0.356
		c-2.157,0.282-4.204,0.549-5.859,0.186c-2.234-0.495-4.18-1.81-6.237-3.201c-1.478-0.999-3.007-2.032-4.651-2.722
		c-1.883-0.791-3.784-1.251-5.62-1.697c-2.34-0.564-4.549-1.099-5.929-2.201c-0.316-0.253-0.643-0.572-0.922-0.878
		c1.144,2.627,2.526,5.106,4.181,7.434c0.504,0.129,1.082,0.265,1.584,0.385c1.66,0.401,3.378,0.817,4.916,1.465
		c1.217,0.511,2.49,1.371,3.837,2.283c2.225,1.503,4.742,3.207,7.847,3.892c2.451,0.54,4.99,0.205,7.453-0.115
		c1.899-0.248,3.854-0.505,5.692-0.337c1.483,0.137,3.115,0.694,4.845,1.284c2.349,0.803,5.016,1.712,7.879,1.712
		s5.526-0.909,7.877-1.712c1.728-0.59,3.359-1.147,4.845-1.284c1.825-0.173,3.788,0.088,5.684,0.337
		c2.461,0.324,4.998,0.663,7.447,0.117c3.102-0.684,5.622-2.389,7.844-3.89c1.35-0.91,2.623-1.772,3.839-2.281
		c1.538-0.646,3.257-1.061,4.917-1.463c0.495-0.119,0.992-0.246,1.489-0.374c1.655-2.325,3.051-4.811,4.195-7.437
		C126.565,105.202,126.31,105.527,126.005,105.771z"/>
</g>
<path fill="#7DBE81" d="M88.16,119.237c-9.503,0-17.775-1.548-24.628-4.236c-1.367,0.063-2.543,0.23-3.846,0.4
	c-2.157,0.282-4.204,0.549-5.859,0.186c-2.234-0.495-4.18-1.81-6.237-3.201c-1.478-0.999-3.007-2.032-4.651-2.722
	c-1.883-0.791-3.784-1.251-5.62-1.697c-2.34-0.564-4.549-1.101-5.929-2.202c-0.316-0.252-0.643-0.571-0.922-0.878
	c0.571,1.313,1.209,2.605,1.906,3.845c0.003,0.003-0.001-0.003,0,0c0.698,1.241,1.447,2.428,2.274,3.59
	c0.504,0.129,1.082,0.263,1.584,0.385c1.66,0.401,3.378,0.817,4.916,1.464c1.217,0.511,2.49,1.372,3.837,2.282
	c2.225,1.504,4.742,3.208,7.847,3.893c2.451,0.541,4.99,0.206,7.453-0.114c1.899-0.249,3.854-0.506,5.692-0.337
	c1.483,0.137,3.115,0.694,4.845,1.284c2.349,0.803,5.016,1.711,7.879,1.711s5.526-0.908,7.877-1.711
	c1.728-0.59,3.359-1.147,4.845-1.284c1.825-0.173,3.788,0.088,5.684,0.337c2.461,0.324,4.998,0.663,7.447,0.117
	c3.102-0.684,5.622-2.389,7.844-3.89c1.35-0.91,2.623-1.772,3.839-2.281c1.538-0.646,3.257-1.061,4.917-1.463
	c0.495-0.119,0.992-0.246,1.489-0.374c1.157-1.627,2.144-3.357,3.051-5.135C117.104,114.654,104.692,119.237,88.16,119.237z"/>
<path fill="#7DBE81" d="M43.471,99.208c-0.975-1.459-1.844-2.969-2.624-4.542c-1.59,0.242-3.063,0.45-4.143,0.195
	c-2.069-0.494-3.732-1.837-5.34-3.138c-1.121-0.905-2.178-1.762-3.379-2.35l-1.282-0.621c0.052,0.805,0.126,1.623,0.209,2.417
	c0.076,0.697,0.165,1.39,0.269,2.077c0.073,0.506,0.155,1.009,0.246,1.509c0.323,0.25,0.666,0.516,1.009,0.793
	c1.825,1.478,4.099,3.316,7.199,4.054c1.979,0.475,4.066,0.158,6.083-0.147C42.31,99.366,42.875,99.279,43.471,99.208z"/>
<path fill="#7DBE81" d="M36.061,72.993c0-0.788,0.016-1.587,0.048-2.366c-0.161,0.029-0.311,0.055-0.471,0.093
	c-3.097,0.737-5.367,2.575-7.191,4.05c-0.346,0.278-0.692,0.547-1.018,0.796c-0.217,1.186-0.345,2.382-0.479,3.6
	c-0.073,0.711-0.185,1.434-0.233,2.155c-0.006,0.078-0.013,0.192-0.018,0.268l1.295-0.642c1.198-0.587,2.258-1.444,3.379-2.351
	c1.46-1.181,2.929-2.387,4.746-2.968C36.078,74.745,36.061,73.89,36.061,72.993z"/>
<path fill="#7DBE81" d="M31.396,64.554c1.339-1.069,3.435-1.601,5.692-2.147c0.373-1.837,0.829-3.621,1.406-5.367
	c-0.761,0.209-1.487,0.388-2.246,0.571c-0.504,0.122-1.106,0.269-1.612,0.399c-0.009,0.012-1.691,2.446-2.301,3.668
	c-0.42,0.842-0.917,1.695-1.32,2.547c-0.174,0.365-0.404,0.875-0.566,1.245C30.703,65.193,31.111,64.784,31.396,64.554z"/>
<path fill="#B4E6A0" d="M173.411,126.539c0,25.54-17.935,46.245-47.361,46.245s-47.362-20.705-47.362-46.245
	c0-25.539,17.936-46.245,47.362-46.245S173.411,101,173.411,126.539z"/>
<path fill="#FFF6D8" d="M126.05,85.163c-25.098,0-42.626,17.015-42.626,41.376c0,24.362,17.528,41.376,42.626,41.376
	c25.097,0,42.625-17.014,42.625-41.376C168.675,102.178,151.146,85.163,126.05,85.163z"/>
<path fill="#FF8087" d="M126.05,90.031c22.308,0,37.89,15.014,37.89,36.508c0,21.496-15.582,36.509-37.89,36.509
	c-22.31,0-37.89-15.013-37.89-36.509C88.16,105.045,103.74,90.031,126.05,90.031"/>
<path fill="#4B3F4E" d="M112.73,140.788c-0.839,0-1.651-0.459-2.081-1.269l-0.889-1.674c-0.626-1.18-0.203-2.658,0.947-3.302
	c1.141-0.645,2.585-0.209,3.211,0.971l0.889,1.673c0.626,1.18,0.204,2.658-0.945,3.303
	C113.504,140.693,113.115,140.788,112.73,140.788z"/>
<path fill="#4B3F4E" d="M138.681,113.762c-0.867,0-1.699-0.49-2.116-1.339c-0.589-1.2-0.12-2.665,1.047-3.269l1.656-0.859
	c1.17-0.605,2.593-0.121,3.18,1.079c0.59,1.2,0.12,2.664-1.047,3.27l-1.656,0.858C139.401,113.678,139.039,113.762,138.681,113.762z
	"/>
<path fill="#5D5360" d="M124.468,110.516c-1.154,0-2.163-0.865-2.341-2.072l-0.274-1.886c-0.195-1.329,0.697-2.568,1.99-2.767
	c1.323-0.205,2.5,0.717,2.694,2.045l0.275,1.885c0.194,1.33-0.698,2.568-1.991,2.768
	C124.701,110.507,124.583,110.516,124.468,110.516z"/>
<path fill="#5D5360" d="M121.907,149.256c-0.88,0-1.723-0.505-2.132-1.372c-0.571-1.208-0.081-2.664,1.096-3.251l1.67-0.832
	c1.178-0.583,2.595-0.08,3.163,1.13c0.571,1.207,0.082,2.663-1.096,3.25l-1.67,0.832
	C122.606,149.178,122.254,149.256,121.907,149.256z"/>
<path fill="#5D5360" d="M106.771,127.627c-0.113,0-0.229-0.008-0.345-0.027l-1.836-0.274c-1.295-0.193-2.19-1.431-2.001-2.76
	c0.187-1.33,1.386-2.264,2.685-2.057l1.836,0.275c1.295,0.195,2.19,1.43,2.001,2.761
	C108.94,126.755,107.928,127.627,106.771,127.627z"/>
<path fill="#4B3F4E" d="M134.105,145.621c-0.67,0-1.339-0.293-1.806-0.86c-0.847-1.026-0.722-2.562,0.275-3.431l1.415-1.233
	c0.997-0.867,2.496-0.74,3.337,0.285c0.847,1.024,0.722,2.561-0.274,3.43l-1.416,1.233
	C135.193,145.432,134.647,145.621,134.105,145.621z"/>
<path fill="#5D5360" d="M146.772,136.884c-0.172,0-0.345-0.021-0.518-0.06l-1.812-0.414c-1.276-0.292-2.081-1.592-1.794-2.905
	c0.284-1.311,1.554-2.133,2.826-1.846l1.81,0.414c1.277,0.292,2.079,1.595,1.795,2.905
	C148.835,136.112,147.856,136.884,146.772,136.884z"/>
<path fill="#4B3F4E" d="M145.188,126.336c-1.231,0-2.271-0.979-2.359-2.26l-0.132-1.9c-0.095-1.342,0.889-2.506,2.192-2.603
	c1.351-0.085,2.438,0.915,2.53,2.254l0.132,1.901c0.095,1.342-0.888,2.505-2.191,2.602
	C145.302,126.334,145.243,126.336,145.188,126.336z"/>
<path fill="#4B3F4E" d="M115.196,115.385c-0.275,0-0.558-0.051-0.83-0.156l-1.737-0.668c-1.226-0.47-1.845-1.871-1.387-3.133
	c0.46-1.258,1.824-1.9,3.048-1.425l1.736,0.667c1.226,0.472,1.845,1.874,1.388,3.134
	C117.058,114.78,116.156,115.385,115.196,115.385z"/>
<path fill="#E6646E" d="M130.785,155.746c-22.309,0-37.89-15.013-37.89-36.509c0-6.185,1.326-11.835,3.695-16.745
	c-5.355,6.239-8.431,14.516-8.431,24.047c0,21.496,15.58,36.509,37.89,36.509c15.889,0,28.384-7.664,34.248-19.815
	C153.575,151.063,143.201,155.746,130.785,155.746z"/>
</svg>
