<?xml version="1.0" encoding="utf-8"?>
<!-- Generator: Adobe Illustrator 15.0.0, SVG Export Plug-In . SVG Version: 6.00 Build 0)  -->
<!DOCTYPE svg PUBLIC "-//W3C//DTD SVG 1.1//EN" "http://www.w3.org/Graphics/SVG/1.1/DTD/svg11.dtd">
<svg version="1.1" id="Layer_1" xmlns="http://www.w3.org/2000/svg" xmlns:xlink="http://www.w3.org/1999/xlink" x="0px" y="0px"
	 width="200px" height="200px" viewBox="0 0 200 200" enable-background="new 0 0 200 200" xml:space="preserve">
<g>
	<g>
		<path fill="#808080" d="M100,200.316c-25.817,0-57.956,0-78.925-21.075C0,158.166,0,126.027,0,100.316
			C0,74.605,0,42.36,21.075,21.391C42.149,0.316,74.289,0.316,100,0.316c25.816,0,57.955,0,78.926,21.075
			C200,42.466,200,74.605,200,100.316c0,25.711,0,57.956-21.074,78.925C157.955,200.316,125.816,200.316,100,200.316z M100,4.531
			c-25.079,0-56.165,0-75.975,19.81c-19.81,19.705-19.81,50.896-19.81,75.975c0,25.079,0,56.165,19.811,75.975
			c19.81,19.811,51.001,19.811,75.975,19.811c24.974,0,56.164,0,75.976-19.811c19.811-19.811,19.811-51.002,19.811-75.975
			c0-25.079,0-56.164-19.811-75.975C156.164,4.531,125.079,4.531,100,4.531z"/>
	</g>
	<ellipse fill="#1E1E1E" cx="102.609" cy="170.608" rx="34.629" ry="10.537"/>
	<g display="none">
		<path display="inline" fill="#FFFFFF" d="M98.419,74.078c0,0,6.323-18.651,13.909-19.705c0,0-6.743,1.792-10.854,20.759
			C100.738,75.448,98.419,74.078,98.419,74.078z"/>
		<path display="inline" fill="#FFFFFF" d="M102.529,73.551c0,0-16.544-10.749-23.077-6.85c0,0,6.428-2.74,21.391,9.589
			C101.58,75.975,102.529,73.551,102.529,73.551z"/>
		<path display="inline" fill="#FFFFFF" d="M102.951,73.235c0,0-7.271-12.855-14.437-11.591c0,0,6.428-0.422,11.697,13.277
			C100.843,74.921,102.951,73.235,102.951,73.235z"/>
		<path display="inline" fill="#FFFFFF" d="M100.738,73.235c0,0,9.799-10.959,16.543-8.324c0,0-6.217-1.792-14.227,10.537
			C102.424,75.237,100.738,73.235,100.738,73.235z"/>
		<path display="inline" fill="#F44336" d="M140.568,107.691c0,22.34-18.123,40.465-40.463,40.465
			c-22.339,0-40.464-18.125-40.464-40.465c0-21.074,12.224-34.667,32.771-36.458c1.265-0.105,6.428,1.792,7.798,1.792
			c2.106,0,6.006-1.792,8.008-1.476C127.502,74.183,140.568,87.46,140.568,107.691z"/>
		<g display="inline">
			<path fill="#FFFFFF" d="M66.386,93.783c1.475-4.215,3.793-8.114,6.744-11.485c2.951-3.372,6.744-6.112,11.17-7.482
				c2.213-0.632,4.531-0.843,6.744-0.737c1.159,0,2.213,0.21,3.372,0.421c1.054,0.211,2.213,0.316,3.267,0.527
				c2.213,0.316,4.32,0.316,6.533-0.316c1.054-0.211,2.214-0.422,3.372-0.422c1.159,0,2.213,0.211,3.372,0.422
				c-1.159-0.105-2.213-0.211-3.267-0.211c-1.055,0-2.213,0.316-3.268,0.632c-2.107,0.737-4.531,0.737-6.744,0.632l-1.686-0.211
				l-1.686-0.211c-1.054-0.105-2.212-0.316-3.267-0.316c-2.212-0.105-4.32,0.211-6.428,0.843c-4.215,1.159-7.903,3.793-10.854,6.955
				c-1.475,1.581-2.845,3.372-4.109,5.163C68.493,89.779,67.334,91.781,66.386,93.783z"/>
		</g>
	</g>
	<path fill="#D2873C" d="M95.838,46.348c0.606,0.646,0.606,1.702,0,2.348L76.111,69.709c-0.606,0.646-1.598,0.646-2.204,0
		L46.948,40.991c-0.606-0.646-0.606-1.703,0-2.349L66.675,17.63c0.606-0.646,1.598-0.646,2.204,0L95.838,46.348z"/>
	<path fill="#965930" d="M88.044,49.361l5.312-5.658l-3.292-3.506l-5.312,5.658l-5.392-5.744l5.313-5.658l-3.292-3.506l-5.312,5.658
		l-5.392-5.744l5.312-5.658l-3.292-3.506l-5.312,5.658l-4.921-5.242l-3.292,3.506l4.921,5.242l-4.724,5.032l-4.921-5.242
		l-3.291,3.506l4.921,5.242l-5.312,5.659l3.292,3.506l5.312-5.659l5.392,5.744l-5.313,5.658l3.292,3.506l5.313-5.658l5.392,5.743
		l-5.313,5.659l3.292,3.506l5.313-5.659l3.584,3.819l3.292-3.507l-3.585-3.818l4.724-5.032l3.585,3.818l3.291-3.505L88.044,49.361z
		 M62.662,39.4l4.724-5.032l5.392,5.744l-4.724,5.032L62.662,39.4z M76.737,54.394l-5.392-5.744l4.724-5.032l5.392,5.743
		L76.737,54.394z"/>
	<path opacity="0.1" enable-background="new    " d="M76.962,66.466L50.003,37.749c-0.606-0.646-0.606-1.703,0-2.349l0.673-0.717
		c0-0.003-0.001-0.006-0.002-0.009l-3.727,3.969c-0.606,0.646-0.606,1.702,0,2.348l26.959,28.718c0.606,0.646,1.598,0.646,2.204,0
		l2.994-3.189C78.495,67.105,77.55,67.092,76.962,66.466z"/>
	<ellipse fill="#A0C663" cx="102.271" cy="42.406" rx="23.084" ry="24.012"/>
	<path opacity="0.1" enable-background="new    " d="M88.892,42.406c0-11.53,7.813-21.158,18.23-23.477
		c-1.564-0.348-3.187-0.536-4.851-0.536c-12.747,0-23.082,10.75-23.082,24.012c0,13.263,10.335,24.012,23.082,24.012
		c1.664,0,3.286-0.188,4.851-0.535C96.705,63.563,88.892,53.936,88.892,42.406z"/>
	<ellipse fill="#FFF0C0" cx="87.629" cy="74.181" rx="23.083" ry="24.013"/>
	<path opacity="0.1" enable-background="new    " d="M74.279,74.181c0-11.524,7.807-21.148,18.217-23.473
		c-1.569-0.35-3.195-0.539-4.865-0.539c-12.748,0-23.082,10.75-23.082,24.012c0,13.261,10.334,24.013,23.082,24.013
		c1.67,0,3.296-0.19,4.865-0.54C82.085,95.329,74.279,85.706,74.279,74.181z"/>
	<ellipse fill="#554141" cx="72.102" cy="79.666" rx="3.052" ry="3.175"/>
	<ellipse fill="#D2873C" cx="89.513" cy="84.946" rx="3.053" ry="3.175"/>
	<ellipse fill="#554141" cx="84.54" cy="71.087" rx="3.052" ry="3.175"/>
	<ellipse fill="#D2873C" cx="72.979" cy="64.695" rx="3.053" ry="3.175"/>
	<ellipse fill="#554141" cx="83.042" cy="56.366" rx="3.053" ry="3.176"/>
	<ellipse fill="#D2873C" cx="95.986" cy="61.397" rx="3.053" ry="3.176"/>
	<ellipse fill="#FCA181" cx="116.912" cy="74.181" rx="23.084" ry="24.013"/>
	<path fill="#E86436" d="M106.062,70.871h-2.376c-1.288,0-2.332-1.108-2.332-2.475s1.044-2.475,2.332-2.475h2.376
		c1.287,0,2.331,1.108,2.331,2.475C108.392,69.763,107.349,70.871,106.062,70.871z"/>
	<path opacity="0.1" enable-background="new    " d="M103.504,74.181c0-11.535,7.819-21.167,18.245-23.479
		c-1.56-0.347-3.177-0.532-4.835-0.532c-12.749,0-23.083,10.75-23.083,24.012s10.334,24.013,23.083,24.013
		c1.658,0,3.276-0.187,4.835-0.533C111.323,95.348,103.504,85.716,103.504,74.181z"/>
	<g>
		<path fill="#E86436" d="M116.451,61.923h-2.374c-1.288,0-2.332-1.108-2.332-2.474c0-1.367,1.044-2.474,2.332-2.474h2.374
			c1.287,0,2.332,1.107,2.332,2.474C118.783,60.815,117.739,61.923,116.451,61.923z"/>
		<path fill="#E86436" d="M120.647,75.708h-2.375c-1.288,0-2.332-1.107-2.332-2.475c0-1.366,1.044-2.474,2.332-2.474h2.375
			c1.288,0,2.332,1.107,2.332,2.474C122.979,74.601,121.936,75.708,120.647,75.708z"/>
	</g>
	<g>
		<path fill="#FFFFFF" d="M128.92,88.575h-2.375c-1.288,0-2.332-1.107-2.332-2.475c0-1.366,1.045-2.474,2.332-2.474h2.375
			c1.288,0,2.332,1.107,2.332,2.474C131.252,87.468,130.208,88.575,128.92,88.575z"/>
		<path fill="#FFFFFF" d="M130.087,66.141h-2.376c-1.287,0-2.332-1.108-2.332-2.475c0-1.367,1.045-2.475,2.332-2.475h2.376
			c1.288,0,2.332,1.108,2.332,2.475S131.375,66.141,130.087,66.141z"/>
		<path fill="#FFFFFF" d="M106.938,83.297h-2.375c-1.288,0-2.332-1.108-2.332-2.475c0-1.367,1.044-2.475,2.332-2.475h2.375
			c1.287,0,2.331,1.107,2.331,2.475C109.27,82.188,108.225,83.297,106.938,83.297z"/>
	</g>
	<path fill="#FFAA0E" d="M128.407,99.314c0.858,0,1.307,0.695,0.994,1.544l-26.563,72.366c-0.313,0.85-0.821,0.85-1.134,0
		l-26.564-72.366c-0.312-0.849,0.137-1.544,0.995-1.544H128.407L128.407,99.314z"/>
	<path fill="#FBD33B" d="M124.652,113.798l1.817-4.948h-9.496v-9.518c0-0.006-0.001-0.012-0.001-0.018h-4.662
		c0,0.006,0,0.011,0,0.018v9.518h-7.706V99.41c0-0.032-0.004-0.064-0.005-0.096h-4.654c-0.001,0.031-0.005,0.063-0.005,0.096v9.439
		h-8.622v-9.518c0-0.006,0-0.012,0-0.018h-4.663c0,0.006,0,0.011,0,0.018v9.518h-8.58l1.816,4.949h6.763v8.667h-3.581l1.816,4.948
		h1.765v4.809l4.664,12.705v-3.897h8.622v8.667h-6.872l1.817,4.949h5.055v13.771l1.766,4.809c0.312,0.85,0.821,0.85,1.133,0
		l1.765-4.808v-13.771h5.056l1.815-4.949h-6.871v-8.667h7.707v6.394l4.663-12.705v-7.305h2.682l1.815-4.948h-4.497v-8.667
		L124.652,113.798L124.652,113.798z M99.94,136.08h-8.622v-8.666h8.622V136.08z M99.94,122.465h-8.622v-8.667h8.622V122.465z
		 M112.311,136.08h-7.707v-8.666h7.707V136.08z M112.311,122.465h-7.707v-8.667h7.707V122.465z"/>
	<path opacity="0.1" enable-background="new    " d="M84.898,100.858c-0.312-0.849,0.137-1.544,0.995-1.544h-9.757
		c-0.858,0-1.307,0.695-0.995,1.544l26.564,72.366c0.312,0.85,0.821,0.85,1.133,0l4.312-11.746L84.898,100.858z"/>
	<path fill="#965930" d="M126.569,105.53c-2.301,0-4.354-1.556-5.358-4.059c-0.132-0.329-0.413-0.541-0.717-0.541
		c-0.303,0-0.584,0.212-0.715,0.541c-1.005,2.503-3.059,4.059-5.358,4.059c-2.301,0-4.354-1.556-5.358-4.059
		c-0.132-0.329-0.413-0.541-0.716-0.541s-0.584,0.212-0.716,0.541c-1.005,2.503-3.059,4.059-5.358,4.059
		c-2.301,0-4.354-1.556-5.358-4.059c-0.132-0.329-0.413-0.541-0.716-0.541c-0.304,0-0.584,0.212-0.716,0.541
		c-1.005,2.503-3.058,4.059-5.358,4.059s-4.354-1.556-5.358-4.059c-0.133-0.329-0.413-0.541-0.716-0.541
		c-0.304,0-0.584,0.212-0.716,0.541c-1.005,2.503-3.059,4.059-5.358,4.059c-3.284,0-5.955-3.214-5.955-7.166v-4.917
		c0-0.793,0.534-1.436,1.192-1.436h58.118c0.659,0,1.193,0.643,1.193,1.436v4.917C132.523,102.316,129.853,105.53,126.569,105.53z"
		/>
	<g opacity="0.1">
		<path d="M78.444,98.364v-4.918c0-0.793,0.534-1.435,1.192-1.435h-6.424c-0.659,0-1.192,0.643-1.192,1.435v4.918
			c0,3.952,2.671,7.166,5.954,7.166c1.173,0,2.279-0.406,3.217-1.133C79.541,103.121,78.444,100.895,78.444,98.364z"/>
	</g>
</g>
</svg>
