<?xml version="1.0" encoding="utf-8"?>
<!-- Generator: Adobe Illustrator 15.0.0, SVG Export Plug-In . SVG Version: 6.00 Build 0)  -->
<!DOCTYPE svg PUBLIC "-//W3C//DTD SVG 1.1//EN" "http://www.w3.org/Graphics/SVG/1.1/DTD/svg11.dtd">
<svg version="1.1" id="Layer_1" xmlns="http://www.w3.org/2000/svg" xmlns:xlink="http://www.w3.org/1999/xlink" x="0px" y="0px"
	 width="200px" height="200px" viewBox="0 0 200 200" enable-background="new 0 0 200 200" xml:space="preserve">
<g>
	<g>
		<path fill="#808080" d="M100,200.316c-25.817,0-57.956,0-78.925-21.075C0,158.166,0,126.027,0,100.316
			C0,74.605,0,42.36,21.075,21.391C42.149,0.316,74.289,0.316,100,0.316c25.816,0,57.955,0,78.926,21.075
			C200,42.466,200,74.605,200,100.316c0,25.711,0,57.956-21.074,78.925C157.955,200.316,125.816,200.316,100,200.316z M100,4.531
			c-25.079,0-56.165,0-75.975,19.81c-19.81,19.705-19.81,50.896-19.81,75.975c0,25.079,0,56.165,19.811,75.975
			c19.81,19.811,51.001,19.811,75.975,19.811c24.974,0,56.164,0,75.976-19.811c19.811-19.811,19.811-51.002,19.811-75.975
			c0-25.079,0-56.164-19.811-75.975C156.164,4.531,125.079,4.531,100,4.531z"/>
	</g>
	<ellipse fill="#1E1E1E" cx="101.739" cy="164.027" rx="36.427" ry="12.118"/>
	<g display="none">
		<path display="inline" fill="#FFFFFF" d="M98.419,74.078c0,0,6.323-18.651,13.909-19.705c0,0-6.743,1.792-10.854,20.759
			C100.738,75.448,98.419,74.078,98.419,74.078z"/>
		<path display="inline" fill="#FFFFFF" d="M102.529,73.551c0,0-16.544-10.749-23.077-6.85c0,0,6.428-2.74,21.391,9.589
			C101.58,75.975,102.529,73.551,102.529,73.551z"/>
		<path display="inline" fill="#FFFFFF" d="M102.951,73.235c0,0-7.271-12.855-14.437-11.591c0,0,6.428-0.422,11.697,13.277
			C100.843,74.921,102.951,73.235,102.951,73.235z"/>
		<path display="inline" fill="#FFFFFF" d="M100.738,73.235c0,0,9.799-10.959,16.543-8.324c0,0-6.217-1.792-14.227,10.537
			C102.424,75.237,100.738,73.235,100.738,73.235z"/>
		<path display="inline" fill="#F44336" d="M140.568,107.691c0,22.34-18.123,40.465-40.463,40.465
			c-22.339,0-40.464-18.125-40.464-40.465c0-21.074,12.224-34.667,32.771-36.458c1.265-0.105,6.428,1.792,7.798,1.792
			c2.106,0,6.006-1.792,8.008-1.476C127.502,74.183,140.568,87.46,140.568,107.691z"/>
		<g display="inline">
			<path fill="#FFFFFF" d="M66.386,93.783c1.475-4.215,3.793-8.114,6.744-11.485c2.951-3.372,6.744-6.112,11.17-7.482
				c2.213-0.632,4.531-0.843,6.744-0.737c1.159,0,2.213,0.21,3.372,0.421c1.054,0.211,2.213,0.316,3.267,0.527
				c2.213,0.316,4.32,0.316,6.533-0.316c1.054-0.211,2.214-0.422,3.372-0.422c1.159,0,2.213,0.211,3.372,0.422
				c-1.159-0.105-2.213-0.211-3.267-0.211c-1.055,0-2.213,0.316-3.268,0.632c-2.107,0.737-4.531,0.737-6.744,0.632l-1.686-0.211
				l-1.686-0.211c-1.054-0.105-2.212-0.316-3.267-0.316c-2.212-0.105-4.32,0.211-6.428,0.843c-4.215,1.159-7.903,3.793-10.854,6.955
				c-1.475,1.581-2.845,3.372-4.109,5.163C68.493,89.779,67.334,91.781,66.386,93.783z"/>
		</g>
	</g>
	<path fill="#FFCE54" d="M107.357,165.185c-0.967,0-1.952-0.021-2.994-0.042c-1.079-0.026-2.195-0.048-3.338-0.048
		c-1.142,0-2.258,0.021-3.34,0.048c-1.042,0.021-2.028,0.042-2.991,0.042c-5.265,0-8.799-0.694-11.306-4.255
		c-3.17-4.506-4.71-13.604-4.71-27.819c0-18.455,0.733-44.93,4.226-66.253c1.846-11.284,4.286-20.049,7.247-26.055
		c3.141-6.363,6.697-9.457,10.875-9.457s7.734,3.094,10.874,9.457c2.962,6.006,5.398,14.771,7.248,26.055
		c3.489,21.323,4.226,47.798,4.226,66.253c0,14.212-1.54,23.313-4.714,27.819C116.156,164.49,112.618,165.185,107.357,165.185z"/>
	<path fill="#F6BB42" d="M81.223,133.613c-0.004-0.171-0.004-0.333-0.004-0.503c0-8.558,0.153-16.292,0.406-23.26h3.854
		c-0.049,1.87-0.09,3.774-0.119,5.72l5.082,0.099c0.029-1.981,0.066-3.918,0.118-5.818h7.415v5.813h-7.362v5.818h7.362v11.56h5.078
		v-11.56h6.712v-5.818h-6.712v-5.813h7.411c0.011,0.324,0.022,0.651,0.029,0.98l5.074-0.167c-0.007-0.272-0.015-0.545-0.022-0.813
		h0.782v-5.813h-0.972c-0.078-1.986-0.167-3.927-0.268-5.817h4.773c0.755,12.572,0.971,24.911,0.971,34.891
		c0,0.17-0.004,0.332-0.004,0.503h5.082c0-0.167,0-0.333,0-0.503c0-21.734-0.982-52.244-5.748-74.719v-0.878h-0.19
		c-0.866-3.972-1.855-7.684-2.983-11.035v-0.594h-0.204c-3.661-10.585-8.739-17.445-15.759-17.445
		c-9.346,0-15.25,12.153-18.947,29.074h-0.175v0.805c-4.781,22.481-5.763,53.036-5.763,74.792c0,0.17,0,0.336,0,0.503H81.223
		L81.223,133.613z M119.475,92.403h-4.736c-0.133-1.993-0.278-3.931-0.435-5.813h4.702C119.177,88.52,119.334,90.461,119.475,92.403
		z M117.749,74.959c0.245,1.914,0.476,3.854,0.685,5.815h-4.658c-0.201-2.011-0.409-3.948-0.632-5.815H117.749L117.749,74.959z
		 M116.651,67.395c0.093,0.579,0.189,1.163,0.279,1.75h-4.524c-0.275-2.038-0.565-3.976-0.855-5.815h4.39
		C116.187,64.643,116.424,65.997,116.651,67.395z M114.728,57.514h-4.174c-0.38-2.098-0.767-4.034-1.146-5.814h3.817
		C113.753,53.508,114.255,55.448,114.728,57.514z M105.286,35.99c1.532,1.332,3.013,3.431,4.4,6.244
		c0.547,1.111,1.083,2.332,1.593,3.65h-3.211c-1.026-4.148-2.017-7.445-2.864-9.959C105.233,35.945,105.26,35.967,105.286,35.99z
		 M103.054,51.7h1.115c0.399,1.8,0.797,3.737,1.191,5.814h-2.307V51.7z M103.054,63.329h3.333c0.306,1.846,0.603,3.784,0.886,5.815
		h-4.219V63.329z M103.054,74.959h4.974c0.228,1.869,0.439,3.808,0.644,5.815h-5.617V74.959z M103.054,86.59h6.153
		c0.156,1.883,0.306,3.82,0.442,5.813h-6.596V86.59z M103.054,98.22h6.949c0.101,1.891,0.194,3.831,0.268,5.817h-7.217V98.22z
		 M97.976,104.037h-7.218c0.078-1.989,0.171-3.929,0.271-5.817h6.946V104.037L97.976,104.037z M97.976,92.403h-6.589
		c0.138-1.997,0.283-3.935,0.446-5.813h6.143V92.403z M97.976,80.774h-5.606c0.2-2.015,0.416-3.952,0.64-5.815h4.967V80.774z
		 M97.976,69.145h-4.212c0.286-2.046,0.581-3.984,0.882-5.815h3.329L97.976,69.145L97.976,69.145z M96.855,51.7h1.12v5.814h-2.311
		C96.066,55.39,96.469,53.455,96.855,51.7z M92.361,42.234c0.945-1.91,1.928-3.49,2.946-4.725c-0.722,2.268-1.521,5.047-2.348,8.375
		h-2.19C91.282,44.566,91.814,43.346,92.361,42.234z M88.824,51.7h2.801c-0.38,1.776-0.767,3.714-1.153,5.814H87.32
		C87.793,55.448,88.299,53.508,88.824,51.7z M85.4,67.395c0.228-1.397,0.466-2.752,0.711-4.065h3.37
		c-0.293,1.84-0.58,3.777-0.858,5.815h-3.501C85.215,68.54,85.308,67.955,85.4,67.395z M84.303,74.959h3.579
		c-0.215,1.867-0.424,3.805-0.625,5.815h-3.638C83.842,78.695,84.072,76.758,84.303,74.959z M83.053,86.59h3.677
		c-0.156,1.88-0.302,3.817-0.439,5.813h-3.713C82.726,90.372,82.886,88.435,83.053,86.59z M82.187,98.22h3.754
		c-0.097,1.893-0.187,3.828-0.268,5.817H81.87C81.967,102.024,82.075,100.087,82.187,98.22z"/>
	<path fill="#8CC153" d="M107.19,167.255c0,0-6.034,1.328-12.813,0.438c-7.21-0.95-12.619-2.594-15.406-7.325
		c-5.405-9.175-10.837-67.965-10.837-67.965S109.824,119.204,107.19,167.255z"/>
	<g opacity="0.1">
		<path d="M89.214,166.786c1.593,0.374,3.318,0.665,5.164,0.907c0.127,0.017,0.249,0.029,0.372,0.047
			c3.467-0.081,8.103-0.384,12.478-1.299c0.722-16.173-3.571-29.912-9.554-41.003C92.279,137.696,88.566,151.781,89.214,166.786z"/>
	</g>
	<path fill="#A0D468" d="M94.337,167.689c0,0,24.684,1.384,30.09-7.79c5.405-9.178,9.739-79.125,9.739-79.125
		S91.706,119.639,94.337,167.689z"/>
	<g opacity="0.2">
		<path fill="#FFFFFF" d="M128.716,86.335c-1.153,16.739-4.896,65.966-9.368,73.564c-3.693,6.269-16.398,7.605-24.065,7.823
			c4.571,0.146,24.37,0.277,29.145-7.823c5.404-9.179,9.739-79.125,9.739-79.125S132.02,82.742,128.716,86.335z"/>
	</g>
</g>
</svg>
