<?xml version="1.0" encoding="utf-8"?>
<!-- Generator: Adobe Illustrator 15.0.0, SVG Export Plug-In . SVG Version: 6.00 Build 0)  -->
<!DOCTYPE svg PUBLIC "-//W3C//DTD SVG 1.1//EN" "http://www.w3.org/Graphics/SVG/1.1/DTD/svg11.dtd">
<svg version="1.1" id="Layer_1" xmlns="http://www.w3.org/2000/svg" xmlns:xlink="http://www.w3.org/1999/xlink" x="0px" y="0px"
	 width="200px" height="200px" viewBox="0 0 200 200" enable-background="new 0 0 200 200" xml:space="preserve">
<g>
	<g>
		<path fill="#808080" d="M100,200.316c-25.817,0-57.956,0-78.925-21.075C0,158.166,0,126.027,0,100.316
			C0,74.605,0,42.36,21.075,21.391C42.149,0.316,74.289,0.316,100,0.316c25.816,0,57.955,0,78.926,21.075
			C200,42.466,200,74.605,200,100.316c0,25.711,0,57.956-21.074,78.925C157.955,200.316,125.816,200.316,100,200.316z M100,4.531
			c-25.079,0-56.165,0-75.975,19.81c-19.81,19.705-19.81,50.896-19.81,75.975c0,25.079,0,56.165,19.811,75.975
			c19.81,19.811,51.001,19.811,75.975,19.811c24.974,0,56.164,0,75.976-19.811c19.811-19.811,19.811-51.002,19.811-75.975
			c0-25.079,0-56.164-19.811-75.975C156.164,4.531,125.079,4.531,100,4.531z"/>
	</g>
	<ellipse fill="#1E1E1E" cx="100.001" cy="158.027" rx="57.014" ry="12.118"/>
	<g display="none">
		<path display="inline" fill="#FFFFFF" d="M98.419,74.078c0,0,6.323-18.651,13.909-19.705c0,0-6.743,1.792-10.854,20.759
			C100.738,75.448,98.419,74.078,98.419,74.078z"/>
		<path display="inline" fill="#FFFFFF" d="M102.529,73.551c0,0-16.544-10.749-23.077-6.85c0,0,6.428-2.74,21.391,9.589
			C101.58,75.975,102.529,73.551,102.529,73.551z"/>
		<path display="inline" fill="#FFFFFF" d="M102.951,73.235c0,0-7.271-12.855-14.437-11.591c0,0,6.428-0.422,11.697,13.277
			C100.843,74.921,102.951,73.235,102.951,73.235z"/>
		<path display="inline" fill="#FFFFFF" d="M100.738,73.235c0,0,9.799-10.959,16.543-8.324c0,0-6.217-1.792-14.227,10.537
			C102.424,75.237,100.738,73.235,100.738,73.235z"/>
		<path display="inline" fill="#F44336" d="M140.568,107.691c0,22.34-18.123,40.465-40.463,40.465
			c-22.339,0-40.464-18.125-40.464-40.465c0-21.074,12.224-34.667,32.771-36.458c1.265-0.105,6.428,1.792,7.798,1.792
			c2.106,0,6.006-1.792,8.008-1.476C127.502,74.183,140.568,87.46,140.568,107.691z"/>
		<g display="inline">
			<path fill="#FFFFFF" d="M66.386,93.783c1.475-4.215,3.793-8.114,6.744-11.485c2.951-3.372,6.744-6.112,11.17-7.482
				c2.213-0.632,4.531-0.843,6.744-0.737c1.159,0,2.213,0.21,3.372,0.421c1.054,0.211,2.213,0.316,3.267,0.527
				c2.213,0.316,4.32,0.316,6.533-0.316c1.054-0.211,2.214-0.422,3.372-0.422c1.159,0,2.213,0.211,3.372,0.422
				c-1.159-0.105-2.213-0.211-3.267-0.211c-1.055,0-2.213,0.316-3.268,0.632c-2.107,0.737-4.531,0.737-6.744,0.632l-1.686-0.211
				l-1.686-0.211c-1.054-0.105-2.212-0.316-3.267-0.316c-2.212-0.105-4.32,0.211-6.428,0.843c-4.215,1.159-7.903,3.793-10.854,6.955
				c-1.475,1.581-2.845,3.372-4.109,5.163C68.493,89.779,67.334,91.781,66.386,93.783z"/>
		</g>
	</g>
</g>
<path fill="#FFE8B6" d="M138.809,37.733c9.525-4.97,17.744,14.815,10.646,48.148c-3.925,18.434-17.744,33.333-31.939,44.443
	c-14.199,11.111-39.042-3.703-24.846-18.518c14.196-14.815,28.395-25.926,35.493-48.148
	C132.789,49.17,131.711,41.437,138.809,37.733"/>
<path fill="#FFD983" d="M149.455,59.956c0,11.111-3.549,33.333-14.195,48.148c-10.646,14.814-24.842,18.518-14.195,3.703
	c10.646-14.815,17.744-25.926,21.293-40.741S149.455,45.141,149.455,59.956"/>
<g transform="matrix(1.25 0 0 -1.25 27.5 25)">
	<path fill="#FFCC4D" d="M72.012-63.52c-0.84-1.755,3.313,11.357-8.52,17.78c-5.63,3.055-28.391-2.963-11.356-2.963
		c8.521,0,11.356-5.926,5.678-11.852c-0.826-0.866-1.386-1.787-1.766-2.702c-1.181-1.029-2.476-2.104-3.912-3.227
		c-6.422-5.028-16.578-12.524-28.389-20.741c-8.518-5.926-11.356-8.889-11.356-11.852c0-8.889,25.552-8.889,39.745-2.963
		C66.334-96.114,80.53-81.298,80.53-81.298l11.356,11.852C83.369-57.592,72.012-63.52,72.012-63.52"/>
	<path fill="#FFE8B6" d="M72.012-63.52c0,0,5.088,14.011-8.52,20.743c-11.473,5.674-22.712,2.963-31.227-2.963
		c-8.518-5.926-5.678-11.852-8.518-14.818c-2.839-2.964,2.839-5.926,8.518,0c5.678,5.929,23.607,14.504,31.227,11.855
		C72.012-51.666,69.173-57.592,72.012-63.52"/>
</g>
<path fill="#A6D388" d="M131.711,159.957h-14.196c-7.097,0-10.646,3.703-14.195,3.703s-7.098-7.407,0-7.407
	c7.099,0,14.195,0,17.745-3.704C124.613,148.846,138.809,159.957,131.711,159.957"/>
<path fill="#3E721D" d="M106.867,159.957c0,2.048-1.591,3.703-3.55,3.703c-1.958,0-3.549-1.655-3.549-3.703
	c0-2.049,1.591-3.704,3.549-3.704C105.276,156.252,106.867,157.908,106.867,159.957"/>
<path fill="#FFCC4D" d="M153.744,134.031c0,0-14.935,25.926-22.032,25.926h-14.196c-7.098,0,0-3.704,3.55-7.408
	c3.549-3.703,17.744,0,17.744-22.221C138.81,119.216,153.744,134.031,153.744,134.031"/>
<path fill="#FFE8B6" d="M131.711,100.695c10.646,0,28.391,11.115,24.842,33.338c-3.549,22.222-17.744,25.926-24.842,25.926h-7.098
	c-7.098,0-3.549-3.704,0-7.408c3.549-3.703,14.195,0,14.195-22.222c0-11.11-14.195-25.926-21.293-25.926
	C117.515,104.402,124.613,100.695,131.711,100.695"/>
<path fill="#FFD983" d="M99.769,108.105c10.65,0,17.749,3.704,10.65,11.111c-5.614,5.855-21.297,18.519-35.493,22.222
	c-14.195,3.704-28.391,3.704-17.744-3.703C67.829,130.326,91.833,108.105,99.769,108.105"/>
<path fill="#C1694F" d="M46.535,145.143c3.549,0,3.549,0,3.549,2.47c0,2.467,0,4.937-3.549,4.937s-3.549-4.937-3.549-4.937
	S42.986,145.143,46.535,145.143"/>
</svg>
