<?xml version="1.0" encoding="utf-8"?>
<!-- Generator: Adobe Illustrator 15.0.0, SVG Export Plug-In . SVG Version: 6.00 Build 0)  -->
<!DOCTYPE svg PUBLIC "-//W3C//DTD SVG 1.1//EN" "http://www.w3.org/Graphics/SVG/1.1/DTD/svg11.dtd">
<svg version="1.1" id="Layer_1" xmlns="http://www.w3.org/2000/svg" xmlns:xlink="http://www.w3.org/1999/xlink" x="0px" y="0px"
	 width="200px" height="200px" viewBox="0 0 200 200" enable-background="new 0 0 200 200" xml:space="preserve">
<g>
	<g>
		<path fill="#808080" d="M100,200.316c-25.817,0-57.956,0-78.925-21.075C0,158.166,0,126.027,0,100.316
			C0,74.605,0,42.36,21.075,21.391C42.149,0.316,74.289,0.316,100,0.316c25.816,0,57.955,0,78.926,21.075
			C200,42.466,200,74.605,200,100.316c0,25.711,0,57.956-21.074,78.925C157.955,200.316,125.816,200.316,100,200.316z M100,4.531
			c-25.079,0-56.165,0-75.975,19.81C4.215,44.046,4.215,75.237,4.215,100.316s0,56.165,19.811,75.975
			c19.81,19.811,51.001,19.811,75.975,19.811s56.164,0,75.975-19.811s19.811-51.002,19.811-75.975c0-25.079,0-56.164-19.811-75.975
			C156.164,4.531,125.079,4.531,100,4.531z"/>
	</g>
	<ellipse fill="#1E1E1E" cx="89.775" cy="158.027" rx="40.464" ry="12.118"/>
	<g display="none">
		<path display="inline" fill="#FFFFFF" d="M98.419,74.078c0,0,6.323-18.651,13.909-19.705c0,0-6.743,1.792-10.854,20.759
			C100.738,75.448,98.419,74.078,98.419,74.078z"/>
		<path display="inline" fill="#FFFFFF" d="M102.529,73.551c0,0-16.544-10.749-23.077-6.85c0,0,6.428-2.74,21.391,9.589
			C101.58,75.975,102.529,73.551,102.529,73.551z"/>
		<path display="inline" fill="#FFFFFF" d="M102.951,73.235c0,0-7.271-12.855-14.437-11.591c0,0,6.428-0.422,11.697,13.277
			C100.843,74.921,102.951,73.235,102.951,73.235z"/>
		<path display="inline" fill="#FFFFFF" d="M100.738,73.235c0,0,9.799-10.959,16.543-8.324c0,0-6.217-1.792-14.226,10.537
			C102.424,75.237,100.738,73.235,100.738,73.235z"/>
		<path display="inline" fill="#F44336" d="M140.568,107.692c0,22.339-18.123,40.464-40.463,40.464
			c-22.339,0-40.464-18.125-40.464-40.464c0-21.075,12.224-34.668,32.771-36.459c1.265-0.105,6.428,1.792,7.798,1.792
			c2.107,0,6.006-1.792,8.008-1.476C127.502,74.183,140.568,87.46,140.568,107.692z"/>
		<g display="inline">
			<path fill="#FFFFFF" d="M66.386,93.783c1.475-4.215,3.793-8.114,6.744-11.485c2.951-3.372,6.744-6.112,11.17-7.482
				c2.213-0.632,4.531-0.843,6.744-0.737c1.159,0,2.213,0.21,3.372,0.421c1.054,0.211,2.213,0.316,3.267,0.527
				c2.213,0.316,4.32,0.316,6.533-0.316c1.054-0.211,2.213-0.422,3.372-0.422s2.213,0.211,3.372,0.422
				c-1.159-0.105-2.213-0.211-3.267-0.211s-2.213,0.316-3.267,0.632c-2.107,0.737-4.531,0.737-6.744,0.632l-1.686-0.211
				l-1.686-0.211c-1.054-0.105-2.212-0.316-3.267-0.316c-2.212-0.105-4.32,0.211-6.428,0.843c-4.215,1.159-7.903,3.793-10.854,6.955
				c-1.475,1.581-2.845,3.372-4.109,5.163C68.493,89.779,67.334,91.781,66.386,93.783z"/>
		</g>
	</g>
</g>
<g>
	<path fill="#583E68" d="M152.838,76.479c0.009,0.007,0.019,0.017,0.027,0.023l-0.05-0.034
		C152.825,76.47,152.831,76.475,152.838,76.479c-2.403-1.729-3.375-4.54-2.165-6.292c-1.215,1.759-4.166,1.784-6.59,0.057
		c-2.425-1.729-3.406-4.557-2.191-6.315c-1.215,1.758-4.167,1.784-6.591,0.057c-2.423-1.729-3.404-4.557-2.191-6.315
		c-1.12,1.625-3.716,1.752-6.018,0.406c-3.434,2.538-7.245,5.98-11.425,10.659c0,0-18.088,17.171-43.605,21.897
		c-2.36,0.438-4.701,1.019-6.901,1.989c-0.987,0.436-3.18,1.6-3.18,1.6c-15.017,8.436-23.034,26.444-18.322,44.017
		c4.229,15.778,17.474,26.579,32.555,28.279c6.921,0.778,13.884-0.754,20.186-3.762c14.029-6.693,42.639-26.015,54.471-75.431
		c0,0,1.785-4.479,3.06-10.283C153.556,76.902,153.189,76.725,152.838,76.479z"/>
	<path fill="#6A3311" d="M152.196,50.731c-1.238,0-2.243-1.019-2.243-2.278s1.005-2.278,2.243-2.278
		c4.312,0,7.863-1.337,9.271-3.488c1.011-1.546,0.981-3.647-0.093-6.244c-0.478-1.16,0.06-2.495,1.202-2.982
		c1.146-0.492,2.455,0.059,2.936,1.219c2.104,5.096,0.994,8.538-0.31,10.529C162.94,48.667,158.078,50.731,152.196,50.731z"/>
	<path fill="#659C35" d="M126.475,57.691c-2.229-1.59-2.825-4.634-1.33-6.798c1.496-2.167,4.516-2.634,6.746-1.043
		c4.785-6.931,13.405-6.318,20.541-1.23c7.136,5.087,10.36,12.915,5.575,19.845c2.229,1.59,2.825,4.634,1.33,6.798
		c-1.496,2.164-4.291,2.793-6.519,1.205l0.049,0.034c-2.424-1.729-3.407-4.557-2.192-6.315c-1.215,1.759-4.165,1.784-6.59,0.057
		c-2.424-1.729-3.406-4.557-2.191-6.315c-1.215,1.758-4.166,1.784-6.591,0.057c-2.424-1.729-3.406-4.557-2.19-6.315
		c-1.216,1.758-4.166,1.784-6.591,0.057"/>
	<path fill="#6F58A8" d="M59.684,147.909c-0.755,0-1.495-0.39-1.917-1.092c-5.344-8.912-5.956-20.771-1.594-30.956
		c0.493-1.154,1.816-1.686,2.951-1.182c1.136,0.503,1.655,1.846,1.163,2.996c-3.788,8.846-3.284,19.104,1.312,26.769
		c0.643,1.075,0.31,2.476-0.747,3.13C60.484,147.802,60.082,147.909,59.684,147.909z"/>
	<path fill="#6F58A8" d="M62.698,111.761c-0.518,0-1.038-0.182-1.462-0.552c-0.938-0.822-1.043-2.259-0.233-3.212
		c2.751-3.243,6.212-5.784,10.006-7.354c1.146-0.472,2.456,0.089,2.922,1.255c0.466,1.165-0.086,2.495-1.234,2.969
		c-3.139,1.294-6.01,3.406-8.297,6.104C63.954,111.492,63.326,111.761,62.698,111.761z"/>
</g>
</svg>
