<?xml version="1.0" encoding="utf-8"?>
<!-- Generator: Adobe Illustrator 15.0.0, SVG Export Plug-In . SVG Version: 6.00 Build 0)  -->
<!DOCTYPE svg PUBLIC "-//W3C//DTD SVG 1.1//EN" "http://www.w3.org/Graphics/SVG/1.1/DTD/svg11.dtd">
<svg version="1.1" id="Layer_1" xmlns="http://www.w3.org/2000/svg" xmlns:xlink="http://www.w3.org/1999/xlink" x="0px" y="0px"
	 width="200px" height="200px" viewBox="0 0 200 200" enable-background="new 0 0 200 200" xml:space="preserve">
<g>
	<g>
		<path fill="#808080" d="M100,200.316c-25.817,0-57.956,0-78.925-21.075C0,158.166,0,126.027,0,100.316
			C0,74.605,0,42.36,21.075,21.391C42.149,0.316,74.289,0.316,100,0.316c25.816,0,57.955,0,78.926,21.075
			C200,42.466,200,74.605,200,100.316c0,25.711,0,57.956-21.074,78.925C157.955,200.316,125.816,200.316,100,200.316z M100,4.531
			c-25.079,0-56.165,0-75.975,19.81c-19.81,19.705-19.81,50.896-19.81,75.975c0,25.079,0,56.165,19.811,75.975
			c19.81,19.811,51.001,19.811,75.975,19.811c24.974,0,56.164,0,75.976-19.811c19.811-19.811,19.811-51.002,19.811-75.975
			c0-25.079,0-56.164-19.811-75.975C156.164,4.531,125.079,4.531,100,4.531z"/>
	</g>
	<g display="none">
		<path display="inline" fill="#FFFFFF" d="M98.419,74.078c0,0,6.323-18.651,13.909-19.705c0,0-6.743,1.792-10.854,20.759
			C100.738,75.448,98.419,74.078,98.419,74.078z"/>
		<path display="inline" fill="#FFFFFF" d="M102.529,73.551c0,0-16.544-10.749-23.077-6.85c0,0,6.428-2.74,21.391,9.589
			C101.58,75.975,102.529,73.551,102.529,73.551z"/>
		<path display="inline" fill="#FFFFFF" d="M102.951,73.235c0,0-7.271-12.855-14.437-11.591c0,0,6.428-0.422,11.697,13.277
			C100.843,74.921,102.951,73.235,102.951,73.235z"/>
		<path display="inline" fill="#FFFFFF" d="M100.738,73.235c0,0,9.799-10.959,16.543-8.324c0,0-6.217-1.792-14.227,10.537
			C102.424,75.237,100.738,73.235,100.738,73.235z"/>
		<path display="inline" fill="#F44336" d="M140.568,107.691c0,22.34-18.123,40.465-40.463,40.465
			c-22.339,0-40.464-18.125-40.464-40.465c0-21.074,12.224-34.667,32.771-36.458c1.265-0.105,6.428,1.792,7.798,1.792
			c2.106,0,6.006-1.792,8.008-1.476C127.502,74.183,140.568,87.46,140.568,107.691z"/>
		<g display="inline">
			<path fill="#FFFFFF" d="M66.386,93.783c1.475-4.215,3.793-8.114,6.744-11.485c2.951-3.372,6.744-6.112,11.17-7.482
				c2.213-0.632,4.531-0.843,6.744-0.737c1.159,0,2.213,0.21,3.372,0.421c1.054,0.211,2.213,0.316,3.267,0.527
				c2.213,0.316,4.32,0.316,6.533-0.316c1.054-0.211,2.214-0.422,3.372-0.422c1.159,0,2.213,0.211,3.372,0.422
				c-1.159-0.105-2.213-0.211-3.267-0.211c-1.055,0-2.213,0.316-3.268,0.632c-2.107,0.737-4.531,0.737-6.744,0.632l-1.686-0.211
				l-1.686-0.211c-1.054-0.105-2.212-0.316-3.267-0.316c-2.212-0.105-4.32,0.211-6.428,0.843c-4.215,1.159-7.903,3.793-10.854,6.955
				c-1.475,1.581-2.845,3.372-4.109,5.163C68.493,89.779,67.334,91.781,66.386,93.783z"/>
		</g>
	</g>
	<path fill="#E1E6E9" d="M128.908,145.33l15.72,16.055c1.678,1.713,4.397,1.713,6.074,0l7.503-7.662c1.678-1.713,1.678-4.49,0-6.203
		l-15.721-16.054L128.908,145.33z"/>
	<ellipse fill="#E7E7E7" cx="99.908" cy="101.851" rx="54.274" ry="55.427"/>
	<ellipse fill="#EBF0F3" cx="99.908" cy="101.851" rx="46.062" ry="47.038"/>
	<ellipse fill="#FCD462" cx="99.908" cy="101.851" rx="43.706" ry="44.634"/>
	<g>
		<path fill="#F6C358" d="M77.336,128.1c-13.331-13.614-13.331-35.686,0-49.3c13.331-13.613,34.945-13.613,48.275,0
			c6.533,6.672,9.844,15.375,9.974,24.117c0.276-9.683-3.194-19.456-10.433-26.848c-13.941-14.238-36.547-14.238-50.489,0
			s-13.942,37.323,0,51.563c7.237,7.39,16.807,10.934,26.289,10.652C92.392,138.151,83.869,134.771,77.336,128.1z"/>
		<ellipse fill="#F6C358" cx="77.315" cy="113.253" rx="1.12" ry="1.144"/>
		<ellipse fill="#F6C358" cx="96.176" cy="88.599" rx="1.343" ry="1.372"/>
		<ellipse fill="#F6C358" cx="119.469" cy="85.306" rx="0.627" ry="0.64"/>
		<ellipse fill="#F6C358" cx="123.998" cy="105.843" rx="1.389" ry="1.418"/>
		<ellipse fill="#F6C358" cx="108.002" cy="124.831" rx="2.418" ry="2.47"/>
		<ellipse fill="#F6C358" cx="103.165" cy="135.812" rx="0.448" ry="0.458"/>
		<ellipse fill="#F6C358" cx="83.636" cy="93.722" rx="2.777" ry="2.836"/>
		<ellipse fill="#F6C358" cx="107.375" cy="78.443" rx="1.791" ry="1.83"/>
	</g>
</g>
</svg>
