<?xml version="1.0" encoding="utf-8"?>
<!-- Generator: Adobe Illustrator 15.0.0, SVG Export Plug-In . SVG Version: 6.00 Build 0)  -->
<!DOCTYPE svg PUBLIC "-//W3C//DTD SVG 1.1//EN" "http://www.w3.org/Graphics/SVG/1.1/DTD/svg11.dtd">
<svg version="1.1" id="Layer_1" xmlns="http://www.w3.org/2000/svg" xmlns:xlink="http://www.w3.org/1999/xlink" x="0px" y="0px"
	 width="200px" height="200px" viewBox="0 0 200 200" enable-background="new 0 0 200 200" xml:space="preserve">
<g>
	<path fill="#808080" d="M100.105,200.211c-25.817,0-57.956,0-78.925-21.075C0.105,158.061,0.105,125.922,0.105,100.211
		c0-25.711,0-57.956,21.075-78.925C42.255,0.211,74.394,0.211,100.105,0.211c25.711,0,57.955,0,78.926,21.075
		c21.074,21.075,21.074,53.214,21.074,78.925c0,25.711,0,57.955-21.074,78.925l0,0C158.061,200.211,125.922,200.211,100.105,200.211
		z M100.105,4.426c-25.079,0-56.165,0-75.975,19.81C4.32,44.046,4.32,75.132,4.32,100.211c0,25.078,0,56.164,19.811,75.975
		c19.81,19.811,51.001,19.811,75.975,19.811c25.079,0,56.164,0,75.975-19.811c19.916-19.811,19.916-51.001,19.916-75.975
		c0-25.079,0-56.165-19.811-75.975C156.375,4.426,125.185,4.426,100.105,4.426z"/>
</g>
<g>
	<g>
		<ellipse fill="#1E1E1E" cx="77.766" cy="142.255" rx="21.707" ry="7.903"/>
	</g>
	<g>
		<ellipse fill="#1E1E1E" cx="115.682" cy="141.589" rx="21.707" ry="7.903"/>
	</g>
	<g>
		<path fill="#B7ED62" d="M132.274,59.64c0,0-10.769,6.85-27.368,6.755c-6.567-0.038-14.049-1.162-22.138-4.227l-2.231-4.289
			c0,0,6.411-6.25,17.802-7.77C106.987,48.953,118.51,50.528,132.274,59.64"/>
		<path fill="#ACDA63" d="M98.058,50.148c-11.214,1.583-17.521,7.731-17.521,7.731l2.231,4.289
			c8.088,3.065,15.571,4.189,22.138,4.227l-0.003-0.002c-10.995-10.035-6.564-16.284-6.564-16.284
			C98.245,50.122,98.152,50.135,98.058,50.148"/>
		<path fill="#B7ED62" d="M104.982,78.324c-4.386-6.39-9.545-11.657-15.333-15.655c-7.249-5.007-15.493-8.019-24.504-8.951
			l-0.335,3.679c8.426,0.872,16.128,3.674,22.89,8.331c2.593,1.784,5.052,3.847,7.367,6.166c-0.708,7.627-4.03,14.381-9.886,20.084
			c-4.609,4.488-9.138,6.604-9.183,6.625l1.372,3.395c0.203-0.092,5.028-2.331,10.06-7.203c5.718-5.535,9.365-12.249,10.688-19.599
			c1.395,1.633,2.729,3.369,3.995,5.205c7.097,10.296,9.665,20.279,9.69,20.379l3.352-0.955
			C115.046,99.395,112.43,89.17,104.982,78.324z"/>
		<path fill="#DD4545" d="M134.105,120.277c0,10.504-6.918,19.289-16.168,21.46c-1.434,0.341-2.928,0.518-4.46,0.518
			c-11.39,0-20.625-9.843-20.625-21.978c0-12.139,9.235-21.978,20.625-21.978c1.532,0,3.025,0.177,4.46,0.518
			C127.188,100.987,134.105,109.771,134.105,120.277z"/>
		<path fill="#F75959" d="M134.105,120.277c0,10.504-6.918,19.289-16.168,21.46c-9.249-2.171-16.167-10.955-16.167-21.46
			c0-10.507,6.918-19.29,16.167-21.46C127.188,100.987,134.105,109.771,134.105,120.277z"/>
		<path fill="#DD4545" d="M97.313,120.277c0,10.504-6.918,19.289-16.168,21.46c-1.435,0.341-2.929,0.518-4.46,0.518
			c-11.391,0-20.625-9.843-20.625-21.978c0-12.139,9.235-21.978,20.625-21.978c1.531,0,3.025,0.177,4.46,0.518
			C90.394,100.987,97.313,109.771,97.313,120.277z"/>
		<path fill="#F75959" d="M97.313,120.277c0,10.504-6.918,19.289-16.168,21.46c-9.25-2.171-16.168-10.955-16.168-21.46
			c0-10.507,6.918-19.29,16.168-21.46C90.394,100.987,97.313,109.771,97.313,120.277z"/>
		<ellipse fill="#FFCCCC" cx="88.038" cy="116.431" rx="4.815" ry="5.13"/>
		<ellipse fill="#FFCCCC" cx="126.148" cy="116.431" rx="4.814" ry="5.13"/>
	</g>
</g>
</svg>
