<?xml version="1.0" encoding="utf-8"?>
<!-- Generator: Adobe Illustrator 15.0.0, SVG Export Plug-In . SVG Version: 6.00 Build 0)  -->
<!DOCTYPE svg PUBLIC "-//W3C//DTD SVG 1.1//EN" "http://www.w3.org/Graphics/SVG/1.1/DTD/svg11.dtd">
<svg version="1.1" id="Layer_1" xmlns="http://www.w3.org/2000/svg" xmlns:xlink="http://www.w3.org/1999/xlink" x="0px" y="0px"
	 width="200px" height="200px" viewBox="0 0 200 200" enable-background="new 0 0 200 200" xml:space="preserve">
<g>
	<g>
		<path fill="#808080" d="M100,200.316c-25.817,0-57.956,0-78.925-21.075C0,158.166,0,126.027,0,100.316
			C0,74.605,0,42.36,21.075,21.391C42.149,0.316,74.289,0.316,100,0.316c25.816,0,57.955,0,78.926,21.075
			C200,42.466,200,74.605,200,100.316c0,25.711,0,57.956-21.074,78.925C157.955,200.316,125.816,200.316,100,200.316z M100,4.531
			c-25.079,0-56.165,0-75.975,19.81c-19.81,19.705-19.81,50.896-19.81,75.975c0,25.079,0,56.165,19.811,75.975
			c19.81,19.811,51.001,19.811,75.975,19.811c24.974,0,56.164,0,75.976-19.811c19.811-19.811,19.811-51.002,19.811-75.975
			c0-25.079,0-56.164-19.811-75.975C156.164,4.531,125.079,4.531,100,4.531z"/>
	</g>
	<ellipse fill="#1E1E1E" cx="81.775" cy="133.027" rx="40.463" ry="12.118"/>
	<g display="none">
		<path display="inline" fill="#FFFFFF" d="M98.419,74.078c0,0,6.323-18.651,13.909-19.705c0,0-6.743,1.792-10.854,20.759
			C100.738,75.448,98.419,74.078,98.419,74.078z"/>
		<path display="inline" fill="#FFFFFF" d="M102.529,73.551c0,0-16.544-10.749-23.077-6.85c0,0,6.428-2.74,21.391,9.589
			C101.58,75.975,102.529,73.551,102.529,73.551z"/>
		<path display="inline" fill="#FFFFFF" d="M102.951,73.235c0,0-7.271-12.855-14.437-11.591c0,0,6.428-0.422,11.697,13.277
			C100.843,74.921,102.951,73.235,102.951,73.235z"/>
		<path display="inline" fill="#FFFFFF" d="M100.738,73.235c0,0,9.799-10.959,16.543-8.324c0,0-6.217-1.792-14.227,10.537
			C102.424,75.237,100.738,73.235,100.738,73.235z"/>
		<path display="inline" fill="#F44336" d="M140.568,107.691c0,22.34-18.123,40.465-40.463,40.465
			c-22.339,0-40.464-18.125-40.464-40.465c0-21.074,12.224-34.667,32.771-36.458c1.265-0.105,6.428,1.792,7.798,1.792
			c2.106,0,6.006-1.792,8.008-1.476C127.502,74.183,140.568,87.46,140.568,107.691z"/>
		<g display="inline">
			<path fill="#FFFFFF" d="M66.386,93.783c1.475-4.215,3.793-8.114,6.744-11.485c2.951-3.372,6.744-6.112,11.17-7.482
				c2.213-0.632,4.531-0.843,6.744-0.737c1.159,0,2.213,0.21,3.372,0.421c1.054,0.211,2.213,0.316,3.267,0.527
				c2.213,0.316,4.32,0.316,6.533-0.316c1.054-0.211,2.214-0.422,3.372-0.422c1.159,0,2.213,0.211,3.372,0.422
				c-1.159-0.105-2.213-0.211-3.267-0.211c-1.055,0-2.213,0.316-3.268,0.632c-2.107,0.737-4.531,0.737-6.744,0.632l-1.686-0.211
				l-1.686-0.211c-1.054-0.105-2.212-0.316-3.267-0.316c-2.212-0.105-4.32,0.211-6.428,0.843c-4.215,1.159-7.903,3.793-10.854,6.955
				c-1.475,1.581-2.845,3.372-4.109,5.163C68.493,89.779,67.334,91.781,66.386,93.783z"/>
		</g>
	</g>
</g>
<path fill="#C48D66" d="M75.176,55.276c-3.164,0-5.878,2.858-7.038,6.932l14.12,0.159C81.125,58.209,78.381,55.276,75.176,55.276z"
	/>
<path fill="#D29B6E" d="M75.176,60.594c23.202,0,34.371,16.667,34.371,37.227c0,20.561-11.169,37.228-34.371,37.228
	c-23.201,0-34.372-16.667-34.372-37.227C40.804,77.261,51.975,60.594,75.176,60.594z"/>
<path fill="#C48D66" d="M92.066,125.823c-22.964,3.069-36.58-11.948-39.737-32.298c-1.709-11.015,0.053-21.368,5.619-29.005
	C46.452,70.644,40.804,83.27,40.804,97.821c0,20.56,11.171,37.227,34.372,37.227c12.05,0,20.825-4.521,26.506-11.722
	C98.804,124.474,95.63,125.347,92.066,125.823z"/>
<path fill="#AFDC82" d="M159.196,126.185c0,18.602-16.243,33.682-36.282,33.682c-20.037,0-36.281-15.08-36.281-33.682
	s16.244-33.682,36.281-33.682C142.953,92.503,159.196,107.583,159.196,126.185z"/>
<path fill="#CDF5A0" d="M155.377,126.185c0,16.644-14.534,30.136-32.463,30.136c-17.928,0-32.462-13.492-32.462-30.136
	s14.534-30.136,32.462-30.136C140.843,96.049,155.377,109.541,155.377,126.185z"/>
<path fill="#AFDC82" d="M143.92,124.412h-10.685c-0.017-0.086-0.03-0.173-0.05-0.259l5.736-2.205
	c0.973-0.375,1.436-1.412,1.033-2.315c-0.402-0.904-1.525-1.331-2.495-0.959l-5.74,2.207c-0.052-0.074-0.103-0.148-0.155-0.221
	l7.553-7.012c0.746-0.692,0.746-1.813,0-2.506c-0.746-0.693-1.953-0.693-2.699,0l-7.553,7.011c-0.078-0.049-0.158-0.096-0.236-0.143
	l2.377-5.33c0.403-0.905-0.059-1.941-1.033-2.315c-0.967-0.372-2.092,0.054-2.494,0.96l-2.376,5.325
	c-0.093-0.019-0.185-0.031-0.278-0.047v-9.919c0-0.979-0.854-1.772-1.91-1.772c-1.055,0-1.908,0.794-1.908,1.772v9.919
	c-0.094,0.017-0.187,0.028-0.277,0.047l-2.377-5.326c-0.404-0.904-1.523-1.33-2.494-0.959c-0.975,0.375-1.438,1.412-1.034,2.316
	l2.378,5.328c-0.079,0.048-0.158,0.095-0.236,0.144l-7.553-7.011c-0.746-0.693-1.955-0.693-2.701,0
	c-0.745,0.692-0.745,1.814,0,2.507l7.553,7.011c-0.053,0.072-0.102,0.146-0.154,0.221l-5.74-2.207
	c-0.969-0.373-2.09,0.053-2.495,0.959c-0.403,0.904,0.06,1.94,1.033,2.315l5.737,2.205c-0.02,0.086-0.033,0.173-0.051,0.259H101.91
	c-1.057,0-1.91,0.794-1.91,1.772s0.854,1.773,1.91,1.773h10.684c0.018,0.086,0.029,0.172,0.051,0.258l-5.737,2.205
	c-0.974,0.374-1.437,1.411-1.033,2.315c0.304,0.683,1.015,1.096,1.765,1.096c0.244,0,0.491-0.044,0.73-0.136l5.74-2.207
	c0.053,0.074,0.103,0.147,0.156,0.22l-7.555,7.011c-0.745,0.692-0.745,1.815,0,2.507c0.373,0.347,0.862,0.52,1.351,0.52
	c0.489,0,0.978-0.173,1.351-0.52l7.553-7.012c0.078,0.05,0.157,0.097,0.236,0.144l-2.378,5.329c-0.403,0.905,0.06,1.941,1.034,2.316
	c0.238,0.092,0.486,0.136,0.73,0.136c0.748,0,1.46-0.412,1.764-1.095l2.375-5.325c0.093,0.018,0.186,0.03,0.279,0.046v9.918
	c0,0.979,0.854,1.773,1.908,1.773c1.056,0,1.91-0.794,1.91-1.773v-9.918c0.094-0.016,0.188-0.028,0.279-0.047l2.375,5.325
	c0.304,0.684,1.014,1.096,1.764,1.096c0.244,0,0.492-0.044,0.73-0.136c0.975-0.374,1.437-1.411,1.033-2.315l-2.377-5.33
	c0.078-0.047,0.158-0.094,0.236-0.144l7.553,7.012c0.373,0.347,0.861,0.52,1.35,0.52c0.489,0,0.978-0.173,1.352-0.52
	c0.746-0.691,0.746-1.814,0-2.507l-7.554-7.011c0.054-0.072,0.103-0.146,0.154-0.221l5.74,2.208
	c0.239,0.092,0.487,0.136,0.731,0.136c0.748,0,1.46-0.413,1.764-1.095c0.402-0.905-0.061-1.941-1.033-2.316l-5.736-2.206
	c0.02-0.085,0.033-0.172,0.05-0.257h10.685c1.055,0,1.909-0.795,1.909-1.773C145.829,125.205,144.975,124.412,143.92,124.412z"/>
<path fill="#F0FFC3" d="M131.508,126.185c0,4.406-3.848,7.977-8.594,7.977c-4.745,0-8.592-3.57-8.592-7.977
	c0-4.405,3.847-7.978,8.592-7.978C127.66,118.207,131.508,121.779,131.508,126.185z"/>
<g>
	<path fill="#785353" d="M109.547,127.958h-1.908c-1.056,0-1.91-0.795-1.91-1.773c0-0.979,0.854-1.772,1.91-1.772h1.908
		c1.057,0,1.91,0.793,1.91,1.772C111.457,127.163,110.604,127.958,109.547,127.958z"/>
	<path fill="#785353" d="M138.191,127.958h-1.91c-1.055,0-1.91-0.795-1.91-1.773c0-0.979,0.855-1.772,1.91-1.772h1.91
		c1.056,0,1.909,0.793,1.909,1.772C140.101,127.163,139.247,127.958,138.191,127.958z"/>
	<path fill="#785353" d="M122.914,115.548c-1.055,0-1.908-0.794-1.908-1.772v-1.772c0-0.979,0.854-1.772,1.908-1.772
		c1.056,0,1.91,0.794,1.91,1.772v1.772C124.824,114.755,123.97,115.548,122.914,115.548z"/>
	<path fill="#785353" d="M122.914,142.139c-1.055,0-1.908-0.794-1.908-1.772v-1.773c0-0.979,0.854-1.772,1.908-1.772
		c1.056,0,1.91,0.794,1.91,1.772v1.773C124.824,141.346,123.97,142.139,122.914,142.139z"/>
	<path fill="#785353" d="M129.665,121.689c-0.489,0-0.978-0.173-1.351-0.519c-0.745-0.693-0.745-1.815,0-2.508l1.351-1.253
		c0.745-0.692,1.954-0.692,2.7,0s0.746,1.813,0,2.507l-1.35,1.254C130.643,121.517,130.154,121.689,129.665,121.689z"/>
	<path fill="#785353" d="M114.814,135.479c-0.488,0-0.978-0.173-1.351-0.52c-0.746-0.692-0.746-1.814,0-2.507l1.351-1.253
		c0.745-0.692,1.953-0.692,2.699,0c0.746,0.691,0.746,1.813,0,2.507l-1.35,1.253C115.791,135.306,115.303,135.479,114.814,135.479z"
		/>
	<path fill="#785353" d="M131.016,135.479c-0.488,0-0.978-0.173-1.351-0.52l-1.351-1.253c-0.745-0.693-0.745-1.815,0-2.507
		c0.746-0.692,1.955-0.692,2.701,0l1.35,1.253c0.746,0.692,0.746,1.814,0,2.507C131.992,135.306,131.504,135.479,131.016,135.479z"
		/>
	<path fill="#785353" d="M116.164,121.689c-0.488,0-0.978-0.173-1.351-0.519l-1.35-1.254c-0.746-0.693-0.746-1.814,0-2.507
		c0.745-0.692,1.954-0.692,2.7,0l1.35,1.253c0.746,0.692,0.746,1.814,0,2.508C117.141,121.517,116.652,121.689,116.164,121.689z"/>
</g>
</svg>
