<?xml version="1.0" encoding="utf-8"?>
<!-- Generator: Adobe Illustrator 15.0.0, SVG Export Plug-In . SVG Version: 6.00 Build 0)  -->
<!DOCTYPE svg PUBLIC "-//W3C//DTD SVG 1.1//EN" "http://www.w3.org/Graphics/SVG/1.1/DTD/svg11.dtd">
<svg version="1.1" id="Layer_1" xmlns="http://www.w3.org/2000/svg" xmlns:xlink="http://www.w3.org/1999/xlink" x="0px" y="0px"
	 width="200px" height="200px" viewBox="0 0 200 200" enable-background="new 0 0 200 200" xml:space="preserve">
<g>
	<g>
		<path fill="#808080" d="M100,200.316c-25.817,0-57.956,0-78.925-21.075C0,158.166,0,126.027,0,100.316
			C0,74.605,0,42.36,21.075,21.391C42.149,0.316,74.289,0.316,100,0.316c25.816,0,57.955,0,78.926,21.075
			C200,42.466,200,74.605,200,100.316c0,25.711,0,57.956-21.074,78.925C157.955,200.316,125.816,200.316,100,200.316z M100,4.531
			c-25.079,0-56.165,0-75.975,19.81c-19.81,19.705-19.81,50.896-19.81,75.975c0,25.079,0,56.165,19.811,75.975
			c19.81,19.811,51.001,19.811,75.975,19.811c24.974,0,56.164,0,75.976-19.811c19.811-19.811,19.811-51.002,19.811-75.975
			c0-25.079,0-56.164-19.811-75.975C156.164,4.531,125.079,4.531,100,4.531z"/>
	</g>
	<ellipse fill="#1E1E1E" cx="108.533" cy="146.703" rx="71.743" ry="12.118"/>
	<g display="none">
		<path display="inline" fill="#FFFFFF" d="M98.419,74.078c0,0,6.323-18.651,13.909-19.705c0,0-6.743,1.792-10.854,20.759
			C100.738,75.448,98.419,74.078,98.419,74.078z"/>
		<path display="inline" fill="#FFFFFF" d="M102.529,73.551c0,0-16.544-10.749-23.077-6.85c0,0,6.428-2.74,21.391,9.589
			C101.58,75.975,102.529,73.551,102.529,73.551z"/>
		<path display="inline" fill="#FFFFFF" d="M102.951,73.235c0,0-7.271-12.855-14.437-11.591c0,0,6.428-0.422,11.697,13.277
			C100.843,74.921,102.951,73.235,102.951,73.235z"/>
		<path display="inline" fill="#FFFFFF" d="M100.738,73.235c0,0,9.799-10.959,16.543-8.324c0,0-6.217-1.792-14.227,10.537
			C102.424,75.237,100.738,73.235,100.738,73.235z"/>
		<path display="inline" fill="#F44336" d="M140.568,107.691c0,22.34-18.123,40.465-40.463,40.465
			c-22.339,0-40.464-18.125-40.464-40.465c0-21.074,12.224-34.667,32.771-36.458c1.265-0.105,6.428,1.792,7.798,1.792
			c2.106,0,6.006-1.792,8.008-1.476C127.502,74.183,140.568,87.46,140.568,107.691z"/>
		<g display="inline">
			<path fill="#FFFFFF" d="M66.386,93.783c1.475-4.215,3.793-8.114,6.744-11.485c2.951-3.372,6.744-6.112,11.17-7.482
				c2.213-0.632,4.531-0.843,6.744-0.737c1.159,0,2.213,0.21,3.372,0.421c1.054,0.211,2.213,0.316,3.267,0.527
				c2.213,0.316,4.32,0.316,6.533-0.316c1.054-0.211,2.214-0.422,3.372-0.422c1.159,0,2.213,0.211,3.372,0.422
				c-1.159-0.105-2.213-0.211-3.267-0.211c-1.055,0-2.213,0.316-3.268,0.632c-2.107,0.737-4.531,0.737-6.744,0.632l-1.686-0.211
				l-1.686-0.211c-1.054-0.105-2.212-0.316-3.267-0.316c-2.212-0.105-4.32,0.211-6.428,0.843c-4.215,1.159-7.903,3.793-10.854,6.955
				c-1.475,1.581-2.845,3.372-4.109,5.163C68.493,89.779,67.334,91.781,66.386,93.783z"/>
		</g>
	</g>
	<path fill="#D87E35" d="M146.493,91.199c3.834,11.913,21.617,8.506,21.617,19.961c0,10.463-31.907,16.951-42.276,17.49
		l-43.223,0.813c-27.689,0-47.754-7.637-47.754-30.589c0-22.952,20.47-47.807,49.738-47.807
		C112.238,51.066,139.44,69.281,146.493,91.199z"/>
	<path fill="#C67030" d="M157.443,100.805c-1.855-0.787-4.016-0.375-5.426,1.076c-7.443,7.67-31.322,12.314-40.027,12.768
		l-43.223,0.813c-12.646,0-23.701-1.594-31.98-5.512c5.646,14.406,23.185,19.514,45.824,19.514l43.223-0.813
		c10.368-0.539,42.276-7.027,42.276-17.49C168.11,104.932,162.855,103.096,157.443,100.805z"/>
	<path fill="#E2E2E2" d="M159.388,52.433c-1.528,2.103-1.231,4.649-0.719,6.406c0.394,1.345-0.087,2.792-1.207,3.618l-19.198,14.07
		c-2.337,1.713-2.849,5.024-1.141,7.378c1.707,2.353,4.983,2.85,7.3,1.106l19.021-14.313c1.114-0.835,2.623-0.864,3.774-0.083
		c1.504,1.022,3.817,2.072,6.258,1.226c3.199-1.108,4.546-4.699,3.2-7.835c-1.059-2.465-3.331-3.789-5.643-3.789
		c-0.497,0-0.921-0.251-1.184-0.62c-0.269-0.363-0.378-0.847-0.23-1.327c0.692-2.23,0.125-4.821-1.884-6.58
		C165.181,49.452,161.392,49.677,159.388,52.433z"/>
	<path fill="#E88C38" d="M88.872,119.738c7.968,10.977,23.741,12.957,35.229,4.426c5.405-4.014,8.688-9.484,10.75-15.986
		c2.739-8.637,6.751-15.599,13.449-21.815c1.694-1.573,2.01-4.093,0.723-5.864l-5.124-7.059c-1.286-1.773-3.757-2.224-5.748-1.06
		c-7.869,4.603-15.638,6.391-24.605,6.447c-6.751,0.043-12.894,1.572-18.299,5.587C83.759,92.945,80.905,108.762,88.872,119.738z"/>
	<path fill="#D38231" d="M149.023,80.498l-5.124-7.06c-0.414-0.569-1.2-0.855-2.087-0.979c-2.368-0.329-4.722,0.658-6.297,2.478
		c-5.362,6.197-10.55,14.326-12.69,21.077c-2.062,6.502-5.345,11.971-10.75,15.987c-7.875,5.85-17.765,6.756-25.772,3.211
		c0.676,1.574,1.528,3.092,2.57,4.527c7.967,10.977,23.74,12.957,35.229,4.424c5.405-4.012,8.688-9.482,10.75-15.984
		c2.739-8.637,6.751-15.599,13.449-21.816C149.995,84.79,150.311,82.27,149.023,80.498z"/>
	<path fill="#E2E2E2" d="M176.12,127.725H35.932c-2.295,0-4.156,1.881-4.156,4.203s1.86,4.203,4.156,4.203h8.125
		c1.036,0,1.969,0.635,2.36,1.604l1.423,3.521c1.331,3.295,4.499,5.447,8.016,5.447h100.34c3.518,0,6.685-2.152,8.016-5.447
		l1.423-3.521c0.391-0.969,1.324-1.604,2.36-1.604h8.125c2.296,0,4.156-1.881,4.156-4.203S178.416,127.725,176.12,127.725z"/>
	<path fill="#D8D6D4" d="M176.12,127.725h-12.924c0,4.643-3.722,8.406-8.313,8.406h-0.099c-0.054,0-0.106,0.004-0.16,0.006H44.137
		c1.002,0.031,1.898,0.652,2.28,1.598l1.187,2.936h99.805c-0.114,0.223-0.224,0.451-0.319,0.689l-1.014,2.512
		c-0.691,1.713-2.339,2.832-4.169,2.832h14.289c3.518,0,6.685-2.152,8.016-5.447l1.423-3.521c0.392-0.969,1.324-1.604,2.36-1.604
		h8.125c2.296,0,4.156-1.881,4.156-4.203S178.416,127.725,176.12,127.725z"/>
</g>
</svg>
