<?xml version="1.0" encoding="utf-8"?>
<!-- Generator: Adobe Illustrator 22.0.0, SVG Export Plug-In . SVG Version: 6.00 Build 0)  -->
<svg version="1.1" id="Layer_1" xmlns="http://www.w3.org/2000/svg" xmlns:xlink="http://www.w3.org/1999/xlink" x="0px" y="0px"
	 viewBox="0 0 288 234" style="enable-background:new 0 0 288 234;" xml:space="preserve">
<style type="text/css">
	.st0{fill:#303030;}
	.st1{fill:#FFFFFF;}
</style>
<rect class="st0" width="288" height="234"/>
<g>
	<g>
		<path class="st1" d="M171.2,149c1.3,0,2.3-0.3,3.1-1c0.8-0.7,1.2-1.6,1.2-2.8c0-1-0.3-1.7-1-2.3c-0.7-0.5-1.6-0.8-2.7-0.8
			c-1.2,0-2.2,0.3-3,1c-0.8,0.7-1.2,1.6-1.2,2.6c0,1,0.3,1.8,0.9,2.4C169,148.7,169.9,149,171.2,149z"/>
		<path class="st1" d="M215,153.7c-0.3-0.2-0.8-0.3-1.6-0.3c-0.7,0-1.4,0.1-2,0.2c-0.1-0.7-0.3-1.1-0.6-1.4
			c-0.2-0.3-0.7-0.4-1.3-0.4c-2,0-4,0.6-5.8,1.9c-1.8,1.3-3.3,3-4.4,5.1c-1.1,2-1.6,4.2-1.6,6.4c-0.6,0.6-1.1,1.2-1.6,1.6
			c-0.8,0.7-1.5,1.1-2.1,1.1c-0.9,0-1.3-0.6-1.3-1.8c0-0.8,0.3-2.5,0.8-5.1c0.7-3,1-5.1,1-6.3c0-1.9-1-2.9-2.9-2.9
			c-1,0-2.1,0.3-3.2,1c-1.2,0.7-2.4,1.8-3.6,3.4c-1.2,1.6-2.3,3.7-3.3,6.2c0.1-1.3,0.3-2.4,0.4-3.3c0.2-0.9,0.4-1.9,0.7-3.1
			c0.4-1.7,0.7-2.7,0.7-3.2c0-0.4-0.1-0.7-0.4-0.8c-0.2-0.1-0.7-0.2-1.2-0.2c-1.1,0-2,0.2-2.6,0.6c-0.6,0.4-1,1-1.3,1.9
			c-1,3.2-1.5,6.6-1.6,10.2c-0.9,1-1.6,1.8-2.2,2.3c-0.8,0.7-1.5,1.1-2,1.1c-0.6,0-1-0.2-1.2-0.7c-0.2-0.5-0.4-1.2-0.4-2
			c0-1.2,0.4-3.4,1.1-6.6c0.6-2.7,0.8-4.4,0.8-5.2c0-1-0.8-1.5-2.3-1.5c-1,0-1.7,0.2-2.1,0.5c-0.4,0.4-0.8,1-1.1,2
			c-0.5,1.8-1,3.8-1.3,5.8c-0.3,1.8-0.4,3.2-0.5,4.5c-0.9,1-1.6,1.7-2.2,2.2c-0.9,0.7-1.8,1.1-2.7,1.1c-0.9,0-1.6-0.2-2.2-0.7
			c-0.6-0.5-1-1.1-1.1-1.9c2-1.1,3.4-2.3,4.3-3.6c0.8-1.4,1.2-2.9,1.2-4.5c0-1.5-0.5-2.7-1.4-3.7c-0.9-1-2.1-1.5-3.6-1.5
			c-1.6,0-3.3,0.8-5.2,2.5c-1.8,1.7-3.5,4.4-4.9,8.1c0-1.6,0-3.2,0.1-4.8c3.9-4.3,6.8-8.1,8.5-11.3c1.7-3.2,2.6-6.3,2.6-9.3
			c0-1.9-0.4-3.4-1.3-4.6c-0.8-1.2-2-1.8-3.3-1.8c-2.6,0-4.7,1.7-6.6,5c-1.8,3.4-3.2,7.5-4.1,12.5c-0.7,3.8-1.2,7.5-1.3,11.1
			c-1.3,0.3-2.4,0.4-3.4,0.5c-0.2-2.3-1-4.2-2.4-5.8c-1.4-1.6-3.2-2.3-5.4-2.3c-1.8,0-3.5,0.5-5,1.5c-1.5,1-2.7,2.4-3.6,4.1
			c-0.3,0.7-0.6,1.3-0.8,2.1c-1,0.2-2,0.3-2.8,0.4c-0.2-2.3-1-4.2-2.4-5.8c-1.4-1.6-3.2-2.3-5.4-2.3c-1.8,0-3.5,0.5-5,1.5
			c-1.5,1-2.7,2.4-3.6,4.1c-0.9,1.8-1.3,3.8-1.3,6c0,0.6,0.1,1.2,0.1,1.8c-1.7,0.6-3.2,1.1-4.7,1.5c-2,0.5-3.9,0.7-5.8,0.7
			c-3.9,0-6.8-1-8.8-2.9c-2-1.9-3-4.7-3-8.3c0-3.4,0.5-6.4,1.6-8.8c1.1-2.5,2.5-4.4,4.3-5.6c1.8-1.3,3.6-1.9,5.6-1.9
			c2.9,0,4.3,1.3,4.3,4c0,0.5-0.1,1.2-0.3,2.1c-0.1,0.7-0.2,1.2-0.2,1.5c0,0.7,0.2,1.3,0.7,1.7c0.5,0.4,1.1,0.6,2,0.6
			c1.2,0,2.1-0.5,2.7-1.6c0.6-1.1,1-2.6,1-4.4c0-2.7-0.8-4.9-2.5-6.5c-1.7-1.6-4.1-2.5-7.3-2.5c-3.4,0-6.6,0.9-9.4,2.8
			c-2.8,1.9-5,4.5-6.7,7.9c-1.6,3.4-2.5,7.3-2.5,11.6c0,3.1,0.7,5.9,2.1,8.3c1.4,2.4,3.4,4.2,6,5.5c2.6,1.3,5.7,1.9,9.2,1.9
			c2,0,4.2-0.2,6.5-0.6c2.3-0.4,4.5-1.1,6.6-2c0.2-0.1,0.3-0.2,0.5-0.2c0.5,0.6,1.1,1.2,1.7,1.6c1.3,0.9,2.8,1.3,4.6,1.3
			c2.1,0,4-0.7,5.6-2.2c1.7-1.5,2.8-3.5,3.3-6c0.9,0,1.8-0.1,2.7-0.3c0.1,1.3,0.4,2.6,0.9,3.8c0.7,1.4,1.6,2.6,2.9,3.4
			c1.3,0.9,2.8,1.3,4.6,1.3c2.1,0,4-0.7,5.6-2.2c1.7-1.5,2.8-3.5,3.3-6c1.3-0.1,2.5-0.2,3.7-0.5c0,1.9,0.1,3.5,0.2,4.6
			c0.1,1.4,0.4,2.4,0.9,3.1c0.4,0.7,1.1,1,2,1c0.9,0,1.6-0.2,2-0.7c0.4-0.5,0.8-1.4,1.1-2.8c0.5-1.9,1.1-3.8,2-5.6
			c0.8-1.8,1.7-3.3,2.7-4.5c1-1.2,1.8-1.7,2.6-1.7c0.3,0,0.6,0.1,0.8,0.4c0.2,0.3,0.3,0.7,0.3,1.2c0,0.9-0.3,1.7-0.8,2.3
			c-0.6,0.6-1.5,1.2-2.8,1.8c-1.2,0.5-1.8,1.3-1.8,2.5c0,2.2,0.7,3.9,2.1,5.2c1.4,1.3,3.2,2,5.5,2c1.9,0,3.5-0.5,4.8-1.5
			c0.7-0.5,1.3-1,2-1.7c0.2,0.4,0.4,0.8,0.6,1.1c0.9,1.4,2.3,2,4.2,2c1.9,0,3.8-1,5.9-2.9c0.1,0.4,0.2,0.8,0.3,1.1
			c0.5,1.2,1.3,1.8,2.4,1.8c0.9,0,1.6-0.2,2-0.7c0.4-0.5,0.8-1.4,1.1-2.8c0.4-1.8,1-3.5,1.8-5.2c0.7-1.6,1.4-2.9,2.1-3.9
			c0.7-1,1.2-1.5,1.6-1.5c0.3,0,0.5,0.2,0.5,0.7c0,0.7-0.2,2-0.6,3.9c-0.4,2.1-0.6,3.6-0.6,4.4c0,1.7,0.4,2.9,1.2,3.8
			c0.8,0.9,1.9,1.3,3.4,1.3c1.9,0,3.5-0.5,5-1.5c0.6-0.4,1.2-0.9,1.8-1.4c0.2,0.3,0.4,0.7,0.6,0.9c1.1,1.3,2.6,2,4.4,2
			c0.8,0,1.6-0.2,2.4-0.6c0.8-0.4,1.5-1,2-1.8l-0.3,1.7c-4.6,3.5-7.7,6.5-9.3,8.9c-1.7,2.4-2.5,4.7-2.5,6.8c0,1.5,0.5,2.7,1.4,3.7
			c0.9,0.9,2.2,1.4,3.7,1.4c3.2,0,5.8-2.2,7.7-6.7c1.9-4.4,3.4-10.5,4.6-18.1c0.1-0.8,0.4-2.5,0.8-5.1c0.6-3.8,1-6.2,1.1-7.1
			c0-0.2,0-0.5,0-0.8C215.5,154.4,215.3,153.9,215,153.7z M149.8,143.7c0.6-2.6,1.2-4.7,1.9-6.2c0.7-1.5,1.2-2.3,1.8-2.3
			c0.4,0,0.7,0.3,0.9,0.8c0.2,0.5,0.3,1.2,0.3,2.2c0,2.1-0.6,4.4-1.8,6.9c-1.2,2.6-2.7,4.9-4.6,7.1
			C148.7,149.1,149.2,146.3,149.8,143.7z M112.4,167c-0.7,0.8-1.5,1.2-2.5,1.2c-0.9,0-1.6-0.4-2.2-1.3c-0.6-0.9-1-2.1-1-3.7
			c0-2.1,0.4-3.7,1.2-4.8c0.8-1.1,1.8-1.7,3-1.7h0.2c-0.1,0.5-0.1,0.9-0.1,1.4c0,1.1,0.2,2.2,0.7,3.2c0.5,1,1.2,1.8,2.1,2.4
			C113.6,165.1,113.1,166.2,112.4,167z M132.5,167c-0.7,0.8-1.5,1.2-2.5,1.2c-0.9,0-1.6-0.4-2.2-1.3c-0.6-0.9-1-2.1-1-3.7
			c0-2.1,0.4-3.7,1.2-4.8c0.8-1.1,1.8-1.7,3-1.7h0.2c-0.1,0.5-0.1,0.9-0.1,1.4c0,1.1,0.2,2.2,0.7,3.2c0.5,1,1.2,1.8,2.1,2.4
			C133.7,165.1,133.2,166.2,132.5,167z M204.3,185.9c-0.9,1.8-1.8,2.7-2.5,2.7c-0.4,0-0.8-0.2-1-0.5c-0.2-0.3-0.3-0.7-0.3-1.2
			c0-1.2,0.5-2.6,1.5-4.1c1-1.6,2.7-3.3,4.9-5.3C206.1,181.3,205.2,184.1,204.3,185.9z M208.7,163.6c-0.3,1.5-0.7,2.7-1.3,3.6
			c-0.6,0.8-1.3,1.2-2,1.2c-0.7,0-1.2-0.2-1.5-0.7c-0.4-0.4-0.6-1.1-0.6-2c0-1.7,0.3-3.2,0.9-4.7c0.6-1.5,1.5-2.7,2.5-3.6
			c1-0.9,2.2-1.4,3.4-1.4L208.7,163.6z"/>
		<path class="st1" d="M136.1,189.5c0-2.1-1-3.9-2.9-5.2c-1.9-1.3-4.8-2-8.7-2c-2.5,0-5,0.3-7.4,0.9c-2.4,0.6-4.5,1.4-6.3,2.4
			c-0.9,0.5-1.4,0.9-1.6,1.3c-0.2,0.4-0.3,0.8-0.3,1.4c0,0.4,0.1,0.7,0.3,1c0.2,0.3,0.5,0.4,0.9,0.4c0.5,0,1-0.2,1.7-0.6
			c1.5-0.9,3.3-1.6,5.5-2.2c2.1-0.6,4.4-0.9,6.6-0.9c2.5,0,4.4,0.4,5.6,1.1c1.2,0.7,1.8,1.7,1.8,2.9c0,1-0.4,1.8-1.1,2.6
			c-0.7,0.7-1.7,1.3-2.9,1.7c-1.2,0.4-2.6,0.6-4.1,0.7c-0.7,0-1.2,0.2-1.4,0.6c-0.3,0.4-0.4,0.9-0.4,1.5c0,0.4,0.1,0.7,0.3,0.9
			c0.2,0.2,0.5,0.3,0.9,0.3c1.9,0.1,3.2,0.4,4,1.1c0.8,0.6,1.2,1.4,1.2,2.4c0,1.3-0.7,2.5-2.1,3.3c-1.4,0.9-3.6,1.3-6.6,1.3
			c-0.6,0-1.5,0-2.5-0.1c0.2-2.6,0.6-5.3,1.2-8.2c0.6-2.9,1.1-5.1,1.7-6.8c0.1-0.4,0.2-0.7,0.2-1c0-0.7-0.7-1.1-2-1.1
			c-0.7,0-1.3,0.1-1.8,0.3c-0.4,0.2-0.8,0.6-0.9,1.1c-0.9,3.1-1.6,6.2-2.1,9.5c-0.6,3.3-0.9,6.4-1.1,9.4c0,0.7,0.1,1.2,0.4,1.5
			c0.3,0.3,0.8,0.5,1.6,0.5c0.8,0,1.4-0.1,1.9-0.4c0.5-0.3,0.7-0.7,0.8-1.3c0.6,0.1,1.5,0.1,2.6,0.1c2.9,0,5.3-0.3,7.4-1
			c2-0.7,3.6-1.6,4.6-2.9c1.1-1.2,1.6-2.7,1.6-4.4c0-1.1-0.3-2-1-2.8c-0.7-0.8-1.7-1.4-3-1.8c2.5-0.6,4.3-1.5,5.6-2.8
			C135.5,192.9,136.1,191.3,136.1,189.5z"/>
		<path class="st1" d="M177.8,206.7c-0.9-0.2-1.5-0.4-1.9-0.6c-0.4-0.2-0.7-0.7-0.8-1.3c1.5-0.8,2.5-1.6,3.1-2.6
			c0.6-1,0.9-2.1,0.9-3.2c0-1.1-0.3-2-1-2.7c-0.7-0.7-1.5-1.1-2.6-1.1c-1.2,0-2.4,0.6-3.7,1.8c-1.3,1.2-2.5,3.2-3.5,5.8
			c0-1.2,0-2.3,0.1-3.4c2.8-3.1,4.9-5.8,6.2-8.1c1.3-2.3,1.9-4.6,1.9-6.7c0-1.3-0.3-2.4-0.9-3.3c-0.6-0.8-1.4-1.3-2.4-1.3
			c-1.8,0-3.4,1.2-4.7,3.6c-1.3,2.4-2.3,5.4-3,9c-0.5,2.8-0.8,5.4-1,8c-0.9,0.2-1.7,0.3-2.4,0.4c-0.2-1.6-0.8-3-1.8-4.2
			c-1-1.1-2.3-1.7-3.9-1.7c-1.3,0-2.5,0.4-3.6,1.1c-1.1,0.7-1.9,1.7-2.6,3c-0.2,0.5-0.4,1-0.5,1.5c-0.8,0.1-1.4,0.3-2.1,0.3
			c-0.2-1.6-0.8-3-1.8-4.2c-1-1.1-2.3-1.7-3.9-1.7c-1.3,0-2.5,0.4-3.6,1.1c-1.1,0.7-1.9,1.7-2.6,3c-0.6,1.3-0.9,2.7-0.9,4.4
			c0,1.2,0.2,2.3,0.7,3.3c0.5,1,1.2,1.9,2.1,2.5c0.9,0.6,2,0.9,3.3,0.9c1.5,0,2.9-0.5,4.1-1.6c1.2-1.1,2-2.5,2.4-4.3
			c0.7,0,1.3-0.1,2-0.2c0.1,1,0.3,1.9,0.7,2.7c0.5,1,1.2,1.9,2.1,2.5c0.9,0.6,2,0.9,3.3,0.9c1.5,0,2.9-0.5,4.1-1.6
			c1.2-1.1,2-2.5,2.4-4.3c0.9,0,1.8-0.2,2.6-0.3c0,1.4,0.1,2.5,0.2,3.3c0.1,1,0.3,1.8,0.6,2.2c0.3,0.5,0.8,0.7,1.5,0.7
			c0.7,0,1.2-0.2,1.5-0.5c0.3-0.4,0.6-1,0.8-2c0.3-1.4,0.8-2.7,1.4-4.1c0.6-1.3,1.2-2.4,1.9-3.2c0.7-0.8,1.3-1.3,1.9-1.3
			c0.2,0,0.4,0.1,0.6,0.3c0.2,0.2,0.2,0.5,0.2,0.9c0,0.7-0.2,1.2-0.6,1.7c-0.4,0.5-1.1,0.9-2,1.3c-0.9,0.4-1.3,1-1.3,1.8
			c0,1.5,0.5,2.8,1.5,3.7c1,1,2.2,1.4,3.8,1.4c0.9,0,1.6-0.2,2.1-0.6c0.5-0.4,0.7-0.9,0.7-1.4C179.1,207.3,178.7,206.8,177.8,206.7z
			 M169.8,189.1c0.4-1.9,0.9-3.4,1.4-4.5c0.5-1.1,0.9-1.7,1.3-1.7c0.3,0,0.5,0.2,0.6,0.5c0.1,0.4,0.2,0.9,0.2,1.6
			c0,1.5-0.4,3.2-1.3,5c-0.9,1.8-2,3.5-3.3,5.1C169,193,169.4,191,169.8,189.1z M142.8,205.9c-0.5,0.6-1.1,0.8-1.8,0.8
			c-0.6,0-1.2-0.3-1.6-0.9c-0.5-0.6-0.7-1.5-0.7-2.7c0-1.5,0.3-2.7,0.9-3.5c0.6-0.8,1.3-1.2,2.1-1.2h0.2c-0.1,0.3-0.1,0.7-0.1,1
			c0,0.8,0.2,1.6,0.5,2.3c0.4,0.7,0.9,1.3,1.5,1.8C143.7,204.6,143.3,205.4,142.8,205.9z M157.3,205.9c-0.5,0.6-1.1,0.8-1.8,0.8
			c-0.6,0-1.2-0.3-1.6-0.9c-0.5-0.6-0.7-1.5-0.7-2.7c0-1.5,0.3-2.7,0.9-3.5c0.6-0.8,1.3-1.2,2.1-1.2h0.2c-0.1,0.3-0.1,0.7-0.1,1
			c0,0.8,0.2,1.6,0.5,2.3c0.4,0.7,0.9,1.3,1.5,1.8C158.2,204.6,157.8,205.4,157.3,205.9z"/>
	</g>
	<g>
		<g>
			<path class="st1" d="M183.2,99.8c15.7-0.1,28.4-12.9,28.4-28.6c0-0.6,0-1.1-0.1-1.7c0,0,0-0.1,0-0.1C210.6,53.8,198.2,33,183,33
				c-4.3,0-8.4,1-12,2.7c0.5,1.2,1,2.5,1.3,3.8c0.6,2.5,0.9,5.2,0.1,7.7c-0.9-2.4-4.9-12.9-8.2-16.5c-5-5.3-12.3-8.3-20.1-8.3
				c-7.8,0-15.3,2.8-20.1,8.3c-4.3,4.9-7.4,14.1-8.2,16.5c-0.8-2.5-0.5-5.2,0.1-7.7c0.3-1.3,0.8-2.6,1.3-3.8
				c-3.7-1.7-7.7-2.7-12-2.7c-15.2,0-27.6,20.8-28.5,36.4c0,0,0,0.1,0,0.1c0,0.6-0.1,1.1-0.1,1.7c0,14.3,10.6,26.2,24.3,28.3
				c0.6-0.2,1.2-0.5,1.7-0.7c1.7-0.6,3.4-1.1,5.2-1.6c1.8-0.4,3.6-0.8,5.6-0.9c-1.3,1.6-2.8,2.7-4.4,3.7c-1.3,0.8-2.7,1.5-4.1,2.1
				v6.3v10.3c0,0,0,0,0,0l0,0c7.3-1.3,14.7-2.2,22.1-2.7c14.1-1,34-1,56.4,2.7l0,0c0,0,0,0,0,0c0,0,0,0,0,0v-13.9V99.8z M156.6,97.4
				c3.1,3.1,5.3,6,6.2,8.7c0.6,1.9-0.4,2.9-2.2,2.2c-5.3-1.8-11.4-9.2-17.8-17.1c-6.6,7.9-13.1,15.4-18.4,17.1
				c-1.9,0.6-2.9-0.4-2.2-2.2c1.9-5.4,9.6-11.7,17.7-18.4c-3.5-4.2-7.1-8.4-10.8-11.7c-5.4,2.1-10.5,2.4-15.2-2.3
				c-5-5-9.3-15.8-5.3-19.9c4-4,14.8,0.2,19.9,5.3c4.7,4.7,4.4,9.8,2.3,15.2c3.4,3.5,7.8,7.2,12.1,10.9c4.2-3.5,8.3-7.1,11.6-10.8
				c-1.5-4.7-0.3-8.4,4.4-13c4.6-4.6,8.9-8.5,12.7-11.4c0.3-0.3,0.8-0.2,1.1,0.1c0.3,0.3,0.3,0.8,0,1.2l-12.5,12.8
				c-0.3,0.3-0.3,0.8,0.1,1.1c0.3,0.3,0.8,0.3,1.1,0.1l12.8-12.5c0.3-0.3,0.8-0.3,1.2,0l0.2,0.2c0.3,0.3,0.3,0.8,0,1.2l-12.5,12.8
				c-0.3,0.3-0.3,0.8,0.1,1.1s0.8,0.3,1.1,0.1l12.8-12.5c0.3-0.3,0.8-0.3,1.2,0l0.2,0.2c0.3,0.3,0.3,0.8,0,1.2l-12.5,12.8
				c-0.3,0.3-0.3,0.8,0.1,1.1c0.3,0.3,0.8,0.3,1.1,0.1l12.8-12.5c0.3-0.3,0.8-0.3,1.2,0c0.3,0.3,0.3,0.8,0.1,1.1
				c-3,3.8-6.9,8.1-11.4,12.7c-4.6,4.6-8.3,5.8-13,4.4c-3.4,3.3-6.9,7.3-10.4,11.5C149.7,91,153.6,94.3,156.6,97.4L156.6,97.4z
				 M182,97.4c-0.1,2.8-0.3,5.7-0.5,8.5c-0.2,3.2-0.4,6.4-0.7,9.6c-0.2-3.2-0.4-6.4-0.6-9.6c-0.1-3.2-0.3-6.4-0.4-9.6l0-1l1.1-0.1
				c5.8-0.6,11.8-2.4,16.3-5.7c2.3-1.7,4-3.8,5.5-6.3c1.4-2.5,2.4-5.2,3-7.9c0.5-2.8,0.6-5.7,0.3-8.6c-0.1-1.4-0.4-2.9-0.7-4.3
				c-0.3-1.4-0.7-2.9-1.2-4.3c-1.9-5.7-4.7-11.1-8-16.3c2.3,2.1,4.3,4.5,6.1,7c1.8,2.6,3.4,5.3,4.7,8.2c0.6,1.5,1.2,2.9,1.7,4.5
				c0.5,1.5,0.8,3.1,1.1,4.7c0.5,3.2,0.5,6.5,0,9.8c-0.5,3.3-1.8,6.4-3.5,9.2c-0.9,1.4-1.8,2.8-2.9,4c-1.1,1.2-2.4,2.3-3.8,3.3
				c-2.7,1.9-5.8,3.1-8.9,3.9C187.7,97,184.9,97.4,182,97.4z"/>
			<g>
				<path class="st1" d="M128.8,74.1c-1.2,0.7-2.6,1.1-4,1.4c-1.4,0.3-2.9,0.3-4.3,0c-2.9-0.6-5.3-2.4-7.2-4.5
					c-1.9-2.1-3.4-4.6-4.3-7.3c-0.5-1.3-0.8-2.7-0.9-4.2c-0.1-1.4,0.1-2.9,0.9-4.1c-0.6,1.3-0.7,2.7-0.5,4c0.2,1.4,0.6,2.7,1.1,3.9
					c1.1,2.5,2.6,4.9,4.3,6.9c1.8,2,4,3.7,6.6,4.5C123.3,75.5,126.1,75.1,128.8,74.1z"/>
			</g>
		</g>
		<path class="st1" d="M106,120.1c4.3,2.4,19.7,4.2,38,4.2c13.4,0,25.1-1,32.2-2.4C158,116.9,122.7,116.4,106,120.1z"/>
	</g>
</g>
</svg>
