<?xml version="1.0" encoding="utf-8"?>
<!-- Generator: Adobe Illustrator 22.0.0, SVG Export Plug-In . SVG Version: 6.00 Build 0)  -->
<svg version="1.1" id="Layer_1" xmlns="http://www.w3.org/2000/svg" xmlns:xlink="http://www.w3.org/1999/xlink" x="0px" y="0px"
	 viewBox="0 0 40 40" style="enable-background:new 0 0 40 40;" xml:space="preserve">
<style type="text/css">
	.st0{fill:#303030;}
	.st1{fill:#FFFFFF;}
</style>
<rect class="st0" width="40" height="40"/>
<g>
	<g>
		<path class="st1" d="M28.7,26.2c3.5,0,6.3-2.9,6.3-6.3c0-0.1,0-0.2,0-0.4c0,0,0,0,0,0c-0.2-3.5-3-8.1-6.3-8.1
			c-1,0-1.9,0.2-2.7,0.6c0.1,0.3,0.2,0.6,0.3,0.8c0.1,0.5,0.2,1.1,0,1.7c-0.2-0.5-1.1-2.9-1.8-3.7c-1.1-1.2-2.7-1.8-4.5-1.8
			c-1.7,0-3.4,0.6-4.5,1.8c-1,1.1-1.6,3.1-1.8,3.7c-0.2-0.6-0.1-1.2,0-1.7c0.1-0.3,0.2-0.6,0.3-0.8c-0.8-0.4-1.7-0.6-2.7-0.6
			C8,11.4,5.2,16,5,19.5c0,0,0,0,0,0c0,0.1,0,0.3,0,0.4c0,3.2,2.3,5.8,5.4,6.3c0.1-0.1,0.3-0.1,0.4-0.1c0.4-0.1,0.8-0.2,1.1-0.3
			c0.4-0.1,0.8-0.2,1.2-0.2c-0.3,0.3-0.6,0.6-1,0.8c-0.3,0.2-0.6,0.3-0.9,0.5v1.4v2.3v0l0,0c1.6-0.3,3.3-0.5,4.9-0.6
			c3.1-0.2,7.5-0.2,12.5,0.6l0,0c0,0,0,0,0,0c0,0,0,0,0,0v-3.1V26.2z M24.2,27.6c0.1,0.4-0.1,0.6-0.5,0.5c-1.2-0.4-2.5-2-4-3.8
			c-1.5,1.8-2.9,3.4-4.1,3.8c-0.4,0.1-0.6-0.1-0.5-0.5c0.4-1.2,2.1-2.6,3.9-4.1c-0.8-0.9-1.6-1.9-2.4-2.6c-1.2,0.5-2.3,0.5-3.4-0.5
			c-1.1-1.1-2.1-3.5-1.2-4.4c0.9-0.9,3.3,0.1,4.4,1.2c1,1,1,2.2,0.5,3.4c0.8,0.8,1.7,1.6,2.7,2.4c0.9-0.8,1.8-1.6,2.6-2.4
			c-0.3-1-0.1-1.9,1-2.9c1-1,2-1.9,2.8-2.5c0.1-0.1,0.2,0,0.2,0c0.1,0.1,0.1,0.2,0,0.3l-2.8,2.8c-0.1,0.1-0.1,0.2,0,0.2
			c0.1,0.1,0.2,0.1,0.2,0l2.8-2.8c0.1-0.1,0.2-0.1,0.3,0l0,0c0.1,0.1,0.1,0.2,0,0.3l-2.8,2.8c-0.1,0.1-0.1,0.2,0,0.2
			c0.1,0.1,0.2,0.1,0.2,0l2.8-2.8c0.1-0.1,0.2-0.1,0.3,0l0,0c0.1,0.1,0.1,0.2,0,0.3l-2.8,2.8c-0.1,0.1-0.1,0.2,0,0.2
			c0.1,0.1,0.2,0.1,0.2,0l2.8-2.8c0.1-0.1,0.2-0.1,0.3,0c0.1,0.1,0.1,0.2,0,0.2c-0.7,0.8-1.5,1.8-2.5,2.8c-1,1-1.8,1.3-2.9,1
			c-0.8,0.7-1.5,1.6-2.3,2.6C22.2,25,23.8,26.5,24.2,27.6z M28.4,25.7c0,0.6-0.1,1.3-0.1,1.9c0,0.7-0.1,1.4-0.2,2.1
			c-0.1-0.7-0.1-1.4-0.1-2.1c0-0.7-0.1-1.4-0.1-2.1l0-0.2l0.2,0c1.3-0.1,2.6-0.5,3.6-1.3c0.5-0.4,0.9-0.8,1.2-1.4
			c0.3-0.5,0.5-1.1,0.7-1.8c0.1-0.6,0.1-1.3,0.1-1.9c0-0.3-0.1-0.6-0.2-1c-0.1-0.3-0.2-0.6-0.3-0.9c-0.4-1.3-1-2.5-1.8-3.6
			c0.5,0.5,1,1,1.4,1.6c0.4,0.6,0.8,1.2,1,1.8c0.1,0.3,0.3,0.7,0.4,1c0.1,0.3,0.2,0.7,0.2,1c0.1,0.7,0.1,1.4,0,2.2
			c-0.1,0.7-0.4,1.4-0.8,2c-0.2,0.3-0.4,0.6-0.7,0.9c-0.3,0.3-0.5,0.5-0.8,0.7c-0.6,0.4-1.3,0.7-2,0.9
			C29.7,25.6,29.1,25.7,28.4,25.7z"/>
		<g>
			<path class="st1" d="M16.6,20.5c-0.3,0.1-0.6,0.3-0.9,0.3c-0.3,0.1-0.6,0.1-0.9,0c-0.6-0.1-1.2-0.5-1.6-1c-0.4-0.5-0.7-1-1-1.6
				c-0.1-0.3-0.2-0.6-0.2-0.9c0-0.3,0-0.6,0.2-0.9c-0.1,0.3-0.1,0.6-0.1,0.9c0,0.3,0.1,0.6,0.3,0.9c0.2,0.6,0.6,1.1,1,1.5
				c0.4,0.5,0.9,0.8,1.5,1C15.4,20.8,16,20.7,16.6,20.5z"/>
		</g>
	</g>
	<path class="st1" d="M11.6,30.8c1,0.5,4.4,0.9,8.4,0.9c3,0,5.6-0.2,7.2-0.5C23.1,30,15.3,29.9,11.6,30.8z"/>
</g>
</svg>
