<?xml version="1.0" encoding="utf-8"?>
<!-- Generator: Adobe Illustrator 22.0.0, SVG Export Plug-In . SVG Version: 6.00 Build 0)  -->
<svg version="1.1" id="Layer_1" xmlns="http://www.w3.org/2000/svg" xmlns:xlink="http://www.w3.org/1999/xlink" x="0px" y="0px"
	 viewBox="0 0 288 234" style="enable-background:new 0 0 288 234;" xml:space="preserve">
<style type="text/css">
	.st0{fill:#303030;}
	.st1{fill:#FFFFFF;}
</style>
<rect class="st0" width="288" height="234"/>
<path class="st1" d="M171.2,149c1.3,0,2.3-0.3,3.1-1c0.8-0.7,1.2-1.6,1.2-2.8c0-1-0.3-1.7-1-2.3c-0.7-0.5-1.6-0.8-2.7-0.8
	c-1.2,0-2.2,0.3-3,1c-0.8,0.7-1.2,1.6-1.2,2.6c0,1,0.3,1.8,0.9,2.4C169,148.7,169.9,149,171.2,149z"/>
<path class="st1" d="M215,153.7c-0.3-0.2-0.8-0.3-1.6-0.3c-0.7,0-1.4,0.1-2,0.2c-0.1-0.7-0.3-1.1-0.6-1.4c-0.2-0.3-0.7-0.4-1.3-0.4
	c-2,0-4,0.6-5.8,1.9c-1.8,1.3-3.3,3-4.4,5.1c-1.1,2-1.6,4.2-1.6,6.4c-0.6,0.6-1.1,1.2-1.6,1.6c-0.8,0.7-1.5,1.1-2.1,1.1
	c-0.9,0-1.3-0.6-1.3-1.8c0-0.8,0.3-2.5,0.8-5.1c0.7-3,1-5.1,1-6.3c0-1.9-1-2.9-2.9-2.9c-1,0-2.1,0.3-3.2,1c-1.2,0.7-2.4,1.8-3.6,3.4
	c-1.2,1.6-2.3,3.7-3.3,6.2c0.1-1.3,0.3-2.4,0.4-3.3c0.2-0.9,0.4-1.9,0.7-3.1c0.4-1.7,0.7-2.7,0.7-3.2c0-0.4-0.1-0.7-0.4-0.8
	c-0.2-0.1-0.7-0.2-1.2-0.2c-1.1,0-2,0.2-2.6,0.6c-0.6,0.4-1,1-1.3,1.9c-1,3.2-1.5,6.6-1.6,10.2c-0.9,1-1.6,1.8-2.2,2.3
	c-0.8,0.7-1.5,1.1-2,1.1c-0.6,0-1-0.2-1.2-0.7c-0.2-0.5-0.4-1.2-0.4-2c0-1.2,0.4-3.4,1.1-6.6c0.6-2.7,0.8-4.4,0.8-5.2
	c0-1-0.8-1.5-2.3-1.5c-1,0-1.7,0.2-2.1,0.5c-0.4,0.4-0.8,1-1.1,2c-0.5,1.8-1,3.8-1.3,5.8c-0.3,1.8-0.4,3.2-0.5,4.5
	c-0.9,1-1.6,1.7-2.2,2.2c-0.9,0.7-1.8,1.1-2.7,1.1c-0.9,0-1.6-0.2-2.2-0.7c-0.6-0.5-1-1.1-1.1-1.9c2-1.1,3.4-2.3,4.3-3.6
	c0.8-1.4,1.2-2.9,1.2-4.5c0-1.5-0.5-2.7-1.4-3.7c-0.9-1-2.1-1.5-3.6-1.5c-1.6,0-3.3,0.8-5.2,2.5c-1.8,1.7-3.5,4.4-4.9,8.1
	c0-1.6,0-3.2,0.1-4.8c3.9-4.3,6.8-8.1,8.5-11.3c1.7-3.2,2.6-6.3,2.6-9.3c0-1.9-0.4-3.4-1.3-4.6c-0.8-1.2-2-1.8-3.3-1.8
	c-2.6,0-4.7,1.7-6.6,5c-1.8,3.4-3.2,7.5-4.1,12.5c-0.7,3.8-1.2,7.5-1.3,11.1c-1.3,0.3-2.4,0.4-3.4,0.5c-0.2-2.3-1-4.2-2.4-5.8
	c-1.4-1.6-3.2-2.3-5.4-2.3c-1.8,0-3.5,0.5-5,1.5c-1.5,1-2.7,2.4-3.6,4.1c-0.3,0.7-0.6,1.3-0.8,2.1c-1,0.2-2,0.3-2.8,0.4
	c-0.2-2.3-1-4.2-2.4-5.8c-1.4-1.6-3.2-2.3-5.4-2.3c-1.8,0-3.5,0.5-5,1.5c-1.5,1-2.7,2.4-3.6,4.1c-0.9,1.8-1.3,3.8-1.3,6
	c0,0.6,0.1,1.2,0.1,1.8c-1.7,0.6-3.2,1.1-4.7,1.5c-2,0.5-3.9,0.7-5.8,0.7c-3.9,0-6.8-1-8.8-2.9c-2-1.9-3-4.7-3-8.3
	c0-3.4,0.5-6.4,1.6-8.8c1.1-2.5,2.5-4.4,4.3-5.6c1.8-1.3,3.6-1.9,5.6-1.9c2.9,0,4.3,1.3,4.3,4c0,0.5-0.1,1.2-0.3,2.1
	c-0.1,0.7-0.2,1.2-0.2,1.5c0,0.7,0.2,1.3,0.7,1.7c0.5,0.4,1.1,0.6,2,0.6c1.2,0,2.1-0.5,2.7-1.6c0.6-1.1,1-2.6,1-4.4
	c0-2.7-0.8-4.9-2.5-6.5c-1.7-1.6-4.1-2.5-7.3-2.5c-3.4,0-6.6,0.9-9.4,2.8c-2.8,1.9-5,4.5-6.7,7.9c-1.6,3.4-2.5,7.3-2.5,11.6
	c0,3.1,0.7,5.9,2.1,8.3c1.4,2.4,3.4,4.2,6,5.5c2.6,1.3,5.7,1.9,9.2,1.9c2,0,4.2-0.2,6.5-0.6c2.3-0.4,4.5-1.1,6.6-2
	c0.2-0.1,0.3-0.2,0.5-0.2c0.5,0.6,1.1,1.2,1.7,1.6c1.3,0.9,2.8,1.3,4.6,1.3c2.1,0,4-0.7,5.6-2.2c1.7-1.5,2.8-3.5,3.3-6
	c0.9,0,1.8-0.1,2.7-0.3c0.1,1.3,0.4,2.6,0.9,3.8c0.7,1.4,1.6,2.6,2.9,3.4c1.3,0.9,2.8,1.3,4.6,1.3c2.1,0,4-0.7,5.6-2.2
	c1.7-1.5,2.8-3.5,3.3-6c1.3-0.1,2.5-0.2,3.7-0.5c0,1.9,0.1,3.5,0.2,4.6c0.1,1.4,0.4,2.4,0.9,3.1c0.4,0.7,1.1,1,2,1
	c0.9,0,1.6-0.2,2-0.7c0.4-0.5,0.8-1.4,1.1-2.8c0.5-1.9,1.1-3.8,2-5.6c0.8-1.8,1.7-3.3,2.7-4.5c1-1.2,1.8-1.7,2.6-1.7
	c0.3,0,0.6,0.1,0.8,0.4c0.2,0.3,0.3,0.7,0.3,1.2c0,0.9-0.3,1.7-0.8,2.3c-0.6,0.6-1.5,1.2-2.8,1.8c-1.2,0.5-1.8,1.3-1.8,2.5
	c0,2.2,0.7,3.9,2.1,5.2c1.4,1.3,3.2,2,5.5,2c1.9,0,3.5-0.5,4.8-1.5c0.7-0.5,1.3-1,2-1.7c0.2,0.4,0.4,0.8,0.6,1.1
	c0.9,1.4,2.3,2,4.2,2c1.9,0,3.8-1,5.9-2.9c0.1,0.4,0.2,0.8,0.3,1.1c0.5,1.2,1.3,1.8,2.4,1.8c0.9,0,1.6-0.2,2-0.7
	c0.4-0.5,0.8-1.4,1.1-2.8c0.4-1.8,1-3.5,1.8-5.2c0.7-1.6,1.4-2.9,2.1-3.9c0.7-1,1.2-1.5,1.6-1.5c0.3,0,0.5,0.2,0.5,0.7
	c0,0.7-0.2,2-0.6,3.9c-0.4,2.1-0.6,3.6-0.6,4.4c0,1.7,0.4,2.9,1.2,3.8c0.8,0.9,1.9,1.3,3.4,1.3c1.9,0,3.5-0.5,5-1.5
	c0.6-0.4,1.2-0.9,1.8-1.4c0.2,0.3,0.4,0.7,0.6,0.9c1.1,1.3,2.6,2,4.4,2c0.8,0,1.6-0.2,2.4-0.6c0.8-0.4,1.5-1,2-1.8l-0.3,1.7
	c-4.6,3.5-7.7,6.5-9.3,8.9c-1.7,2.4-2.5,4.7-2.5,6.8c0,1.5,0.5,2.7,1.4,3.7c0.9,0.9,2.2,1.4,3.7,1.4c3.2,0,5.8-2.2,7.7-6.7
	c1.9-4.4,3.4-10.5,4.6-18.1c0.1-0.8,0.4-2.5,0.8-5.1c0.6-3.8,1-6.2,1.1-7.1c0-0.2,0-0.5,0-0.8C215.5,154.4,215.3,153.9,215,153.7z
	 M149.8,143.7c0.6-2.6,1.2-4.7,1.9-6.2c0.7-1.5,1.2-2.3,1.8-2.3c0.4,0,0.7,0.3,0.9,0.8c0.2,0.5,0.3,1.2,0.3,2.2
	c0,2.1-0.6,4.4-1.8,6.9c-1.2,2.6-2.7,4.9-4.6,7.1C148.7,149.1,149.2,146.3,149.8,143.7z M112.4,167c-0.7,0.8-1.5,1.2-2.5,1.2
	c-0.9,0-1.6-0.4-2.2-1.3c-0.6-0.9-1-2.1-1-3.7c0-2.1,0.4-3.7,1.2-4.8c0.8-1.1,1.8-1.7,3-1.7h0.2c-0.1,0.5-0.1,0.9-0.1,1.4
	c0,1.1,0.2,2.2,0.7,3.2c0.5,1,1.2,1.8,2.1,2.4C113.6,165.1,113.1,166.2,112.4,167z M132.5,167c-0.7,0.8-1.5,1.2-2.5,1.2
	c-0.9,0-1.6-0.4-2.2-1.3c-0.6-0.9-1-2.1-1-3.7c0-2.1,0.4-3.7,1.2-4.8c0.8-1.1,1.8-1.7,3-1.7h0.2c-0.1,0.5-0.1,0.9-0.1,1.4
	c0,1.1,0.2,2.2,0.7,3.2c0.5,1,1.2,1.8,2.1,2.4C133.7,165.1,133.2,166.2,132.5,167z M204.3,185.9c-0.9,1.8-1.8,2.7-2.5,2.7
	c-0.4,0-0.8-0.2-1-0.5c-0.2-0.3-0.3-0.7-0.3-1.2c0-1.2,0.5-2.6,1.5-4.1c1-1.6,2.7-3.3,4.9-5.3C206.1,181.3,205.2,184.1,204.3,185.9z
	 M208.7,163.6c-0.3,1.5-0.7,2.7-1.3,3.6c-0.6,0.8-1.3,1.2-2,1.2c-0.7,0-1.2-0.2-1.5-0.7c-0.4-0.4-0.6-1.1-0.6-2
	c0-1.7,0.3-3.2,0.9-4.7c0.6-1.5,1.5-2.7,2.5-3.6c1-0.9,2.2-1.4,3.4-1.4L208.7,163.6z"/>
<path class="st1" d="M136.1,189.5c0-2.1-1-3.9-2.9-5.2c-1.9-1.3-4.8-2-8.7-2c-2.5,0-5,0.3-7.4,0.9c-2.4,0.6-4.5,1.4-6.3,2.4
	c-0.9,0.5-1.4,0.9-1.6,1.3c-0.2,0.4-0.3,0.8-0.3,1.4c0,0.4,0.1,0.7,0.3,1c0.2,0.3,0.5,0.4,0.9,0.4c0.5,0,1-0.2,1.7-0.6
	c1.5-0.9,3.3-1.6,5.5-2.2c2.1-0.6,4.4-0.9,6.6-0.9c2.5,0,4.4,0.4,5.6,1.1c1.2,0.7,1.8,1.7,1.8,2.9c0,1-0.4,1.8-1.1,2.6
	c-0.7,0.7-1.7,1.3-2.9,1.7c-1.2,0.4-2.6,0.6-4.1,0.7c-0.7,0-1.2,0.2-1.4,0.6c-0.3,0.4-0.4,0.9-0.4,1.5c0,0.4,0.1,0.7,0.3,0.9
	c0.2,0.2,0.5,0.3,0.9,0.3c1.9,0.1,3.2,0.4,4,1.1c0.8,0.6,1.2,1.4,1.2,2.4c0,1.3-0.7,2.5-2.1,3.3c-1.4,0.9-3.6,1.3-6.6,1.3
	c-0.6,0-1.5,0-2.5-0.1c0.2-2.6,0.6-5.3,1.2-8.2c0.6-2.9,1.1-5.1,1.7-6.8c0.1-0.4,0.2-0.7,0.2-1c0-0.7-0.7-1.1-2-1.1
	c-0.7,0-1.3,0.1-1.8,0.3c-0.4,0.2-0.8,0.6-0.9,1.1c-0.9,3.1-1.6,6.2-2.1,9.5c-0.6,3.3-0.9,6.4-1.1,9.4c0,0.7,0.1,1.2,0.4,1.5
	c0.3,0.3,0.8,0.5,1.6,0.5c0.8,0,1.4-0.1,1.9-0.4c0.5-0.3,0.7-0.7,0.8-1.3c0.6,0.1,1.5,0.1,2.6,0.1c2.9,0,5.3-0.3,7.4-1
	c2-0.7,3.6-1.6,4.6-2.9c1.1-1.2,1.6-2.7,1.6-4.4c0-1.1-0.3-2-1-2.8c-0.7-0.8-1.7-1.4-3-1.8c2.5-0.6,4.3-1.5,5.6-2.8
	C135.5,192.9,136.1,191.3,136.1,189.5z"/>
<path class="st1" d="M177.8,206.7c-0.9-0.2-1.5-0.4-1.9-0.6c-0.4-0.2-0.7-0.7-0.8-1.3c1.5-0.8,2.5-1.6,3.1-2.6
	c0.6-1,0.9-2.1,0.9-3.2c0-1.1-0.3-2-1-2.7c-0.7-0.7-1.5-1.1-2.6-1.1c-1.2,0-2.4,0.6-3.7,1.8c-1.3,1.2-2.5,3.2-3.5,5.8
	c0-1.2,0-2.3,0.1-3.4c2.8-3.1,4.9-5.8,6.2-8.1c1.3-2.3,1.9-4.6,1.9-6.7c0-1.3-0.3-2.4-0.9-3.3c-0.6-0.8-1.4-1.3-2.4-1.3
	c-1.8,0-3.4,1.2-4.7,3.6c-1.3,2.4-2.3,5.4-3,9c-0.5,2.8-0.8,5.4-1,8c-0.9,0.2-1.7,0.3-2.4,0.4c-0.2-1.6-0.8-3-1.8-4.2
	c-1-1.1-2.3-1.7-3.9-1.7c-1.3,0-2.5,0.4-3.6,1.1c-1.1,0.7-1.9,1.7-2.6,3c-0.2,0.5-0.4,1-0.5,1.5c-0.8,0.1-1.4,0.3-2.1,0.3
	c-0.2-1.6-0.8-3-1.8-4.2c-1-1.1-2.3-1.7-3.9-1.7c-1.3,0-2.5,0.4-3.6,1.1c-1.1,0.7-1.9,1.7-2.6,3c-0.6,1.3-0.9,2.7-0.9,4.4
	c0,1.2,0.2,2.3,0.7,3.3c0.5,1,1.2,1.9,2.1,2.5c0.9,0.6,2,0.9,3.3,0.9c1.5,0,2.9-0.5,4.1-1.6c1.2-1.1,2-2.5,2.4-4.3
	c0.7,0,1.3-0.1,2-0.2c0.1,1,0.3,1.9,0.7,2.7c0.5,1,1.2,1.9,2.1,2.5c0.9,0.6,2,0.9,3.3,0.9c1.5,0,2.9-0.5,4.1-1.6
	c1.2-1.1,2-2.5,2.4-4.3c0.9,0,1.8-0.2,2.6-0.3c0,1.4,0.1,2.5,0.2,3.3c0.1,1,0.3,1.8,0.6,2.2c0.3,0.5,0.8,0.7,1.5,0.7
	c0.7,0,1.2-0.2,1.5-0.5c0.3-0.4,0.6-1,0.8-2c0.3-1.4,0.8-2.7,1.4-4.1c0.6-1.3,1.2-2.4,1.9-3.2c0.7-0.8,1.3-1.3,1.9-1.3
	c0.2,0,0.4,0.1,0.6,0.3c0.2,0.2,0.2,0.5,0.2,0.9c0,0.7-0.2,1.2-0.6,1.7c-0.4,0.5-1.1,0.9-2,1.3c-0.9,0.4-1.3,1-1.3,1.8
	c0,1.5,0.5,2.8,1.5,3.7c1,1,2.2,1.4,3.8,1.4c0.9,0,1.6-0.2,2.1-0.6c0.5-0.4,0.7-0.9,0.7-1.4C179.1,207.3,178.7,206.8,177.8,206.7z
	 M169.8,189.1c0.4-1.9,0.9-3.4,1.4-4.5c0.5-1.1,0.9-1.7,1.3-1.7c0.3,0,0.5,0.2,0.6,0.5c0.1,0.4,0.2,0.9,0.2,1.6c0,1.5-0.4,3.2-1.3,5
	c-0.9,1.8-2,3.5-3.3,5.1C169,193,169.4,191,169.8,189.1z M142.8,205.9c-0.5,0.6-1.1,0.8-1.8,0.8c-0.6,0-1.2-0.3-1.6-0.9
	c-0.5-0.6-0.7-1.5-0.7-2.7c0-1.5,0.3-2.7,0.9-3.5c0.6-0.8,1.3-1.2,2.1-1.2h0.2c-0.1,0.3-0.1,0.7-0.1,1c0,0.8,0.2,1.6,0.5,2.3
	c0.4,0.7,0.9,1.3,1.5,1.8C143.7,204.6,143.3,205.4,142.8,205.9z M157.3,205.9c-0.5,0.6-1.1,0.8-1.8,0.8c-0.6,0-1.2-0.3-1.6-0.9
	c-0.5-0.6-0.7-1.5-0.7-2.7c0-1.5,0.3-2.7,0.9-3.5c0.6-0.8,1.3-1.2,2.1-1.2h0.2c-0.1,0.3-0.1,0.7-0.1,1c0,0.8,0.2,1.6,0.5,2.3
	c0.4,0.7,0.9,1.3,1.5,1.8C158.2,204.6,157.8,205.4,157.3,205.9z"/>
<g>
	<g>
		<path class="st1" d="M183.2,119.3c0,0-0.1,0-0.1,0c-23-3.9-43.2-3.6-56.2-2.7c-7.4,0.6-14.8,1.5-22,2.7c-0.1,0-0.3,0-0.4-0.1
			c-0.1-0.1-0.2-0.2-0.2-0.4v-16.6c0-0.2,0.1-0.4,0.3-0.5c1.5-0.6,2.8-1.3,4-2c1.4-0.9,2.5-1.8,3.4-2.8c-1.5,0.1-3,0.5-4.3,0.8
			c-1.9,0.5-3.6,1-5.1,1.6c-0.5,0.2-1,0.4-1.5,0.6l-0.2,0.1c-0.1,0-0.2,0-0.3,0c-14.1-2.1-24.8-14.5-24.8-28.8c0-0.6,0-1.1,0.1-1.7
			c1-16.8,14.1-37,29-37c4.3,0,8.4,0.9,12.3,2.7c0.2,0.1,0.4,0.4,0.2,0.6c-0.5,1.2-1,2.5-1.3,3.7c-0.5,2.2-0.7,4.1-0.5,5.7
			c1.3-3.7,4.1-10.8,7.7-15c4.7-5.4,12.2-8.4,20.5-8.4c8,0,15.5,3.1,20.5,8.4c2.9,3.1,6.2,11,7.7,15.1c0.2-1.7,0.1-3.6-0.5-5.8
			c-0.3-1.2-0.7-2.5-1.3-3.7c-0.1-0.2,0-0.5,0.2-0.6c3.9-1.8,8-2.7,12.3-2.7c14.9,0,28.1,20.2,29,36.9c0,0.7,0.1,1.2,0.1,1.8
			c0,15.7-12.7,28.7-28.4,29.1v18.5c0,0,0,0,0,0c0,0.2-0.1,0.3-0.2,0.4C183.4,119.3,183.3,119.3,183.2,119.3z M143.2,115
			c11.3,0,24.8,0.8,39.5,3.2V99.8c0-0.3,0.2-0.5,0.5-0.5c15.4-0.1,27.9-12.7,27.9-28.1c0-0.5,0-1.1,0-1.7c-0.9-16.4-13.7-36-28-36
			c-4,0-7.8,0.8-11.4,2.4c0.5,1.1,0.8,2.3,1.1,3.4c0.7,3.1,0.8,5.7,0.1,7.9c-0.1,0.2-0.2,0.3-0.5,0.4c-0.2,0-0.4-0.1-0.5-0.3
			c-1.1-3-5-12.9-8.1-16.3c-4.8-5.2-12-8.1-19.7-8.1c-8,0-15.2,3-19.7,8.1c-3.8,4.3-6.6,12.1-7.8,15.4l-0.3,0.9
			c-0.1,0.2-0.3,0.3-0.5,0.3c-0.2,0-0.4-0.1-0.5-0.4c-0.7-2.2-0.6-4.8,0.1-7.9c0.3-1.1,0.7-2.3,1.1-3.4c-3.6-1.6-7.4-2.4-11.4-2.4
			c-14.4,0-27.1,19.7-28,36c0,0.6-0.1,1.2-0.1,1.7c0,13.8,10.2,25.7,23.8,27.7l0.1,0c0.5-0.2,1-0.4,1.6-0.6c1.6-0.6,3.3-1.1,5.2-1.6
			c1.7-0.4,3.6-0.8,5.7-0.9c0.2,0,0.4,0.1,0.5,0.3c0.1,0.2,0.1,0.4-0.1,0.5c-1.2,1.4-2.6,2.7-4.5,3.9c-1.2,0.7-2.4,1.4-3.9,2v15.7
			c7-1.2,14.3-2.1,21.5-2.6C131.4,115.2,137,115,143.2,115z"/>
	</g>
	<g>
		<g>
			<path class="st1" d="M176.2,122c-5.8,1.2-11.7,1.7-17.6,2.1c-5.9,0.4-11.8,0.5-17.7,0.5c-5.9,0-11.8-0.2-17.7-0.7
				c-2.9-0.2-5.9-0.6-8.8-1c-1.5-0.2-2.9-0.5-4.4-0.8c-1.5-0.4-2.9-0.7-4.3-1.5l0.1,0c-0.2-0.1-0.3-0.2-0.5-0.3
				c-0.2-0.1-0.3-0.2-0.5-0.4c-0.3-0.3-0.5-0.7-0.5-1.2c0-0.3,0.2-0.5,0.5-0.5c0.3,0,0.5,0.2,0.5,0.5v0c0,0.2,0.1,0.3,0.2,0.5
				c0.1,0.1,0.2,0.2,0.3,0.2c0.1,0.1,0.2,0.1,0.3,0.2l0,0l0,0c1.2,0.7,2.6,1.1,4,1.4c1.4,0.4,2.9,0.6,4.3,0.9
				c2.9,0.5,5.8,0.8,8.7,1.1c5.9,0.6,11.8,0.8,17.6,0.9c5.9,0.1,11.8,0,17.7-0.3C164.5,123.5,170.4,123.1,176.2,122z"/>
		</g>
	</g>
	<g>
		<path class="st1" d="M180.9,115.5c-0.3-3.3-0.6-6.7-0.8-10l-0.3-5l-0.3-5l0-0.3l0.3,0c5.8-0.6,11.7-2.1,16.5-5.4
			c2.4-1.6,4.3-3.8,5.8-6.4c1.5-2.5,2.5-5.3,3.1-8.1c0.6-2.9,0.6-5.8,0.3-8.7c-0.3-2.9-1.1-5.8-1.9-8.6c-1.8-5.6-4.5-10.9-7.6-16
			c3.4,4.9,6.2,10.1,8.2,15.8c0.9,2.9,1.8,5.7,2.1,8.7c0.3,3,0.3,6-0.2,9c-0.6,3-1.6,5.8-3.2,8.4c-1.5,2.6-3.6,5-6.1,6.6
			c-5.1,3.3-11.1,4.9-17,5.3l0.3-0.4l0.3,10L180.9,115.5z"/>
	</g>
	<path class="st1" d="M180.5,58.1c-0.3-0.3-0.8-0.3-1.2,0l-12.8,12.5c-0.3,0.3-0.8,0.3-1.1-0.1c-0.3-0.3-0.3-0.8-0.1-1.1L178,56.7
		c0.3-0.3,0.3-0.8,0-1.2l-0.2-0.2c-0.3-0.3-0.8-0.3-1.2,0l-12.8,12.5c-0.3,0.3-0.8,0.3-1.1-0.1c-0.3-0.3-0.3-0.8-0.1-1.1L175.3,54
		c0.3-0.3,0.3-0.8,0-1.2l-0.2-0.2c-0.3-0.3-0.8-0.3-1.2,0l-12.8,12.5c-0.3,0.3-0.8,0.3-1.1-0.1c-0.3-0.3-0.3-0.8-0.1-1.1l12.5-12.8
		c0.3-0.3,0.3-0.8,0-1.2h0c-0.3-0.3-0.8-0.3-1.1-0.1c-3.8,3-8.1,6.9-12.7,11.4c-4.6,4.6-5.8,8.3-4.4,13c-3.3,3.6-7.4,7.2-11.6,10.8
		c-4.4-3.7-8.7-7.3-12.1-10.9c2.1-5.4,2.4-10.5-2.3-15.2c-5-5-15.8-9.3-19.9-5.3c-4,4,0.2,14.8,5.3,19.9c4.7,4.7,9.8,4.4,15.2,2.3
		c3.7,3.3,7.3,7.4,10.8,11.7c-8.1,6.7-15.9,12.9-17.7,18.4c-0.6,1.9,0.4,2.8,2.2,2.2c5.3-1.7,11.8-9.1,18.4-17.1
		c6.5,7.9,12.5,15.2,17.8,17.1c1.9,0.6,2.8-0.4,2.2-2.2c-1.7-5.3-9.1-11.7-17.1-18.4c3.5-4.2,7-8.2,10.4-11.5
		c4.7,1.4,8.4,0.2,13-4.4c4.6-4.6,8.5-8.9,11.4-12.7C180.8,58.8,180.8,58.4,180.5,58.1z M124.8,75.5c-1.4,0.3-2.9,0.3-4.3,0
		c-2.9-0.6-5.3-2.4-7.2-4.5c-1.9-2.1-3.4-4.6-4.3-7.3c-0.5-1.3-0.8-2.7-0.9-4.2c-0.1-1.4,0.1-2.9,0.9-4.1c-0.6,1.3-0.7,2.7-0.5,4
		c0.2,1.4,0.6,2.7,1.1,3.9c1.1,2.5,2.6,4.9,4.3,6.9c1.8,2,4,3.7,6.6,4.5c2.6,0.7,5.4,0.3,8.1-0.6C127.5,74.8,126.2,75.2,124.8,75.5z
		"/>
</g>
</svg>
