<?xml version="1.0" encoding="utf-8"?>
<!-- Generator: Adobe Illustrator 22.0.0, SVG Export Plug-In . SVG Version: 6.00 Build 0)  -->
<svg version="1.1" id="Layer_1" xmlns="http://www.w3.org/2000/svg" xmlns:xlink="http://www.w3.org/1999/xlink" x="0px" y="0px"
	 viewBox="0 0 40 40" style="enable-background:new 0 0 40 40;" xml:space="preserve">
<style type="text/css">
	.st0{fill:#303030;}
	.st1{fill:#FFFFFF;}
</style>
<rect class="st0" width="40" height="40"/>
<g>
	<path class="st1" d="M35,19.8c0-0.1,0-0.3,0-0.4c-0.2-3.7-3.1-8.1-6.4-8.1c-0.9,0-1.8,0.2-2.7,0.6c-0.1,0-0.1,0.1-0.1,0.1
		c0.1,0.3,0.2,0.5,0.3,0.8c0.1,0.5,0.1,0.9,0.1,1.3c-0.3-0.9-1.1-2.6-1.7-3.3c-1.1-1.2-2.7-1.9-4.5-1.9c-1.8,0-3.5,0.7-4.5,1.9
		c-0.8,0.9-1.4,2.5-1.7,3.3c0-0.4,0-0.8,0.1-1.3c0.1-0.3,0.2-0.5,0.3-0.8c0-0.1,0-0.1-0.1-0.1c-0.9-0.4-1.8-0.6-2.7-0.6
		c-3.3,0-6.2,4.4-6.4,8.2c0,0.1,0,0.3,0,0.4c0,3.1,2.3,5.9,5.5,6.3c0,0,0,0,0.1,0l0,0c0.1,0,0.2-0.1,0.3-0.1
		c0.3-0.1,0.7-0.2,1.1-0.3c0.3-0.1,0.6-0.1,0.9-0.2c-0.2,0.2-0.5,0.4-0.8,0.6c-0.3,0.2-0.6,0.3-0.9,0.4c0,0-0.1,0.1-0.1,0.1v3.7
		c0,0,0,0.1,0,0.1c0,0,0.1,0,0.1,0c1.6-0.3,3.2-0.5,4.9-0.6c2.9-0.2,7.3-0.3,12.4,0.6c0,0,0,0,0,0c0,0,0,0,0.1,0
		c0,0,0.1-0.1,0.1-0.1c0,0,0,0,0,0v-4.1C32.2,26.1,35,23.3,35,19.8z M28.6,26c-0.1,0-0.1,0-0.1,0.1v4.1c-3.2-0.5-6.2-0.7-8.7-0.7
		c-1.4,0-2.6,0.1-3.6,0.1c-1.6,0.1-3.2,0.3-4.7,0.6v-3.5c0.3-0.1,0.6-0.3,0.9-0.4c0.4-0.3,0.7-0.5,1-0.8c0,0,0-0.1,0-0.1
		c0,0-0.1-0.1-0.1-0.1c-0.5,0-0.9,0.1-1.3,0.2c-0.4,0.1-0.8,0.2-1.1,0.3c-0.1,0-0.2,0.1-0.3,0.1l0,0c-3-0.5-5.2-3.1-5.2-6.1
		c0-0.1,0-0.2,0-0.4c0.2-3.6,3-7.9,6.2-7.9c0.9,0,1.7,0.2,2.5,0.5c-0.1,0.3-0.2,0.5-0.2,0.8c-0.2,0.7-0.2,1.3,0,1.7
		c0,0,0.1,0.1,0.1,0.1c0,0,0.1,0,0.1-0.1l0.1-0.2c0.3-0.7,0.9-2.4,1.7-3.4c1-1.1,2.6-1.8,4.3-1.8c1.7,0,3.3,0.7,4.3,1.8
		c0.7,0.8,1.6,2.9,1.8,3.6c0,0,0.1,0.1,0.1,0.1c0,0,0.1,0,0.1-0.1c0.1-0.5,0.1-1.1,0-1.7c-0.1-0.3-0.1-0.5-0.2-0.8
		c0.8-0.4,1.6-0.5,2.5-0.5c3.2,0,6,4.3,6.2,7.9c0,0.1,0,0.2,0,0.4C34.8,23.2,32,25.9,28.6,26z"/>
	<g>
		<path class="st1" d="M27.1,31c-1.3,0.3-2.6,0.4-3.9,0.5c-1.3,0.1-2.6,0.1-3.9,0.1c-1.3,0-2.6,0-3.9-0.2c-0.6-0.1-1.3-0.1-1.9-0.2
			c-0.3-0.1-0.6-0.1-1-0.2c-0.3-0.1-0.6-0.2-0.9-0.3l0,0c0,0-0.1,0-0.1-0.1c0,0-0.1,0-0.1-0.1c-0.1-0.1-0.1-0.2-0.1-0.3
			c0-0.1,0-0.1,0.1-0.1c0.1,0,0.1,0,0.1,0.1v0c0,0,0,0.1,0.1,0.1c0,0,0,0,0.1,0.1c0,0,0.1,0,0.1,0l0,0l0,0c0.3,0.1,0.6,0.2,0.9,0.3
			c0.3,0.1,0.6,0.1,0.9,0.2c0.6,0.1,1.3,0.2,1.9,0.2c1.3,0.1,2.6,0.2,3.9,0.2c1.3,0,2.6,0,3.9-0.1C24.5,31.3,25.8,31.2,27.1,31z"/>
	</g>
	<g>
		<path class="st1" d="M28.1,29.5c-0.1-0.7-0.1-1.5-0.2-2.2l-0.1-1.1l-0.1-1.1l0-0.1l0.1,0c1.3-0.1,2.6-0.5,3.6-1.2
			c0.5-0.4,1-0.8,1.3-1.4c0.3-0.5,0.6-1.2,0.7-1.8c0.1-0.6,0.1-1.3,0.1-1.9c-0.1-0.6-0.2-1.3-0.4-1.9c-0.4-1.2-1-2.4-1.7-3.5
			c0.7,1.1,1.4,2.2,1.8,3.5c0.2,0.6,0.4,1.3,0.5,1.9c0.1,0.7,0.1,1.3-0.1,2c-0.1,0.7-0.4,1.3-0.7,1.9c-0.3,0.6-0.8,1.1-1.4,1.5
			c-1.1,0.7-2.4,1.1-3.7,1.2l0.1-0.1l0.1,2.2L28.1,29.5z"/>
	</g>
	<path class="st1" d="M28,16.9c-0.1-0.1-0.2-0.1-0.3,0L25,19.7c-0.1,0.1-0.2,0.1-0.2,0c-0.1-0.1-0.1-0.2,0-0.2l2.8-2.8
		c0.1-0.1,0.1-0.2,0-0.3l0,0c-0.1-0.1-0.2-0.1-0.3,0l-2.8,2.8c-0.1,0.1-0.2,0.1-0.2,0c-0.1-0.1-0.1-0.2,0-0.2l2.8-2.8
		c0.1-0.1,0.1-0.2,0-0.3l0,0c-0.1-0.1-0.2-0.1-0.3,0l-2.8,2.8c-0.1,0.1-0.2,0.1-0.2,0c-0.1-0.1-0.1-0.2,0-0.2l2.8-2.8
		c0.1-0.1,0.1-0.2,0-0.3c-0.1-0.1-0.2-0.1-0.2,0c-0.8,0.7-1.8,1.5-2.8,2.5c-1,1-1.3,1.8-1,2.9c-0.7,0.8-1.6,1.6-2.6,2.4
		c-1-0.8-1.9-1.6-2.7-2.4c0.5-1.2,0.5-2.3-0.5-3.4c-1.1-1.1-3.5-2-4.4-1.2c-0.9,0.9,0.1,3.3,1.2,4.4c1,1,2.2,1,3.4,0.5
		c0.8,0.7,1.6,1.6,2.4,2.6c-1.8,1.5-3.5,2.8-3.9,4c-0.1,0.4,0.1,0.6,0.5,0.5c1.2-0.4,2.6-2,4.1-3.8c1.4,1.7,2.8,3.4,3.9,3.8
		c0.4,0.1,0.6-0.1,0.5-0.5c-0.4-1.2-2-2.6-3.8-4.1c0.8-0.9,1.5-1.8,2.3-2.5c1,0.3,1.8,0.1,2.9-1c1-1,1.9-2,2.5-2.8
		C28.1,17.1,28.1,17,28,16.9z M15.8,20.7c-0.3,0.1-0.6,0.1-0.9,0c-0.6-0.1-1.2-0.5-1.6-1c-0.4-0.5-0.7-1-1-1.6
		c-0.1-0.3-0.2-0.6-0.2-0.9c0-0.3,0-0.6,0.2-0.9c-0.1,0.3-0.1,0.6-0.1,0.9c0,0.3,0.1,0.6,0.2,0.9c0.2,0.6,0.6,1.1,1,1.5
		c0.4,0.4,0.9,0.8,1.5,1c0.6,0.2,1.2,0.1,1.8-0.1C16.4,20.6,16.1,20.7,15.8,20.7z"/>
</g>
</svg>
