<?xml version="1.0" encoding="utf-8"?>
<!-- Generator: Adobe Illustrator 15.0.0, SVG Export Plug-In . SVG Version: 6.00 Build 0)  -->
<!DOCTYPE svg PUBLIC "-//W3C//DTD SVG 1.1//EN" "http://www.w3.org/Graphics/SVG/1.1/DTD/svg11.dtd">
<svg version="1.1" id="Layer_1" xmlns="http://www.w3.org/2000/svg" xmlns:xlink="http://www.w3.org/1999/xlink" x="0px" y="0px"
	 width="200px" height="200px" viewBox="0 0 200 200" enable-background="new 0 0 200 200" xml:space="preserve">
<rect x="47.833" y="31.833" fill="#303030" width="103.333" height="136.667"/>
<g>
	<g>
		<path fill="#FFFFFF" d="M118.889,122.223c0.902,0,1.598-0.209,2.152-0.695c0.557-0.486,0.834-1.111,0.834-1.943
			c0-0.695-0.209-1.182-0.694-1.598c-0.486-0.348-1.111-0.556-1.875-0.556c-0.833,0-1.528,0.208-2.083,0.694
			c-0.557,0.486-0.834,1.111-0.834,1.806s0.209,1.25,0.625,1.667C117.361,122.014,117.986,122.223,118.889,122.223z"/>
		<path fill="#FFFFFF" d="M149.306,125.486c-0.208-0.139-0.556-0.209-1.111-0.209c-0.485,0-0.972,0.07-1.389,0.139
			c-0.069-0.485-0.208-0.764-0.417-0.972c-0.139-0.208-0.486-0.278-0.902-0.278c-1.389,0-2.777,0.418-4.027,1.32
			s-2.293,2.083-3.057,3.541c-0.764,1.389-1.111,2.917-1.111,4.445c-0.416,0.416-0.764,0.833-1.11,1.111
			c-0.556,0.485-1.042,0.764-1.458,0.764c-0.625,0-0.903-0.417-0.903-1.25c0-0.557,0.208-1.736,0.556-3.542
			c0.486-2.083,0.694-3.542,0.694-4.375c0-1.319-0.694-2.015-2.014-2.015c-0.694,0-1.458,0.209-2.222,0.695
			c-0.834,0.486-1.668,1.25-2.5,2.361c-0.834,1.111-1.598,2.568-2.293,4.305c0.07-0.902,0.209-1.666,0.278-2.291
			c0.14-0.625,0.278-1.32,0.486-2.152c0.278-1.182,0.485-1.875,0.485-2.223c0-0.277-0.068-0.486-0.277-0.556
			c-0.139-0.069-0.486-0.14-0.833-0.14c-0.765,0-1.39,0.14-1.806,0.418c-0.416,0.277-0.694,0.693-0.902,1.318
			c-0.695,2.223-1.042,4.584-1.111,7.084c-0.625,0.694-1.111,1.25-1.527,1.598c-0.557,0.485-1.043,0.764-1.39,0.764
			c-0.417,0-0.694-0.139-0.833-0.486s-0.277-0.834-0.277-1.389c0-0.834,0.277-2.361,0.764-4.584
			c0.416-1.875,0.555-3.055,0.555-3.611c0-0.693-0.555-1.041-1.597-1.041c-0.694,0-1.181,0.139-1.458,0.348
			c-0.278,0.277-0.557,0.693-0.764,1.389c-0.348,1.25-0.695,2.639-0.903,4.027c-0.208,1.25-0.278,2.223-0.347,3.125
			c-0.625,0.694-1.111,1.181-1.528,1.527c-0.625,0.486-1.25,0.764-1.875,0.764s-1.111-0.139-1.528-0.485
			c-0.416-0.347-0.693-0.765-0.764-1.319c1.389-0.764,2.361-1.598,2.986-2.5c0.556-0.973,0.834-2.014,0.834-3.125
			c0-1.042-0.348-1.875-0.973-2.57c-0.625-0.693-1.459-1.041-2.5-1.041c-1.111,0-2.292,0.556-3.611,1.736
			c-1.25,1.18-2.431,3.055-3.402,5.625c0-1.111,0-2.223,0.068-3.334c2.709-2.986,4.723-5.625,5.903-7.847s1.806-4.375,1.806-6.458
			c0-1.32-0.277-2.361-0.902-3.195c-0.557-0.833-1.389-1.25-2.292-1.25c-1.806,0-3.265,1.182-4.583,3.473
			c-1.25,2.361-2.223,5.209-2.848,8.681c-0.486,2.639-0.833,5.208-0.903,7.708c-0.903,0.209-1.667,0.277-2.361,0.348
			c-0.139-1.598-0.694-2.917-1.667-4.027c-0.972-1.111-2.222-1.598-3.75-1.598c-1.25,0-2.431,0.348-3.472,1.041
			c-1.042,0.695-1.875,1.667-2.5,2.848c-0.208,0.486-0.417,0.902-0.556,1.459c-0.694,0.139-1.389,0.207-1.944,0.277
			c-0.139-1.598-0.694-2.917-1.667-4.027c-0.972-1.111-2.222-1.598-3.75-1.598c-1.25,0-2.431,0.348-3.472,1.041
			c-1.042,0.695-1.875,1.667-2.5,2.848c-0.625,1.25-0.903,2.639-0.903,4.166c0,0.418,0.069,0.834,0.069,1.25
			c-1.181,0.418-2.222,0.765-3.264,1.043c-1.389,0.347-2.708,0.485-4.027,0.485c-2.708,0-4.723-0.694-6.111-2.014
			s-2.083-3.265-2.083-5.765c0-2.36,0.347-4.443,1.111-6.11c0.764-1.736,1.736-3.056,2.986-3.89c1.25-0.902,2.5-1.318,3.889-1.318
			c2.014,0,2.986,0.902,2.986,2.777c0,0.348-0.069,0.834-0.208,1.459c-0.069,0.485-0.139,0.832-0.139,1.041
			c0,0.486,0.139,0.902,0.486,1.181s0.764,0.417,1.389,0.417c0.833,0,1.458-0.348,1.875-1.111c0.417-0.764,0.695-1.806,0.695-3.056
			c0-1.875-0.556-3.403-1.736-4.515c-1.181-1.11-2.847-1.735-5.069-1.735c-2.361,0-4.583,0.625-6.528,1.944
			s-3.472,3.125-4.653,5.486c-1.111,2.361-1.736,5.069-1.736,8.055c0,2.153,0.486,4.098,1.458,5.765s2.361,2.917,4.167,3.819
			c1.806,0.902,3.958,1.319,6.389,1.319c1.389,0,2.917-0.139,4.514-0.417c1.597-0.277,3.125-0.764,4.583-1.389
			c0.139-0.069,0.208-0.139,0.347-0.139c0.347,0.416,0.764,0.834,1.181,1.111c0.903,0.625,1.944,0.902,3.194,0.902
			c1.458,0,2.778-0.486,3.889-1.527c1.18-1.042,1.944-2.431,2.292-4.167c0.625,0,1.25-0.069,1.875-0.208
			c0.069,0.902,0.278,1.805,0.625,2.639c0.486,0.973,1.111,1.806,2.014,2.361c0.903,0.625,1.945,0.902,3.195,0.902
			c1.458,0,2.777-0.486,3.889-1.527c1.181-1.042,1.944-2.431,2.292-4.167c0.903-0.069,1.736-0.139,2.57-0.347
			c0,1.318,0.069,2.43,0.139,3.193c0.069,0.973,0.278,1.668,0.625,2.153c0.278,0.486,0.764,0.694,1.389,0.694
			c0.625,0,1.112-0.139,1.389-0.486c0.277-0.347,0.556-0.972,0.764-1.943c0.348-1.32,0.764-2.64,1.389-3.89
			c0.557-1.25,1.182-2.292,1.875-3.125c0.695-0.833,1.25-1.181,1.807-1.181c0.207,0,0.416,0.07,0.555,0.277
			c0.139,0.209,0.209,0.486,0.209,0.834c0,0.625-0.209,1.181-0.557,1.598c-0.416,0.416-1.041,0.833-1.943,1.25
			c-0.834,0.347-1.25,0.902-1.25,1.736c0,1.527,0.486,2.707,1.458,3.61s2.222,1.39,3.819,1.39c1.319,0,2.431-0.348,3.334-1.043
			c0.485-0.347,0.902-0.693,1.389-1.18c0.139,0.277,0.277,0.555,0.416,0.764c0.625,0.973,1.598,1.389,2.917,1.389
			s2.639-0.694,4.097-2.014c0.07,0.277,0.139,0.556,0.209,0.764c0.348,0.834,0.902,1.25,1.666,1.25c0.625,0,1.111-0.139,1.389-0.486
			c0.278-0.347,0.557-0.972,0.765-1.943c0.278-1.25,0.694-2.432,1.25-3.611c0.485-1.111,0.972-2.014,1.458-2.709
			c0.486-0.694,0.834-1.041,1.111-1.041c0.209,0,0.348,0.139,0.348,0.486c0,0.485-0.139,1.389-0.417,2.707
			c-0.278,1.459-0.417,2.5-0.417,3.057c0,1.18,0.277,2.014,0.834,2.639c0.555,0.625,1.318,0.902,2.361,0.902
			c1.318,0,2.43-0.348,3.472-1.041c0.417-0.278,0.833-0.625,1.25-0.973c0.139,0.209,0.278,0.486,0.417,0.625
			c0.764,0.902,1.805,1.389,3.055,1.389c0.557,0,1.111-0.139,1.667-0.416c0.556-0.278,1.042-0.695,1.39-1.25l-0.209,1.18
			c-3.194,2.432-5.348,4.514-6.459,6.182c-1.18,1.666-1.735,3.264-1.735,4.722c0,1.042,0.347,1.875,0.972,2.569
			c0.625,0.625,1.528,0.973,2.57,0.973c2.222,0,4.027-1.528,5.347-4.653c1.319-3.056,2.361-7.292,3.194-12.569
			c0.07-0.556,0.277-1.736,0.556-3.541c0.417-2.64,0.694-4.307,0.765-4.932c0-0.139,0-0.347,0-0.555
			C149.652,125.973,149.514,125.625,149.306,125.486z M104.027,118.541c0.417-1.805,0.834-3.264,1.32-4.305
			c0.486-1.042,0.833-1.598,1.25-1.598c0.277,0,0.486,0.209,0.625,0.556s0.208,0.833,0.208,1.528c0,1.458-0.417,3.055-1.25,4.791
			c-0.833,1.806-1.875,3.402-3.194,4.931C103.264,122.291,103.611,120.348,104.027,118.541z M78.056,134.723
			c-0.486,0.555-1.042,0.833-1.736,0.833c-0.625,0-1.111-0.278-1.528-0.903c-0.417-0.625-0.694-1.458-0.694-2.568
			c0-1.459,0.278-2.57,0.833-3.334s1.25-1.181,2.083-1.181h0.139c-0.069,0.347-0.069,0.625-0.069,0.972
			c0,0.765,0.139,1.528,0.486,2.223c0.347,0.695,0.833,1.25,1.458,1.667C78.889,133.402,78.542,134.166,78.056,134.723z
			 M92.014,134.723c-0.486,0.555-1.042,0.833-1.736,0.833c-0.625,0-1.111-0.278-1.528-0.903s-0.694-1.458-0.694-2.568
			c0-1.459,0.278-2.57,0.833-3.334c0.556-0.764,1.25-1.181,2.083-1.181h0.139c-0.07,0.347-0.07,0.625-0.07,0.972
			c0,0.765,0.139,1.528,0.486,2.223c0.347,0.695,0.833,1.25,1.458,1.667C92.847,133.402,92.5,134.166,92.014,134.723z
			 M141.875,147.848c-0.625,1.25-1.25,1.875-1.736,1.875c-0.277,0-0.555-0.139-0.694-0.348c-0.139-0.209-0.208-0.486-0.208-0.834
			c0-0.832,0.348-1.805,1.041-2.847c0.695-1.11,1.875-2.292,3.403-3.681C143.125,144.652,142.5,146.598,141.875,147.848z
			 M144.931,132.361c-0.208,1.041-0.486,1.875-0.903,2.5c-0.416,0.555-0.902,0.833-1.389,0.833s-0.833-0.139-1.041-0.485
			c-0.278-0.278-0.417-0.765-0.417-1.39c0-1.181,0.208-2.222,0.625-3.264s1.042-1.875,1.735-2.5
			c0.695-0.625,1.528-0.972,2.361-0.972L144.931,132.361z"/>
		<path fill="#FFFFFF" d="M94.514,150.348c0-1.459-0.694-2.709-2.014-3.611s-3.333-1.389-6.042-1.389
			c-1.736,0-3.472,0.208-5.139,0.625c-1.667,0.416-3.125,0.972-4.375,1.666c-0.625,0.348-0.972,0.625-1.111,0.902
			c-0.139,0.278-0.208,0.557-0.208,0.973c0,0.277,0.069,0.486,0.208,0.695c0.139,0.207,0.347,0.277,0.625,0.277
			c0.347,0,0.694-0.139,1.18-0.417c1.042-0.625,2.292-1.11,3.82-1.528c1.458-0.416,3.055-0.625,4.583-0.625
			c1.736,0,3.056,0.278,3.889,0.765c0.833,0.485,1.25,1.181,1.25,2.014c0,0.694-0.278,1.25-0.764,1.806
			c-0.486,0.486-1.18,0.902-2.014,1.181s-1.806,0.417-2.847,0.485c-0.486,0-0.833,0.14-0.972,0.418
			c-0.208,0.277-0.278,0.625-0.278,1.041c0,0.277,0.069,0.486,0.208,0.625c0.139,0.139,0.348,0.209,0.625,0.209
			c1.32,0.068,2.223,0.277,2.778,0.764c0.556,0.416,0.833,0.972,0.833,1.666c0,0.902-0.486,1.736-1.458,2.292
			c-0.972,0.625-2.5,0.903-4.583,0.903c-0.417,0-1.042,0-1.736-0.07c0.139-1.805,0.417-3.68,0.833-5.694
			c0.417-2.014,0.764-3.542,1.181-4.722c0.069-0.278,0.139-0.486,0.139-0.695c0-0.486-0.486-0.764-1.389-0.764
			c-0.486,0-0.903,0.07-1.25,0.209c-0.278,0.139-0.556,0.416-0.625,0.764c-0.625,2.152-1.111,4.305-1.458,6.598
			c-0.417,2.291-0.625,4.443-0.764,6.527c0,0.486,0.07,0.833,0.278,1.041c0.208,0.209,0.556,0.348,1.111,0.348
			s0.972-0.069,1.319-0.277c0.347-0.209,0.486-0.486,0.556-0.903c0.417,0.069,1.042,0.069,1.806,0.069
			c2.014,0,3.68-0.208,5.139-0.694c1.389-0.485,2.5-1.11,3.194-2.014c0.764-0.833,1.111-1.875,1.111-3.056
			c0-0.764-0.208-1.389-0.694-1.944c-0.486-0.556-1.181-0.972-2.083-1.25c1.736-0.417,2.986-1.042,3.889-1.944
			C94.097,152.709,94.514,151.598,94.514,150.348z"/>
		<path fill="#FFFFFF" d="M123.473,162.291c-0.625-0.139-1.042-0.277-1.32-0.416c-0.277-0.139-0.486-0.486-0.555-0.902
			c1.041-0.557,1.736-1.111,2.152-1.807c0.416-0.693,0.625-1.457,0.625-2.222c0-0.764-0.209-1.389-0.694-1.875
			c-0.486-0.485-1.042-0.764-1.806-0.764c-0.834,0-1.666,0.417-2.569,1.25s-1.736,2.222-2.431,4.028c0-0.834,0-1.598,0.069-2.361
			c1.944-2.153,3.403-4.028,4.306-5.625c0.902-1.598,1.319-3.195,1.319-4.653c0-0.903-0.208-1.667-0.625-2.292
			c-0.417-0.555-0.972-0.902-1.667-0.902c-1.25,0-2.361,0.834-3.264,2.5s-1.598,3.75-2.083,6.25
			c-0.347,1.944-0.556,3.75-0.694,5.556c-0.625,0.139-1.181,0.208-1.667,0.278c-0.139-1.111-0.556-2.084-1.25-2.918
			c-0.694-0.764-1.597-1.18-2.708-1.18c-0.902,0-1.736,0.277-2.5,0.764s-1.32,1.181-1.806,2.084
			c-0.14,0.347-0.278,0.693-0.347,1.041c-0.557,0.069-0.973,0.209-1.459,0.209c-0.139-1.111-0.556-2.084-1.25-2.918
			c-0.694-0.764-1.597-1.18-2.708-1.18c-0.903,0-1.736,0.277-2.5,0.764c-0.764,0.486-1.319,1.181-1.805,2.084
			c-0.417,0.902-0.625,1.875-0.625,3.055c0,0.834,0.139,1.598,0.486,2.292s0.833,1.319,1.458,1.735
			c0.625,0.418,1.389,0.625,2.292,0.625c1.042,0,2.014-0.347,2.847-1.11c0.833-0.765,1.39-1.736,1.667-2.986
			c0.486,0,0.902-0.069,1.389-0.139c0.069,0.694,0.209,1.319,0.486,1.875c0.348,0.694,0.833,1.319,1.458,1.735
			c0.625,0.418,1.39,0.625,2.292,0.625c1.041,0,2.014-0.347,2.848-1.11c0.832-0.765,1.389-1.736,1.666-2.986
			c0.625,0,1.25-0.139,1.806-0.208c0,0.973,0.069,1.736,0.139,2.291c0.069,0.695,0.208,1.25,0.417,1.528
			c0.208,0.347,0.555,0.485,1.041,0.485s0.834-0.139,1.042-0.347c0.208-0.278,0.417-0.694,0.556-1.389
			c0.209-0.972,0.556-1.875,0.973-2.847c0.416-0.903,0.833-1.668,1.318-2.223c0.486-0.556,0.903-0.902,1.32-0.902
			c0.139,0,0.277,0.068,0.416,0.207c0.139,0.14,0.139,0.348,0.139,0.625c0,0.486-0.139,0.834-0.416,1.182
			c-0.277,0.347-0.764,0.625-1.389,0.902s-0.902,0.694-0.902,1.25c0,1.041,0.347,1.944,1.041,2.569
			c0.694,0.694,1.527,0.972,2.639,0.972c0.625,0,1.111-0.139,1.459-0.416c0.347-0.277,0.486-0.625,0.486-0.973
			C124.375,162.709,124.098,162.361,123.473,162.291z M117.916,150.069c0.278-1.319,0.625-2.36,0.973-3.125
			c0.348-0.764,0.625-1.181,0.902-1.181c0.209,0,0.348,0.139,0.418,0.348c0.068,0.277,0.139,0.625,0.139,1.111
			c0,1.041-0.278,2.222-0.903,3.472s-1.389,2.431-2.292,3.542C117.361,152.777,117.639,151.389,117.916,150.069z M99.167,161.736
			c-0.347,0.416-0.764,0.555-1.25,0.555c-0.417,0-0.833-0.207-1.111-0.625c-0.347-0.416-0.486-1.041-0.486-1.875
			c0-1.041,0.208-1.875,0.625-2.43c0.417-0.556,0.903-0.834,1.458-0.834h0.139c-0.069,0.209-0.069,0.486-0.069,0.695
			c0,0.555,0.139,1.111,0.347,1.597c0.278,0.486,0.625,0.903,1.042,1.25C99.792,160.834,99.514,161.389,99.167,161.736z
			 M109.236,161.736c-0.348,0.416-0.764,0.555-1.25,0.555c-0.417,0-0.834-0.207-1.111-0.625c-0.348-0.416-0.486-1.041-0.486-1.875
			c0-1.041,0.209-1.875,0.625-2.43c0.417-0.556,0.902-0.834,1.459-0.834h0.139c-0.07,0.209-0.07,0.486-0.07,0.695
			c0,0.555,0.14,1.111,0.348,1.597c0.277,0.486,0.625,0.903,1.042,1.25C109.861,160.834,109.584,161.389,109.236,161.736z"/>
	</g>
	<g>
		<g>
			<path fill="#FFFFFF" d="M127.223,88.056c10.902-0.069,19.722-8.958,19.722-19.861c0-0.417,0-0.764-0.069-1.181v-0.069
				c-0.625-10.833-9.236-25.278-19.791-25.278c-2.986,0-5.834,0.695-8.334,1.875c0.348,0.833,0.694,1.736,0.902,2.639
				c0.417,1.736,0.625,3.611,0.07,5.347c-0.625-1.667-3.403-8.958-5.695-11.458c-3.472-3.681-8.541-5.764-13.958-5.764
				c-5.417,0-10.625,1.944-13.958,5.764c-2.986,3.403-5.139,9.792-5.695,11.458c-0.555-1.736-0.347-3.611,0.07-5.347
				c0.208-0.903,0.555-1.806,0.902-2.639c-2.569-1.18-5.347-1.875-8.333-1.875c-10.556,0-19.167,14.445-19.792,25.278v0.069
				c0,0.417-0.069,0.764-0.069,1.181c0,9.931,7.361,18.194,16.875,19.653c0.417-0.139,0.833-0.347,1.181-0.486
				c1.181-0.417,2.361-0.764,3.611-1.111c1.25-0.278,2.5-0.556,3.889-0.625c-0.903,1.111-1.944,1.875-3.056,2.569
				c-0.903,0.556-1.875,1.042-2.847,1.458v4.375v7.153l0,0l0,0c5.069-0.903,10.208-1.528,15.347-1.875
				c9.792-0.694,23.611-0.694,39.167,1.875l0,0l0,0l0,0v-9.653v-3.472H127.223z M108.75,86.389c2.152,2.153,3.681,4.167,4.306,6.042
				c0.417,1.319-0.278,2.014-1.528,1.528c-3.68-1.25-7.916-6.389-12.361-11.875c-4.583,5.486-9.097,10.694-12.778,11.875
				c-1.319,0.417-2.014-0.278-1.527-1.528c1.319-3.75,6.667-8.125,12.292-12.778c-2.431-2.917-4.931-5.833-7.5-8.125
				c-3.75,1.458-7.292,1.667-10.556-1.597c-3.472-3.472-6.458-10.972-3.681-13.819c2.778-2.778,10.278,0.139,13.82,3.68
				c3.264,3.264,3.055,6.806,1.597,10.556c2.361,2.431,5.417,5,8.403,7.569c2.916-2.43,5.764-4.93,8.055-7.5
				c-1.041-3.264-0.207-5.833,3.057-9.028c3.193-3.194,6.18-5.902,8.818-7.917c0.209-0.208,0.557-0.139,0.765,0.069
				c0.208,0.208,0.208,0.556,0,0.833l-8.681,8.889c-0.209,0.208-0.209,0.556,0.069,0.764c0.208,0.208,0.556,0.208,0.765,0.069
				l8.889-8.681c0.208-0.208,0.555-0.208,0.833,0l0.139,0.139c0.208,0.208,0.208,0.556,0,0.833l-8.681,8.889
				c-0.208,0.208-0.208,0.556,0.07,0.764c0.277,0.208,0.555,0.208,0.764,0.07l8.889-8.681c0.208-0.208,0.555-0.208,0.833,0
				l0.14,0.139c0.207,0.208,0.207,0.556,0,0.833l-8.682,8.889c-0.208,0.208-0.208,0.556,0.07,0.764
				c0.208,0.208,0.555,0.208,0.764,0.069L125,59.444c0.209-0.208,0.556-0.208,0.834,0c0.207,0.208,0.207,0.556,0.068,0.764
				c-2.083,2.639-4.791,5.625-7.916,8.819c-3.195,3.194-5.764,4.028-9.027,3.056c-2.361,2.292-4.793,5.069-7.223,7.986
				C103.959,81.944,106.666,84.236,108.75,86.389L108.75,86.389z M126.389,86.389c-0.069,1.945-0.208,3.958-0.348,5.903
				c-0.139,2.222-0.277,4.445-0.485,6.667c-0.14-2.222-0.278-4.445-0.417-6.667c-0.069-2.222-0.208-4.444-0.277-6.667v-0.694
				l0.764-0.069c4.027-0.417,8.194-1.667,11.319-3.958c1.597-1.181,2.778-2.639,3.819-4.375c0.973-1.736,1.667-3.611,2.084-5.486
				c0.347-1.944,0.416-3.958,0.208-5.972c-0.069-0.972-0.278-2.014-0.486-2.986s-0.485-2.014-0.833-2.986
				c-1.32-3.958-3.264-7.708-5.556-11.319c1.597,1.458,2.985,3.125,4.235,4.861c1.25,1.806,2.361,3.681,3.265,5.695
				c0.417,1.042,0.833,2.014,1.181,3.125c0.348,1.042,0.555,2.153,0.764,3.264c0.348,2.222,0.348,4.514,0,6.806
				s-1.25,4.444-2.431,6.389c-0.625,0.972-1.25,1.945-2.014,2.778c-0.765,0.833-1.667,1.597-2.64,2.292
				c-1.875,1.319-4.027,2.152-6.18,2.708C130.348,86.111,128.402,86.389,126.389,86.389z"/>
			<g>
				<path fill="#FFFFFF" d="M89.444,70.208c-0.833,0.486-1.806,0.764-2.778,0.972c-0.972,0.208-2.014,0.208-2.986,0
					c-2.014-0.417-3.681-1.667-5-3.125c-1.319-1.458-2.361-3.194-2.986-5.069c-0.347-0.903-0.556-1.875-0.625-2.917
					c-0.069-0.972,0.069-2.014,0.625-2.847c-0.417,0.903-0.486,1.875-0.347,2.778c0.139,0.972,0.417,1.875,0.764,2.708
					c0.764,1.736,1.805,3.403,2.986,4.792c1.25,1.389,2.778,2.569,4.583,3.125C85.625,71.181,87.569,70.903,89.444,70.208z"/>
			</g>
		</g>
		<path fill="#FFFFFF" d="M73.611,102.152c2.986,1.667,13.68,2.917,26.389,2.917c9.306,0,17.431-0.694,22.361-1.667
			C109.723,99.931,85.208,99.583,73.611,102.152z"/>
	</g>
</g>
</svg>
