<?xml version="1.0" encoding="iso-8859-1"?>
<!-- Generator: Adobe Illustrator 19.0.0, SVG Export Plug-In . SVG Version: 6.00 Build 0)  -->
<svg version="1.1" id="Capa_1" xmlns="http://www.w3.org/2000/svg" xmlns:xlink="http://www.w3.org/1999/xlink" x="0px" y="0px"
	 viewBox="0 0 512 512" style="enable-background:new 0 0 512 512;" xml:space="preserve">
<path style="fill:#FD3018;" d="M424.864,239.6l-0.3,0.3c-71.7,149.7-191.1,214.799-281.7,242.699
	C80.165,502.1,23.279,512,13.979,512h-1.8c-6.601-1.5-11.7-6.899-12.001-13.801c-0.601-4.499,1.199-9,4.501-11.999
	c4.499-4.2,11.1-8.401,20.099-14.401c34.2-22.5,113.286-77.4,153.785-177.899l64.801-161.1l34.199-4.501
	c17.701,17.701,44.702,22.5,67.5,12.301c4.501-2.1,9.6-1.8,13.801,0.599c4.2,2.701,6.899,7.2,7.2,12.001
	c0.901,14.7,7.2,28.5,17.701,38.699L424.864,239.6z"/>
<path style="fill:#E61E14;" d="M424.864,239.6l-0.3,0.3c-71.7,149.7-191.1,214.799-281.7,242.699l216-341.4
	c4.2,2.701,6.899,7.2,7.2,12.001c0.901,14.7,7.2,28.5,17.701,38.699L424.864,239.6z"/>
<g>
	<path style="fill:#32D736;" d="M501.664,29.174c-36.301,12.301-75,43.927-95.4,76.325c-2.701,4.801-7.8,7.202-12.601,7.202
		c-2.699,0-5.698-0.901-8.099-2.401c-1.8-1.201-3.3-2.701-4.2-4.501c-3.3-4.799-3.6-11.1-0.3-16.199
		c10.501-16.8,23.701-32.1,39-44.7c18.9-16.201,48.001-36.126,72.001-44.227c8.101-2.399,16.5,1.8,19.2,9.6
		C513.663,18.074,509.465,26.475,501.664,29.174z"/>
	<path style="fill:#32D736;" d="M438.964,208.1c-4.199,10.8-9,20.7-14.099,31.5c-11.4-0.3-22.8-2.701-33.3-6.899
		c-18.301-7.5-33.301-21-43.2-37.8c-3.9-6.601-6.901-13.801-9.001-21c-0.298,0-0.899,0.3-1.199,0.3
		c-14.399,2.999-29.099,2.399-43.2-1.8c-14.399-4.2-27.599-11.7-38.699-22.8c-5.101-5.099-9-10.8-12.9-16.8
		c2.999-7.2,6.599-14.101,10.499-20.099c31.8-48.001,92.999-61.501,142.5-30.601c0.601,0.3,0.901,0.601,1.5,0.899
		C435.964,107.599,459.065,155.3,438.964,208.1z"/>
</g>
<path style="fill:#10BB67;" d="M438.964,208.1c-4.199,10.8-9,20.7-14.099,31.5c-11.4-0.3-22.8-2.701-33.3-6.899
	c-18.301-7.5-33.301-21-43.2-37.8c-3.9-6.601-6.901-13.801-9.001-21c-0.298,0-0.899,0.3-1.199,0.3l58.2-92.1
	c0.601,0.3,0.901,0.601,1.5,0.899C435.964,107.599,459.065,155.3,438.964,208.1z"/>
<g>
</g>
<g>
</g>
<g>
</g>
<g>
</g>
<g>
</g>
<g>
</g>
<g>
</g>
<g>
</g>
<g>
</g>
<g>
</g>
<g>
</g>
<g>
</g>
<g>
</g>
<g>
</g>
<g>
</g>
</svg>
