<?xml version="1.0" encoding="utf-8"?>
<!-- Generator: Adobe Illustrator 15.0.0, SVG Export Plug-In  -->
<!DOCTYPE svg PUBLIC "-//W3C//DTD SVG 1.1//EN" "http://www.w3.org/Graphics/SVG/1.1/DTD/svg11.dtd" [
	<!ENTITY ns_flows "http://ns.adobe.com/Flows/1.0/">
]>
<svg version="1.1"
	 xmlns="http://www.w3.org/2000/svg" xmlns:xlink="http://www.w3.org/1999/xlink" xmlns:a="http://ns.adobe.com/AdobeSVGViewerExtensions/3.0/"
	 x="0px" y="0px" width="200px" height="200px" viewBox="0 0 200 200" enable-background="new 0 0 200 200" xml:space="preserve">
<defs>
</defs>
<path fill="#FFFFFF" d="M188.1,110.402c4.021-3.187,8.582-6.797,8.582-12.063c0-5.265-4.562-8.876-8.582-12.063
	c-1.652-1.309-4.73-3.744-4.996-4.8c-0.224-1.126,1.771-4.71,2.842-6.636c2.455-4.409,5.236-9.405,3.271-14.145
	c-1.995-4.812-7.557-6.389-12.461-7.78c-2.067-0.588-5.92-1.68-6.562-2.582c-0.612-0.936-0.147-4.963,0.101-7.124
	c0.582-5.04,1.238-10.751-2.416-14.406c-3.653-3.655-9.366-2.998-14.403-2.417c-2.162,0.248-6.189,0.713-7.123,0.101
	c-0.906-0.642-1.998-4.493-2.584-6.562c-1.394-4.905-2.97-10.465-7.781-12.459c-4.74-1.965-9.736,0.815-14.146,3.269
	c-1.928,1.071-5.521,3.058-6.631,2.844c-1.062-0.269-3.498-3.345-4.808-4.997C107.218,4.56,103.607,0,98.341,0
	c-5.266,0-8.877,4.559-12.063,8.583c-1.308,1.652-3.745,4.728-4.8,4.995c-1.131,0.235-4.711-1.771-6.635-2.842
	c-4.41-2.455-9.41-5.237-14.146-3.27c-4.812,1.995-6.388,7.554-7.78,12.46c-0.587,2.068-1.679,5.918-2.582,6.56
	c-0.936,0.613-4.962,0.149-7.125-0.1c-5.037-0.579-10.75-1.238-14.405,2.417c-3.655,3.655-2.997,9.366-2.417,14.405
	c0.249,2.162,0.713,6.188,0.101,7.123c-0.643,0.905-4.493,1.997-6.562,2.584c-4.905,1.392-10.465,2.968-12.459,7.779
	c-1.967,4.741,0.815,9.738,3.268,14.147c1.072,1.926,3.067,5.51,2.845,6.63c-0.268,1.062-3.345,3.497-4.997,4.806
	C4.56,89.464,0,93.075,0,98.34c0,5.266,4.56,8.877,8.583,12.063c1.652,1.312,4.729,3.746,4.995,4.803
	c0.224,1.126-1.771,4.71-2.843,6.636c-2.454,4.408-5.235,9.405-3.269,14.146c1.995,4.812,7.555,6.39,12.46,7.779
	c2.069,0.586,5.918,1.68,6.56,2.582c0.613,0.938,0.149,4.963-0.1,7.125c-0.581,5.039-1.238,10.752,2.417,14.405
	c3.656,3.656,9.366,2.998,14.405,2.418c2.163-0.25,6.188-0.713,7.123-0.103c0.905,0.643,1.997,4.492,2.584,6.562
	c1.391,4.906,2.968,10.466,7.78,12.461c4.741,1.966,9.735-0.815,14.146-3.271c1.926-1.07,5.502-3.071,6.631-2.844
	c1.06,0.269,3.496,3.344,4.806,4.996c3.187,4.022,6.798,8.582,12.063,8.582c5.267,0,8.877-4.56,12.063-8.582
	c1.309-1.652,3.746-4.729,4.801-4.996c1.129-0.218,4.709,1.772,6.635,2.844c4.408,2.455,9.406,5.236,14.146,3.271
	c4.811-1.995,6.389-7.555,7.779-12.46c0.588-2.068,1.68-5.918,2.582-6.561c0.938-0.613,4.963-0.149,7.127,0.101
	c5.039,0.583,10.748,1.238,14.401-2.417c3.656-3.654,2.998-9.365,2.418-14.404c-0.25-2.162-0.713-6.188-0.103-7.123
	c0.644-0.906,4.494-1.998,6.563-2.584c4.904-1.393,10.466-2.969,12.461-7.781c1.966-4.738-0.815-9.734-3.271-14.145
	c-1.071-1.926-3.067-5.51-2.846-6.631C183.369,114.148,186.447,111.713,188.1,110.402 M183.77,131.799
	c0.397,0.719,0.914,1.643,1.381,2.539c-0.998,0.314-2.06,0.618-2.873,0.848c-6.791,1.926-11.863,3.662-15.303,8.504
	c-0.111,0.156-0.22,0.313-0.324,0.474c-3.322,5.085-2.998,10.528-2.176,17.667c0.096,0.837,0.221,1.923,0.309,2.959
	c-0.936-0.081-1.941-0.198-2.932-0.313c-2.437-0.281-4.986-0.551-7.42-0.551c-2.621,0-6.539,0.284-10.283,2.734
	c-0.154,0.102-0.308,0.206-0.459,0.313c-4.842,3.442-6.578,8.514-8.504,15.303c-0.23,0.814-0.531,1.875-0.849,2.875
	c-0.896-0.465-1.813-0.977-2.522-1.371c-5.14-2.862-9.463-5.057-14.347-5.057c-1.018,0-2.03,0.098-3.014,0.287
	c-0.267,0.053-0.527,0.112-0.791,0.178c-5.563,1.404-9.011,5.319-13.27,10.699c-0.572,0.721-1.326,1.672-2.053,2.528
	c-0.727-0.854-1.476-1.802-2.041-2.515c-4.272-5.393-7.719-9.307-13.287-10.715c-0.227-0.058-0.457-0.108-0.686-0.156
	c-1.02-0.205-2.072-0.311-3.127-0.311c-4.868,0-9.166,2.18-14.28,5.028c-0.738,0.409-1.674,0.931-2.578,1.401
	c-0.316-1-0.617-2.063-0.848-2.879c-1.925-6.791-3.664-11.867-8.518-15.309c-0.15-0.105-0.303-0.21-0.458-0.313
	c-3.738-2.442-7.649-2.726-10.266-2.726c-2.438,0-4.995,0.271-7.405,0.548c-1.034,0.119-2.033,0.235-2.951,0.313
	c0.088-1.034,0.213-2.117,0.309-2.948c0.824-7.146,1.15-12.596-2.184-17.689c-0.101-0.152-0.206-0.307-0.313-0.459
	c-3.44-4.84-8.511-6.578-15.299-8.504c-0.816-0.23-1.878-0.531-2.878-0.848c0.465-0.895,0.977-1.814,1.371-2.521
	c3.551-6.388,5.96-11.354,4.758-17.414c-0.049-0.248-0.104-0.494-0.167-0.74c-1.405-5.563-5.319-9.008-10.695-13.267
	c-0.722-0.571-1.675-1.326-2.532-2.055c0.855-0.728,1.803-1.479,2.519-2.044c5.383-4.264,9.301-7.711,10.709-13.28
	c0.064-0.249,0.12-0.501,0.17-0.754c1.196-6.054-1.216-11.024-4.755-17.385c-0.397-0.714-0.911-1.638-1.378-2.534
	c1-0.317,2.062-0.618,2.876-0.849c6.793-1.926,11.864-3.664,15.303-8.506c0.11-0.154,0.217-0.312,0.32-0.47
	c3.326-5.09,3-10.537,2.176-17.678c-0.096-0.83-0.22-1.912-0.309-2.945c0.916,0.078,1.912,0.191,2.939,0.309
	c2.43,0.28,4.984,0.55,7.419,0.55c2.619,0,6.534-0.283,10.274-2.73c0.159-0.104,0.315-0.211,0.468-0.32
	c4.836-3.439,6.572-8.508,8.498-15.294c0.231-0.816,0.533-1.878,0.849-2.879c0.894,0.466,1.813,0.978,2.522,1.373
	c5.191,2.888,9.475,5.057,14.336,5.057c1.081,0,2.158-0.11,3.201-0.326c0.209-0.043,0.418-0.091,0.625-0.143
	c5.563-1.41,9.009-5.328,13.27-10.71c0.566-0.715,1.316-1.662,2.043-2.517c0.727,0.856,1.479,1.804,2.045,2.519
	c4.258,5.378,7.703,9.296,13.271,10.709c0.273,0.069,0.549,0.131,0.828,0.184c0.973,0.188,1.977,0.283,2.981,0.283
	c4.869,0,9.195-2.191,14.345-5.055c0.711-0.395,1.631-0.908,2.524-1.374c0.317,1.001,0.619,2.062,0.851,2.876
	c1.926,6.789,3.662,11.86,8.502,15.3c0.155,0.111,0.313,0.218,0.473,0.322c3.738,2.444,7.648,2.727,10.264,2.727
	c2.621,0,5.473-0.326,7.357-0.543c1.063-0.123,2.076-0.239,3.002-0.318c-0.088,1.034-0.213,2.117-0.309,2.948
	c-0.824,7.141-1.15,12.591,2.18,17.682c0.104,0.159,0.211,0.315,0.32,0.47c3.434,4.831,8.493,6.567,15.27,8.492
	c0.828,0.235,1.898,0.539,2.904,0.856c-0.465,0.894-0.979,1.813-1.371,2.521c-3.547,6.382-5.957,11.349-4.76,17.406
	c0.051,0.251,0.104,0.5,0.168,0.747c1.405,5.566,5.323,9.013,10.705,13.274c0.717,0.568,1.668,1.321,2.522,2.05
	c-0.854,0.726-1.804,1.477-2.519,2.044c-5.391,4.27-9.303,7.715-10.711,13.277c-0.063,0.252-0.121,0.505-0.17,0.759
	C177.822,120.475,180.232,125.441,183.77,131.799"/>
<rect id="SVGID_3_" display="none" fill="#FFFFFF" width="196.682" height="196.68"/>
<g display="none">
	<defs>
		<rect id="SVGID_2_" width="196.682" height="196.68"/>
	</defs>
	<clipPath id="SVGID_4_" display="inline">
		<use xlink:href="#SVGID_2_"  display="none" overflow="visible"/>
	</clipPath>
	<path clip-path="url(#SVGID_4_)" fill="#FFFFFF" d="M188.1,110.402c4.021-3.187,8.582-6.797,8.582-12.063
		c0-5.265-4.562-8.876-8.582-12.063c-1.652-1.309-4.73-3.744-4.996-4.8c-0.224-1.126,1.771-4.71,2.842-6.636
		c2.455-4.409,5.236-9.405,3.271-14.145c-1.995-4.812-7.557-6.389-12.461-7.78c-2.067-0.588-5.92-1.68-6.562-2.582
		c-0.612-0.936-0.147-4.963,0.101-7.124c0.582-5.04,1.238-10.751-2.416-14.406c-3.653-3.655-9.366-2.998-14.403-2.417
		c-2.162,0.248-6.189,0.713-7.123,0.101c-0.906-0.642-1.998-4.493-2.584-6.562c-1.394-4.905-2.97-10.465-7.781-12.459
		c-4.74-1.965-9.736,0.815-14.146,3.269c-1.928,1.071-5.521,3.058-6.631,2.844c-1.062-0.269-3.498-3.345-4.808-4.997
		C107.218,4.56,103.607,0,98.341,0c-5.266,0-8.877,4.559-12.063,8.583c-1.308,1.652-3.745,4.728-4.8,4.995
		c-1.131,0.235-4.711-1.771-6.635-2.842c-4.41-2.455-9.41-5.237-14.146-3.27c-4.812,1.995-6.388,7.554-7.78,12.46
		c-0.587,2.068-1.679,5.918-2.582,6.56c-0.936,0.613-4.962,0.149-7.125-0.1c-5.037-0.579-10.75-1.238-14.405,2.417
		c-3.655,3.655-2.997,9.366-2.417,14.405c0.249,2.162,0.713,6.188,0.101,7.123c-0.643,0.905-4.493,1.997-6.562,2.584
		c-4.905,1.392-10.465,2.968-12.459,7.779c-1.967,4.741,0.815,9.738,3.268,14.147c1.072,1.926,3.067,5.51,2.845,6.63
		c-0.268,1.062-3.345,3.497-4.997,4.806C4.56,89.464,0,93.075,0,98.34c0,5.266,4.56,8.877,8.583,12.063
		c1.652,1.312,4.729,3.746,4.995,4.803c0.224,1.126-1.771,4.71-2.843,6.636c-2.454,4.408-5.235,9.405-3.269,14.146
		c1.995,4.812,7.555,6.39,12.46,7.779c2.069,0.586,5.918,1.68,6.56,2.582c0.613,0.938,0.149,4.963-0.1,7.125
		c-0.581,5.039-1.238,10.752,2.417,14.405c3.656,3.656,9.366,2.998,14.405,2.418c2.163-0.25,6.188-0.713,7.123-0.103
		c0.905,0.643,1.997,4.492,2.584,6.562c1.391,4.906,2.968,10.466,7.78,12.461c4.741,1.966,9.735-0.815,14.146-3.271
		c1.926-1.07,5.502-3.071,6.631-2.844c1.06,0.269,3.496,3.344,4.806,4.996c3.187,4.022,6.798,8.582,12.063,8.582
		c5.267,0,8.877-4.56,12.063-8.582c1.309-1.652,3.746-4.729,4.801-4.996c1.129-0.218,4.709,1.772,6.635,2.844
		c4.408,2.455,9.406,5.236,14.146,3.271c4.811-1.995,6.389-7.555,7.779-12.46c0.588-2.068,1.68-5.918,2.582-6.561
		c0.938-0.613,4.963-0.149,7.127,0.101c5.039,0.583,10.748,1.238,14.401-2.417c3.656-3.654,2.998-9.365,2.418-14.404
		c-0.25-2.162-0.713-6.188-0.103-7.123c0.644-0.906,4.494-1.998,6.563-2.584c4.904-1.393,10.466-2.969,12.461-7.781
		c1.966-4.738-0.815-9.734-3.271-14.145c-1.071-1.926-3.067-5.51-2.846-6.631C183.369,114.148,186.447,111.713,188.1,110.402
		 M183.77,131.799c0.397,0.719,0.914,1.643,1.381,2.539c-0.998,0.314-2.06,0.618-2.873,0.848
		c-6.791,1.926-11.863,3.662-15.303,8.504c-0.111,0.156-0.22,0.313-0.324,0.474c-3.322,5.085-2.998,10.528-2.176,17.667
		c0.096,0.837,0.221,1.923,0.309,2.959c-0.936-0.081-1.941-0.198-2.932-0.313c-2.437-0.281-4.986-0.551-7.42-0.551
		c-2.621,0-6.539,0.284-10.283,2.734c-0.154,0.102-0.308,0.206-0.459,0.313c-4.842,3.442-6.578,8.514-8.504,15.303
		c-0.23,0.814-0.531,1.875-0.849,2.875c-0.896-0.465-1.813-0.977-2.522-1.371c-5.14-2.862-9.463-5.057-14.347-5.057
		c-1.018,0-2.03,0.098-3.014,0.287c-0.267,0.053-0.527,0.112-0.791,0.178c-5.563,1.404-9.011,5.319-13.27,10.699
		c-0.572,0.721-1.326,1.672-2.053,2.528c-0.727-0.854-1.476-1.802-2.041-2.515c-4.272-5.393-7.719-9.307-13.287-10.715
		c-0.227-0.058-0.457-0.108-0.686-0.156c-1.02-0.205-2.072-0.311-3.127-0.311c-4.868,0-9.166,2.18-14.28,5.028
		c-0.738,0.409-1.674,0.931-2.578,1.401c-0.316-1-0.617-2.063-0.848-2.879c-1.925-6.791-3.664-11.867-8.518-15.309
		c-0.15-0.105-0.303-0.21-0.458-0.313c-3.738-2.442-7.649-2.726-10.266-2.726c-2.438,0-4.995,0.271-7.405,0.548
		c-1.034,0.119-2.033,0.235-2.951,0.313c0.088-1.034,0.213-2.117,0.309-2.948c0.824-7.146,1.15-12.596-2.184-17.689
		c-0.101-0.152-0.206-0.307-0.313-0.459c-3.44-4.84-8.511-6.578-15.299-8.504c-0.816-0.23-1.878-0.531-2.878-0.848
		c0.465-0.895,0.977-1.814,1.371-2.521c3.551-6.388,5.96-11.354,4.758-17.414c-0.049-0.248-0.104-0.494-0.167-0.74
		c-1.405-5.563-5.319-9.008-10.695-13.267c-0.722-0.571-1.675-1.326-2.532-2.055c0.855-0.728,1.803-1.479,2.519-2.044
		c5.383-4.264,9.301-7.711,10.709-13.28c0.064-0.249,0.12-0.501,0.17-0.754c1.196-6.054-1.216-11.024-4.755-17.385
		c-0.397-0.714-0.911-1.638-1.378-2.534c1-0.317,2.062-0.618,2.876-0.849c6.793-1.926,11.864-3.664,15.303-8.506
		c0.11-0.154,0.217-0.312,0.32-0.47c3.326-5.09,3-10.537,2.176-17.678c-0.096-0.83-0.22-1.912-0.309-2.945
		c0.916,0.078,1.912,0.191,2.939,0.309c2.43,0.28,4.984,0.55,7.419,0.55c2.619,0,6.534-0.283,10.274-2.73
		c0.159-0.104,0.315-0.211,0.468-0.32c4.836-3.439,6.572-8.508,8.498-15.294c0.231-0.816,0.533-1.878,0.849-2.879
		c0.894,0.466,1.813,0.978,2.522,1.373c5.191,2.888,9.475,5.057,14.336,5.057c1.081,0,2.158-0.11,3.201-0.326
		c0.209-0.043,0.418-0.091,0.625-0.143c5.563-1.41,9.009-5.328,13.27-10.71c0.566-0.715,1.316-1.662,2.043-2.517
		c0.727,0.856,1.479,1.804,2.045,2.519c4.258,5.378,7.703,9.296,13.271,10.709c0.273,0.069,0.549,0.131,0.828,0.184
		c0.973,0.188,1.977,0.283,2.981,0.283c4.869,0,9.195-2.191,14.345-5.055c0.711-0.395,1.631-0.908,2.524-1.374
		c0.317,1.001,0.619,2.062,0.851,2.876c1.926,6.789,3.662,11.86,8.502,15.3c0.155,0.111,0.313,0.218,0.473,0.322
		c3.738,2.444,7.648,2.727,10.264,2.727c2.621,0,5.473-0.326,7.357-0.543c1.063-0.123,2.076-0.239,3.002-0.318
		c-0.088,1.034-0.213,2.117-0.309,2.948c-0.824,7.141-1.15,12.591,2.18,17.682c0.104,0.159,0.211,0.315,0.32,0.47
		c3.434,4.831,8.493,6.567,15.27,8.492c0.828,0.235,1.898,0.539,2.904,0.856c-0.465,0.894-0.979,1.813-1.371,2.521
		c-3.547,6.382-5.957,11.349-4.76,17.406c0.051,0.251,0.104,0.5,0.168,0.747c1.405,5.566,5.323,9.013,10.705,13.274
		c0.717,0.568,1.668,1.321,2.522,2.05c-0.854,0.726-1.804,1.477-2.519,2.044c-5.391,4.27-9.303,7.715-10.711,13.277
		c-0.063,0.252-0.121,0.505-0.17,0.759C177.822,120.475,180.232,125.441,183.77,131.799"/>
</g>
<path fill="#F19EA0" d="M161.357,55.886c0,0-30.374,13.251-37.11-0.377c-6.721-13.602-7.828-21.583-7.828-21.583
	s27.045-5.116,35.428,7.567C160.228,54.177,161.357,55.886,161.357,55.886"/>
<path fill="#D86D7A" d="M153.515,52.693c0,0-22.125,9.259-25.395,0.003c-3.593-10.169-3.521-13.608-3.521-13.608
	s17.365-3.874,22.775,4.315C152.788,51.588,153.515,52.693,153.515,52.693"/>
<path fill="#F19EA0" d="M32.735,56.423c0,0,29.915,14.254,37.102,0.858c7.17-13.37,8.543-21.31,8.543-21.31
	s-26.859-6.013-35.66,6.384C33.92,54.752,32.735,56.423,32.735,56.423"/>
<path fill="#D86D7A" d="M40.679,53.493c0,0,21.803,9.991,25.378,0.849c3.931-10.043,3.973-13.484,3.973-13.484
	s-17.227-4.45-22.906,3.555C41.443,52.413,40.679,53.493,40.679,53.493"/>
<rect x="77.944" y="113.276" fill="#D87C81" width="13.023" height="17.955"/>
<rect x="102.839" y="113.276" fill="#F19EA0" width="13.023" height="17.955"/>
<path fill="#3D3D3C" d="M84.318,133.558c0.551,0,0.999,0.446,0.999,0.998v2.494H95.79c0-6.261-5.078-11.332-11.334-11.332
	c-6.258,0-11.336,5.071-11.336,11.332h10.2v-2.494C83.32,134.004,83.765,133.558,84.318,133.558"/>
<path fill="#3D3D3C" d="M109.214,133.558c0.551,0,1,0.446,1,0.998v2.494h10.474c0-6.261-5.072-11.332-11.339-11.332
	c-6.252,0-11.329,5.071-11.329,11.332h10.198v-2.494C108.216,134.004,108.661,133.558,109.214,133.558"/>
<path fill="#D87C81" d="M59.944,89.304c-0.096,0.983-0.162,1.977-0.162,2.983c0,18.843,16.629,34.119,37.15,34.119V109.88
	C80.36,109.88,66.136,101.407,59.944,89.304"/>
<path fill="#D87C81" d="M96.933,109.88V58.168c-19.441,0-35.383,13.691-37.031,31.136C66.101,101.407,80.341,109.88,96.933,109.88"
	/>
<path fill="#D87C81" d="M95.933,59.168v51.712c16.807,0,31.228-8.474,37.506-20.574C131.769,72.858,115.626,59.168,95.933,59.168"/>
<path fill="#F19EA0" d="M134.699,92.287c0-1.008,0-4.423-1.601-9.787c-5.352,19.343-19.317,27.38-36.166,27.38v16.525
	C117.794,126.406,134.699,111.13,134.699,92.287"/>
<path fill="#F19EA0" d="M130.827,97.002c3.164,2.669,8.41,3.188,12.141,1.464c2.203-1.017,7.574-5.5,2.728-6.887
	c-2.628-0.751-5.13,0.98-4.84,3.697c0.407,3.826,4.346,5.709,7.767,5.533c1.219-0.063,3.93-2.01,1.479-1.883
	c-2.987,0.151-5.954-2.443-5.592-5.604c0.023-0.11,0.057-0.222,0.086-0.333c-1.709-0.006-1.901,0.396-0.58,1.21
	c0.436,1.028-1.707,2.476-2.289,2.856c-2.096,1.377-5.742,0.032-7.473-1.43C133.335,94.858,129.956,96.269,130.827,97.002"/>
<path fill="#F19EA0" d="M134.679,75.838c-0.489,2.645-1.58,6.662-1.58,6.662c-2.276,12.521-21.902,21.972-36.205,21.972V25.204
	c18.885,0,32.486,13.12,32.486,29.306c0,7.673,5.059,9.407,5.059,16.747"/>
<path fill="#3D3D3C" d="M93.114,86.037c0,1.799-1.458,3.259-3.259,3.259c-1.802,0-3.259-1.46-3.259-3.259s1.457-3.257,3.259-3.257
	C91.656,82.781,93.114,84.239,93.114,86.037"/>
<path fill="#3D3D3C" d="M123.042,64.139c0,1.984-1.604,3.593-3.588,3.593c-1.988,0-3.592-1.609-3.592-3.593
	c0-1.982,1.604-3.592,3.592-3.592C121.437,60.547,123.042,62.157,123.042,64.139"/>
<path fill="#FFFFFF" d="M122.044,63.021c0,0.748-0.608,1.354-1.356,1.354s-1.356-0.606-1.356-1.354c0-0.75,0.608-1.356,1.356-1.356
	S122.044,62.271,122.044,63.021"/>
<path fill="#D87C81" d="M59.728,75.838c0.463,2.489,0.415,2.365,1.605,6.662c2.282,12.521,21.969,21.972,36.315,21.972V25.204
	c-18.942,0-32.585,13.121-32.585,29.306c0,7.674-5.074,9.408-5.074,16.746"/>
<path fill="#3D3D3C" d="M77.944,64.139c0,1.983-1.605,3.592-3.594,3.592c-1.982,0-3.588-1.608-3.588-3.592
	c0-1.982,1.604-3.592,3.588-3.592C76.339,60.547,77.944,62.157,77.944,64.139"/>
<path fill="#FFFFFF" d="M77.423,63.021c0,0.748-0.605,1.354-1.355,1.354c-0.748,0-1.355-0.606-1.355-1.354
	c0-0.75,0.607-1.355,1.355-1.355C76.817,61.665,77.423,62.271,77.423,63.021"/>
<path fill="#3D3D3C" d="M91.722,88.015c0,1.799-1.457,3.26-3.258,3.26c-1.799,0-3.258-1.461-3.258-3.26s1.459-3.256,3.258-3.256
	C90.265,84.759,91.722,86.216,91.722,88.015"/>
<path fill="#3D3D3C" d="M110.093,88.015c0,1.799-1.457,3.26-3.258,3.26c-1.8,0-3.259-1.461-3.259-3.26s1.459-3.256,3.259-3.256
	C108.636,84.759,110.093,86.216,110.093,88.015"/>
<ellipse fill="#D87C81" stroke="#F09EA1" stroke-width="2" stroke-miterlimit="10" cx="97.692" cy="88.016" rx="15.979" ry="9.709"/>
<path fill="#3D3D3C" d="M92.722,88.015c0,1.799-1.457,3.26-3.258,3.26c-1.799,0-3.258-1.461-3.258-3.26s1.459-3.256,3.258-3.256
	C91.265,84.759,92.722,86.216,92.722,88.015"/>
<path fill="#3D3D3C" d="M108.093,88.015c0,1.799-1.457,3.26-3.258,3.26c-1.8,0-3.259-1.461-3.259-3.26s1.459-3.256,3.259-3.256
	C106.636,84.759,108.093,86.216,108.093,88.015"/>
<path fill="#70706F" d="M77.873,137.851c2.959,1.409,2.809,7.305-0.336,13.173c-3.148,5.864-8.099,9.477-11.059,8.067
	c-2.959-1.411-2.81-7.308,0.336-13.174C69.962,140.051,74.913,136.44,77.873,137.851z"/>
<path fill="#70706F" d="M80.419,142.207c-1.701,2.792-7.833,2.465-13.698-0.729c-5.865-3.197-9.242-8.049-7.542-10.839
	c1.699-2.79,7.833-2.462,13.697,0.73C78.74,134.565,82.118,139.418,80.419,142.207z"/>
<path fill="#70706F" d="M124.689,160.266c-7.767,2.013-22.607-8.237-26.83-24.536c-4.222-16.297,3.772-32.465,11.539-34.479
	c7.771-2.012,17.488,9.566,21.712,25.865C135.335,143.413,132.458,158.254,124.689,160.266"/>
<path fill="#9C9B9B" d="M79.648,129.078c8.51-7.854,28.288-18.999,37.586-20.814c23.424-4.572,32.205,1.122,36.377,8.861
	c0.625,1.163,1.076,2.362,1.393,3.58l-83.898,21.738l-0.146-0.559C72.936,134.733,72.536,136.557,79.648,129.078"/>
<path fill="#3D3D3C" d="M133.126,120.857c-2.521,0.655-4.972-0.386-5.474-2.324c-0.503-1.942,1.135-4.042,3.654-4.696
	c2.521-0.651,4.973,0.388,5.477,2.329C137.283,118.104,135.646,120.205,133.126,120.857"/>
<path fill="#D3C5C1" d="M84.968,149.606c11.204,2.544,33.854,2.484,42.868-0.425c22.711-7.324,27.69-16.305,27.653-24.803
	c-0.006-1.276-0.184-2.501-0.485-3.674l-83.898,21.738l0.139,0.539C76.387,148.055,75.167,146.709,84.968,149.606"/>
<path fill="#3D3D3C" d="M137.649,138.315c-2.521,0.653-4.973-0.391-5.474-2.329c-0.504-1.939,1.133-4.041,3.653-4.694
	c2.521-0.651,4.973,0.388,5.477,2.328C141.805,135.558,140.17,137.663,137.649,138.315"/>
<path fill="#FFFFFF" d="M134.484,119.592c-0.872,0.226-1.722-0.134-1.895-0.804c-0.174-0.672,0.393-1.399,1.266-1.625
	c0.872-0.226,1.719,0.136,1.893,0.807C135.922,118.64,135.356,119.365,134.484,119.592"/>
<path fill="#FFFFFF" d="M138.999,137.013c-0.874,0.226-1.722-0.136-1.896-0.805c-0.175-0.672,0.394-1.397,1.267-1.624
	c0.871-0.226,1.718,0.136,1.893,0.807C140.437,136.059,139.869,136.786,138.999,137.013"/>
<path fill="#70706F" d="M112.367,127.07c-1.388,0.832-3.351,1.02-4.958,0.523c-1.622-0.495-2.861-1.637-3.228-3.111
	c-0.371-1.364,0.138-3.04,1.319-4.236c1.166-1.215,2.976-2.009,4.592-1.951c-1.375,0.821-2.287,1.745-2.808,2.711
	c-0.521,0.972-0.653,1.9-0.414,2.835c0.214,0.83,0.8,1.654,1.725,2.229C109.519,126.663,110.769,127.025,112.367,127.07"/>
<path fill="#70706F" d="M114.643,135.848c-1.39,0.832-3.352,1.02-4.96,0.522c-1.621-0.497-2.86-1.639-3.227-3.111
	c-0.371-1.365,0.137-3.039,1.32-4.239c1.164-1.214,2.975-2.006,4.591-1.949c-1.374,0.82-2.287,1.747-2.809,2.712
	c-0.521,0.971-0.653,1.9-0.415,2.835c0.217,0.83,0.804,1.655,1.727,2.229C111.792,135.438,113.044,135.803,114.643,135.848"/>
<path fill="#70706F" d="M104.023,124.566c-1.39,0.832-3.356,1.018-4.961,0.523c-1.621-0.495-2.86-1.637-3.226-3.112
	c-0.372-1.364,0.137-3.039,1.319-4.236c1.166-1.216,2.976-2.007,4.595-1.951c-1.377,0.821-2.291,1.745-2.81,2.708
	c-0.52,0.975-0.654,1.904-0.415,2.84c0.215,0.829,0.801,1.652,1.724,2.224C101.173,124.156,102.422,124.52,104.023,124.566"/>
<path fill="#70706F" d="M106.298,133.342c-1.394,0.834-3.355,1.02-4.962,0.522c-1.622-0.493-2.861-1.637-3.224-3.112
	c-0.373-1.363,0.135-3.036,1.318-4.235c1.164-1.215,2.973-2.006,4.593-1.95c-1.378,0.82-2.29,1.745-2.808,2.709
	c-0.522,0.974-0.657,1.902-0.416,2.835c0.214,0.831,0.8,1.656,1.724,2.229C103.447,132.933,104.696,133.298,106.298,133.342"/>
<path fill="#70706F" d="M108.563,142.09c-1.392,0.834-3.354,1.017-4.959,0.521c-1.623-0.496-2.861-1.636-3.227-3.111
	c-0.372-1.363,0.134-3.036,1.317-4.234c1.164-1.215,2.972-2.007,4.594-1.953c-1.377,0.822-2.289,1.747-2.807,2.712
	c-0.521,0.975-0.656,1.902-0.418,2.835c0.217,0.832,0.802,1.653,1.725,2.229C105.714,141.68,106.963,142.043,108.563,142.09"/>
<path fill="#70706F" d="M110.839,150.867c-1.394,0.832-3.355,1.017-4.963,0.522c-1.622-0.496-2.859-1.637-3.224-3.112
	c-0.373-1.365,0.134-3.038,1.317-4.234c1.163-1.218,2.972-2.01,4.594-1.952c-1.377,0.82-2.289,1.744-2.808,2.708
	c-0.521,0.976-0.655,1.903-0.416,2.838c0.216,0.83,0.8,1.651,1.723,2.225C107.987,150.457,109.236,150.818,110.839,150.867"/>
<path fill="#70706F" d="M91.765,137.092c-1.388,0.831-3.352,1.019-4.959,0.523c-1.624-0.495-2.861-1.637-3.226-3.113
	c-0.372-1.362,0.134-3.037,1.319-4.236c1.163-1.215,2.974-2.007,4.592-1.95c-1.375,0.819-2.288,1.745-2.809,2.71
	c-0.519,0.973-0.65,1.9-0.414,2.836c0.215,0.831,0.802,1.651,1.724,2.229C88.917,136.682,90.167,137.044,91.765,137.092"/>
<path fill="#70706F" d="M85.813,143.316c-1.39,0.834-3.352,1.021-4.958,0.523c-1.625-0.496-2.861-1.638-3.227-3.112
	c-0.375-1.363,0.132-3.035,1.319-4.236c1.163-1.215,2.971-2.005,4.591-1.951c-1.376,0.821-2.29,1.746-2.809,2.711
	c-0.521,0.976-0.653,1.901-0.414,2.837c0.215,0.829,0.802,1.654,1.724,2.226C82.962,142.907,84.215,143.271,85.813,143.316"/>
<path fill="#70706F" d="M94.041,145.867c-1.39,0.834-3.353,1.02-4.96,0.523c-1.624-0.494-2.861-1.636-3.226-3.112
	c-0.372-1.362,0.134-3.039,1.32-4.234c1.163-1.216,2.973-2.008,4.591-1.952c-1.374,0.82-2.287,1.745-2.808,2.712
	c-0.519,0.972-0.65,1.899-0.414,2.835c0.215,0.832,0.802,1.652,1.724,2.226C91.191,145.459,92.44,145.821,94.041,145.867"/>
<path fill="#70706F" d="M116.916,144.623c-1.389,0.832-3.353,1.018-4.959,0.523c-1.622-0.497-2.86-1.637-3.228-3.111
	c-0.371-1.365,0.137-3.041,1.32-4.236c1.166-1.216,2.975-2.009,4.593-1.951c-1.376,0.819-2.289,1.745-2.81,2.71
	c-0.521,0.972-0.652,1.902-0.415,2.835c0.216,0.831,0.802,1.654,1.725,2.229C114.066,144.214,115.317,144.576,116.916,144.623"/>
<path fill="#70706F" d="M97.721,130.868c-1.39,0.83-3.354,1.017-4.961,0.521c-1.621-0.496-2.859-1.638-3.224-3.112
	c-0.372-1.364,0.133-3.039,1.318-4.236c1.163-1.213,2.973-2.008,4.593-1.95c-1.375,0.82-2.291,1.744-2.81,2.712
	c-0.521,0.971-0.651,1.897-0.417,2.833c0.218,0.83,0.804,1.654,1.729,2.23C94.87,130.458,96.121,130.821,97.721,130.868"/>
<path fill="#70706F" d="M99.994,139.643c-1.39,0.833-3.354,1.02-4.96,0.523c-1.622-0.496-2.859-1.638-3.225-3.113
	c-0.372-1.364,0.134-3.037,1.318-4.236c1.162-1.214,2.973-2.006,4.593-1.948c-1.376,0.818-2.291,1.743-2.81,2.71
	c-0.519,0.971-0.652,1.898-0.415,2.834c0.217,0.83,0.803,1.655,1.727,2.23C97.144,139.232,98.395,139.598,99.994,139.643"/>
<path fill="#70706F" d="M102.268,148.419c-1.388,0.832-3.354,1.018-4.961,0.524c-1.62-0.499-2.858-1.638-3.223-3.113
	c-0.372-1.363,0.132-3.04,1.316-4.235c1.163-1.216,2.975-2.008,4.594-1.951c-1.375,0.818-2.289,1.745-2.81,2.71
	c-0.52,0.972-0.651,1.901-0.414,2.835c0.215,0.831,0.801,1.653,1.726,2.229C99.418,148.009,100.669,148.371,102.268,148.419"/>
</svg>
