<?xml version="1.0" encoding="utf-8"?>
<!-- Generator: Adobe Illustrator 15.0.0, SVG Export Plug-In  -->
<!DOCTYPE svg PUBLIC "-//W3C//DTD SVG 1.1//EN" "http://www.w3.org/Graphics/SVG/1.1/DTD/svg11.dtd" [
	<!ENTITY ns_flows "http://ns.adobe.com/Flows/1.0/">
]>
<svg version="1.1"
	 xmlns="http://www.w3.org/2000/svg" xmlns:xlink="http://www.w3.org/1999/xlink" xmlns:a="http://ns.adobe.com/AdobeSVGViewerExtensions/3.0/"
	 x="0px" y="0px" width="200px" height="200px" viewBox="-2.219 -2.145 200 200" enable-background="new -2.219 -2.145 200 200"
	 xml:space="preserve">
<defs>
</defs>
<path fill="#FFFFFF" d="M188.099,110.402c4.021-3.186,8.582-6.797,8.582-12.063c0-5.265-4.561-8.876-8.582-12.063
	c-1.652-1.309-4.73-3.744-4.996-4.8c-0.223-1.126,1.771-4.71,2.842-6.636c2.455-4.409,5.236-9.405,3.271-14.145
	c-1.996-4.812-7.557-6.389-12.461-7.78c-2.068-0.588-5.92-1.68-6.561-2.582c-0.613-0.936-0.148-4.963,0.1-7.124
	c0.582-5.04,1.238-10.751-2.416-14.406c-3.654-3.655-9.367-2.998-14.404-2.417c-2.162,0.248-6.189,0.713-7.123,0.101
	c-0.906-0.642-1.998-4.493-2.584-6.562c-1.393-4.905-2.969-10.465-7.781-12.459c-4.74-1.965-9.736,0.815-14.145,3.269
	c-1.928,1.071-5.52,3.058-6.631,2.844c-1.061-0.269-3.498-3.345-4.807-4.997C107.218,4.56,103.607,0,98.341,0
	c-5.266,0-8.877,4.559-12.063,8.583c-1.308,1.652-3.745,4.728-4.8,4.995c-1.131,0.235-4.711-1.771-6.635-2.842
	c-4.41-2.455-9.41-5.237-14.146-3.27c-4.812,1.995-6.388,7.554-7.78,12.46c-0.587,2.068-1.679,5.918-2.582,6.56
	c-0.936,0.613-4.962,0.149-7.125-0.1c-5.037-0.579-10.75-1.238-14.405,2.417c-3.655,3.655-2.997,9.366-2.417,14.405
	c0.249,2.162,0.713,6.188,0.101,7.123c-0.643,0.905-4.493,1.997-6.562,2.584c-4.905,1.392-10.465,2.968-12.459,7.779
	c-1.967,4.741,0.815,9.738,3.268,14.147c1.072,1.926,3.067,5.51,2.845,6.63c-0.268,1.062-3.345,3.497-4.997,4.806
	C4.56,89.464,0,93.075,0,98.34c0,5.266,4.56,8.877,8.583,12.063c1.652,1.311,4.729,3.746,4.995,4.802
	c0.224,1.126-1.771,4.71-2.843,6.636c-2.454,4.408-5.235,9.405-3.269,14.145c1.995,4.812,7.555,6.39,12.46,7.78
	c2.069,0.586,5.918,1.68,6.56,2.582c0.613,0.937,0.149,4.962-0.1,7.124c-0.581,5.04-1.238,10.752,2.417,14.406
	c3.656,3.656,9.366,2.998,14.405,2.418c2.163-0.25,6.188-0.713,7.123-0.103c0.905,0.643,1.997,4.493,2.584,6.562
	c1.391,4.906,2.968,10.465,7.78,12.461c4.741,1.966,9.735-0.816,14.146-3.27c1.926-1.071,5.502-3.072,6.631-2.845
	c1.06,0.269,3.496,3.345,4.806,4.997c3.187,4.022,6.798,8.582,12.063,8.582c5.266,0,8.877-4.56,12.063-8.582
	c1.309-1.652,3.746-4.729,4.801-4.996c1.129-0.218,4.709,1.772,6.635,2.844c4.408,2.454,9.406,5.235,14.146,3.27
	c4.811-1.996,6.389-7.555,7.779-12.46c0.588-2.068,1.68-5.918,2.582-6.561c0.938-0.613,4.963-0.149,7.127,0.101
	c5.039,0.583,10.748,1.238,14.402-2.417c3.656-3.654,2.998-9.366,2.418-14.405c-0.25-2.162-0.713-6.188-0.102-7.123
	c0.643-0.905,4.494-1.997,6.563-2.584c4.904-1.392,10.465-2.968,12.461-7.78c1.965-4.739-0.816-9.735-3.27-14.145
	c-1.072-1.926-3.068-5.51-2.846-6.631C183.369,114.148,186.447,111.713,188.099,110.402 M183.769,131.799
	c0.398,0.718,0.914,1.642,1.381,2.539c-0.998,0.315-2.059,0.618-2.873,0.848c-6.791,1.926-11.863,3.662-15.303,8.503
	c-0.111,0.156-0.219,0.313-0.324,0.474c-3.322,5.085-2.998,10.529-2.176,17.667c0.096,0.837,0.221,1.923,0.309,2.959
	c-0.936-0.081-1.941-0.198-2.932-0.313c-2.436-0.281-4.986-0.55-7.42-0.55c-2.621,0-6.539,0.284-10.283,2.734
	c-0.154,0.102-0.307,0.206-0.459,0.313c-4.842,3.442-6.578,8.514-8.504,15.303c-0.23,0.814-0.531,1.875-0.848,2.875
	c-0.895-0.466-1.814-0.977-2.523-1.372c-5.139-2.862-9.463-5.056-14.346-5.056c-1.018,0-2.031,0.097-3.014,0.287
	c-0.266,0.052-0.527,0.112-0.791,0.178c-5.564,1.404-9.01,5.319-13.27,10.698c-0.572,0.721-1.326,1.672-2.053,2.529
	c-0.727-0.854-1.476-1.801-2.041-2.514c-4.272-5.393-7.719-9.308-13.287-10.716c-0.227-0.057-0.457-0.108-0.686-0.156
	c-1.02-0.205-2.072-0.31-3.127-0.31c-4.868,0-9.166,2.18-14.28,5.028c-0.738,0.41-1.674,0.931-2.578,1.401
	c-0.316-1-0.617-2.063-0.848-2.878c-1.925-6.792-3.664-11.867-8.518-15.309c-0.15-0.106-0.303-0.21-0.458-0.313
	c-3.738-2.442-7.649-2.725-10.266-2.725c-2.438,0-4.995,0.271-7.405,0.548c-1.034,0.119-2.033,0.235-2.951,0.313
	c0.088-1.034,0.213-2.117,0.309-2.948c0.824-7.146,1.15-12.596-2.184-17.689c-0.101-0.153-0.206-0.307-0.313-0.459
	c-3.44-4.84-8.511-6.578-15.299-8.504c-0.816-0.231-1.878-0.532-2.878-0.848c0.465-0.895,0.977-1.814,1.371-2.522
	c3.551-6.387,5.96-11.353,4.758-17.414c-0.049-0.248-0.104-0.494-0.167-0.74c-1.405-5.562-5.319-9.007-10.695-13.267
	c-0.722-0.571-1.675-1.326-2.532-2.055c0.855-0.728,1.803-1.479,2.519-2.044c5.383-4.264,9.301-7.711,10.709-13.28
	c0.064-0.249,0.12-0.501,0.17-0.754c1.196-6.054-1.216-11.024-4.755-17.385c-0.397-0.714-0.911-1.638-1.378-2.534
	c1-0.317,2.062-0.618,2.876-0.849c6.793-1.926,11.864-3.664,15.303-8.506c0.11-0.154,0.217-0.312,0.32-0.47
	c3.326-5.09,3-10.537,2.176-17.678c-0.096-0.83-0.22-1.912-0.309-2.945c0.916,0.078,1.912,0.191,2.939,0.309
	c2.43,0.28,4.984,0.55,7.419,0.55c2.619,0,6.534-0.283,10.274-2.73c0.159-0.104,0.315-0.211,0.468-0.32
	c4.836-3.439,6.572-8.508,8.498-15.294c0.231-0.816,0.533-1.878,0.849-2.879c0.894,0.466,1.813,0.978,2.522,1.373
	c5.191,2.888,9.475,5.057,14.336,5.057c1.081,0,2.158-0.11,3.201-0.326c0.209-0.043,0.418-0.091,0.625-0.143
	c5.563-1.41,9.009-5.328,13.27-10.71c0.566-0.715,1.316-1.662,2.043-2.517c0.727,0.856,1.479,1.804,2.045,2.519
	c4.258,5.378,7.703,9.296,13.271,10.709c0.273,0.069,0.549,0.131,0.828,0.184c0.973,0.188,1.977,0.283,2.982,0.283
	c4.869,0,9.195-2.191,14.344-5.055c0.711-0.395,1.631-0.908,2.525-1.374c0.318,1.001,0.619,2.062,0.85,2.876
	c1.926,6.789,3.662,11.86,8.502,15.3c0.156,0.111,0.313,0.218,0.473,0.322c3.738,2.444,7.648,2.727,10.264,2.727
	c2.621,0,5.473-0.326,7.357-0.543c1.063-0.123,2.076-0.239,3.002-0.318c-0.088,1.034-0.213,2.117-0.309,2.948
	c-0.824,7.141-1.15,12.591,2.18,17.682c0.104,0.159,0.211,0.315,0.32,0.47c3.434,4.831,8.494,6.567,15.27,8.492
	c0.828,0.235,1.898,0.539,2.904,0.856c-0.465,0.894-0.979,1.813-1.371,2.521c-3.547,6.382-5.957,11.349-4.76,17.406
	c0.051,0.251,0.105,0.5,0.168,0.747c1.406,5.566,5.324,9.013,10.705,13.274c0.717,0.568,1.668,1.321,2.523,2.05
	c-0.855,0.726-1.803,1.477-2.518,2.044c-5.391,4.27-9.303,7.714-10.711,13.277c-0.064,0.252-0.121,0.505-0.17,0.759
	C177.822,120.474,180.232,125.441,183.769,131.799"/>
<g display="none">
	<defs>
		<rect id="SVGID_1_" x="0" width="196.681" height="196.68"/>
	</defs>
	<use xlink:href="#SVGID_1_"  overflow="visible" fill="#FFFFFF"/>
	<clipPath id="SVGID_2_" display="inline">
		<use xlink:href="#SVGID_1_"  display="none" overflow="visible"/>
	</clipPath>
	<path clip-path="url(#SVGID_2_)" fill="#FFFFFF" d="M188.099,110.402c4.021-3.186,8.582-6.797,8.582-12.063
		c0-5.265-4.561-8.876-8.582-12.063c-1.652-1.309-4.73-3.744-4.996-4.8c-0.223-1.126,1.771-4.71,2.842-6.636
		c2.455-4.409,5.236-9.405,3.271-14.145c-1.996-4.812-7.557-6.389-12.461-7.78c-2.068-0.588-5.92-1.68-6.561-2.582
		c-0.613-0.936-0.148-4.963,0.1-7.124c0.582-5.04,1.238-10.751-2.416-14.406c-3.654-3.655-9.367-2.998-14.404-2.417
		c-2.162,0.248-6.189,0.713-7.123,0.101c-0.906-0.642-1.998-4.493-2.584-6.562c-1.393-4.905-2.969-10.465-7.781-12.459
		c-4.74-1.965-9.736,0.815-14.145,3.269c-1.928,1.071-5.52,3.058-6.631,2.844c-1.061-0.269-3.498-3.345-4.807-4.997
		C107.218,4.56,103.607,0,98.341,0c-5.266,0-8.877,4.559-12.063,8.583c-1.308,1.652-3.745,4.728-4.8,4.995
		c-1.131,0.235-4.711-1.771-6.635-2.842c-4.41-2.455-9.41-5.237-14.146-3.27c-4.812,1.995-6.388,7.554-7.78,12.46
		c-0.587,2.068-1.679,5.918-2.582,6.56c-0.936,0.613-4.962,0.149-7.125-0.1c-5.037-0.579-10.75-1.238-14.405,2.417
		c-3.655,3.655-2.997,9.366-2.417,14.405c0.249,2.162,0.713,6.188,0.101,7.123c-0.643,0.905-4.493,1.997-6.562,2.584
		c-4.905,1.392-10.465,2.968-12.459,7.779c-1.967,4.741,0.815,9.738,3.268,14.147c1.072,1.926,3.067,5.51,2.845,6.63
		c-0.268,1.062-3.345,3.497-4.997,4.806C4.56,89.464,0,93.075,0,98.34c0,5.266,4.56,8.877,8.583,12.063
		c1.652,1.311,4.729,3.746,4.995,4.802c0.224,1.126-1.771,4.71-2.843,6.636c-2.454,4.408-5.235,9.405-3.269,14.145
		c1.995,4.812,7.555,6.39,12.46,7.78c2.069,0.586,5.918,1.68,6.56,2.582c0.613,0.937,0.149,4.962-0.1,7.124
		c-0.581,5.04-1.238,10.752,2.417,14.406c3.656,3.656,9.366,2.998,14.405,2.418c2.163-0.25,6.188-0.713,7.123-0.103
		c0.905,0.643,1.997,4.493,2.584,6.562c1.391,4.906,2.968,10.465,7.78,12.461c4.741,1.966,9.735-0.816,14.146-3.27
		c1.926-1.071,5.502-3.072,6.631-2.845c1.06,0.269,3.496,3.345,4.806,4.997c3.187,4.022,6.798,8.582,12.063,8.582
		c5.266,0,8.877-4.56,12.063-8.582c1.309-1.652,3.746-4.729,4.801-4.996c1.129-0.218,4.709,1.772,6.635,2.844
		c4.408,2.454,9.406,5.235,14.146,3.27c4.811-1.996,6.389-7.555,7.779-12.46c0.588-2.068,1.68-5.918,2.582-6.561
		c0.938-0.613,4.963-0.149,7.127,0.101c5.039,0.583,10.748,1.238,14.402-2.417c3.656-3.654,2.998-9.366,2.418-14.405
		c-0.25-2.162-0.713-6.188-0.102-7.123c0.643-0.905,4.494-1.997,6.563-2.584c4.904-1.392,10.465-2.968,12.461-7.78
		c1.965-4.739-0.816-9.735-3.27-14.145c-1.072-1.926-3.068-5.51-2.846-6.631C183.369,114.148,186.447,111.713,188.099,110.402
		 M183.769,131.799c0.398,0.718,0.914,1.642,1.381,2.539c-0.998,0.315-2.059,0.618-2.873,0.848
		c-6.791,1.926-11.863,3.662-15.303,8.503c-0.111,0.156-0.219,0.313-0.324,0.474c-3.322,5.085-2.998,10.529-2.176,17.667
		c0.096,0.837,0.221,1.923,0.309,2.959c-0.936-0.081-1.941-0.198-2.932-0.313c-2.436-0.281-4.986-0.55-7.42-0.55
		c-2.621,0-6.539,0.284-10.283,2.734c-0.154,0.102-0.307,0.206-0.459,0.313c-4.842,3.442-6.578,8.514-8.504,15.303
		c-0.23,0.814-0.531,1.875-0.848,2.875c-0.895-0.466-1.814-0.977-2.523-1.372c-5.139-2.862-9.463-5.056-14.346-5.056
		c-1.018,0-2.031,0.097-3.014,0.287c-0.266,0.052-0.527,0.112-0.791,0.178c-5.564,1.404-9.01,5.319-13.27,10.698
		c-0.572,0.721-1.326,1.672-2.053,2.529c-0.727-0.854-1.476-1.801-2.041-2.514c-4.272-5.393-7.719-9.308-13.287-10.716
		c-0.227-0.057-0.457-0.108-0.686-0.156c-1.02-0.205-2.072-0.31-3.127-0.31c-4.868,0-9.166,2.18-14.28,5.028
		c-0.738,0.41-1.674,0.931-2.578,1.401c-0.316-1-0.617-2.063-0.848-2.878c-1.925-6.792-3.664-11.867-8.518-15.309
		c-0.15-0.106-0.303-0.21-0.458-0.313c-3.738-2.442-7.649-2.725-10.266-2.725c-2.438,0-4.995,0.271-7.405,0.548
		c-1.034,0.119-2.033,0.235-2.951,0.313c0.088-1.034,0.213-2.117,0.309-2.948c0.824-7.146,1.15-12.596-2.184-17.689
		c-0.101-0.153-0.206-0.307-0.313-0.459c-3.44-4.84-8.511-6.578-15.299-8.504c-0.816-0.231-1.878-0.532-2.878-0.848
		c0.465-0.895,0.977-1.814,1.371-2.522c3.551-6.387,5.96-11.353,4.758-17.414c-0.049-0.248-0.104-0.494-0.167-0.74
		c-1.405-5.562-5.319-9.007-10.695-13.267c-0.722-0.571-1.675-1.326-2.532-2.055c0.855-0.728,1.803-1.479,2.519-2.044
		c5.383-4.264,9.301-7.711,10.709-13.28c0.064-0.249,0.12-0.501,0.17-0.754c1.196-6.054-1.216-11.024-4.755-17.385
		c-0.397-0.714-0.911-1.638-1.378-2.534c1-0.317,2.062-0.618,2.876-0.849c6.793-1.926,11.864-3.664,15.303-8.506
		c0.11-0.154,0.217-0.312,0.32-0.47c3.326-5.09,3-10.537,2.176-17.678c-0.096-0.83-0.22-1.912-0.309-2.945
		c0.916,0.078,1.912,0.191,2.939,0.309c2.43,0.28,4.984,0.55,7.419,0.55c2.619,0,6.534-0.283,10.274-2.73
		c0.159-0.104,0.315-0.211,0.468-0.32c4.836-3.439,6.572-8.508,8.498-15.294c0.231-0.816,0.533-1.878,0.849-2.879
		c0.894,0.466,1.813,0.978,2.522,1.373c5.191,2.888,9.475,5.057,14.336,5.057c1.081,0,2.158-0.11,3.201-0.326
		c0.209-0.043,0.418-0.091,0.625-0.143c5.563-1.41,9.009-5.328,13.27-10.71c0.566-0.715,1.316-1.662,2.043-2.517
		c0.727,0.856,1.479,1.804,2.045,2.519c4.258,5.378,7.703,9.296,13.271,10.709c0.273,0.069,0.549,0.131,0.828,0.184
		c0.973,0.188,1.977,0.283,2.982,0.283c4.869,0,9.195-2.191,14.344-5.055c0.711-0.395,1.631-0.908,2.525-1.374
		c0.318,1.001,0.619,2.062,0.85,2.876c1.926,6.789,3.662,11.86,8.502,15.3c0.156,0.111,0.313,0.218,0.473,0.322
		c3.738,2.444,7.648,2.727,10.264,2.727c2.621,0,5.473-0.326,7.357-0.543c1.063-0.123,2.076-0.239,3.002-0.318
		c-0.088,1.034-0.213,2.117-0.309,2.948c-0.824,7.141-1.15,12.591,2.18,17.682c0.104,0.159,0.211,0.315,0.32,0.47
		c3.434,4.831,8.494,6.567,15.27,8.492c0.828,0.235,1.898,0.539,2.904,0.856c-0.465,0.894-0.979,1.813-1.371,2.521
		c-3.547,6.382-5.957,11.349-4.76,17.406c0.051,0.251,0.105,0.5,0.168,0.747c1.406,5.566,5.324,9.013,10.705,13.274
		c0.717,0.568,1.668,1.321,2.523,2.05c-0.855,0.726-1.803,1.477-2.518,2.044c-5.391,4.27-9.303,7.714-10.711,13.277
		c-0.064,0.252-0.121,0.505-0.17,0.759C177.822,120.474,180.232,125.441,183.769,131.799"/>
</g>
<rect x="73.535" y="133.985" fill="#D3C5C1" width="11.893" height="16.397"/>
<rect x="96.273" y="133.985" fill="#F6E9E5" width="11.895" height="16.397"/>
<path fill="#3E3E3D" d="M79.355,152.51c0.504,0,0.912,0.408,0.912,0.91v2.277h9.566c0-5.715-4.635-10.35-10.351-10.35
	c-5.716,0-10.35,4.635-10.35,10.35h9.313v-2.277C78.445,152.918,78.853,152.51,79.355,152.51"/>
<path fill="#3E3E3D" d="M102.091,152.51c0.506,0,0.914,0.408,0.914,0.91v2.277h9.564c0-5.715-4.637-10.35-10.354-10.35
	c-5.715,0-10.351,4.635-10.351,10.35h9.315v-2.277C101.181,152.918,101.589,152.51,102.091,152.51"/>
<path fill="#D3C5C1" d="M90.851,123.979c17.233,0,31.765-8.735,36.407-20.702c-4.643-16-19.174-24.744-36.407-24.744
	c-17.234,0-31.766,8.744-36.407,24.744C59.085,115.242,73.617,123.979,90.851,123.979"/>
<path fill="#F6E9E5" d="M109.837,125.797c0.773-3.434,5.028-4.268,6.432-7.271c1.393-2.996,9.639-6.621,12.49-2.854
	c0.016-0.33,0.066-0.648,0.066-0.982c0-4.141-0.563-7.939-1.568-11.412c-4.643,11.965-19.174,20.702-36.407,20.702v19.595
	c10.312,0,19.651-3.138,26.493-8.212c-1.949-0.315-3.92-1.147-5.64-2.899C111.704,132.463,109.064,129.23,109.837,125.797"/>
<path fill="#3E3E3D" d="M128.759,115.67c-2.853-3.766-11.099-0.141-12.49,2.855c-1.402,3.004-5.657,3.838-6.432,7.271
	c-0.773,3.434,1.866,6.664,1.866,6.664c1.72,1.752,3.688,2.584,5.64,2.899C124.132,130.33,128.419,123.385,128.759,115.67"/>
<path fill="#3E3E3D" d="M35.611,37.764c-4.645,5.369,3.371,23.166,16.421,23.166h17.43c0,0-5.994-23.166-19.042-23.166
	C37.368,37.764,38.032,34.963,35.611,37.764"/>
<path fill="#D96E7B" d="M41.609,41.868c-2.998,3.466,2.178,14.957,10.6,14.957h11.254c0,0-3.87-14.957-12.294-14.957
	C42.744,41.868,43.172,40.06,41.609,41.868"/>
<path fill="#3E3E3D" d="M146.089,37.764c4.646,5.369-3.371,23.166-16.422,23.166h-17.431c0,0,5.996-23.166,19.044-23.166
	S143.667,34.963,146.089,37.764"/>
<path fill="#D96E7B" d="M140.091,41.868c2.998,3.466-2.179,14.957-10.601,14.957h-11.254c0,0,3.871-14.957,12.295-14.957
	S138.528,40.06,140.091,41.868"/>
<path fill="#D3C5C1" d="M56.18,63.228c0,0.525,0.03,1.007,0.044,1.509c0.045,1.42,0.161,2.738,0.309,4.02
	c0.609,5.351,1.968,9.815,3.055,15.668c0.525,2.826,1.807,8.44,1.807,8.44c0.019,0.147,0.059,0.29,0.08,0.437
	c0.927,6.046,4.35,11.699,9.345,15.927c5.27,4.457,12.291,7.323,20.032,7.323V31.95C70.696,31.95,56.18,45.954,56.18,63.228"/>
<path fill="#F6E9E5" d="M90.646,31.949v84.602c7.742,0,14.762-2.866,20.031-7.323c4.996-4.228,8.418-9.881,9.346-15.925
	c0.021-0.148,0.061-0.29,0.08-0.438c0,0,1.281-5.613,1.807-8.439c1.088-5.854,2.446-10.318,3.057-15.667
	c0.146-1.284,0.262-2.602,0.307-4.022c0.015-0.502,0.045-0.983,0.045-1.509C125.317,45.953,110.802,31.949,90.646,31.949"/>
<path fill="#F09EA1" d="M119.396,99.974c0,10.313-12.779,18.677-28.545,18.677c-15.768,0-28.547-8.361-28.547-18.677
	s12.779-18.678,28.547-18.678C106.616,81.294,119.396,89.658,119.396,99.974"/>
<path fill="#D96E7B" d="M77.916,97.088c0,2.265-1.835,4.101-4.101,4.101c-2.261,0-4.097-1.836-4.097-4.101
	c0-2.266,1.836-4.1,4.097-4.1C76.081,92.988,77.916,94.822,77.916,97.088"/>
<path fill="#D96E7B" d="M112.08,97.088c0,2.265-1.835,4.101-4.101,4.101c-2.265,0-4.101-1.836-4.101-4.101
	c0-2.266,1.836-4.1,4.101-4.1C110.245,92.988,112.08,94.822,112.08,97.088"/>
<path fill="#D3C5C1" d="M90.355,29.355c0,0,25.688-0.338,24.688,15.331c0,0-2.811-7.501-5.904-7.666s0,0,0,0s2.595,4.747,0,7.666
	c0,0-2.332-6.751-4.463-7.666c0,0,1.844,4.247-0.645,7.666c0,0-2.074-7.251-4.781-7.666c0,0,1.043,5.247-1.707,7.666
	c0,0,0.688-5.501-3.25-7.666c0,0,0.938,5.247-1.5,7.666c0,0,0.816-4.751-2.466-7.666c-3.284-2.915,0,0,0,0L90.355,29.355z"/>
<path fill="#D3C5C1" d="M90.646,29.355c0,0-25.688-0.338-24.688,15.331c0,0,2.81-7.501,5.905-7.666s0,0,0,0s-2.595,4.747,0,7.666
	c0,0,2.331-6.751,4.463-7.666c0,0-1.845,4.247,0.643,7.666c0,0,2.074-7.251,4.781-7.666c0,0-1.042,5.247,1.708,7.666
	c0,0-0.689-5.501,3.25-7.666c0,0-0.939,5.247,1.5,7.666c0,0-0.817-4.751,2.466-7.666c3.283-2.915,0,0,0,0L90.646,29.355z"/>
<path fill="#3E3E3D" d="M119.243,45.195c0,0-5.926,6.16-11.565,6.91c-5.641,0.75-12.082,3.25-11.611,12.5
	s9.301,14.234,18.221,13.927c8.92-0.307,10.676-9.776,10.676-9.776S127.452,55.626,119.243,45.195"/>
<path fill="#3E3E3D" d="M62.25,45.195c0,0,5.926,6.16,11.566,6.91c5.641,0.75,12.082,3.25,11.612,12.5
	c-0.471,9.25-9.301,14.234-18.221,13.927c-8.92-0.307-10.675-9.776-10.675-9.776S54.041,55.626,62.25,45.195"/>
<path fill="#F3F0F2" d="M114.927,63.075c0,3.578-2.9,6.478-6.479,6.478s-6.479-2.9-6.479-6.478c0-3.579,2.9-6.48,6.479-6.48
	S114.927,59.496,114.927,63.075"/>
<path fill="#3E3E3D" d="M113.003,63.075c0,2.515-2.039,4.554-4.557,4.554c-2.516,0-4.555-2.039-4.555-4.554
	c0-2.518,2.039-4.556,4.555-4.556C110.964,58.519,113.003,60.557,113.003,63.075"/>
<path fill="#D3C5C1" d="M81.75,63.075c0,3.578-2.899,6.478-6.479,6.478c-3.578,0-6.477-2.9-6.477-6.478
	c0-3.579,2.899-6.48,6.477-6.48C78.851,56.594,81.75,59.496,81.75,63.075"/>
<path fill="#3E3E3D" d="M79.825,63.075c0,2.515-2.04,4.554-4.555,4.554c-2.516,0-4.554-2.039-4.554-4.554
	c0-2.518,2.038-4.556,4.554-4.556C77.785,58.519,79.825,60.557,79.825,63.075"/>
<path fill="#FFFFFF" d="M78.641,61.708c0,0.923-0.748,1.671-1.672,1.671s-1.673-0.748-1.673-1.671s0.749-1.671,1.673-1.671
	S78.641,60.785,78.641,61.708"/>
<path fill="#FFFFFF" d="M111.511,61.708c0,0.923-0.75,1.671-1.672,1.671c-0.925,0-1.672-0.748-1.672-1.671s0.747-1.671,1.672-1.671
	C110.761,60.037,111.511,60.785,111.511,61.708"/>
<path fill="#D3C5C1" d="M90.851,123.979c-17.234,0-31.766-8.735-36.407-20.702c-1.007,3.473-1.57,7.271-1.57,11.411
	c0,0.334,0.019,0.664,0.034,0.995c0.04-0.096,1.041-2.404,3.272-1.623c2.277,0.797,1.277,3.963,3.61,6.13s5.684-2.334,9.342,0
	c3.658,2.334,4.51,9.168,1.584,11.834c-1.656,1.511-4.049,2.804-6.971,2.89c6.891,5.342,16.487,8.66,27.106,8.66V123.979z"/>
<path fill="#3E3E3D" d="M70.716,132.023c2.926-2.666,2.074-9.5-1.584-11.834c-3.658-2.334-7.009,2.167-9.342,0
	s-1.333-5.333-3.61-6.13c-2.232-0.781-3.233,1.528-3.273,1.623c0.333,7.481,4.402,14.237,10.837,19.229
	C66.667,134.826,69.06,133.533,70.716,132.023"/>
<path fill="#3E3E3D" d="M70.716,136.357c1.337,1.93,6.051,2.063,9.109-0.059c3.059-2.118,4.182-7.355,2.534-9.027
	c-3.483-3.532-3.535,1.718-6.592,3.837C72.707,133.229,69.378,134.426,70.716,136.357"/>
<path fill="#F09EA1" d="M161.611,118.479c0,0-20.146,5.748-23.273-3.174c-3.12-8.904-3.17-13.903-3.17-13.903
	s17.397-1.005,21.634,7.466C161.04,117.338,161.611,118.479,161.611,118.479"/>
<path fill="#D96E7B" d="M156.944,115.893c0,0-14.642,3.943-15.946-2.012c-1.435-6.543-1.11-8.654-1.11-8.654
	s11.218-1.008,13.953,4.461C156.577,115.154,156.944,115.893,156.944,115.893"/>
<path fill="#CC797F" d="M85.281,117.065c0,0,19.377,7.885,23.488-0.646c4.1-8.513,4.711-13.478,4.711-13.478
	s-17.18-2.874-22.342,5.088C85.976,115.992,85.281,117.065,85.281,117.065"/>
<path fill="#D96E7B" d="M89.855,114.705c0,0,14.163,5.367,16.072-0.43c2.098-6.369,1.992-8.502,1.992-8.502
	s-11.058-2.106-14.341,3.064C90.296,114.008,89.855,114.705,89.855,114.705"/>
<rect x="112.638" y="149.592" fill="#D87C82" width="8.246" height="11.142"/>
<rect x="128.4" y="149.592" fill="#F09EA1" width="8.246" height="11.142"/>
<path fill="#67625F" d="M116.674,162.178c0.349,0,0.632,0.276,0.632,0.62v1.546h6.631c0-3.884-3.215-7.032-7.176-7.032
	c-3.962,0-7.177,3.148-7.177,7.032h6.458v-1.546C116.042,162.454,116.324,162.178,116.674,162.178"/>
<path fill="#67625F" d="M132.437,162.178c0.349,0,0.633,0.276,0.633,0.62v1.546h6.631c0-3.884-3.211-7.032-7.179-7.032
	c-3.958,0-7.173,3.148-7.173,7.032h6.457v-1.546C131.805,162.454,132.086,162.178,132.437,162.178"/>
<path fill="#D87C82" d="M103.387,134.717c-0.055,0.609-0.093,1.226-0.093,1.851c0,11.692,9.564,21.173,21.366,21.173v-10.256
	C115.128,147.484,106.948,142.227,103.387,134.717"/>
<path fill="#D87C82" d="M124.661,147.484v-32.09c-11.169,0-20.327,8.496-21.274,19.322
	C106.948,142.227,115.128,147.484,124.661,147.484"/>
<path fill="#D87C82" d="M124.661,115.395v32.09c9.534,0,17.715-5.258,21.276-12.768C144.99,123.89,135.833,115.395,124.661,115.395"
	/>
<path fill="#F09EA1" d="M146.031,136.567c0-0.625,0-2.745-0.905-6.073c-3.028,12.002-10.932,16.99-20.465,16.99v10.254
	C136.464,157.738,146.031,148.26,146.031,136.567"/>
<path fill="#F09EA1" d="M143.588,139.493c2.003,1.656,5.325,1.979,7.687,0.908c1.396-0.631,4.796-3.413,1.728-4.273
	c-1.664-0.466-3.248,0.609-3.064,2.295c0.258,2.374,2.751,3.543,4.917,3.434c0.771-0.039,2.488-1.248,0.937-1.17
	c-1.892,0.095-3.77-1.515-3.541-3.477c0.016-0.068,0.036-0.137,0.055-0.207c-1.082-0.003-1.204,0.247-0.367,0.751
	c0.275,0.639-1.081,1.535-1.449,1.773c-1.327,0.854-3.636,0.02-4.731-0.888C145.176,138.162,143.037,139.037,143.588,139.493"/>
<path fill="#F09EA1" d="M146.587,115.684c-0.352-1.525-2.552-4.512-2.552-4.512c-1.621-7.231-9.477-12.816-19.667-12.816
	l-0.002,45.151c13.458,0.002,23.152-6.954,23.152-16.301C147.521,122.775,147.548,119.882,146.587,115.684"/>
<path fill="#D87C82" d="M103.507,115.734c0.349-1.526,1.203-4.564,1.203-4.564c1.623-7.229,9.48-12.814,19.672-12.814l-0.002,45.151
	c-13.458,0-23.15-6.955-23.15-16.302C101.23,122.773,102.544,119.934,103.507,115.734"/>
<path fill="#3E3E3D" d="M112.626,116.889c0,1.23-1.018,2.229-2.275,2.229c-1.256,0-2.272-0.999-2.272-2.229s1.017-2.229,2.272-2.229
	C111.609,114.66,112.626,115.658,112.626,116.889"/>
<path fill="#3E3E3D" d="M139.939,116.889c0,1.23-1.017,2.229-2.271,2.229c-1.259,0-2.274-0.999-2.274-2.229s1.016-2.229,2.274-2.229
	C138.922,114.66,139.939,115.658,139.939,116.889"/>
<path fill="#FFFFFF" d="M111.919,116.309c0,0.463-0.383,0.84-0.857,0.84c-0.474,0-0.858-0.377-0.858-0.84
	c0-0.467,0.385-0.842,0.858-0.842C111.537,115.467,111.919,115.842,111.919,116.309"/>
<path fill="#FFFFFF" d="M139.384,116.309c0,0.463-0.386,0.84-0.859,0.84s-0.86-0.377-0.86-0.84c0-0.467,0.387-0.842,0.86-0.842
	S139.384,115.842,139.384,116.309"/>
<ellipse fill="#D87C82" stroke="#EF9EA2" stroke-width="3" stroke-miterlimit="10" cx="124.9" cy="131.13" rx="10.493" ry="7.175"/>
<path fill="#3E3E3D" d="M122.294,130.052c0,1.116-0.924,2.022-2.064,2.022s-2.063-0.906-2.063-2.022s0.922-2.021,2.063-2.021
	S122.294,128.936,122.294,130.052"/>
<path fill="#3E3E3D" d="M131.788,130.052c0,1.116-0.924,2.022-2.063,2.022c-1.14,0-2.064-0.906-2.064-2.022s0.925-2.021,2.064-2.021
	C130.864,128.03,131.788,128.936,131.788,130.052"/>
</svg>
