<?xml version="1.0" encoding="utf-8"?>
<!-- Generator: Adobe Illustrator 15.0.0, SVG Export Plug-In  -->
<!DOCTYPE svg PUBLIC "-//W3C//DTD SVG 1.1//EN" "http://www.w3.org/Graphics/SVG/1.1/DTD/svg11.dtd" [
	<!ENTITY ns_flows "http://ns.adobe.com/Flows/1.0/">
]>
<svg version="1.1"
	 xmlns="http://www.w3.org/2000/svg" xmlns:xlink="http://www.w3.org/1999/xlink" xmlns:a="http://ns.adobe.com/AdobeSVGViewerExtensions/3.0/"
	 x="0px" y="0px" width="200px" height="200px" viewBox="0 0 200 200" enable-background="new 0 0 200 200" xml:space="preserve">
<defs>
</defs>
<path fill="#FFFFFF" d="M188.1,110.402c4.021-3.187,8.582-6.797,8.582-12.063c0-5.265-4.562-8.876-8.582-12.063
	c-1.652-1.309-4.73-3.744-4.996-4.8c-0.224-1.126,1.771-4.71,2.842-6.636c2.455-4.409,5.236-9.405,3.271-14.145
	c-1.995-4.812-7.557-6.389-12.461-7.78c-2.067-0.588-5.92-1.68-6.562-2.582c-0.612-0.936-0.147-4.963,0.101-7.124
	c0.582-5.04,1.238-10.751-2.416-14.406c-3.653-3.655-9.366-2.998-14.403-2.417c-2.162,0.248-6.189,0.713-7.123,0.101
	c-0.906-0.642-1.998-4.493-2.584-6.562c-1.394-4.905-2.97-10.465-7.781-12.459c-4.74-1.965-9.736,0.815-14.146,3.269
	c-1.928,1.071-5.521,3.058-6.631,2.844c-1.062-0.269-3.498-3.345-4.808-4.997C107.218,4.56,103.607,0,98.341,0
	c-5.266,0-8.877,4.559-12.063,8.583c-1.308,1.652-3.745,4.728-4.8,4.995c-1.131,0.235-4.711-1.771-6.635-2.842
	c-4.41-2.455-9.41-5.237-14.146-3.27c-4.812,1.995-6.388,7.554-7.78,12.46c-0.587,2.068-1.679,5.918-2.582,6.56
	c-0.936,0.613-4.962,0.149-7.125-0.1c-5.037-0.579-10.75-1.238-14.405,2.417c-3.655,3.655-2.997,9.366-2.417,14.405
	c0.249,2.162,0.713,6.188,0.101,7.123c-0.643,0.905-4.493,1.997-6.562,2.584c-4.905,1.392-10.465,2.968-12.459,7.779
	c-1.967,4.741,0.815,9.738,3.268,14.147c1.072,1.926,3.067,5.51,2.845,6.63c-0.268,1.062-3.345,3.497-4.997,4.806
	C4.56,89.464,0,93.075,0,98.34c0,5.266,4.56,8.877,8.583,12.063c1.652,1.312,4.729,3.746,4.995,4.803
	c0.224,1.126-1.771,4.71-2.843,6.636c-2.454,4.408-5.235,9.405-3.269,14.146c1.995,4.812,7.555,6.39,12.46,7.779
	c2.069,0.586,5.918,1.68,6.56,2.582c0.613,0.938,0.149,4.963-0.1,7.125c-0.581,5.039-1.238,10.752,2.417,14.405
	c3.656,3.656,9.366,2.998,14.405,2.418c2.163-0.25,6.188-0.713,7.123-0.103c0.905,0.643,1.997,4.492,2.584,6.562
	c1.391,4.906,2.968,10.466,7.78,12.461c4.741,1.966,9.735-0.815,14.146-3.271c1.926-1.07,5.502-3.071,6.631-2.844
	c1.06,0.269,3.496,3.344,4.806,4.996c3.187,4.022,6.798,8.582,12.063,8.582c5.267,0,8.877-4.56,12.063-8.582
	c1.309-1.652,3.746-4.729,4.801-4.996c1.129-0.218,4.709,1.772,6.635,2.844c4.408,2.455,9.406,5.236,14.146,3.271
	c4.811-1.995,6.389-7.555,7.779-12.46c0.588-2.068,1.68-5.918,2.582-6.561c0.938-0.613,4.963-0.149,7.127,0.101
	c5.039,0.583,10.748,1.238,14.401-2.417c3.656-3.654,2.998-9.365,2.418-14.404c-0.25-2.162-0.713-6.188-0.103-7.123
	c0.644-0.906,4.494-1.998,6.563-2.584c4.904-1.393,10.466-2.969,12.461-7.781c1.966-4.738-0.815-9.734-3.271-14.145
	c-1.071-1.926-3.067-5.51-2.846-6.631C183.369,114.148,186.447,111.713,188.1,110.402 M183.77,131.799
	c0.397,0.719,0.914,1.643,1.381,2.539c-0.998,0.314-2.06,0.618-2.873,0.848c-6.791,1.926-11.863,3.662-15.303,8.504
	c-0.111,0.156-0.22,0.313-0.324,0.474c-3.322,5.085-2.998,10.528-2.176,17.667c0.096,0.837,0.221,1.923,0.309,2.959
	c-0.936-0.081-1.941-0.198-2.932-0.313c-2.437-0.281-4.986-0.551-7.42-0.551c-2.621,0-6.539,0.284-10.283,2.734
	c-0.154,0.102-0.308,0.206-0.459,0.313c-4.842,3.442-6.578,8.514-8.504,15.303c-0.23,0.814-0.531,1.875-0.849,2.875
	c-0.896-0.465-1.813-0.977-2.522-1.371c-5.14-2.862-9.463-5.057-14.347-5.057c-1.018,0-2.03,0.098-3.014,0.287
	c-0.267,0.053-0.527,0.112-0.791,0.178c-5.563,1.404-9.011,5.319-13.27,10.699c-0.572,0.721-1.326,1.672-2.053,2.528
	c-0.727-0.854-1.476-1.802-2.041-2.515c-4.272-5.393-7.719-9.307-13.287-10.715c-0.227-0.058-0.457-0.108-0.686-0.156
	c-1.02-0.205-2.072-0.311-3.127-0.311c-4.868,0-9.166,2.18-14.28,5.028c-0.738,0.409-1.674,0.931-2.578,1.401
	c-0.316-1-0.617-2.063-0.848-2.879c-1.925-6.791-3.664-11.867-8.518-15.309c-0.15-0.105-0.303-0.21-0.458-0.313
	c-3.738-2.442-7.649-2.726-10.266-2.726c-2.438,0-4.995,0.271-7.405,0.548c-1.034,0.119-2.033,0.235-2.951,0.313
	c0.088-1.034,0.213-2.117,0.309-2.948c0.824-7.146,1.15-12.596-2.184-17.689c-0.101-0.152-0.206-0.307-0.313-0.459
	c-3.44-4.84-8.511-6.578-15.299-8.504c-0.816-0.23-1.878-0.531-2.878-0.848c0.465-0.895,0.977-1.814,1.371-2.521
	c3.551-6.388,5.96-11.354,4.758-17.414c-0.049-0.248-0.104-0.494-0.167-0.74c-1.405-5.563-5.319-9.008-10.695-13.267
	c-0.722-0.571-1.675-1.326-2.532-2.055c0.855-0.728,1.803-1.479,2.519-2.044c5.383-4.264,9.301-7.711,10.709-13.28
	c0.064-0.249,0.12-0.501,0.17-0.754c1.196-6.054-1.216-11.024-4.755-17.385c-0.397-0.714-0.911-1.638-1.378-2.534
	c1-0.317,2.062-0.618,2.876-0.849c6.793-1.926,11.864-3.664,15.303-8.506c0.11-0.154,0.217-0.312,0.32-0.47
	c3.326-5.09,3-10.537,2.176-17.678c-0.096-0.83-0.22-1.912-0.309-2.945c0.916,0.078,1.912,0.191,2.939,0.309
	c2.43,0.28,4.984,0.55,7.419,0.55c2.619,0,6.534-0.283,10.274-2.73c0.159-0.104,0.315-0.211,0.468-0.32
	c4.836-3.439,6.572-8.508,8.498-15.294c0.231-0.816,0.533-1.878,0.849-2.879c0.894,0.466,1.813,0.978,2.522,1.373
	c5.191,2.888,9.475,5.057,14.336,5.057c1.081,0,2.158-0.11,3.201-0.326c0.209-0.043,0.418-0.091,0.625-0.143
	c5.563-1.41,9.009-5.328,13.27-10.71c0.566-0.715,1.316-1.662,2.043-2.517c0.727,0.856,1.479,1.804,2.045,2.519
	c4.258,5.378,7.703,9.296,13.271,10.709c0.273,0.069,0.549,0.131,0.828,0.184c0.973,0.188,1.977,0.283,2.981,0.283
	c4.869,0,9.195-2.191,14.345-5.055c0.711-0.395,1.631-0.908,2.524-1.374c0.317,1.001,0.619,2.062,0.851,2.876
	c1.926,6.789,3.662,11.86,8.502,15.3c0.155,0.111,0.313,0.218,0.473,0.322c3.738,2.444,7.648,2.727,10.264,2.727
	c2.621,0,5.473-0.326,7.357-0.543c1.063-0.123,2.076-0.239,3.002-0.318c-0.088,1.034-0.213,2.117-0.309,2.948
	c-0.824,7.141-1.15,12.591,2.18,17.682c0.104,0.159,0.211,0.315,0.32,0.47c3.434,4.831,8.493,6.567,15.27,8.492
	c0.828,0.235,1.898,0.539,2.904,0.856c-0.465,0.894-0.979,1.813-1.371,2.521c-3.547,6.382-5.957,11.349-4.76,17.406
	c0.051,0.251,0.104,0.5,0.168,0.747c1.405,5.566,5.323,9.013,10.705,13.274c0.717,0.568,1.668,1.321,2.522,2.05
	c-0.854,0.726-1.804,1.477-2.519,2.044c-5.391,4.27-9.303,7.715-10.711,13.277c-0.063,0.252-0.121,0.505-0.17,0.759
	C177.822,120.475,180.232,125.441,183.77,131.799"/>
<rect id="SVGID_3_" display="none" fill="#FFFFFF" width="196.682" height="196.68"/>
<g display="none">
	<defs>
		<rect id="SVGID_2_" width="196.682" height="196.68"/>
	</defs>
	<clipPath id="SVGID_4_" display="inline">
		<use xlink:href="#SVGID_2_"  display="none" overflow="visible"/>
	</clipPath>
	<path clip-path="url(#SVGID_4_)" fill="#FFFFFF" d="M188.1,110.402c4.021-3.187,8.582-6.797,8.582-12.063
		c0-5.265-4.562-8.876-8.582-12.063c-1.652-1.309-4.73-3.744-4.996-4.8c-0.224-1.126,1.771-4.71,2.842-6.636
		c2.455-4.409,5.236-9.405,3.271-14.145c-1.995-4.812-7.557-6.389-12.461-7.78c-2.067-0.588-5.92-1.68-6.562-2.582
		c-0.612-0.936-0.147-4.963,0.101-7.124c0.582-5.04,1.238-10.751-2.416-14.406c-3.653-3.655-9.366-2.998-14.403-2.417
		c-2.162,0.248-6.189,0.713-7.123,0.101c-0.906-0.642-1.998-4.493-2.584-6.562c-1.394-4.905-2.97-10.465-7.781-12.459
		c-4.74-1.965-9.736,0.815-14.146,3.269c-1.928,1.071-5.521,3.058-6.631,2.844c-1.062-0.269-3.498-3.345-4.808-4.997
		C107.218,4.56,103.607,0,98.341,0c-5.266,0-8.877,4.559-12.063,8.583c-1.308,1.652-3.745,4.728-4.8,4.995
		c-1.131,0.235-4.711-1.771-6.635-2.842c-4.41-2.455-9.41-5.237-14.146-3.27c-4.812,1.995-6.388,7.554-7.78,12.46
		c-0.587,2.068-1.679,5.918-2.582,6.56c-0.936,0.613-4.962,0.149-7.125-0.1c-5.037-0.579-10.75-1.238-14.405,2.417
		c-3.655,3.655-2.997,9.366-2.417,14.405c0.249,2.162,0.713,6.188,0.101,7.123c-0.643,0.905-4.493,1.997-6.562,2.584
		c-4.905,1.392-10.465,2.968-12.459,7.779c-1.967,4.741,0.815,9.738,3.268,14.147c1.072,1.926,3.067,5.51,2.845,6.63
		c-0.268,1.062-3.345,3.497-4.997,4.806C4.56,89.464,0,93.075,0,98.34c0,5.266,4.56,8.877,8.583,12.063
		c1.652,1.312,4.729,3.746,4.995,4.803c0.224,1.126-1.771,4.71-2.843,6.636c-2.454,4.408-5.235,9.405-3.269,14.146
		c1.995,4.812,7.555,6.39,12.46,7.779c2.069,0.586,5.918,1.68,6.56,2.582c0.613,0.938,0.149,4.963-0.1,7.125
		c-0.581,5.039-1.238,10.752,2.417,14.405c3.656,3.656,9.366,2.998,14.405,2.418c2.163-0.25,6.188-0.713,7.123-0.103
		c0.905,0.643,1.997,4.492,2.584,6.562c1.391,4.906,2.968,10.466,7.78,12.461c4.741,1.966,9.735-0.815,14.146-3.271
		c1.926-1.07,5.502-3.071,6.631-2.844c1.06,0.269,3.496,3.344,4.806,4.996c3.187,4.022,6.798,8.582,12.063,8.582
		c5.267,0,8.877-4.56,12.063-8.582c1.309-1.652,3.746-4.729,4.801-4.996c1.129-0.218,4.709,1.772,6.635,2.844
		c4.408,2.455,9.406,5.236,14.146,3.271c4.811-1.995,6.389-7.555,7.779-12.46c0.588-2.068,1.68-5.918,2.582-6.561
		c0.938-0.613,4.963-0.149,7.127,0.101c5.039,0.583,10.748,1.238,14.401-2.417c3.656-3.654,2.998-9.365,2.418-14.404
		c-0.25-2.162-0.713-6.188-0.103-7.123c0.644-0.906,4.494-1.998,6.563-2.584c4.904-1.393,10.466-2.969,12.461-7.781
		c1.966-4.738-0.815-9.734-3.271-14.145c-1.071-1.926-3.067-5.51-2.846-6.631C183.369,114.148,186.447,111.713,188.1,110.402
		 M183.77,131.799c0.397,0.719,0.914,1.643,1.381,2.539c-0.998,0.314-2.06,0.618-2.873,0.848
		c-6.791,1.926-11.863,3.662-15.303,8.504c-0.111,0.156-0.22,0.313-0.324,0.474c-3.322,5.085-2.998,10.528-2.176,17.667
		c0.096,0.837,0.221,1.923,0.309,2.959c-0.936-0.081-1.941-0.198-2.932-0.313c-2.437-0.281-4.986-0.551-7.42-0.551
		c-2.621,0-6.539,0.284-10.283,2.734c-0.154,0.102-0.308,0.206-0.459,0.313c-4.842,3.442-6.578,8.514-8.504,15.303
		c-0.23,0.814-0.531,1.875-0.849,2.875c-0.896-0.465-1.813-0.977-2.522-1.371c-5.14-2.862-9.463-5.057-14.347-5.057
		c-1.018,0-2.03,0.098-3.014,0.287c-0.267,0.053-0.527,0.112-0.791,0.178c-5.563,1.404-9.011,5.319-13.27,10.699
		c-0.572,0.721-1.326,1.672-2.053,2.528c-0.727-0.854-1.476-1.802-2.041-2.515c-4.272-5.393-7.719-9.307-13.287-10.715
		c-0.227-0.058-0.457-0.108-0.686-0.156c-1.02-0.205-2.072-0.311-3.127-0.311c-4.868,0-9.166,2.18-14.28,5.028
		c-0.738,0.409-1.674,0.931-2.578,1.401c-0.316-1-0.617-2.063-0.848-2.879c-1.925-6.791-3.664-11.867-8.518-15.309
		c-0.15-0.105-0.303-0.21-0.458-0.313c-3.738-2.442-7.649-2.726-10.266-2.726c-2.438,0-4.995,0.271-7.405,0.548
		c-1.034,0.119-2.033,0.235-2.951,0.313c0.088-1.034,0.213-2.117,0.309-2.948c0.824-7.146,1.15-12.596-2.184-17.689
		c-0.101-0.152-0.206-0.307-0.313-0.459c-3.44-4.84-8.511-6.578-15.299-8.504c-0.816-0.23-1.878-0.531-2.878-0.848
		c0.465-0.895,0.977-1.814,1.371-2.521c3.551-6.388,5.96-11.354,4.758-17.414c-0.049-0.248-0.104-0.494-0.167-0.74
		c-1.405-5.563-5.319-9.008-10.695-13.267c-0.722-0.571-1.675-1.326-2.532-2.055c0.855-0.728,1.803-1.479,2.519-2.044
		c5.383-4.264,9.301-7.711,10.709-13.28c0.064-0.249,0.12-0.501,0.17-0.754c1.196-6.054-1.216-11.024-4.755-17.385
		c-0.397-0.714-0.911-1.638-1.378-2.534c1-0.317,2.062-0.618,2.876-0.849c6.793-1.926,11.864-3.664,15.303-8.506
		c0.11-0.154,0.217-0.312,0.32-0.47c3.326-5.09,3-10.537,2.176-17.678c-0.096-0.83-0.22-1.912-0.309-2.945
		c0.916,0.078,1.912,0.191,2.939,0.309c2.43,0.28,4.984,0.55,7.419,0.55c2.619,0,6.534-0.283,10.274-2.73
		c0.159-0.104,0.315-0.211,0.468-0.32c4.836-3.439,6.572-8.508,8.498-15.294c0.231-0.816,0.533-1.878,0.849-2.879
		c0.894,0.466,1.813,0.978,2.522,1.373c5.191,2.888,9.475,5.057,14.336,5.057c1.081,0,2.158-0.11,3.201-0.326
		c0.209-0.043,0.418-0.091,0.625-0.143c5.563-1.41,9.009-5.328,13.27-10.71c0.566-0.715,1.316-1.662,2.043-2.517
		c0.727,0.856,1.479,1.804,2.045,2.519c4.258,5.378,7.703,9.296,13.271,10.709c0.273,0.069,0.549,0.131,0.828,0.184
		c0.973,0.188,1.977,0.283,2.981,0.283c4.869,0,9.195-2.191,14.345-5.055c0.711-0.395,1.631-0.908,2.524-1.374
		c0.317,1.001,0.619,2.062,0.851,2.876c1.926,6.789,3.662,11.86,8.502,15.3c0.155,0.111,0.313,0.218,0.473,0.322
		c3.738,2.444,7.648,2.727,10.264,2.727c2.621,0,5.473-0.326,7.357-0.543c1.063-0.123,2.076-0.239,3.002-0.318
		c-0.088,1.034-0.213,2.117-0.309,2.948c-0.824,7.141-1.15,12.591,2.18,17.682c0.104,0.159,0.211,0.315,0.32,0.47
		c3.434,4.831,8.493,6.567,15.27,8.492c0.828,0.235,1.898,0.539,2.904,0.856c-0.465,0.894-0.979,1.813-1.371,2.521
		c-3.547,6.382-5.957,11.349-4.76,17.406c0.051,0.251,0.104,0.5,0.168,0.747c1.405,5.566,5.323,9.013,10.705,13.274
		c0.717,0.568,1.668,1.321,2.522,2.05c-0.854,0.726-1.804,1.477-2.519,2.044c-5.391,4.27-9.303,7.715-10.711,13.277
		c-0.063,0.252-0.121,0.505-0.17,0.759C177.822,120.475,180.232,125.441,183.77,131.799"/>
</g>
<path fill="#F19EA0" d="M161.357,55.886c0,0-30.374,13.251-37.11-0.377c-6.721-13.602-7.828-21.583-7.828-21.583
	s27.045-5.116,35.428,7.567C160.228,54.177,161.357,55.886,161.357,55.886"/>
<path fill="#D86D7A" d="M153.515,52.693c0,0-22.125,9.259-25.395,0.003c-3.593-10.169-3.521-13.608-3.521-13.608
	s17.365-3.874,22.775,4.315C152.788,51.588,153.515,52.693,153.515,52.693"/>
<path fill="#F19EA0" d="M32.735,56.423c0,0,29.915,14.254,37.102,0.858c7.17-13.37,8.543-21.31,8.543-21.31
	s-26.859-6.013-35.66,6.384C33.92,54.752,32.735,56.423,32.735,56.423"/>
<path fill="#D86D7A" d="M40.679,53.493c0,0,21.803,9.991,25.378,0.849c3.931-10.043,3.973-13.484,3.973-13.484
	s-17.227-4.45-22.906,3.555C41.443,52.413,40.679,53.493,40.679,53.493"/>
<rect x="77.944" y="113.276" fill="#D87C81" width="13.023" height="17.955"/>
<rect x="102.839" y="113.276" fill="#F19EA0" width="13.023" height="17.955"/>
<path fill="#3D3D3C" d="M84.318,133.558c0.551,0,0.999,0.446,0.999,0.998v2.494H95.79c0-6.261-5.078-11.332-11.334-11.332
	c-6.258,0-11.336,5.071-11.336,11.332h10.2v-2.494C83.32,134.004,83.765,133.558,84.318,133.558"/>
<path fill="#3D3D3C" d="M109.214,133.558c0.551,0,1,0.446,1,0.998v2.494h10.474c0-6.261-5.072-11.332-11.339-11.332
	c-6.252,0-11.329,5.071-11.329,11.332h10.198v-2.494C108.216,134.004,108.661,133.558,109.214,133.558"/>
<path fill="#D87C81" d="M59.944,89.304c-0.096,0.983-0.162,1.977-0.162,2.983c0,18.843,16.629,34.119,37.15,34.119V109.88
	C80.36,109.88,66.136,101.407,59.944,89.304"/>
<path fill="#D87C81" d="M96.933,109.88V58.168c-19.441,0-35.383,13.691-37.031,31.136C66.101,101.407,80.341,109.88,96.933,109.88"
	/>
<path fill="#D87C81" d="M95.933,59.168v51.712c16.807,0,31.228-8.474,37.506-20.574C131.769,72.858,115.626,59.168,95.933,59.168"/>
<path fill="#F19EA0" d="M134.699,92.287c0-1.008,0-4.423-1.601-9.787c-5.352,19.343-19.317,27.38-36.166,27.38v16.525
	C117.794,126.406,134.699,111.13,134.699,92.287"/>
<path fill="#F19EA0" d="M130.827,97.002c3.164,2.669,8.41,3.188,12.141,1.464c2.203-1.017,7.574-5.5,2.728-6.887
	c-2.628-0.751-5.13,0.98-4.84,3.697c0.407,3.826,4.346,5.709,7.767,5.533c1.219-0.063,3.93-2.01,1.479-1.883
	c-2.987,0.151-5.954-2.443-5.592-5.604c0.023-0.11,0.057-0.222,0.086-0.333c-1.709-0.006-1.901,0.396-0.58,1.21
	c0.436,1.028-1.707,2.476-2.289,2.856c-2.096,1.377-5.742,0.032-7.473-1.43C133.335,94.858,129.956,96.269,130.827,97.002"/>
<path fill="#F19EA0" d="M134.679,75.838c-0.489,2.645-1.58,6.662-1.58,6.662c-2.276,12.521-21.902,21.972-36.205,21.972V25.204
	c18.885,0,32.486,13.12,32.486,29.306c0,7.673,5.059,9.407,5.059,16.747"/>
<path fill="#3D3D3C" d="M93.114,86.037c0,1.799-1.458,3.259-3.259,3.259c-1.802,0-3.259-1.46-3.259-3.259s1.457-3.257,3.259-3.257
	C91.656,82.781,93.114,84.239,93.114,86.037"/>
<path fill="#3D3D3C" d="M123.042,64.139c0,1.984-1.604,3.593-3.588,3.593c-1.988,0-3.592-1.609-3.592-3.593
	c0-1.982,1.604-3.592,3.592-3.592C121.437,60.547,123.042,62.157,123.042,64.139"/>
<path fill="#FFFFFF" d="M122.044,63.021c0,0.748-0.608,1.354-1.356,1.354s-1.356-0.606-1.356-1.354c0-0.75,0.608-1.356,1.356-1.356
	S122.044,62.271,122.044,63.021"/>
<path fill="#D87C81" d="M59.728,75.838c0.463,2.489,0.415,2.365,1.605,6.662c2.282,12.521,21.969,21.972,36.315,21.972V25.204
	c-18.942,0-32.585,13.121-32.585,29.306c0,7.674-5.074,9.408-5.074,16.746"/>
<path fill="#3D3D3C" d="M77.944,64.139c0,1.983-1.605,3.592-3.594,3.592c-1.982,0-3.588-1.608-3.588-3.592
	c0-1.982,1.604-3.592,3.588-3.592C76.339,60.547,77.944,62.157,77.944,64.139"/>
<path fill="#FFFFFF" d="M77.423,63.021c0,0.748-0.605,1.354-1.355,1.354c-0.748,0-1.355-0.606-1.355-1.354
	c0-0.75,0.607-1.355,1.355-1.355C76.817,61.665,77.423,62.271,77.423,63.021"/>
<path fill="#3D3D3C" d="M91.722,88.015c0,1.799-1.457,3.26-3.258,3.26c-1.799,0-3.258-1.461-3.258-3.26s1.459-3.256,3.258-3.256
	C90.265,84.759,91.722,86.216,91.722,88.015"/>
<path fill="#3D3D3C" d="M110.093,88.015c0,1.799-1.457,3.26-3.258,3.26c-1.8,0-3.259-1.461-3.259-3.26s1.459-3.256,3.259-3.256
	C108.636,84.759,110.093,86.216,110.093,88.015"/>
<ellipse fill="#D87C81" stroke="#F09EA1" stroke-width="2" stroke-miterlimit="10" cx="97.692" cy="88.016" rx="15.979" ry="9.709"/>
<path fill="#3D3D3C" d="M92.722,88.015c0,1.799-1.457,3.26-3.258,3.26c-1.799,0-3.258-1.461-3.258-3.26s1.459-3.256,3.258-3.256
	C91.265,84.759,92.722,86.216,92.722,88.015"/>
<path fill="#3D3D3C" d="M108.093,88.015c0,1.799-1.457,3.26-3.258,3.26c-1.8,0-3.259-1.461-3.259-3.26s1.459-3.256,3.259-3.256
	C106.636,84.759,108.093,86.216,108.093,88.015"/>
<path fill="#B05C2B" d="M164.049,136.383c0,13.424-14.497,24.427-32.381,24.427c-17.885,0-32.383-11.003-32.383-24.427
	c0-13.422,14.498-24.305,32.383-24.305C149.552,112.078,164.049,122.961,164.049,136.383"/>
<path fill="#B7392F" d="M118.94,86.442c1.426-0.481,2.774-0.37,3.999-0.075c1.221,0.315,2.325,0.884,3.247,1.633
	c0.922,0.748,1.651,1.688,2.1,2.747c0.427,1.067,0.604,2.249,0.163,3.524c-1.411-0.479-2.389-0.975-3.284-1.479
	c-0.882-0.503-1.639-1.021-2.342-1.6c-0.706-0.578-1.357-1.216-1.996-1.963C120.188,88.47,119.584,87.632,118.94,86.442"/>
<path fill="#B7392F" d="M131.541,78.816c1.344,0.89,2.178,1.946,2.841,3.042c0.643,1.104,1.065,2.269,1.28,3.478
	c0.21,1.208,0.207,2.464-0.084,3.729c-0.316,1.248-0.879,2.597-2.182,3.572c-0.733-1.313-1.276-2.324-1.707-3.407
	c-0.421-1.067-0.731-2.137-0.918-3.238c-0.187-1.1-0.259-2.232-0.179-3.411C130.692,81.397,130.907,80.18,131.541,78.816"/>
<path fill="#B7392F" d="M136.72,81.404c1.066,1.04,1.598,2.142,1.947,3.249c0.33,1.111,0.431,2.238,0.306,3.364
	c-0.121,1.126-0.47,2.258-1.121,3.336c-0.658,1.035-1.639,2.181-3.218,2.578c-0.19-1.363-0.473-2.313-0.573-3.344
	c-0.11-1.008-0.124-1.995-0.01-2.995c0.113-0.998,0.346-2.005,0.741-3.031C135.206,83.534,135.74,82.498,136.72,81.404"/>
<path fill="#3D3D3C" d="M96.523,113.078c1.759-0.89,3.8-1.287,5.936-1.313c1.066,0.021,2.151,0.157,3.217,0.426
	c1.055,0.284,2.078,0.698,3.026,1.215c0.949,0.519,1.888,1.078,2.736,1.732c0.847,0.655,1.497,1.465,1.919,2.346
	c0.823,1.775,1.112,3.688,0.393,5.669l-0.472,0.132c-1.876-1.227-3.045-2.455-4.178-3.58c-0.553-0.564-0.996-1.146-1.393-1.771
	c-0.387-0.631-0.829-1.252-1.404-1.752c-0.567-0.508-1.206-0.954-1.914-1.325c-0.695-0.39-1.469-0.703-2.293-0.936
	c-1.646-0.506-3.53-0.626-5.393-0.435L96.523,113.078z"/>
<path fill="#3D3D3C" d="M96.038,106.681c1.184-0.795,2.519-1.388,3.981-1.771c1.456-0.385,3.063-0.544,4.688-0.326
	c1.616,0.23,3.194,0.861,4.513,1.748c1.316,0.897,2.375,2.013,3.25,3.18c0.883,1.225,1.581,2.271,2.34,3.424
	c0.716,1.142,1.274,2.359,1.622,3.653c0.34,1.291,0.558,2.633,0.514,4.017c-0.056,1.365-0.207,2.824-1.226,4.116l-0.468-0.142
	c-1.011-2.356-2.387-4.397-3.505-6.585c-0.569-1.086-1.057-2.204-1.45-3.376c-0.382-1.145-0.781-2.423-1.278-3.397
	c-1.043-2.021-2.608-3.757-4.92-4.524c-2.301-0.822-5.217-0.539-7.8,0.356L96.038,106.681z"/>
<path fill="#3D3D3C" d="M108.871,103.277c1.248-0.473,2.67-0.517,4.089-0.241c0.7,0.152,1.394,0.391,2.048,0.7
	c0.641,0.326,1.241,0.72,1.785,1.158c0.546,0.439,1.11,0.879,1.613,1.365c0.496,0.492,0.817,1.073,0.939,1.696
	c0.121,0.619,0.122,1.26-0.048,1.901c-0.152,0.639-0.437,1.281-1.015,1.929l-0.488,0.082c-0.81-0.398-1.365-0.793-1.848-1.181
	c-0.494-0.382-0.873-0.759-1.2-1.125c-0.324-0.368-0.516-0.752-0.61-1.191c-0.091-0.44-0.192-0.895-0.412-1.279
	c-0.216-0.387-0.473-0.756-0.774-1.096c-0.288-0.355-0.629-0.687-1.025-0.98c-0.776-0.608-1.816-1.08-2.972-1.311L108.871,103.277z"
	/>
<path fill="#3D3D3C" d="M131.141,136.616c-0.241-0.006-0.473-0.027-0.705-0.057c-15.172-0.539-23.32-10.938-23.32-10.938
	c-2.231,5.913-2.241,12.566-2.241,12.566c0.352,12.769,12.204,23.023,26.784,23.023v-24.626c-0.114,0.007-0.22,0.03-0.332,0.03
	H131.141L131.141,136.616z"/>
<path fill="#B05C2B" d="M113.187,106.939l-0.009-0.01c0,0,0.001,0.048,0.001,0.123c-0.039,0.438-0.074,0.878-0.074,1.325
	c0,0.136,0.016,0.27,0.019,0.406c-0.104,1.646-0.383,4.218-1.195,6.93c-0.573,1.903-1.406,3.874-2.64,5.644
	c-0.896,1.291-1.604,2.755-2.173,4.265c0,0,8.148,10.397,23.32,10.938h0.004c0.229,0.029,0.461,0.051,0.701,0.056h0.186
	c0.112,0,0.218-0.023,0.332-0.029v-12.828v-31.72C121.962,92.038,114.014,98.589,113.187,106.939"/>
<path fill="#585857" d="M156.306,125.882c0,0-8.691,10.704-24.647,10.704v24.626c14.591,0,26.45-10.271,26.781-23.052
	C158.439,138.16,158.432,131.72,156.306,125.882"/>
<path fill="#EA8231" d="M154.044,121.358c-1.125-1.628-1.923-3.425-2.488-5.181c-0.967-2.998-1.26-5.879-1.353-7.603
	c0-0.066,0.007-0.131,0.007-0.197c0-0.298-0.033-0.589-0.05-0.883c-0.008-0.353-0.003-0.564-0.003-0.564l-0.027,0.037
	c-0.814-8.365-8.766-14.93-18.472-14.93v31.72v12.828c15.956,0,24.647-10.704,24.647-10.704
	C155.725,124.282,154.99,122.725,154.044,121.358"/>
<path fill="#EA585C" d="M138.344,119.921v-0.011c0-3.63-3.729-6.574-6.803-6.574c-3.074,0-6.803,2.945-6.803,6.574
	c0,1.455-0.128,5.271,2.99,5.271c0.919,0,1.731-0.373,2.279-0.948c0.516,0.049,1.034,0.072,1.533,0.072
	c0.5,0,1.018-0.023,1.533-0.072c0.547,0.575,1.36,0.948,2.281,0.948C138.466,125.182,138.344,121.381,138.344,119.921"/>
<path fill="#B7392F" d="M124.062,101.378c-4.56,0-8.256,3.093-8.256,6.907c0,3.818,3.696,6.91,8.256,6.91
	c3.409,0,6.335,0.438,7.597-2.02v-7.6C130.396,103.107,127.472,101.378,124.062,101.378"/>
<path fill="#EA585C" d="M139.273,115.195c4.559,0,8.258-3.092,8.258-6.91c0-3.814-3.699-6.907-8.258-6.907
	c-3.419,0-6.351,1.738-7.605,4.215c-0.003-0.005-0.008-0.012-0.01-0.017v7.6c0.002-0.007,0.007-0.011,0.01-0.018
	C132.923,115.635,135.854,115.195,139.273,115.195"/>
<path fill="#F39E2C" d="M130.205,113.517l-2,1.161c-0.804,0.469-1.059,1.447-0.565,2.177l3.131,4.629
	c0.246,0.366,0.572,0.55,0.897,0.55v-8.868C131.136,113.165,130.608,113.282,130.205,113.517"/>
<path fill="#FADD58" d="M132.564,121.483l3.131-4.629c0.494-0.729,0.239-1.709-0.565-2.177l-1.999-1.161
	c-0.403-0.234-0.933-0.352-1.463-0.352v8.868C131.992,122.033,132.317,121.85,132.564,121.483"/>
<path fill="#4D1815" d="M125.509,108.302c0,1.302-1.201,2.356-2.676,2.356c-1.479,0-2.678-1.055-2.678-2.356
	c0-1.301,1.198-2.355,2.678-2.355C124.308,105.946,125.509,107.001,125.509,108.302"/>
<path fill="#4D1815" d="M142.927,108.302c0,1.302-1.199,2.356-2.676,2.356c-1.478,0-2.677-1.055-2.677-2.356
	c0-1.301,1.199-2.355,2.677-2.355C141.728,105.946,142.927,107.001,142.927,108.302"/>
<path fill="#FFFFFF" d="M124.738,107.367c0,0.445-0.41,0.807-0.915,0.807c-0.506,0-0.914-0.361-0.914-0.807s0.408-0.806,0.914-0.806
	C124.328,106.562,124.738,106.922,124.738,107.367"/>
<path fill="#FFFFFF" d="M142.08,107.367c0,0.445-0.409,0.807-0.915,0.807c-0.505,0-0.914-0.361-0.914-0.807s0.409-0.806,0.914-0.806
	C141.671,106.562,142.08,106.922,142.08,107.367"/>
<path fill="#EA585C" d="M119.387,76.569c2.436,1.177,4.289,2.553,5.988,3.717c0.416,0.29,0.828,0.552,1.181,0.771
	c0.188,0.117,0.344,0.172,0.513,0.273l0.688,0.403c0.99,0.59,2.137,1.445,3.068,2.477c1.915,2.085,2.788,4.688,2.829,7.034
	c0.029,2.374-0.596,4.629-2.113,6.703c-1.572-2.037-2.56-3.912-3.574-5.553c-0.993-1.658-1.916-2.972-2.942-4.107
	c-0.524-0.585-1.098-1.136-1.876-1.886l-0.632-0.616c-0.263-0.245-0.526-0.551-0.732-0.812c-0.442-0.536-0.769-1.075-1.055-1.608
	C119.64,81.224,119.125,79.033,119.387,76.569"/>
</svg>
