<?xml version="1.0" encoding="utf-8"?>
<!-- Generator: Adobe Illustrator 15.0.0, SVG Export Plug-In  -->
<!DOCTYPE svg PUBLIC "-//W3C//DTD SVG 1.1//EN" "http://www.w3.org/Graphics/SVG/1.1/DTD/svg11.dtd" [
	<!ENTITY ns_flows "http://ns.adobe.com/Flows/1.0/">
]>
<svg version="1.1"
	 xmlns="http://www.w3.org/2000/svg" xmlns:xlink="http://www.w3.org/1999/xlink" xmlns:a="http://ns.adobe.com/AdobeSVGViewerExtensions/3.0/"
	 x="0px" y="0px" width="200px" height="200px" viewBox="-2.219 -2.145 200 200" enable-background="new -2.219 -2.145 200 200"
	 xml:space="preserve">
<defs>
</defs>
<path fill="#FFFFFF" d="M188.099,110.402c4.021-3.186,8.582-6.797,8.582-12.063c0-5.265-4.561-8.876-8.582-12.063
	c-1.652-1.309-4.73-3.744-4.996-4.8c-0.223-1.126,1.771-4.71,2.842-6.636c2.455-4.409,5.236-9.405,3.271-14.145
	c-1.996-4.812-7.557-6.389-12.461-7.78c-2.068-0.588-5.92-1.68-6.561-2.582c-0.613-0.936-0.148-4.963,0.1-7.124
	c0.582-5.04,1.238-10.751-2.416-14.406c-3.654-3.655-9.367-2.998-14.404-2.417c-2.162,0.248-6.189,0.713-7.123,0.101
	c-0.906-0.642-1.998-4.493-2.584-6.562c-1.393-4.905-2.969-10.465-7.781-12.459c-4.74-1.965-9.736,0.815-14.145,3.269
	c-1.928,1.071-5.52,3.058-6.631,2.844c-1.061-0.269-3.498-3.345-4.807-4.997C107.218,4.56,103.607,0,98.341,0
	c-5.266,0-8.877,4.559-12.063,8.583c-1.308,1.652-3.745,4.728-4.8,4.995c-1.131,0.235-4.711-1.771-6.635-2.842
	c-4.41-2.455-9.41-5.237-14.146-3.27c-4.812,1.995-6.388,7.554-7.78,12.46c-0.587,2.068-1.679,5.918-2.582,6.56
	c-0.936,0.613-4.962,0.149-7.125-0.1c-5.037-0.579-10.75-1.238-14.405,2.417c-3.655,3.655-2.997,9.366-2.417,14.405
	c0.249,2.162,0.713,6.188,0.101,7.123c-0.643,0.905-4.493,1.997-6.562,2.584c-4.905,1.392-10.465,2.968-12.459,7.779
	c-1.967,4.741,0.815,9.738,3.268,14.147c1.072,1.926,3.067,5.51,2.845,6.63c-0.268,1.062-3.345,3.497-4.997,4.806
	C4.56,89.464,0,93.075,0,98.34c0,5.266,4.56,8.877,8.583,12.063c1.652,1.311,4.729,3.746,4.995,4.802
	c0.224,1.126-1.771,4.71-2.843,6.636c-2.454,4.408-5.235,9.405-3.269,14.145c1.995,4.812,7.555,6.39,12.46,7.78
	c2.069,0.586,5.918,1.68,6.56,2.582c0.613,0.937,0.149,4.962-0.1,7.124c-0.581,5.04-1.238,10.752,2.417,14.406
	c3.656,3.656,9.366,2.998,14.405,2.418c2.163-0.25,6.188-0.713,7.123-0.103c0.905,0.643,1.997,4.493,2.584,6.562
	c1.391,4.906,2.968,10.465,7.78,12.461c4.741,1.966,9.735-0.816,14.146-3.27c1.926-1.071,5.502-3.072,6.631-2.845
	c1.06,0.269,3.496,3.345,4.806,4.997c3.187,4.022,6.798,8.582,12.063,8.582c5.266,0,8.877-4.56,12.063-8.582
	c1.309-1.652,3.746-4.729,4.801-4.996c1.129-0.218,4.709,1.772,6.635,2.844c4.408,2.454,9.406,5.235,14.146,3.27
	c4.811-1.996,6.389-7.555,7.779-12.46c0.588-2.068,1.68-5.918,2.582-6.561c0.938-0.613,4.963-0.149,7.127,0.101
	c5.039,0.583,10.748,1.238,14.402-2.417c3.656-3.654,2.998-9.366,2.418-14.405c-0.25-2.162-0.713-6.188-0.102-7.123
	c0.643-0.905,4.494-1.997,6.563-2.584c4.904-1.392,10.465-2.968,12.461-7.78c1.965-4.739-0.816-9.735-3.27-14.145
	c-1.072-1.926-3.068-5.51-2.846-6.631C183.369,114.148,186.447,111.713,188.099,110.402 M183.769,131.799
	c0.398,0.718,0.914,1.642,1.381,2.539c-0.998,0.315-2.059,0.618-2.873,0.848c-6.791,1.926-11.863,3.662-15.303,8.503
	c-0.111,0.156-0.219,0.313-0.324,0.474c-3.322,5.085-2.998,10.529-2.176,17.667c0.096,0.837,0.221,1.923,0.309,2.959
	c-0.936-0.081-1.941-0.198-2.932-0.313c-2.436-0.281-4.986-0.55-7.42-0.55c-2.621,0-6.539,0.284-10.283,2.734
	c-0.154,0.102-0.307,0.206-0.459,0.313c-4.842,3.442-6.578,8.514-8.504,15.303c-0.23,0.814-0.531,1.875-0.848,2.875
	c-0.895-0.466-1.814-0.977-2.523-1.372c-5.139-2.862-9.463-5.056-14.346-5.056c-1.018,0-2.031,0.097-3.014,0.287
	c-0.266,0.052-0.527,0.112-0.791,0.178c-5.564,1.404-9.01,5.319-13.27,10.698c-0.572,0.721-1.326,1.672-2.053,2.529
	c-0.727-0.854-1.476-1.801-2.041-2.514c-4.272-5.393-7.719-9.308-13.287-10.716c-0.227-0.057-0.457-0.108-0.686-0.156
	c-1.02-0.205-2.072-0.31-3.127-0.31c-4.868,0-9.166,2.18-14.28,5.028c-0.738,0.41-1.674,0.931-2.578,1.401
	c-0.316-1-0.617-2.063-0.848-2.878c-1.925-6.792-3.664-11.867-8.518-15.309c-0.15-0.106-0.303-0.21-0.458-0.313
	c-3.738-2.442-7.649-2.725-10.266-2.725c-2.438,0-4.995,0.271-7.405,0.548c-1.034,0.119-2.033,0.235-2.951,0.313
	c0.088-1.034,0.213-2.117,0.309-2.948c0.824-7.146,1.15-12.596-2.184-17.689c-0.101-0.153-0.206-0.307-0.313-0.459
	c-3.44-4.84-8.511-6.578-15.299-8.504c-0.816-0.231-1.878-0.532-2.878-0.848c0.465-0.895,0.977-1.814,1.371-2.522
	c3.551-6.387,5.96-11.353,4.758-17.414c-0.049-0.248-0.104-0.494-0.167-0.74c-1.405-5.562-5.319-9.007-10.695-13.267
	c-0.722-0.571-1.675-1.326-2.532-2.055c0.855-0.728,1.803-1.479,2.519-2.044c5.383-4.264,9.301-7.711,10.709-13.28
	c0.064-0.249,0.12-0.501,0.17-0.754c1.196-6.054-1.216-11.024-4.755-17.385c-0.397-0.714-0.911-1.638-1.378-2.534
	c1-0.317,2.062-0.618,2.876-0.849c6.793-1.926,11.864-3.664,15.303-8.506c0.11-0.154,0.217-0.312,0.32-0.47
	c3.326-5.09,3-10.537,2.176-17.678c-0.096-0.83-0.22-1.912-0.309-2.945c0.916,0.078,1.912,0.191,2.939,0.309
	c2.43,0.28,4.984,0.55,7.419,0.55c2.619,0,6.534-0.283,10.274-2.73c0.159-0.104,0.315-0.211,0.468-0.32
	c4.836-3.439,6.572-8.508,8.498-15.294c0.231-0.816,0.533-1.878,0.849-2.879c0.894,0.466,1.813,0.978,2.522,1.373
	c5.191,2.888,9.475,5.057,14.336,5.057c1.081,0,2.158-0.11,3.201-0.326c0.209-0.043,0.418-0.091,0.625-0.143
	c5.563-1.41,9.009-5.328,13.27-10.71c0.566-0.715,1.316-1.662,2.043-2.517c0.727,0.856,1.479,1.804,2.045,2.519
	c4.258,5.378,7.703,9.296,13.271,10.709c0.273,0.069,0.549,0.131,0.828,0.184c0.973,0.188,1.977,0.283,2.982,0.283
	c4.869,0,9.195-2.191,14.344-5.055c0.711-0.395,1.631-0.908,2.525-1.374c0.318,1.001,0.619,2.062,0.85,2.876
	c1.926,6.789,3.662,11.86,8.502,15.3c0.156,0.111,0.313,0.218,0.473,0.322c3.738,2.444,7.648,2.727,10.264,2.727
	c2.621,0,5.473-0.326,7.357-0.543c1.063-0.123,2.076-0.239,3.002-0.318c-0.088,1.034-0.213,2.117-0.309,2.948
	c-0.824,7.141-1.15,12.591,2.18,17.682c0.104,0.159,0.211,0.315,0.32,0.47c3.434,4.831,8.494,6.567,15.27,8.492
	c0.828,0.235,1.898,0.539,2.904,0.856c-0.465,0.894-0.979,1.813-1.371,2.521c-3.547,6.382-5.957,11.349-4.76,17.406
	c0.051,0.251,0.105,0.5,0.168,0.747c1.406,5.566,5.324,9.013,10.705,13.274c0.717,0.568,1.668,1.321,2.523,2.05
	c-0.855,0.726-1.803,1.477-2.518,2.044c-5.391,4.27-9.303,7.714-10.711,13.277c-0.064,0.252-0.121,0.505-0.17,0.759
	C177.822,120.474,180.232,125.441,183.769,131.799"/>
<g display="none">
	<defs>
		<rect id="SVGID_1_" x="0" width="196.681" height="196.68"/>
	</defs>
	<use xlink:href="#SVGID_1_"  overflow="visible" fill="#FFFFFF"/>
	<clipPath id="SVGID_2_" display="inline">
		<use xlink:href="#SVGID_1_"  display="none" overflow="visible"/>
	</clipPath>
	<path clip-path="url(#SVGID_2_)" fill="#FFFFFF" d="M188.099,110.402c4.021-3.186,8.582-6.797,8.582-12.063
		c0-5.265-4.561-8.876-8.582-12.063c-1.652-1.309-4.73-3.744-4.996-4.8c-0.223-1.126,1.771-4.71,2.842-6.636
		c2.455-4.409,5.236-9.405,3.271-14.145c-1.996-4.812-7.557-6.389-12.461-7.78c-2.068-0.588-5.92-1.68-6.561-2.582
		c-0.613-0.936-0.148-4.963,0.1-7.124c0.582-5.04,1.238-10.751-2.416-14.406c-3.654-3.655-9.367-2.998-14.404-2.417
		c-2.162,0.248-6.189,0.713-7.123,0.101c-0.906-0.642-1.998-4.493-2.584-6.562c-1.393-4.905-2.969-10.465-7.781-12.459
		c-4.74-1.965-9.736,0.815-14.145,3.269c-1.928,1.071-5.52,3.058-6.631,2.844c-1.061-0.269-3.498-3.345-4.807-4.997
		C107.218,4.56,103.607,0,98.341,0c-5.266,0-8.877,4.559-12.063,8.583c-1.308,1.652-3.745,4.728-4.8,4.995
		c-1.131,0.235-4.711-1.771-6.635-2.842c-4.41-2.455-9.41-5.237-14.146-3.27c-4.812,1.995-6.388,7.554-7.78,12.46
		c-0.587,2.068-1.679,5.918-2.582,6.56c-0.936,0.613-4.962,0.149-7.125-0.1c-5.037-0.579-10.75-1.238-14.405,2.417
		c-3.655,3.655-2.997,9.366-2.417,14.405c0.249,2.162,0.713,6.188,0.101,7.123c-0.643,0.905-4.493,1.997-6.562,2.584
		c-4.905,1.392-10.465,2.968-12.459,7.779c-1.967,4.741,0.815,9.738,3.268,14.147c1.072,1.926,3.067,5.51,2.845,6.63
		c-0.268,1.062-3.345,3.497-4.997,4.806C4.56,89.464,0,93.075,0,98.34c0,5.266,4.56,8.877,8.583,12.063
		c1.652,1.311,4.729,3.746,4.995,4.802c0.224,1.126-1.771,4.71-2.843,6.636c-2.454,4.408-5.235,9.405-3.269,14.145
		c1.995,4.812,7.555,6.39,12.46,7.78c2.069,0.586,5.918,1.68,6.56,2.582c0.613,0.937,0.149,4.962-0.1,7.124
		c-0.581,5.04-1.238,10.752,2.417,14.406c3.656,3.656,9.366,2.998,14.405,2.418c2.163-0.25,6.188-0.713,7.123-0.103
		c0.905,0.643,1.997,4.493,2.584,6.562c1.391,4.906,2.968,10.465,7.78,12.461c4.741,1.966,9.735-0.816,14.146-3.27
		c1.926-1.071,5.502-3.072,6.631-2.845c1.06,0.269,3.496,3.345,4.806,4.997c3.187,4.022,6.798,8.582,12.063,8.582
		c5.266,0,8.877-4.56,12.063-8.582c1.309-1.652,3.746-4.729,4.801-4.996c1.129-0.218,4.709,1.772,6.635,2.844
		c4.408,2.454,9.406,5.235,14.146,3.27c4.811-1.996,6.389-7.555,7.779-12.46c0.588-2.068,1.68-5.918,2.582-6.561
		c0.938-0.613,4.963-0.149,7.127,0.101c5.039,0.583,10.748,1.238,14.402-2.417c3.656-3.654,2.998-9.366,2.418-14.405
		c-0.25-2.162-0.713-6.188-0.102-7.123c0.643-0.905,4.494-1.997,6.563-2.584c4.904-1.392,10.465-2.968,12.461-7.78
		c1.965-4.739-0.816-9.735-3.27-14.145c-1.072-1.926-3.068-5.51-2.846-6.631C183.369,114.148,186.447,111.713,188.099,110.402
		 M183.769,131.799c0.398,0.718,0.914,1.642,1.381,2.539c-0.998,0.315-2.059,0.618-2.873,0.848
		c-6.791,1.926-11.863,3.662-15.303,8.503c-0.111,0.156-0.219,0.313-0.324,0.474c-3.322,5.085-2.998,10.529-2.176,17.667
		c0.096,0.837,0.221,1.923,0.309,2.959c-0.936-0.081-1.941-0.198-2.932-0.313c-2.436-0.281-4.986-0.55-7.42-0.55
		c-2.621,0-6.539,0.284-10.283,2.734c-0.154,0.102-0.307,0.206-0.459,0.313c-4.842,3.442-6.578,8.514-8.504,15.303
		c-0.23,0.814-0.531,1.875-0.848,2.875c-0.895-0.466-1.814-0.977-2.523-1.372c-5.139-2.862-9.463-5.056-14.346-5.056
		c-1.018,0-2.031,0.097-3.014,0.287c-0.266,0.052-0.527,0.112-0.791,0.178c-5.564,1.404-9.01,5.319-13.27,10.698
		c-0.572,0.721-1.326,1.672-2.053,2.529c-0.727-0.854-1.476-1.801-2.041-2.514c-4.272-5.393-7.719-9.308-13.287-10.716
		c-0.227-0.057-0.457-0.108-0.686-0.156c-1.02-0.205-2.072-0.31-3.127-0.31c-4.868,0-9.166,2.18-14.28,5.028
		c-0.738,0.41-1.674,0.931-2.578,1.401c-0.316-1-0.617-2.063-0.848-2.878c-1.925-6.792-3.664-11.867-8.518-15.309
		c-0.15-0.106-0.303-0.21-0.458-0.313c-3.738-2.442-7.649-2.725-10.266-2.725c-2.438,0-4.995,0.271-7.405,0.548
		c-1.034,0.119-2.033,0.235-2.951,0.313c0.088-1.034,0.213-2.117,0.309-2.948c0.824-7.146,1.15-12.596-2.184-17.689
		c-0.101-0.153-0.206-0.307-0.313-0.459c-3.44-4.84-8.511-6.578-15.299-8.504c-0.816-0.231-1.878-0.532-2.878-0.848
		c0.465-0.895,0.977-1.814,1.371-2.522c3.551-6.387,5.96-11.353,4.758-17.414c-0.049-0.248-0.104-0.494-0.167-0.74
		c-1.405-5.562-5.319-9.007-10.695-13.267c-0.722-0.571-1.675-1.326-2.532-2.055c0.855-0.728,1.803-1.479,2.519-2.044
		c5.383-4.264,9.301-7.711,10.709-13.28c0.064-0.249,0.12-0.501,0.17-0.754c1.196-6.054-1.216-11.024-4.755-17.385
		c-0.397-0.714-0.911-1.638-1.378-2.534c1-0.317,2.062-0.618,2.876-0.849c6.793-1.926,11.864-3.664,15.303-8.506
		c0.11-0.154,0.217-0.312,0.32-0.47c3.326-5.09,3-10.537,2.176-17.678c-0.096-0.83-0.22-1.912-0.309-2.945
		c0.916,0.078,1.912,0.191,2.939,0.309c2.43,0.28,4.984,0.55,7.419,0.55c2.619,0,6.534-0.283,10.274-2.73
		c0.159-0.104,0.315-0.211,0.468-0.32c4.836-3.439,6.572-8.508,8.498-15.294c0.231-0.816,0.533-1.878,0.849-2.879
		c0.894,0.466,1.813,0.978,2.522,1.373c5.191,2.888,9.475,5.057,14.336,5.057c1.081,0,2.158-0.11,3.201-0.326
		c0.209-0.043,0.418-0.091,0.625-0.143c5.563-1.41,9.009-5.328,13.27-10.71c0.566-0.715,1.316-1.662,2.043-2.517
		c0.727,0.856,1.479,1.804,2.045,2.519c4.258,5.378,7.703,9.296,13.271,10.709c0.273,0.069,0.549,0.131,0.828,0.184
		c0.973,0.188,1.977,0.283,2.982,0.283c4.869,0,9.195-2.191,14.344-5.055c0.711-0.395,1.631-0.908,2.525-1.374
		c0.318,1.001,0.619,2.062,0.85,2.876c1.926,6.789,3.662,11.86,8.502,15.3c0.156,0.111,0.313,0.218,0.473,0.322
		c3.738,2.444,7.648,2.727,10.264,2.727c2.621,0,5.473-0.326,7.357-0.543c1.063-0.123,2.076-0.239,3.002-0.318
		c-0.088,1.034-0.213,2.117-0.309,2.948c-0.824,7.141-1.15,12.591,2.18,17.682c0.104,0.159,0.211,0.315,0.32,0.47
		c3.434,4.831,8.494,6.567,15.27,8.492c0.828,0.235,1.898,0.539,2.904,0.856c-0.465,0.894-0.979,1.813-1.371,2.521
		c-3.547,6.382-5.957,11.349-4.76,17.406c0.051,0.251,0.105,0.5,0.168,0.747c1.406,5.566,5.324,9.013,10.705,13.274
		c0.717,0.568,1.668,1.321,2.523,2.05c-0.855,0.726-1.803,1.477-2.518,2.044c-5.391,4.27-9.303,7.714-10.711,13.277
		c-0.064,0.252-0.121,0.505-0.17,0.759C177.822,120.474,180.232,125.441,183.769,131.799"/>
</g>
<path fill="#AA4925" d="M123.409,98.482c0.192-1.229,0.42-2.445,0.631-3.668c0.218-1.221,0.458-2.435,0.688-3.65
	c0.455-2.436,0.955-4.856,1.465-7.274c0.504-2.419,1.031-4.832,1.572-7.239c0.539-2.408,1.099-4.811,1.666-7.212l0.49-2.084
	l2.209,0.633c0.676,0.192,1.285,0.394,1.92,0.606l1.875,0.654c1.242,0.453,2.469,0.949,3.692,1.46
	c1.22,0.524,2.423,1.083,3.624,1.664c1.199,0.585,2.381,1.22,3.553,1.877c1.174,0.655,2.319,1.375,3.457,2.121
	c1.141,0.744,2.252,1.548,3.34,2.412c0.547,0.422,1.076,0.879,1.61,1.332c0.524,0.462,1.041,0.946,1.548,1.448
	c0.504,0.503,1.004,1.02,1.48,1.567c0.486,0.534,0.936,1.125,1.384,1.712l0.092,0.12l0.038,0.058
	c0.113,0.184,0.143,0.243,0.201,0.349l0.145,0.273c0.086,0.176,0.168,0.35,0.244,0.519c0.155,0.34,0.288,0.672,0.416,1.007
	c0.252,0.666,0.456,1.33,0.629,1.997c0.342,1.334,0.59,2.664,0.725,3.995c0.132,1.329,0.195,2.653,0.162,3.963
	c-0.008,0.656-0.043,1.309-0.088,1.955c-0.039,0.652-0.111,1.297-0.193,1.936c-0.159,1.281-0.377,2.546-0.662,3.789
	c-0.268,1.246-0.617,2.465-0.99,3.666c-0.189,0.603-0.398,1.195-0.605,1.787l-0.687,1.746c-0.243,0.574-0.483,1.149-0.747,1.711
	c-0.273,0.562-0.539,1.121-0.826,1.668l0.432-3.7c0.125-1.228,0.23-2.447,0.318-3.659c0.025-0.609,0.09-1.209,0.105-1.813
	c0.025-0.604,0.051-1.205,0.063-1.807c0.021-0.598,0.012-1.195,0.01-1.792c-0.006-0.595-0.012-1.188-0.04-1.776
	c-0.104-2.357-0.354-4.673-0.843-6.876c-0.248-1.099-0.535-2.175-0.905-3.188c-0.188-0.504-0.384-0.997-0.593-1.464
	c-0.108-0.23-0.219-0.46-0.33-0.667l-0.17-0.298l-0.076-0.125c-0.02-0.027-0.066-0.099-0.033-0.043l0.129,0.178
	c-0.389-0.436-0.773-0.869-1.188-1.295c-0.405-0.426-0.84-0.84-1.281-1.246c-0.441-0.408-0.905-0.795-1.37-1.188
	c-0.472-0.386-0.938-0.778-1.431-1.146c-0.484-0.377-0.987-0.737-1.487-1.097c-0.511-0.35-1.005-0.722-1.526-1.064
	c-1.023-0.706-2.09-1.359-3.154-2.023c-2.138-1.314-4.342-2.554-6.574-3.742c-1.114-0.607-2.243-1.184-3.377-1.753l-1.701-0.848
	l-1.691-0.809l2.698-1.452c-0.771,2.338-1.551,4.672-2.353,6.999c-0.797,2.327-1.606,4.652-2.439,6.971
	c-0.831,2.319-1.669,4.633-2.551,6.934c-0.439,1.151-0.869,2.308-1.319,3.456C124.328,96.191,123.886,97.344,123.409,98.482"/>
<path fill="#AA4925" d="M75.578,105.352c-0.748-0.967-1.463-1.955-2.194-2.932c-0.725-0.982-1.43-1.979-2.144-2.967
	c-1.433-1.976-2.824-3.976-4.21-5.98c-1.388-2.006-2.755-4.023-4.109-6.047c-1.359-2.021-2.7-4.057-4.033-6.098l2.969,0.652
	l-1.425,1.246l-1.427,1.289c-0.95,0.863-1.894,1.732-2.815,2.627c-1.854,1.766-3.667,3.572-5.396,5.432
	c-0.86,0.936-1.724,1.861-2.533,2.826c-0.416,0.475-0.799,0.971-1.204,1.449c-0.392,0.485-0.786,0.973-1.157,1.471
	c-0.383,0.492-0.734,1-1.09,1.502c-0.35,0.509-0.699,1.011-1.021,1.525c-0.326,0.514-0.64,1.032-0.923,1.557
	c-0.292,0.524-0.555,1.052-0.819,1.578l0.08-0.207c0.016-0.063-0.012,0.021-0.022,0.052l-0.044,0.143l-0.086,0.334
	c-0.057,0.23-0.104,0.482-0.15,0.734c-0.085,0.508-0.149,1.037-0.204,1.575c-0.101,1.08-0.108,2.197-0.07,3.326
	c0.086,2.261,0.429,4.563,0.921,6.864c0.122,0.576,0.265,1.148,0.408,1.726c0.15,0.574,0.291,1.154,0.463,1.726
	c0.162,0.576,0.336,1.147,0.514,1.725c0.167,0.578,0.382,1.139,0.56,1.719c0.391,1.145,0.8,2.293,1.23,3.441l1.35,3.449
	c-0.417-0.447-0.813-0.914-1.219-1.379c-0.396-0.47-0.773-0.957-1.152-1.443l-1.101-1.494c-0.352-0.514-0.7-1.027-1.036-1.555
	c-0.661-1.057-1.308-2.135-1.879-3.262c-0.588-1.119-1.118-2.279-1.594-3.472c-0.241-0.594-0.471-1.194-0.674-1.813
	c-0.206-0.61-0.404-1.229-0.579-1.86c-0.361-1.254-0.632-2.55-0.84-3.867c-0.205-1.319-0.302-2.672-0.311-4.053
	c-0.001-0.69,0.029-1.39,0.105-2.101c0.038-0.358,0.082-0.717,0.145-1.088c0.031-0.184,0.068-0.375,0.107-0.568l0.069-0.303
	c0.03-0.119,0.042-0.184,0.106-0.393l0.022-0.066l0.058-0.141c0.285-0.691,0.567-1.385,0.903-2.035
	c0.323-0.66,0.674-1.297,1.034-1.922c0.362-0.625,0.736-1.234,1.127-1.826c0.4-0.584,0.797-1.172,1.219-1.73
	c0.83-1.135,1.699-2.219,2.612-3.252c0.908-1.035,1.833-2.047,2.801-3.004c0.964-0.959,1.942-1.898,2.951-2.795
	c1.012-0.893,2.032-1.766,3.076-2.609c1.051-0.832,2.109-1.65,3.194-2.432l1.643-1.15c0.558-0.381,1.096-0.744,1.699-1.117
	l1.969-1.223l1,1.873c1.152,2.158,2.297,4.32,3.423,6.494c1.127,2.172,2.248,4.352,3.344,6.545c1.099,2.191,2.192,4.387,3.245,6.609
	c0.528,1.109,1.066,2.213,1.584,3.33C74.556,103.109,75.083,104.221,75.578,105.352"/>
<path fill="#AA4925" d="M120.827,105.352c0.496-1.131,1.022-2.242,1.533-3.363c0.517-1.117,1.058-2.221,1.583-3.33
	c1.055-2.223,2.146-4.417,3.247-6.609c1.097-2.193,2.215-4.373,3.344-6.545c1.126-2.174,2.271-4.336,3.425-6.494l0.998-1.873
	l1.971,1.223c0.604,0.373,1.14,0.736,1.699,1.117l1.643,1.15c1.084,0.781,2.142,1.6,3.193,2.432
	c1.043,0.844,2.063,1.717,3.075,2.609c1.009,0.896,1.987,1.836,2.952,2.795c0.967,0.957,1.891,1.969,2.799,3.004
	c0.913,1.033,1.782,2.117,2.612,3.252c0.422,0.559,0.817,1.146,1.219,1.73c0.392,0.591,0.767,1.201,1.128,1.826
	c0.358,0.625,0.711,1.262,1.033,1.922c0.335,0.65,0.618,1.344,0.902,2.035l0.059,0.141l0.021,0.066
	c0.063,0.209,0.076,0.273,0.105,0.393l0.069,0.303c0.038,0.193,0.075,0.386,0.106,0.568c0.063,0.371,0.106,0.729,0.146,1.088
	c0.075,0.711,0.104,1.408,0.104,2.101c-0.009,1.381-0.104,2.731-0.311,4.053c-0.208,1.318-0.479,2.613-0.842,3.867
	c-0.174,0.631-0.371,1.25-0.578,1.86c-0.203,0.619-0.434,1.22-0.674,1.813c-0.479,1.19-1.006,2.353-1.596,3.472
	c-0.57,1.127-1.217,2.205-1.88,3.262c-0.335,0.527-0.685,1.041-1.034,1.555l-1.102,1.494c-0.38,0.486-0.757,0.975-1.152,1.443
	c-0.406,0.465-0.803,0.932-1.219,1.379l1.35-3.449c0.432-1.148,0.84-2.297,1.229-3.441c0.179-0.58,0.394-1.141,0.562-1.719
	c0.178-0.576,0.353-1.148,0.515-1.725c0.171-0.57,0.313-1.15,0.462-1.726c0.145-0.575,0.288-1.147,0.408-1.725
	c0.494-2.304,0.836-4.604,0.922-6.865c0.037-1.129,0.031-2.246-0.07-3.326c-0.055-0.538-0.119-1.067-0.203-1.575
	c-0.046-0.252-0.094-0.504-0.15-0.734l-0.086-0.334l-0.045-0.143c-0.01-0.031-0.037-0.113-0.021-0.052l0.08,0.207
	c-0.265-0.526-0.527-1.053-0.819-1.578c-0.283-0.522-0.598-1.043-0.922-1.557c-0.322-0.517-0.673-1.019-1.021-1.524
	c-0.355-0.503-0.707-1.011-1.09-1.503c-0.373-0.497-0.767-0.983-1.158-1.471c-0.403-0.479-0.787-0.975-1.203-1.449
	c-0.809-0.965-1.674-1.891-2.533-2.826c-1.729-1.859-3.543-3.666-5.396-5.432c-0.922-0.895-1.865-1.764-2.814-2.627l-1.428-1.289
	l-1.424-1.246l2.969-0.652c-1.334,2.041-2.674,4.076-4.032,6.098c-1.354,2.023-2.724,4.041-4.11,6.047
	c-1.387,2.006-2.777,4.006-4.207,5.98c-0.717,0.987-1.422,1.983-2.146,2.967C122.292,103.396,121.576,104.385,120.827,105.352"/>
<path fill="#AA4925" d="M65.777,98.846c0,0,9.692-24.258,32.426-24.258v38.598C98.203,113.186,79.802,113.545,65.777,98.846"/>
<path fill="#BA6528" d="M130.628,98.846c0,0-9.693-24.258-32.426-24.258v38.598C98.203,113.186,116.605,113.545,130.628,98.846"/>
<path fill="#AA4925" d="M61.498,97.645l4.577,14.012c0,0,12.332,11.447,21.683,11.59c9.351,0.146,5.662,5.389,1.083,7.072
	c-4.581,1.686-23.245,3.598-36.324-13.111c-6.54-8.354-3.24-15.082,0.454-17.479C56.667,97.334,61.498,97.645,61.498,97.645"/>
<path fill="#BA6528" d="M61.498,97.645c0,0,15.047,2.215,24.364,15.811c6.962,10.158-2.209,6.336-5.319,3.012
	c-2.45-2.618-12.14-6.422-14.468-4.811L61.498,97.645z"/>
<path fill="#AA4925" d="M134.906,97.645l-4.578,14.012c0,0-12.329,11.447-21.681,11.59c-9.351,0.146-5.662,5.389-1.082,7.072
	c4.579,1.686,23.241,3.598,36.321-13.111c6.541-8.354,3.24-15.082-0.455-17.479C139.739,97.334,134.906,97.645,134.906,97.645"/>
<path fill="#BA6528" d="M134.906,97.645c0,0-15.047,2.215-24.363,15.811c-6.963,10.158,2.211,6.336,5.318,3.012
	c2.451-2.618,12.143-6.422,14.467-4.811L134.906,97.645z"/>
<path fill="#AA4925" d="M108.558,97.645c0.006-0.018-0.026,0.094-0.006,0.063c0.024-0.029,0.016,0.033-0.002,0.123
	c-0.041,0.176-0.109,0.469-0.26,0.826c-0.144,0.357-0.348,0.779-0.621,1.207c-0.132,0.221-0.285,0.436-0.455,0.65
	c-0.154,0.229-0.356,0.416-0.541,0.635c-0.19,0.207-0.408,0.389-0.611,0.592c-0.225,0.178-0.444,0.352-0.661,0.521
	c-0.233,0.152-0.46,0.299-0.675,0.438c-0.215,0.145-0.445,0.236-0.646,0.348c-0.402,0.229-0.775,0.35-1.029,0.457
	c-0.258,0.104-0.404,0.162-0.404,0.162l-0.223,0.088c-0.982,0.396-1.475,1.553-1.099,2.584c0.31,0.842,1.104,1.34,1.92,1.276
	c0,0,0.202-0.014,0.558-0.04c0.354-0.035,0.869-0.05,1.481-0.177c0.31-0.062,0.647-0.099,0.999-0.198
	c0.354-0.101,0.729-0.205,1.114-0.314c0.384-0.146,0.778-0.299,1.18-0.453c0.392-0.191,0.8-0.373,1.19-0.596
	c0.383-0.234,0.785-0.451,1.146-0.726c0.373-0.256,0.729-0.528,1.06-0.817c0.67-0.564,1.246-1.172,1.709-1.738
	c0.469-0.559,0.816-1.096,1.063-1.498c0.12-0.205,0.216-0.375,0.306-0.566c0.061-0.121,0.09-0.188,0.09-0.188
	c0.701-1.906-0.205-4.047-2.023-4.781S109.257,95.738,108.558,97.645"/>
<path fill="#4A1E14" d="M108.826,98.191c0,1.721,1.993,3.115,4.45,3.115c2.459,0,4.45-1.395,4.45-3.115
	c0-1.72-1.991-3.115-4.45-3.115C110.82,95.077,108.826,96.47,108.826,98.191"/>
<path fill="#FBF5F1" d="M113.496,97.322c0,0.996,0.771,1.803,1.719,1.803c0.948,0,1.719-0.807,1.719-1.803
	c0-0.994-0.771-1.801-1.719-1.801C114.267,95.521,113.496,96.329,113.496,97.322"/>
<path fill="#8B3F1E" d="M87.164,97.645c-0.006-0.018,0.026,0.094,0.005,0.063c-0.025-0.029-0.015,0.033,0.001,0.123
	c0.041,0.176,0.11,0.469,0.26,0.826c0.144,0.357,0.348,0.779,0.622,1.207c0.13,0.221,0.284,0.436,0.454,0.65
	c0.154,0.229,0.357,0.416,0.541,0.635c0.19,0.207,0.408,0.389,0.612,0.592c0.226,0.178,0.446,0.352,0.662,0.521
	c0.234,0.152,0.459,0.299,0.675,0.438c0.214,0.145,0.444,0.236,0.646,0.348c0.402,0.229,0.776,0.351,1.029,0.457
	c0.259,0.104,0.406,0.162,0.406,0.162l0.221,0.088c0.983,0.396,1.475,1.554,1.099,2.584c-0.308,0.843-1.104,1.34-1.92,1.277
	c0,0-0.202-0.014-0.557-0.041c-0.355-0.033-0.868-0.049-1.482-0.176c-0.308-0.061-0.647-0.098-1-0.199
	c-0.354-0.1-0.728-0.205-1.114-0.314c-0.383-0.146-0.778-0.299-1.179-0.452c-0.391-0.19-0.798-0.373-1.19-0.597
	c-0.383-0.233-0.786-0.451-1.146-0.725c-0.373-0.256-0.729-0.529-1.059-0.818c-0.67-0.563-1.247-1.172-1.71-1.737
	c-0.468-0.56-0.816-1.097-1.063-1.498c-0.12-0.205-0.217-0.375-0.305-0.565c-0.06-0.121-0.091-0.189-0.091-0.189
	c-0.701-1.905,0.206-4.046,2.025-4.78C84.423,94.788,86.465,95.738,87.164,97.645"/>
<path fill="#4A1E14" d="M86.894,98.191c0,1.721-1.992,3.115-4.45,3.115c-2.459,0-4.451-1.395-4.451-3.115
	c0-1.72,1.992-3.115,4.451-3.115S86.894,96.47,86.894,98.191"/>
<path fill="#FBF5F1" d="M86.039,97.322c0,0.996-0.77,1.803-1.718,1.803c-0.948,0-1.718-0.807-1.718-1.803
	c0-0.994,0.77-1.801,1.718-1.801C85.27,95.521,86.039,96.329,86.039,97.322"/>
<path fill="#AA4925" d="M70.434,95.83c-0.465-0.997-0.897-2.003-1.343-3.004c-0.442-1.004-0.862-2.016-1.292-3.022
	c-0.864-2.013-1.688-4.038-2.505-6.067c-0.819-2.03-1.619-4.065-2.406-6.101c-0.79-2.037-1.563-4.081-2.327-6.128l2.479,1.227
	l-1.501,0.746l-1.51,0.783c-1.007,0.525-2.009,1.057-2.998,1.616c-1.98,1.094-3.935,2.233-5.825,3.435
	c-0.943,0.608-1.886,1.206-2.79,1.85c-0.46,0.313-0.896,0.651-1.346,0.97c-0.441,0.329-0.884,0.656-1.31,0.999
	c-0.435,0.335-0.845,0.69-1.258,1.04c-0.408,0.356-0.815,0.708-1.2,1.077c-0.39,0.366-0.769,0.74-1.122,1.125
	c-0.362,0.385-0.698,0.774-1.034,1.167l0.11-0.16c0.027-0.049-0.015,0.014-0.028,0.039l-0.068,0.112l-0.143,0.266
	c-0.096,0.185-0.188,0.39-0.278,0.595c-0.175,0.416-0.337,0.855-0.494,1.303c-0.304,0.902-0.533,1.857-0.725,2.832
	c-0.375,1.954-0.533,4.003-0.559,6.085c-0.008,0.521,0.003,1.042,0.014,1.568c0.017,0.524,0.025,1.053,0.063,1.58
	c0.028,0.53,0.067,1.059,0.108,1.593c0.031,0.532,0.108,1.061,0.149,1.598c0.115,1.067,0.245,2.144,0.395,3.223l0.498,3.257
	c-0.277-0.476-0.532-0.966-0.796-1.454c-0.254-0.49-0.488-0.993-0.724-1.495l-0.67-1.526c-0.206-0.52-0.41-1.037-0.6-1.563
	c-0.37-1.054-0.724-2.122-1-3.216c-0.294-1.09-0.527-2.202-0.708-3.33c-0.094-0.563-0.176-1.129-0.231-1.703
	c-0.059-0.57-0.11-1.145-0.137-1.725c-0.067-1.155-0.047-2.324,0.033-3.5c0.083-1.176,0.267-2.354,0.535-3.539
	c0.137-0.592,0.302-1.182,0.512-1.774c0.104-0.299,0.215-0.595,0.344-0.898c0.064-0.15,0.135-0.306,0.208-0.463l0.121-0.243
	c0.049-0.095,0.073-0.148,0.171-0.313l0.032-0.052l0.079-0.107c0.389-0.528,0.775-1.058,1.199-1.539
	c0.416-0.493,0.852-0.958,1.292-1.413c0.442-0.454,0.893-0.891,1.354-1.31c0.468-0.41,0.935-0.824,1.416-1.207
	c0.956-0.785,1.935-1.518,2.943-2.197c1.004-0.682,2.018-1.339,3.06-1.94c1.038-0.604,2.084-1.188,3.149-1.729
	c1.067-0.536,2.138-1.054,3.223-1.542c1.09-0.476,2.183-0.938,3.292-1.363l1.672-0.615c0.567-0.2,1.112-0.391,1.715-0.574
	l1.975-0.604l0.505,1.829c0.582,2.106,1.156,4.215,1.711,6.329c0.559,2.114,1.108,4.231,1.634,6.355
	c0.528,2.124,1.051,4.249,1.533,6.389c0.242,1.068,0.496,2.134,0.728,3.207C69.984,93.68,70.224,94.75,70.434,95.83"/>
</svg>
