<?xml version="1.0" encoding="utf-8"?>
<!-- Generator: Adobe Illustrator 15.0.0, SVG Export Plug-In  -->
<!DOCTYPE svg PUBLIC "-//W3C//DTD SVG 1.1//EN" "http://www.w3.org/Graphics/SVG/1.1/DTD/svg11.dtd" [
	<!ENTITY ns_flows "http://ns.adobe.com/Flows/1.0/">
]>
<svg version="1.1"
	 xmlns="http://www.w3.org/2000/svg" xmlns:xlink="http://www.w3.org/1999/xlink" xmlns:a="http://ns.adobe.com/AdobeSVGViewerExtensions/3.0/"
	 x="0px" y="0px" width="200px" height="200px" viewBox="-2.219 -2.145 200 200" enable-background="new -2.219 -2.145 200 200"
	 xml:space="preserve">
<defs>
</defs>
<path fill="#FFFFFF" d="M188.099,110.402c4.021-3.186,8.582-6.797,8.582-12.063c0-5.265-4.561-8.876-8.582-12.063
	c-1.652-1.309-4.73-3.744-4.996-4.8c-0.223-1.126,1.771-4.71,2.842-6.636c2.455-4.409,5.236-9.405,3.271-14.145
	c-1.996-4.812-7.557-6.389-12.461-7.78c-2.068-0.588-5.92-1.68-6.561-2.582c-0.613-0.936-0.148-4.963,0.1-7.124
	c0.582-5.04,1.238-10.751-2.416-14.406c-3.654-3.655-9.367-2.998-14.404-2.417c-2.162,0.248-6.189,0.713-7.123,0.101
	c-0.906-0.642-1.998-4.493-2.584-6.562c-1.393-4.905-2.969-10.465-7.781-12.459c-4.74-1.965-9.736,0.815-14.145,3.269
	c-1.928,1.071-5.52,3.058-6.631,2.844c-1.061-0.269-3.498-3.345-4.807-4.997C107.218,4.56,103.607,0,98.341,0
	c-5.266,0-8.877,4.559-12.063,8.583c-1.308,1.652-3.745,4.728-4.8,4.995c-1.131,0.235-4.711-1.771-6.635-2.842
	c-4.41-2.455-9.41-5.237-14.146-3.27c-4.812,1.995-6.388,7.554-7.78,12.46c-0.587,2.068-1.679,5.918-2.582,6.56
	c-0.936,0.613-4.962,0.149-7.125-0.1c-5.037-0.579-10.75-1.238-14.405,2.417c-3.655,3.655-2.997,9.366-2.417,14.405
	c0.249,2.162,0.713,6.188,0.101,7.123c-0.643,0.905-4.493,1.997-6.562,2.584c-4.905,1.392-10.465,2.968-12.459,7.779
	c-1.967,4.741,0.815,9.738,3.268,14.147c1.072,1.926,3.067,5.51,2.845,6.63c-0.268,1.062-3.345,3.497-4.997,4.806
	C4.56,89.464,0,93.075,0,98.34c0,5.266,4.56,8.877,8.583,12.063c1.652,1.311,4.729,3.746,4.995,4.802
	c0.224,1.126-1.771,4.71-2.843,6.636c-2.454,4.408-5.235,9.405-3.269,14.145c1.995,4.812,7.555,6.39,12.46,7.78
	c2.069,0.586,5.918,1.68,6.56,2.582c0.613,0.937,0.149,4.962-0.1,7.124c-0.581,5.04-1.238,10.752,2.417,14.406
	c3.656,3.656,9.366,2.998,14.405,2.418c2.163-0.25,6.188-0.713,7.123-0.103c0.905,0.643,1.997,4.493,2.584,6.562
	c1.391,4.906,2.968,10.465,7.78,12.461c4.741,1.966,9.735-0.816,14.146-3.27c1.926-1.071,5.502-3.072,6.631-2.845
	c1.06,0.269,3.496,3.345,4.806,4.997c3.187,4.022,6.798,8.582,12.063,8.582c5.266,0,8.877-4.56,12.063-8.582
	c1.309-1.652,3.746-4.729,4.801-4.996c1.129-0.218,4.709,1.772,6.635,2.844c4.408,2.454,9.406,5.235,14.146,3.27
	c4.811-1.996,6.389-7.555,7.779-12.46c0.588-2.068,1.68-5.918,2.582-6.561c0.938-0.613,4.963-0.149,7.127,0.101
	c5.039,0.583,10.748,1.238,14.402-2.417c3.656-3.654,2.998-9.366,2.418-14.405c-0.25-2.162-0.713-6.188-0.102-7.123
	c0.643-0.905,4.494-1.997,6.563-2.584c4.904-1.392,10.465-2.968,12.461-7.78c1.965-4.739-0.816-9.735-3.27-14.145
	c-1.072-1.926-3.068-5.51-2.846-6.631C183.369,114.148,186.447,111.713,188.099,110.402 M183.769,131.799
	c0.398,0.718,0.914,1.642,1.381,2.539c-0.998,0.315-2.059,0.618-2.873,0.848c-6.791,1.926-11.863,3.662-15.303,8.503
	c-0.111,0.156-0.219,0.313-0.324,0.474c-3.322,5.085-2.998,10.529-2.176,17.667c0.096,0.837,0.221,1.923,0.309,2.959
	c-0.936-0.081-1.941-0.198-2.932-0.313c-2.436-0.281-4.986-0.55-7.42-0.55c-2.621,0-6.539,0.284-10.283,2.734
	c-0.154,0.102-0.307,0.206-0.459,0.313c-4.842,3.442-6.578,8.514-8.504,15.303c-0.23,0.814-0.531,1.875-0.848,2.875
	c-0.895-0.466-1.814-0.977-2.523-1.372c-5.139-2.862-9.463-5.056-14.346-5.056c-1.018,0-2.031,0.097-3.014,0.287
	c-0.266,0.052-0.527,0.112-0.791,0.178c-5.564,1.404-9.01,5.319-13.27,10.698c-0.572,0.721-1.326,1.672-2.053,2.529
	c-0.727-0.854-1.476-1.801-2.041-2.514c-4.272-5.393-7.719-9.308-13.287-10.716c-0.227-0.057-0.457-0.108-0.686-0.156
	c-1.02-0.205-2.072-0.31-3.127-0.31c-4.868,0-9.166,2.18-14.28,5.028c-0.738,0.41-1.674,0.931-2.578,1.401
	c-0.316-1-0.617-2.063-0.848-2.878c-1.925-6.792-3.664-11.867-8.518-15.309c-0.15-0.106-0.303-0.21-0.458-0.313
	c-3.738-2.442-7.649-2.725-10.266-2.725c-2.438,0-4.995,0.271-7.405,0.548c-1.034,0.119-2.033,0.235-2.951,0.313
	c0.088-1.034,0.213-2.117,0.309-2.948c0.824-7.146,1.15-12.596-2.184-17.689c-0.101-0.153-0.206-0.307-0.313-0.459
	c-3.44-4.84-8.511-6.578-15.299-8.504c-0.816-0.231-1.878-0.532-2.878-0.848c0.465-0.895,0.977-1.814,1.371-2.522
	c3.551-6.387,5.96-11.353,4.758-17.414c-0.049-0.248-0.104-0.494-0.167-0.74c-1.405-5.562-5.319-9.007-10.695-13.267
	c-0.722-0.571-1.675-1.326-2.532-2.055c0.855-0.728,1.803-1.479,2.519-2.044c5.383-4.264,9.301-7.711,10.709-13.28
	c0.064-0.249,0.12-0.501,0.17-0.754c1.196-6.054-1.216-11.024-4.755-17.385c-0.397-0.714-0.911-1.638-1.378-2.534
	c1-0.317,2.062-0.618,2.876-0.849c6.793-1.926,11.864-3.664,15.303-8.506c0.11-0.154,0.217-0.312,0.32-0.47
	c3.326-5.09,3-10.537,2.176-17.678c-0.096-0.83-0.22-1.912-0.309-2.945c0.916,0.078,1.912,0.191,2.939,0.309
	c2.43,0.28,4.984,0.55,7.419,0.55c2.619,0,6.534-0.283,10.274-2.73c0.159-0.104,0.315-0.211,0.468-0.32
	c4.836-3.439,6.572-8.508,8.498-15.294c0.231-0.816,0.533-1.878,0.849-2.879c0.894,0.466,1.813,0.978,2.522,1.373
	c5.191,2.888,9.475,5.057,14.336,5.057c1.081,0,2.158-0.11,3.201-0.326c0.209-0.043,0.418-0.091,0.625-0.143
	c5.563-1.41,9.009-5.328,13.27-10.71c0.566-0.715,1.316-1.662,2.043-2.517c0.727,0.856,1.479,1.804,2.045,2.519
	c4.258,5.378,7.703,9.296,13.271,10.709c0.273,0.069,0.549,0.131,0.828,0.184c0.973,0.188,1.977,0.283,2.982,0.283
	c4.869,0,9.195-2.191,14.344-5.055c0.711-0.395,1.631-0.908,2.525-1.374c0.318,1.001,0.619,2.062,0.85,2.876
	c1.926,6.789,3.662,11.86,8.502,15.3c0.156,0.111,0.313,0.218,0.473,0.322c3.738,2.444,7.648,2.727,10.264,2.727
	c2.621,0,5.473-0.326,7.357-0.543c1.063-0.123,2.076-0.239,3.002-0.318c-0.088,1.034-0.213,2.117-0.309,2.948
	c-0.824,7.141-1.15,12.591,2.18,17.682c0.104,0.159,0.211,0.315,0.32,0.47c3.434,4.831,8.494,6.567,15.27,8.492
	c0.828,0.235,1.898,0.539,2.904,0.856c-0.465,0.894-0.979,1.813-1.371,2.521c-3.547,6.382-5.957,11.349-4.76,17.406
	c0.051,0.251,0.105,0.5,0.168,0.747c1.406,5.566,5.324,9.013,10.705,13.274c0.717,0.568,1.668,1.321,2.523,2.05
	c-0.855,0.726-1.803,1.477-2.518,2.044c-5.391,4.27-9.303,7.714-10.711,13.277c-0.064,0.252-0.121,0.505-0.17,0.759
	C177.822,120.474,180.232,125.441,183.769,131.799"/>
<g display="none">
	<defs>
		<rect id="SVGID_1_" x="0" width="196.681" height="196.68"/>
	</defs>
	<use xlink:href="#SVGID_1_"  overflow="visible" fill="#FFFFFF"/>
	<clipPath id="SVGID_2_" display="inline">
		<use xlink:href="#SVGID_1_"  display="none" overflow="visible"/>
	</clipPath>
	<path clip-path="url(#SVGID_2_)" fill="#FFFFFF" d="M188.099,110.402c4.021-3.186,8.582-6.797,8.582-12.063
		c0-5.265-4.561-8.876-8.582-12.063c-1.652-1.309-4.73-3.744-4.996-4.8c-0.223-1.126,1.771-4.71,2.842-6.636
		c2.455-4.409,5.236-9.405,3.271-14.145c-1.996-4.812-7.557-6.389-12.461-7.78c-2.068-0.588-5.92-1.68-6.561-2.582
		c-0.613-0.936-0.148-4.963,0.1-7.124c0.582-5.04,1.238-10.751-2.416-14.406c-3.654-3.655-9.367-2.998-14.404-2.417
		c-2.162,0.248-6.189,0.713-7.123,0.101c-0.906-0.642-1.998-4.493-2.584-6.562c-1.393-4.905-2.969-10.465-7.781-12.459
		c-4.74-1.965-9.736,0.815-14.145,3.269c-1.928,1.071-5.52,3.058-6.631,2.844c-1.061-0.269-3.498-3.345-4.807-4.997
		C107.218,4.56,103.607,0,98.341,0c-5.266,0-8.877,4.559-12.063,8.583c-1.308,1.652-3.745,4.728-4.8,4.995
		c-1.131,0.235-4.711-1.771-6.635-2.842c-4.41-2.455-9.41-5.237-14.146-3.27c-4.812,1.995-6.388,7.554-7.78,12.46
		c-0.587,2.068-1.679,5.918-2.582,6.56c-0.936,0.613-4.962,0.149-7.125-0.1c-5.037-0.579-10.75-1.238-14.405,2.417
		c-3.655,3.655-2.997,9.366-2.417,14.405c0.249,2.162,0.713,6.188,0.101,7.123c-0.643,0.905-4.493,1.997-6.562,2.584
		c-4.905,1.392-10.465,2.968-12.459,7.779c-1.967,4.741,0.815,9.738,3.268,14.147c1.072,1.926,3.067,5.51,2.845,6.63
		c-0.268,1.062-3.345,3.497-4.997,4.806C4.56,89.464,0,93.075,0,98.34c0,5.266,4.56,8.877,8.583,12.063
		c1.652,1.311,4.729,3.746,4.995,4.802c0.224,1.126-1.771,4.71-2.843,6.636c-2.454,4.408-5.235,9.405-3.269,14.145
		c1.995,4.812,7.555,6.39,12.46,7.78c2.069,0.586,5.918,1.68,6.56,2.582c0.613,0.937,0.149,4.962-0.1,7.124
		c-0.581,5.04-1.238,10.752,2.417,14.406c3.656,3.656,9.366,2.998,14.405,2.418c2.163-0.25,6.188-0.713,7.123-0.103
		c0.905,0.643,1.997,4.493,2.584,6.562c1.391,4.906,2.968,10.465,7.78,12.461c4.741,1.966,9.735-0.816,14.146-3.27
		c1.926-1.071,5.502-3.072,6.631-2.845c1.06,0.269,3.496,3.345,4.806,4.997c3.187,4.022,6.798,8.582,12.063,8.582
		c5.266,0,8.877-4.56,12.063-8.582c1.309-1.652,3.746-4.729,4.801-4.996c1.129-0.218,4.709,1.772,6.635,2.844
		c4.408,2.454,9.406,5.235,14.146,3.27c4.811-1.996,6.389-7.555,7.779-12.46c0.588-2.068,1.68-5.918,2.582-6.561
		c0.938-0.613,4.963-0.149,7.127,0.101c5.039,0.583,10.748,1.238,14.402-2.417c3.656-3.654,2.998-9.366,2.418-14.405
		c-0.25-2.162-0.713-6.188-0.102-7.123c0.643-0.905,4.494-1.997,6.563-2.584c4.904-1.392,10.465-2.968,12.461-7.78
		c1.965-4.739-0.816-9.735-3.27-14.145c-1.072-1.926-3.068-5.51-2.846-6.631C183.369,114.148,186.447,111.713,188.099,110.402
		 M183.769,131.799c0.398,0.718,0.914,1.642,1.381,2.539c-0.998,0.315-2.059,0.618-2.873,0.848
		c-6.791,1.926-11.863,3.662-15.303,8.503c-0.111,0.156-0.219,0.313-0.324,0.474c-3.322,5.085-2.998,10.529-2.176,17.667
		c0.096,0.837,0.221,1.923,0.309,2.959c-0.936-0.081-1.941-0.198-2.932-0.313c-2.436-0.281-4.986-0.55-7.42-0.55
		c-2.621,0-6.539,0.284-10.283,2.734c-0.154,0.102-0.307,0.206-0.459,0.313c-4.842,3.442-6.578,8.514-8.504,15.303
		c-0.23,0.814-0.531,1.875-0.848,2.875c-0.895-0.466-1.814-0.977-2.523-1.372c-5.139-2.862-9.463-5.056-14.346-5.056
		c-1.018,0-2.031,0.097-3.014,0.287c-0.266,0.052-0.527,0.112-0.791,0.178c-5.564,1.404-9.01,5.319-13.27,10.698
		c-0.572,0.721-1.326,1.672-2.053,2.529c-0.727-0.854-1.476-1.801-2.041-2.514c-4.272-5.393-7.719-9.308-13.287-10.716
		c-0.227-0.057-0.457-0.108-0.686-0.156c-1.02-0.205-2.072-0.31-3.127-0.31c-4.868,0-9.166,2.18-14.28,5.028
		c-0.738,0.41-1.674,0.931-2.578,1.401c-0.316-1-0.617-2.063-0.848-2.878c-1.925-6.792-3.664-11.867-8.518-15.309
		c-0.15-0.106-0.303-0.21-0.458-0.313c-3.738-2.442-7.649-2.725-10.266-2.725c-2.438,0-4.995,0.271-7.405,0.548
		c-1.034,0.119-2.033,0.235-2.951,0.313c0.088-1.034,0.213-2.117,0.309-2.948c0.824-7.146,1.15-12.596-2.184-17.689
		c-0.101-0.153-0.206-0.307-0.313-0.459c-3.44-4.84-8.511-6.578-15.299-8.504c-0.816-0.231-1.878-0.532-2.878-0.848
		c0.465-0.895,0.977-1.814,1.371-2.522c3.551-6.387,5.96-11.353,4.758-17.414c-0.049-0.248-0.104-0.494-0.167-0.74
		c-1.405-5.562-5.319-9.007-10.695-13.267c-0.722-0.571-1.675-1.326-2.532-2.055c0.855-0.728,1.803-1.479,2.519-2.044
		c5.383-4.264,9.301-7.711,10.709-13.28c0.064-0.249,0.12-0.501,0.17-0.754c1.196-6.054-1.216-11.024-4.755-17.385
		c-0.397-0.714-0.911-1.638-1.378-2.534c1-0.317,2.062-0.618,2.876-0.849c6.793-1.926,11.864-3.664,15.303-8.506
		c0.11-0.154,0.217-0.312,0.32-0.47c3.326-5.09,3-10.537,2.176-17.678c-0.096-0.83-0.22-1.912-0.309-2.945
		c0.916,0.078,1.912,0.191,2.939,0.309c2.43,0.28,4.984,0.55,7.419,0.55c2.619,0,6.534-0.283,10.274-2.73
		c0.159-0.104,0.315-0.211,0.468-0.32c4.836-3.439,6.572-8.508,8.498-15.294c0.231-0.816,0.533-1.878,0.849-2.879
		c0.894,0.466,1.813,0.978,2.522,1.373c5.191,2.888,9.475,5.057,14.336,5.057c1.081,0,2.158-0.11,3.201-0.326
		c0.209-0.043,0.418-0.091,0.625-0.143c5.563-1.41,9.009-5.328,13.27-10.71c0.566-0.715,1.316-1.662,2.043-2.517
		c0.727,0.856,1.479,1.804,2.045,2.519c4.258,5.378,7.703,9.296,13.271,10.709c0.273,0.069,0.549,0.131,0.828,0.184
		c0.973,0.188,1.977,0.283,2.982,0.283c4.869,0,9.195-2.191,14.344-5.055c0.711-0.395,1.631-0.908,2.525-1.374
		c0.318,1.001,0.619,2.062,0.85,2.876c1.926,6.789,3.662,11.86,8.502,15.3c0.156,0.111,0.313,0.218,0.473,0.322
		c3.738,2.444,7.648,2.727,10.264,2.727c2.621,0,5.473-0.326,7.357-0.543c1.063-0.123,2.076-0.239,3.002-0.318
		c-0.088,1.034-0.213,2.117-0.309,2.948c-0.824,7.141-1.15,12.591,2.18,17.682c0.104,0.159,0.211,0.315,0.32,0.47
		c3.434,4.831,8.494,6.567,15.27,8.492c0.828,0.235,1.898,0.539,2.904,0.856c-0.465,0.894-0.979,1.813-1.371,2.521
		c-3.547,6.382-5.957,11.349-4.76,17.406c0.051,0.251,0.105,0.5,0.168,0.747c1.406,5.566,5.324,9.013,10.705,13.274
		c0.717,0.568,1.668,1.321,2.523,2.05c-0.855,0.726-1.803,1.477-2.518,2.044c-5.391,4.27-9.303,7.714-10.711,13.277
		c-0.064,0.252-0.121,0.505-0.17,0.759C177.822,120.474,180.232,125.441,183.769,131.799"/>
</g>
<path fill="#F6E9E5" d="M42.281,51.356c0,0,3.369,23.167,16.418,23.167H76.13c0,0-5.994-23.167-19.042-23.167H42.281z"/>
<path fill="#D96E7B" d="M48.277,55.462c0,0,2.177,14.955,10.602,14.955h11.252c0,0-3.871-14.955-12.293-14.955H48.277z"/>
<path fill="#F6E9E5" d="M152.757,51.356c0,0-3.371,23.167-16.42,23.167h-17.432c0,0,5.994-23.167,19.043-23.167H152.757z"/>
<path fill="#D96E7B" d="M146.759,55.462c0,0-2.18,14.955-10.6,14.955h-11.256c0,0,3.871-14.955,12.297-14.955H146.759z"/>
<path fill="#D3C5C1" d="M94.302,42.533c-0.789,0.791-1.239,1.896-1.239,3.016c0,0.08,0.019,0.159,0.023,0.24
	c-0.058,0.007-0.118,0.015-0.177,0.021c-0.012-0.081-0.012-0.158-0.029-0.238c-0.498-2.298-2.772-3.745-5.069-3.234
	c-2.299,0.498-3.745,2.772-3.235,5.07c0.017,0.081,0.05,0.152,0.073,0.229c-0.056,0.018-0.109,0.04-0.162,0.057
	c-0.033-0.082-0.052-0.169-0.093-0.25c-1.021-2.114-3.574-2.989-5.678-1.957c-2.117,1.021-2.991,3.575-1.968,5.691
	c0.041,0.082,0.09,0.155,0.134,0.234c-0.042,0.029-0.085,0.057-0.13,0.085c-0.056-0.075-0.099-0.161-0.165-0.235
	c-1.529-1.774-4.219-1.968-6.005-0.437c-1.775,1.544-1.968,4.219-0.438,6.006c0.065,0.074,0.143,0.127,0.212,0.195
	c-0.036,0.041-0.073,0.088-0.11,0.129c-0.078-0.061-0.146-0.135-0.236-0.19c-1.967-1.287-4.607-0.743-5.883,1.229
	c-1.29,1.968-0.741,4.606,1.227,5.896c0.089,0.057,0.183,0.1,0.273,0.149c-0.02,0.047-0.045,0.093-0.066,0.142
	c-0.098-0.039-0.189-0.092-0.292-0.12c-2.249-0.669-4.618,0.62-5.288,2.869c-0.667,2.26,0.619,4.619,2.883,5.287
	c0.098,0.031,0.201,0.046,0.304,0.069c-0.008,0.052-0.015,0.106-0.021,0.156c-0.104-0.007-0.203-0.029-0.31-0.029
	c-2.357,0.012-4.255,1.92-4.242,4.266c0,2.346,1.906,4.245,4.254,4.245h0.015c0.072,0,0.141-0.02,0.212-0.025
	c0.005,0.054,0.012,0.107,0.018,0.16c-0.056,0.005-0.105,0.002-0.158,0.01c-2.324,0.402-3.879,2.601-3.49,4.911v0.012
	c0.364,2.069,2.152,3.538,4.193,3.538c0.233,0,0.476-0.023,0.719-0.074c0.041-0.005,0.074-0.021,0.112-0.029
	c0.01,0.048,0.019,0.097,0.031,0.144c-2.288,0.506-3.741,2.774-3.244,5.066h0.013c0.426,1.995,2.186,3.342,4.145,3.342
	c0.284,0,0.572-0.024,0.856-0.085c0.006,0.048,0.018,0.102,0.028,0.155c-0.015,0.003-0.028,0.001-0.043,0.005
	c-2.301,0.498-3.759,2.758-3.249,5.057c0.426,1.995,2.191,3.354,4.148,3.354c0.303,0,0.608-0.035,0.911-0.096
	c0.007,0,0.01-0.005,0.018-0.005c0.01,0.069,0.022,0.14,0.036,0.21c-0.743,0.169-1.443,0.514-1.986,1.059
	c-0.804,0.791-1.256,1.896-1.256,3.017s0.452,2.213,1.256,3.004c0.284,0.282,0.618,0.509,0.973,0.703
	c-0.055-0.017-0.104-0.046-0.159-0.06c-2.276-0.598-4.611,0.754-5.217,3.014c-0.596,2.273,0.742,4.597,3.004,5.205
	c-2.336-0.024-4.255,1.836-4.303,4.17c-0.049,2.347,1.824,4.291,4.17,4.341h0.121c-0.062,0.024-0.121,0.048-0.172,0.062
	c-2.176,0.899-3.221,3.379-2.334,5.557h0.012c0.888,2.176,3.37,3.209,5.546,2.322c0.048-0.013,0.095-0.037,0.143-0.063
	c-0.023,0.023-0.048,0.05-0.07,0.063c-1.714,1.617-1.801,4.303-0.195,6.016c1.606,1.716,4.302,1.801,6.016,0.197
	c0.012-0.014,0.025-0.024,0.04-0.024c-1.205,2.019-0.537,4.618,1.492,5.825c2.006,1.189,4.61,0.533,5.815-1.473
	c-0.671,2.223,0.581,4.582,2.807,5.274c2.224,0.694,4.583-0.533,5.313-2.735c-0.182,2.311,1.52,4.342,3.829,4.561
	c0.135,0.012,0.278,0.012,0.414,0.012c1.756,0,3.303-1.096,3.936-2.688V41.364C96.204,41.364,95.097,41.744,94.302,42.533"/>
<path fill="#F6E9E5" d="M102.242,156.783c2.309-0.23,4-2.264,3.816-4.562c0.742,2.188,3.102,3.393,5.326,2.7
	c2.211-0.707,3.453-3.064,2.785-5.291c1.215,1.996,3.816,2.64,5.82,1.436c2.008-1.203,2.665-3.816,1.459-5.834
	c0.014,0.012,0.023,0.023,0.036,0.034c1.729,1.595,4.427,1.485,6.021-0.241c1.59-1.727,1.481-4.414-0.246-6.007
	c-0.022-0.024-0.047-0.05-0.084-0.072c0.062,0.022,0.108,0.036,0.158,0.062c2.19,0.863,4.656-0.194,5.533-2.381
	c0.861-2.18-0.211-4.66-2.384-5.533c-0.062-0.025-0.122-0.037-0.185-0.063h0.147c2.356-0.062,4.205-2.019,4.146-4.364
	c-0.063-2.332-1.994-4.184-4.317-4.146c2.263-0.634,3.586-2.968,2.967-5.218c-0.619-2.271-2.967-3.608-5.228-2.989
	c-0.102,0.026-0.188,0.073-0.284,0.108c-0.005-0.01-0.009-0.024-0.015-0.035c0.381-0.196,0.744-0.438,1.051-0.742
	c0.791-0.791,1.24-1.885,1.24-3.016c0-1.119-0.449-2.211-1.24-3.002c-0.549-0.555-1.262-0.899-2.016-1.066
	c0.004-0.034,0.012-0.068,0.016-0.104c0,0,0.007-0.024,0.017-0.067c0.011,0.002,0.021,0.009,0.028,0.009
	c0.305,0.063,0.607,0.098,0.9,0.098c1.955,0,3.717-1.361,4.156-3.356c0.484-2.296-0.961-4.571-3.257-5.069
	c-0.017-0.003-0.031-0.001-0.045-0.006c0.001-0.014,0.006-0.03,0.009-0.044c0.005-0.027,0.01-0.048,0.014-0.073
	c0.283,0.062,0.578,0.087,0.859,0.087c1.947,0,3.708-1.35,4.146-3.344c0.498-2.294-0.945-4.553-3.236-5.054
	c0.01-0.043,0.018-0.086,0.025-0.131c0.039,0.008,0.071,0.023,0.109,0.03c0.243,0.049,0.475,0.06,0.719,0.06
	c2.041,0,3.842-1.47,4.18-3.536c0.402-2.322-1.166-4.524-3.476-4.913c-0.055-0.01-0.112-0.005-0.168-0.01
	c0.005-0.045,0.013-0.09,0.013-0.135c0.078,0.005,0.149,0.023,0.229,0.023c2.346-0.011,4.244-1.92,4.244-4.265
	c0-2.348-1.908-4.256-4.256-4.246c-0.104,0-0.205,0.024-0.305,0.032c-0.009-0.045-0.014-0.091-0.021-0.136
	c0.101-0.023,0.2-0.035,0.3-0.066c2.264-0.68,3.536-3.052,2.869-5.299c-0.682-2.25-3.053-3.528-5.299-2.858
	c-0.104,0.031-0.194,0.08-0.29,0.118c-0.021-0.043-0.039-0.084-0.06-0.122c0.092-0.053,0.185-0.095,0.273-0.155
	c1.958-1.288,2.505-3.927,1.216-5.885c-1.288-1.967-3.927-2.516-5.885-1.229c-0.086,0.057-0.155,0.133-0.235,0.192
	c-0.033-0.037-0.066-0.076-0.098-0.113c0.066-0.071,0.148-0.124,0.212-0.198c1.532-1.778,1.337-4.463-0.45-5.994
	c-1.773-1.534-4.461-1.339-5.994,0.437c-0.065,0.074-0.107,0.161-0.166,0.239c-0.039-0.025-0.078-0.05-0.119-0.076
	c0.045-0.08,0.101-0.153,0.14-0.238c1.032-2.113,0.146-4.656-1.957-5.689c-2.116-1.033-4.669-0.145-5.701,1.969
	c-0.037,0.079-0.06,0.163-0.091,0.242c-0.044-0.015-0.085-0.031-0.127-0.045c0.021-0.079,0.054-0.152,0.068-0.233
	c0.515-2.298-0.935-4.572-3.229-5.07c-2.298-0.511-4.562,0.936-5.069,3.234c-0.019,0.08-0.018,0.159-0.031,0.238
	c-0.06-0.006-0.119-0.014-0.178-0.021c0.006-0.08,0.024-0.16,0.024-0.24c0-1.119-0.464-2.225-1.252-3.016
	c-0.816-0.814-1.967-1.202-3.108-1.176c-0.031,0-0.068,0.009-0.1,0.009v112.767c0.133-0.334,0.24-0.685,0.282-1.057
	C97.876,155.36,99.929,157.014,102.242,156.783"/>
<rect x="80.204" y="142.717" fill="#D3C5C1" width="11.892" height="16.397"/>
<rect x="102.941" y="142.717" fill="#F6E9E5" width="11.896" height="16.397"/>
<path fill="#D96E7B" d="M86.023,161.238c0.505,0,0.913,0.408,0.913,0.913v2.276h9.565c0-5.717-4.635-10.352-10.351-10.352
	c-5.715,0-10.352,4.635-10.352,10.352h9.314v-2.276C85.112,161.647,85.521,161.238,86.023,161.238"/>
<path fill="#D96E7B" d="M108.761,161.238c0.504,0,0.91,0.408,0.91,0.913v2.276h9.567c0-5.717-4.638-10.352-10.353-10.352
	s-10.352,4.635-10.352,10.352h9.313v-2.276C107.849,161.647,108.257,161.238,108.761,161.238"/>
<path fill="#D3C5C1" d="M97.52,135.824c19.253,0,26.185-11.092,30.197-21.438c0,0-12.113,16.679-29.674,16.039
	c-14.894-0.541-31.096-15.93-31.096-15.93C70.96,124.842,82.618,135.824,97.52,135.824"/>
<path fill="#F6C99B" d="M129.419,83.555c0-8.953-7.255-16.211-16.211-16.211c-7.563,0-13.896,5.184-15.688,12.191
	c-1.791-7.007-8.128-12.191-15.689-12.191c-8.955,0-16.217,7.256-16.217,16.211c0,8.956,6.046,16.213,14.999,16.213
	c0,0,1.066,6.26,1.218,8.367c0.647,8.933,4.318,22.293,16.212,22.293c10.844,0,15.569-13.36,16.211-22.293
	c0.154-2.123,1.217-8.42,1.217-8.42C123.935,99.174,129.419,92.155,129.419,83.555"/>
<path fill="#411813" d="M87.187,85.125c0,3.211-2.604,5.814-5.814,5.814c-3.214,0-5.815-2.603-5.815-5.814
	c0-3.212,2.601-5.815,5.815-5.815C84.583,79.31,87.187,81.913,87.187,85.125"/>
<path fill="#411813" d="M119.483,85.125c0,3.211-2.604,5.814-5.815,5.814s-5.816-2.603-5.816-5.814c0-3.212,2.605-5.815,5.816-5.815
	S119.483,81.913,119.483,85.125"/>
<path fill="#FFFFFF" d="M85.275,83.186c0,1.069-0.866,1.939-1.939,1.939c-1.071,0-1.938-0.87-1.938-1.939
	c0-1.072,0.867-1.941,1.938-1.941C84.409,81.245,85.275,82.113,85.275,83.186"/>
<path fill="#FFFFFF" d="M117.542,83.186c0,1.069-0.869,1.939-1.938,1.939c-1.073,0-1.939-0.87-1.939-1.939
	c0-1.072,0.866-1.941,1.939-1.941C116.673,81.245,117.542,82.113,117.542,83.186"/>
<path fill="#F09EA1" d="M104.55,111.068l-7.033,0.805l-7.032-0.805c-0.659-0.083-1.272,0.4-1.349,1.068
	c-0.074,0.669,0.405,1.271,1.068,1.347l6.016,0.688v8.836c-0.399,0.476-1.322,1.365-2.26,0.861c-0.595-0.32-1.33-0.096-1.645,0.494
	c-0.318,0.592-0.097,1.33,0.494,1.646c0.595,0.322,1.178,0.455,1.727,0.455c1.175,0,2.211-0.608,2.967-1.299
	c0.744,0.691,1.771,1.299,2.96,1.299c0.551,0,1.139-0.129,1.746-0.446c0.598-0.308,0.828-1.042,0.521-1.638
	c-0.306-0.598-1.043-0.83-1.64-0.521c-1.004,0.517-1.893-0.358-2.272-0.836v-8.854l6.01-0.688c0.668-0.076,1.146-0.679,1.07-1.347
	C105.822,111.469,105.218,110.982,104.55,111.068"/>
</svg>
