<?xml version="1.0" encoding="utf-8"?>
<!-- Generator: Adobe Illustrator 15.0.0, SVG Export Plug-In  -->
<!DOCTYPE svg PUBLIC "-//W3C//DTD SVG 1.1//EN" "http://www.w3.org/Graphics/SVG/1.1/DTD/svg11.dtd" [
	<!ENTITY ns_flows "http://ns.adobe.com/Flows/1.0/">
]>
<svg version="1.1"
	 xmlns="http://www.w3.org/2000/svg" xmlns:xlink="http://www.w3.org/1999/xlink" xmlns:a="http://ns.adobe.com/AdobeSVGViewerExtensions/3.0/"
	 x="0px" y="0px" width="200px" height="200px" viewBox="-2.219 -2.145 200 200" enable-background="new -2.219 -2.145 200 200"
	 xml:space="preserve">
<defs>
</defs>
<path fill="#FFFFFF" d="M188.099,110.402c4.021-3.186,8.582-6.797,8.582-12.063c0-5.265-4.561-8.876-8.582-12.063
	c-1.652-1.309-4.73-3.744-4.996-4.8c-0.223-1.126,1.771-4.71,2.842-6.636c2.455-4.409,5.236-9.405,3.271-14.145
	c-1.996-4.812-7.557-6.389-12.461-7.78c-2.068-0.588-5.92-1.68-6.561-2.582c-0.613-0.936-0.148-4.963,0.1-7.124
	c0.582-5.04,1.238-10.751-2.416-14.406c-3.654-3.655-9.367-2.998-14.404-2.417c-2.162,0.248-6.189,0.713-7.123,0.101
	c-0.906-0.642-1.998-4.493-2.584-6.562c-1.393-4.905-2.969-10.465-7.781-12.459c-4.74-1.965-9.736,0.815-14.145,3.269
	c-1.928,1.071-5.52,3.058-6.631,2.844c-1.061-0.269-3.498-3.345-4.807-4.997C107.218,4.56,103.607,0,98.341,0
	c-5.266,0-8.877,4.559-12.063,8.583c-1.308,1.652-3.745,4.728-4.8,4.995c-1.131,0.235-4.711-1.771-6.635-2.842
	c-4.41-2.455-9.41-5.237-14.146-3.27c-4.812,1.995-6.388,7.554-7.78,12.46c-0.587,2.068-1.679,5.918-2.582,6.56
	c-0.936,0.613-4.962,0.149-7.125-0.1c-5.037-0.579-10.75-1.238-14.405,2.417c-3.655,3.655-2.997,9.366-2.417,14.405
	c0.249,2.162,0.713,6.188,0.101,7.123c-0.643,0.905-4.493,1.997-6.562,2.584c-4.905,1.392-10.465,2.968-12.459,7.779
	c-1.967,4.741,0.815,9.738,3.268,14.147c1.072,1.926,3.067,5.51,2.845,6.63c-0.268,1.062-3.345,3.497-4.997,4.806
	C4.56,89.464,0,93.075,0,98.34c0,5.266,4.56,8.877,8.583,12.063c1.652,1.311,4.729,3.746,4.995,4.802
	c0.224,1.126-1.771,4.71-2.843,6.636c-2.454,4.408-5.235,9.405-3.269,14.145c1.995,4.812,7.555,6.39,12.46,7.78
	c2.069,0.586,5.918,1.68,6.56,2.582c0.613,0.937,0.149,4.962-0.1,7.124c-0.581,5.04-1.238,10.752,2.417,14.406
	c3.656,3.656,9.366,2.998,14.405,2.418c2.163-0.25,6.188-0.713,7.123-0.103c0.905,0.643,1.997,4.493,2.584,6.562
	c1.391,4.906,2.968,10.465,7.78,12.461c4.741,1.966,9.735-0.816,14.146-3.27c1.926-1.071,5.502-3.072,6.631-2.845
	c1.06,0.269,3.496,3.345,4.806,4.997c3.187,4.022,6.798,8.582,12.063,8.582c5.266,0,8.877-4.56,12.063-8.582
	c1.309-1.652,3.746-4.729,4.801-4.996c1.129-0.218,4.709,1.772,6.635,2.844c4.408,2.454,9.406,5.235,14.146,3.27
	c4.811-1.996,6.389-7.555,7.779-12.46c0.588-2.068,1.68-5.918,2.582-6.561c0.938-0.613,4.963-0.149,7.127,0.101
	c5.039,0.583,10.748,1.238,14.402-2.417c3.656-3.654,2.998-9.366,2.418-14.405c-0.25-2.162-0.713-6.188-0.102-7.123
	c0.643-0.905,4.494-1.997,6.563-2.584c4.904-1.392,10.465-2.968,12.461-7.78c1.965-4.739-0.816-9.735-3.27-14.145
	c-1.072-1.926-3.068-5.51-2.846-6.631C183.369,114.148,186.447,111.713,188.099,110.402 M183.769,131.799
	c0.398,0.718,0.914,1.642,1.381,2.539c-0.998,0.315-2.059,0.618-2.873,0.848c-6.791,1.926-11.863,3.662-15.303,8.503
	c-0.111,0.156-0.219,0.313-0.324,0.474c-3.322,5.085-2.998,10.529-2.176,17.667c0.096,0.837,0.221,1.923,0.309,2.959
	c-0.936-0.081-1.941-0.198-2.932-0.313c-2.436-0.281-4.986-0.55-7.42-0.55c-2.621,0-6.539,0.284-10.283,2.734
	c-0.154,0.102-0.307,0.206-0.459,0.313c-4.842,3.442-6.578,8.514-8.504,15.303c-0.23,0.814-0.531,1.875-0.848,2.875
	c-0.895-0.466-1.814-0.977-2.523-1.372c-5.139-2.862-9.463-5.056-14.346-5.056c-1.018,0-2.031,0.097-3.014,0.287
	c-0.266,0.052-0.527,0.112-0.791,0.178c-5.564,1.404-9.01,5.319-13.27,10.698c-0.572,0.721-1.326,1.672-2.053,2.529
	c-0.727-0.854-1.476-1.801-2.041-2.514c-4.272-5.393-7.719-9.308-13.287-10.716c-0.227-0.057-0.457-0.108-0.686-0.156
	c-1.02-0.205-2.072-0.31-3.127-0.31c-4.868,0-9.166,2.18-14.28,5.028c-0.738,0.41-1.674,0.931-2.578,1.401
	c-0.316-1-0.617-2.063-0.848-2.878c-1.925-6.792-3.664-11.867-8.518-15.309c-0.15-0.106-0.303-0.21-0.458-0.313
	c-3.738-2.442-7.649-2.725-10.266-2.725c-2.438,0-4.995,0.271-7.405,0.548c-1.034,0.119-2.033,0.235-2.951,0.313
	c0.088-1.034,0.213-2.117,0.309-2.948c0.824-7.146,1.15-12.596-2.184-17.689c-0.101-0.153-0.206-0.307-0.313-0.459
	c-3.44-4.84-8.511-6.578-15.299-8.504c-0.816-0.231-1.878-0.532-2.878-0.848c0.465-0.895,0.977-1.814,1.371-2.522
	c3.551-6.387,5.96-11.353,4.758-17.414c-0.049-0.248-0.104-0.494-0.167-0.74c-1.405-5.562-5.319-9.007-10.695-13.267
	c-0.722-0.571-1.675-1.326-2.532-2.055c0.855-0.728,1.803-1.479,2.519-2.044c5.383-4.264,9.301-7.711,10.709-13.28
	c0.064-0.249,0.12-0.501,0.17-0.754c1.196-6.054-1.216-11.024-4.755-17.385c-0.397-0.714-0.911-1.638-1.378-2.534
	c1-0.317,2.062-0.618,2.876-0.849c6.793-1.926,11.864-3.664,15.303-8.506c0.11-0.154,0.217-0.312,0.32-0.47
	c3.326-5.09,3-10.537,2.176-17.678c-0.096-0.83-0.22-1.912-0.309-2.945c0.916,0.078,1.912,0.191,2.939,0.309
	c2.43,0.28,4.984,0.55,7.419,0.55c2.619,0,6.534-0.283,10.274-2.73c0.159-0.104,0.315-0.211,0.468-0.32
	c4.836-3.439,6.572-8.508,8.498-15.294c0.231-0.816,0.533-1.878,0.849-2.879c0.894,0.466,1.813,0.978,2.522,1.373
	c5.191,2.888,9.475,5.057,14.336,5.057c1.081,0,2.158-0.11,3.201-0.326c0.209-0.043,0.418-0.091,0.625-0.143
	c5.563-1.41,9.009-5.328,13.27-10.71c0.566-0.715,1.316-1.662,2.043-2.517c0.727,0.856,1.479,1.804,2.045,2.519
	c4.258,5.378,7.703,9.296,13.271,10.709c0.273,0.069,0.549,0.131,0.828,0.184c0.973,0.188,1.977,0.283,2.982,0.283
	c4.869,0,9.195-2.191,14.344-5.055c0.711-0.395,1.631-0.908,2.525-1.374c0.318,1.001,0.619,2.062,0.85,2.876
	c1.926,6.789,3.662,11.86,8.502,15.3c0.156,0.111,0.313,0.218,0.473,0.322c3.738,2.444,7.648,2.727,10.264,2.727
	c2.621,0,5.473-0.326,7.357-0.543c1.063-0.123,2.076-0.239,3.002-0.318c-0.088,1.034-0.213,2.117-0.309,2.948
	c-0.824,7.141-1.15,12.591,2.18,17.682c0.104,0.159,0.211,0.315,0.32,0.47c3.434,4.831,8.494,6.567,15.27,8.492
	c0.828,0.235,1.898,0.539,2.904,0.856c-0.465,0.894-0.979,1.813-1.371,2.521c-3.547,6.382-5.957,11.349-4.76,17.406
	c0.051,0.251,0.105,0.5,0.168,0.747c1.406,5.566,5.324,9.013,10.705,13.274c0.717,0.568,1.668,1.321,2.523,2.05
	c-0.855,0.726-1.803,1.477-2.518,2.044c-5.391,4.27-9.303,7.714-10.711,13.277c-0.064,0.252-0.121,0.505-0.17,0.759
	C177.822,120.474,180.232,125.441,183.769,131.799"/>
<g display="none">
	<defs>
		<rect id="SVGID_1_" x="0" width="196.681" height="196.68"/>
	</defs>
	<use xlink:href="#SVGID_1_"  overflow="visible" fill="#FFFFFF"/>
	<clipPath id="SVGID_2_" display="inline">
		<use xlink:href="#SVGID_1_"  display="none" overflow="visible"/>
	</clipPath>
	<path clip-path="url(#SVGID_2_)" fill="#FFFFFF" d="M188.099,110.402c4.021-3.186,8.582-6.797,8.582-12.063
		c0-5.265-4.561-8.876-8.582-12.063c-1.652-1.309-4.73-3.744-4.996-4.8c-0.223-1.126,1.771-4.71,2.842-6.636
		c2.455-4.409,5.236-9.405,3.271-14.145c-1.996-4.812-7.557-6.389-12.461-7.78c-2.068-0.588-5.92-1.68-6.561-2.582
		c-0.613-0.936-0.148-4.963,0.1-7.124c0.582-5.04,1.238-10.751-2.416-14.406c-3.654-3.655-9.367-2.998-14.404-2.417
		c-2.162,0.248-6.189,0.713-7.123,0.101c-0.906-0.642-1.998-4.493-2.584-6.562c-1.393-4.905-2.969-10.465-7.781-12.459
		c-4.74-1.965-9.736,0.815-14.145,3.269c-1.928,1.071-5.52,3.058-6.631,2.844c-1.061-0.269-3.498-3.345-4.807-4.997
		C107.218,4.56,103.607,0,98.341,0c-5.266,0-8.877,4.559-12.063,8.583c-1.308,1.652-3.745,4.728-4.8,4.995
		c-1.131,0.235-4.711-1.771-6.635-2.842c-4.41-2.455-9.41-5.237-14.146-3.27c-4.812,1.995-6.388,7.554-7.78,12.46
		c-0.587,2.068-1.679,5.918-2.582,6.56c-0.936,0.613-4.962,0.149-7.125-0.1c-5.037-0.579-10.75-1.238-14.405,2.417
		c-3.655,3.655-2.997,9.366-2.417,14.405c0.249,2.162,0.713,6.188,0.101,7.123c-0.643,0.905-4.493,1.997-6.562,2.584
		c-4.905,1.392-10.465,2.968-12.459,7.779c-1.967,4.741,0.815,9.738,3.268,14.147c1.072,1.926,3.067,5.51,2.845,6.63
		c-0.268,1.062-3.345,3.497-4.997,4.806C4.56,89.464,0,93.075,0,98.34c0,5.266,4.56,8.877,8.583,12.063
		c1.652,1.311,4.729,3.746,4.995,4.802c0.224,1.126-1.771,4.71-2.843,6.636c-2.454,4.408-5.235,9.405-3.269,14.145
		c1.995,4.812,7.555,6.39,12.46,7.78c2.069,0.586,5.918,1.68,6.56,2.582c0.613,0.937,0.149,4.962-0.1,7.124
		c-0.581,5.04-1.238,10.752,2.417,14.406c3.656,3.656,9.366,2.998,14.405,2.418c2.163-0.25,6.188-0.713,7.123-0.103
		c0.905,0.643,1.997,4.493,2.584,6.562c1.391,4.906,2.968,10.465,7.78,12.461c4.741,1.966,9.735-0.816,14.146-3.27
		c1.926-1.071,5.502-3.072,6.631-2.845c1.06,0.269,3.496,3.345,4.806,4.997c3.187,4.022,6.798,8.582,12.063,8.582
		c5.266,0,8.877-4.56,12.063-8.582c1.309-1.652,3.746-4.729,4.801-4.996c1.129-0.218,4.709,1.772,6.635,2.844
		c4.408,2.454,9.406,5.235,14.146,3.27c4.811-1.996,6.389-7.555,7.779-12.46c0.588-2.068,1.68-5.918,2.582-6.561
		c0.938-0.613,4.963-0.149,7.127,0.101c5.039,0.583,10.748,1.238,14.402-2.417c3.656-3.654,2.998-9.366,2.418-14.405
		c-0.25-2.162-0.713-6.188-0.102-7.123c0.643-0.905,4.494-1.997,6.563-2.584c4.904-1.392,10.465-2.968,12.461-7.78
		c1.965-4.739-0.816-9.735-3.27-14.145c-1.072-1.926-3.068-5.51-2.846-6.631C183.369,114.148,186.447,111.713,188.099,110.402
		 M183.769,131.799c0.398,0.718,0.914,1.642,1.381,2.539c-0.998,0.315-2.059,0.618-2.873,0.848
		c-6.791,1.926-11.863,3.662-15.303,8.503c-0.111,0.156-0.219,0.313-0.324,0.474c-3.322,5.085-2.998,10.529-2.176,17.667
		c0.096,0.837,0.221,1.923,0.309,2.959c-0.936-0.081-1.941-0.198-2.932-0.313c-2.436-0.281-4.986-0.55-7.42-0.55
		c-2.621,0-6.539,0.284-10.283,2.734c-0.154,0.102-0.307,0.206-0.459,0.313c-4.842,3.442-6.578,8.514-8.504,15.303
		c-0.23,0.814-0.531,1.875-0.848,2.875c-0.895-0.466-1.814-0.977-2.523-1.372c-5.139-2.862-9.463-5.056-14.346-5.056
		c-1.018,0-2.031,0.097-3.014,0.287c-0.266,0.052-0.527,0.112-0.791,0.178c-5.564,1.404-9.01,5.319-13.27,10.698
		c-0.572,0.721-1.326,1.672-2.053,2.529c-0.727-0.854-1.476-1.801-2.041-2.514c-4.272-5.393-7.719-9.308-13.287-10.716
		c-0.227-0.057-0.457-0.108-0.686-0.156c-1.02-0.205-2.072-0.31-3.127-0.31c-4.868,0-9.166,2.18-14.28,5.028
		c-0.738,0.41-1.674,0.931-2.578,1.401c-0.316-1-0.617-2.063-0.848-2.878c-1.925-6.792-3.664-11.867-8.518-15.309
		c-0.15-0.106-0.303-0.21-0.458-0.313c-3.738-2.442-7.649-2.725-10.266-2.725c-2.438,0-4.995,0.271-7.405,0.548
		c-1.034,0.119-2.033,0.235-2.951,0.313c0.088-1.034,0.213-2.117,0.309-2.948c0.824-7.146,1.15-12.596-2.184-17.689
		c-0.101-0.153-0.206-0.307-0.313-0.459c-3.44-4.84-8.511-6.578-15.299-8.504c-0.816-0.231-1.878-0.532-2.878-0.848
		c0.465-0.895,0.977-1.814,1.371-2.522c3.551-6.387,5.96-11.353,4.758-17.414c-0.049-0.248-0.104-0.494-0.167-0.74
		c-1.405-5.562-5.319-9.007-10.695-13.267c-0.722-0.571-1.675-1.326-2.532-2.055c0.855-0.728,1.803-1.479,2.519-2.044
		c5.383-4.264,9.301-7.711,10.709-13.28c0.064-0.249,0.12-0.501,0.17-0.754c1.196-6.054-1.216-11.024-4.755-17.385
		c-0.397-0.714-0.911-1.638-1.378-2.534c1-0.317,2.062-0.618,2.876-0.849c6.793-1.926,11.864-3.664,15.303-8.506
		c0.11-0.154,0.217-0.312,0.32-0.47c3.326-5.09,3-10.537,2.176-17.678c-0.096-0.83-0.22-1.912-0.309-2.945
		c0.916,0.078,1.912,0.191,2.939,0.309c2.43,0.28,4.984,0.55,7.419,0.55c2.619,0,6.534-0.283,10.274-2.73
		c0.159-0.104,0.315-0.211,0.468-0.32c4.836-3.439,6.572-8.508,8.498-15.294c0.231-0.816,0.533-1.878,0.849-2.879
		c0.894,0.466,1.813,0.978,2.522,1.373c5.191,2.888,9.475,5.057,14.336,5.057c1.081,0,2.158-0.11,3.201-0.326
		c0.209-0.043,0.418-0.091,0.625-0.143c5.563-1.41,9.009-5.328,13.27-10.71c0.566-0.715,1.316-1.662,2.043-2.517
		c0.727,0.856,1.479,1.804,2.045,2.519c4.258,5.378,7.703,9.296,13.271,10.709c0.273,0.069,0.549,0.131,0.828,0.184
		c0.973,0.188,1.977,0.283,2.982,0.283c4.869,0,9.195-2.191,14.344-5.055c0.711-0.395,1.631-0.908,2.525-1.374
		c0.318,1.001,0.619,2.062,0.85,2.876c1.926,6.789,3.662,11.86,8.502,15.3c0.156,0.111,0.313,0.218,0.473,0.322
		c3.738,2.444,7.648,2.727,10.264,2.727c2.621,0,5.473-0.326,7.357-0.543c1.063-0.123,2.076-0.239,3.002-0.318
		c-0.088,1.034-0.213,2.117-0.309,2.948c-0.824,7.141-1.15,12.591,2.18,17.682c0.104,0.159,0.211,0.315,0.32,0.47
		c3.434,4.831,8.494,6.567,15.27,8.492c0.828,0.235,1.898,0.539,2.904,0.856c-0.465,0.894-0.979,1.813-1.371,2.521
		c-3.547,6.382-5.957,11.349-4.76,17.406c0.051,0.251,0.105,0.5,0.168,0.747c1.406,5.566,5.324,9.013,10.705,13.274
		c0.717,0.568,1.668,1.321,2.523,2.05c-0.855,0.726-1.803,1.477-2.518,2.044c-5.391,4.27-9.303,7.714-10.711,13.277
		c-0.064,0.252-0.121,0.505-0.17,0.759C177.822,120.474,180.232,125.441,183.769,131.799"/>
</g>
<ellipse transform="matrix(-0.7506 -0.6608 0.6608 -0.7506 87.1855 342.6676)" fill="#707170" cx="108.266" cy="154.879" rx="17.829" ry="8.73"/>
<ellipse transform="matrix(0.7007 -0.7134 0.7134 0.7007 -82.8986 110.0603)" fill="#707170" cx="89.737" cy="153.841" rx="17.826" ry="8.728"/>
<path fill="#707170" d="M145.441,85.917c0,11.559-20.629,28.546-46.078,28.546c-25.451-0.002-46.082-16.988-46.082-28.546
	c0-11.56,20.631-20.929,46.082-20.929C124.812,64.986,145.441,74.356,145.441,85.917"/>
<path fill="#9C9B9B" d="M82.721,137.451c-8.264-14.703-17.077-46.307-16.208-59.926c2.188-34.313,13.853-44.498,26.762-47.52
	c1.939-0.452,3.865-0.647,5.766-0.65v124.837h-0.872C88.452,148.855,90.971,150.071,82.721,137.451"/>
<path fill="#3E3E3D" d="M90.971,59.917c0,3.75-2.454,6.792-5.481,6.792c-3.032,0-5.484-3.042-5.484-6.792s2.452-6.792,5.484-6.792
	C88.517,53.125,90.971,56.167,90.971,59.917"/>
<path fill="#D3C5C1" d="M114.781,137.451c7.971-14.703,16.473-46.307,15.633-59.925c-2.109-34.314-13.361-44.499-25.811-47.521
	c-1.871-0.452-3.729-0.647-5.563-0.65v124.837h0.842C109.253,148.855,106.824,150.071,114.781,137.451"/>
<path fill="#3E3E3D" d="M118.233,59.917c0,3.75-2.458,6.792-5.485,6.792c-3.029,0-5.484-3.042-5.484-6.792s2.455-6.792,5.484-6.792
	C115.775,53.125,118.233,56.167,118.233,59.917"/>
<path fill="#FFFFFF" d="M89.633,57.564c0,1.299-0.85,2.352-1.896,2.352c-1.049,0-1.898-1.053-1.898-2.352
	c0-1.296,0.849-2.348,1.898-2.348C88.783,55.216,89.633,56.269,89.633,57.564"/>
<path fill="#FFFFFF" d="M116.837,57.564c0,1.299-0.851,2.352-1.896,2.352c-1.049,0-1.896-1.053-1.896-2.352
	c0-1.296,0.85-2.348,1.896-2.348C115.987,55.216,116.837,56.269,116.837,57.564"/>
<path fill="#707170" d="M92.191,91.104c0.692,2.236,0.219,5.042-1.116,7.104c-1.34,2.082-3.479,3.396-5.777,3.375
	c-2.137,0.026-4.396-1.289-5.699-3.371c-1.336-2.063-1.81-4.872-1.113-7.107c0.679,2.213,1.685,3.82,2.902,4.895
	c1.225,1.078,2.531,1.598,3.991,1.604c1.297,0,2.724-0.52,3.915-1.6C90.512,94.931,91.517,93.317,92.191,91.104"/>
<path fill="#707170" d="M105.896,91.104c0.691,2.236,0.22,5.042-1.115,7.104c-1.341,2.082-3.48,3.396-5.777,3.375
	c-2.138,0.026-4.395-1.289-5.701-3.371c-1.336-2.063-1.807-4.872-1.112-7.107c0.678,2.213,1.687,3.82,2.903,4.895
	c1.224,1.078,2.532,1.598,3.992,1.604c1.297,0,2.725-0.52,3.916-1.6C104.216,94.931,105.222,93.317,105.896,91.104"/>
<path fill="#707170" d="M85.362,101.836c0.691,2.238,0.219,5.045-1.117,7.105c-1.338,2.083-3.479,3.396-5.777,3.372
	c-2.136,0.028-4.394-1.284-5.699-3.368c-1.335-2.063-1.81-4.871-1.112-7.109c0.679,2.217,1.684,3.822,2.898,4.895
	c1.229,1.078,2.536,1.602,3.995,1.604c1.298,0,2.724-0.519,3.913-1.6C83.68,105.662,84.686,104.053,85.362,101.836"/>
<path fill="#707170" d="M99.067,101.836c0.69,2.24,0.219,5.045-1.117,7.105c-1.339,2.083-3.479,3.396-5.777,3.372
	c-2.135,0.028-4.394-1.284-5.698-3.368c-1.337-2.063-1.81-4.871-1.113-7.109c0.678,2.217,1.684,3.822,2.899,4.895
	c1.228,1.078,2.535,1.602,3.993,1.604c1.297,0,2.724-0.519,3.913-1.6C97.387,105.662,98.392,104.053,99.067,101.836"/>
<path fill="#707170" d="M112.726,101.836c0.693,2.24,0.218,5.045-1.118,7.105c-1.339,2.083-3.478,3.396-5.776,3.372
	c-2.136,0.028-4.394-1.284-5.697-3.368c-1.336-2.061-1.81-4.869-1.115-7.109c0.681,2.217,1.688,3.822,2.902,4.895
	c1.228,1.078,2.535,1.602,3.992,1.604c1.299,0,2.723-0.519,3.913-1.6C111.044,105.662,112.05,104.053,112.726,101.836"/>
<path fill="#707170" d="M126.433,101.836c0.689,2.24,0.218,5.045-1.116,7.105c-1.341,2.083-3.479,3.396-5.778,3.372
	c-2.137,0.028-4.395-1.284-5.697-3.368c-1.34-2.061-1.813-4.869-1.113-7.109c0.678,2.217,1.684,3.822,2.898,4.895
	c1.229,1.078,2.535,1.602,3.994,1.604c1.299,0,2.723-0.519,3.912-1.6C124.751,105.662,125.755,104.053,126.433,101.836"/>
<path fill="#707170" d="M99.044,123.451c0.689,2.238,0.219,5.043-1.118,7.104c-1.339,2.085-3.479,3.397-5.777,3.375
	c-2.135,0.026-4.395-1.286-5.699-3.371c-1.336-2.06-1.809-4.87-1.113-7.108c0.678,2.215,1.686,3.821,2.9,4.897
	c1.229,1.075,2.535,1.594,3.994,1.601c1.296,0,2.722-0.521,3.914-1.599C97.363,127.277,98.368,125.666,99.044,123.451"/>
<path fill="#707170" d="M105.896,134.002c0.691,2.238,0.22,5.043-1.115,7.104c-1.341,2.086-3.48,3.396-5.777,3.375
	c-2.137,0.027-4.395-1.285-5.7-3.37c-1.336-2.062-1.809-4.868-1.113-7.106c0.678,2.213,1.686,3.822,2.9,4.896
	c1.229,1.078,2.536,1.597,3.995,1.603c1.297,0,2.725-0.521,3.912-1.6C104.216,137.828,105.222,136.215,105.896,134.002"/>
<path fill="#707170" d="M112.749,123.451c0.693,2.238,0.22,5.043-1.114,7.104c-1.34,2.085-3.48,3.397-5.778,3.375
	c-2.136,0.026-4.396-1.286-5.698-3.371c-1.336-2.06-1.81-4.87-1.113-7.108c0.678,2.215,1.687,3.821,2.901,4.897
	c1.228,1.075,2.534,1.594,3.992,1.601c1.298,0,2.725-0.521,3.911-1.599C111.068,127.277,112.074,125.666,112.749,123.451"/>
<path fill="#707170" d="M119.601,91.104c0.691,2.236,0.218,5.042-1.115,7.104c-1.342,2.082-3.479,3.396-5.777,3.375
	c-2.136,0.026-4.396-1.289-5.697-3.371c-1.338-2.063-1.811-4.872-1.114-7.107c0.678,2.213,1.687,3.82,2.901,4.895
	c1.225,1.078,2.535,1.598,3.992,1.604c1.297,0,2.723-0.52,3.913-1.6C117.921,94.931,118.927,93.317,119.601,91.104"/>
<path fill="#707170" d="M92.191,112.9c0.692,2.236,0.219,5.044-1.116,7.105c-1.34,2.082-3.479,3.395-5.777,3.371
	c-2.137,0.026-4.396-1.283-5.699-3.367c-1.336-2.061-1.81-4.872-1.113-7.109c0.679,2.214,1.685,3.823,2.902,4.896
	c1.225,1.076,2.531,1.595,3.991,1.603c1.297-0.002,2.724-0.521,3.915-1.601C90.512,116.727,91.517,115.114,92.191,112.9"/>
<path fill="#707170" d="M105.896,112.9c0.691,2.236,0.22,5.044-1.115,7.105c-1.341,2.082-3.48,3.395-5.777,3.371
	c-2.138,0.026-4.395-1.283-5.701-3.367c-1.336-2.061-1.807-4.872-1.112-7.109c0.678,2.214,1.687,3.823,2.903,4.896
	c1.224,1.076,2.532,1.595,3.992,1.603c1.297-0.002,2.725-0.521,3.916-1.601C104.216,116.727,105.222,115.114,105.896,112.9"/>
<path fill="#707170" d="M119.601,112.9c0.691,2.236,0.218,5.044-1.115,7.105c-1.342,2.082-3.479,3.395-5.777,3.371
	c-2.136,0.026-4.396-1.283-5.697-3.367c-1.338-2.061-1.811-4.872-1.114-7.109c0.678,2.214,1.687,3.823,2.901,4.896
	c1.225,1.076,2.535,1.595,3.992,1.603c1.297-0.002,2.723-0.521,3.913-1.601C117.921,116.727,118.927,115.114,119.601,112.9"/>
</svg>
