<?xml version="1.0" encoding="utf-8"?>
<!-- Generator: Adobe Illustrator 15.0.0, SVG Export Plug-In  -->
<!DOCTYPE svg PUBLIC "-//W3C//DTD SVG 1.1//EN" "http://www.w3.org/Graphics/SVG/1.1/DTD/svg11.dtd" [
	<!ENTITY ns_flows "http://ns.adobe.com/Flows/1.0/">
]>
<svg version="1.1"
	 xmlns="http://www.w3.org/2000/svg" xmlns:xlink="http://www.w3.org/1999/xlink" xmlns:a="http://ns.adobe.com/AdobeSVGViewerExtensions/3.0/"
	 x="0px" y="0px" width="200px" height="200px" viewBox="-2.219 -2.145 200 200" enable-background="new -2.219 -2.145 200 200"
	 xml:space="preserve">
<defs>
</defs>
<path fill="#FFFFFF" d="M188.099,110.402c4.021-3.186,8.582-6.797,8.582-12.063c0-5.265-4.561-8.876-8.582-12.063
	c-1.652-1.309-4.73-3.744-4.996-4.8c-0.223-1.126,1.771-4.71,2.842-6.636c2.455-4.409,5.236-9.405,3.271-14.145
	c-1.996-4.812-7.557-6.389-12.461-7.78c-2.068-0.588-5.92-1.68-6.561-2.582c-0.613-0.936-0.148-4.963,0.1-7.124
	c0.582-5.04,1.238-10.751-2.416-14.406c-3.654-3.655-9.367-2.998-14.404-2.417c-2.162,0.248-6.189,0.713-7.123,0.101
	c-0.906-0.642-1.998-4.493-2.584-6.562c-1.393-4.905-2.969-10.465-7.781-12.459c-4.74-1.965-9.736,0.815-14.145,3.269
	c-1.928,1.071-5.52,3.058-6.631,2.844c-1.061-0.269-3.498-3.345-4.807-4.997C107.218,4.56,103.607,0,98.341,0
	c-5.266,0-8.877,4.559-12.063,8.583c-1.308,1.652-3.745,4.728-4.8,4.995c-1.131,0.235-4.711-1.771-6.635-2.842
	c-4.41-2.455-9.41-5.237-14.146-3.27c-4.812,1.995-6.388,7.554-7.78,12.46c-0.587,2.068-1.679,5.918-2.582,6.56
	c-0.936,0.613-4.962,0.149-7.125-0.1c-5.037-0.579-10.75-1.238-14.405,2.417c-3.655,3.655-2.997,9.366-2.417,14.405
	c0.249,2.162,0.713,6.188,0.101,7.123c-0.643,0.905-4.493,1.997-6.562,2.584c-4.905,1.392-10.465,2.968-12.459,7.779
	c-1.967,4.741,0.815,9.738,3.268,14.147c1.072,1.926,3.067,5.51,2.845,6.63c-0.268,1.062-3.345,3.497-4.997,4.806
	C4.56,89.464,0,93.075,0,98.34c0,5.266,4.56,8.877,8.583,12.063c1.652,1.311,4.729,3.746,4.995,4.802
	c0.224,1.126-1.771,4.71-2.843,6.636c-2.454,4.408-5.235,9.405-3.269,14.145c1.995,4.812,7.555,6.39,12.46,7.78
	c2.069,0.586,5.918,1.68,6.56,2.582c0.613,0.937,0.149,4.962-0.1,7.124c-0.581,5.04-1.238,10.752,2.417,14.406
	c3.656,3.656,9.366,2.998,14.405,2.418c2.163-0.25,6.188-0.713,7.123-0.103c0.905,0.643,1.997,4.493,2.584,6.562
	c1.391,4.906,2.968,10.465,7.78,12.461c4.741,1.966,9.735-0.816,14.146-3.27c1.926-1.071,5.502-3.072,6.631-2.845
	c1.06,0.269,3.496,3.345,4.806,4.997c3.187,4.022,6.798,8.582,12.063,8.582c5.266,0,8.877-4.56,12.063-8.582
	c1.309-1.652,3.746-4.729,4.801-4.996c1.129-0.218,4.709,1.772,6.635,2.844c4.408,2.454,9.406,5.235,14.146,3.27
	c4.811-1.996,6.389-7.555,7.779-12.46c0.588-2.068,1.68-5.918,2.582-6.561c0.938-0.613,4.963-0.149,7.127,0.101
	c5.039,0.583,10.748,1.238,14.402-2.417c3.656-3.654,2.998-9.366,2.418-14.405c-0.25-2.162-0.713-6.188-0.102-7.123
	c0.643-0.905,4.494-1.997,6.563-2.584c4.904-1.392,10.465-2.968,12.461-7.78c1.965-4.739-0.816-9.735-3.27-14.145
	c-1.072-1.926-3.068-5.51-2.846-6.631C183.369,114.148,186.447,111.713,188.099,110.402 M183.769,131.799
	c0.398,0.718,0.914,1.642,1.381,2.539c-0.998,0.315-2.059,0.618-2.873,0.848c-6.791,1.926-11.863,3.662-15.303,8.503
	c-0.111,0.156-0.219,0.313-0.324,0.474c-3.322,5.085-2.998,10.529-2.176,17.667c0.096,0.837,0.221,1.923,0.309,2.959
	c-0.936-0.081-1.941-0.198-2.932-0.313c-2.436-0.281-4.986-0.55-7.42-0.55c-2.621,0-6.539,0.284-10.283,2.734
	c-0.154,0.102-0.307,0.206-0.459,0.313c-4.842,3.442-6.578,8.514-8.504,15.303c-0.23,0.814-0.531,1.875-0.848,2.875
	c-0.895-0.466-1.814-0.977-2.523-1.372c-5.139-2.862-9.463-5.056-14.346-5.056c-1.018,0-2.031,0.097-3.014,0.287
	c-0.266,0.052-0.527,0.112-0.791,0.178c-5.564,1.404-9.01,5.319-13.27,10.698c-0.572,0.721-1.326,1.672-2.053,2.529
	c-0.727-0.854-1.476-1.801-2.041-2.514c-4.272-5.393-7.719-9.308-13.287-10.716c-0.227-0.057-0.457-0.108-0.686-0.156
	c-1.02-0.205-2.072-0.31-3.127-0.31c-4.868,0-9.166,2.18-14.28,5.028c-0.738,0.41-1.674,0.931-2.578,1.401
	c-0.316-1-0.617-2.063-0.848-2.878c-1.925-6.792-3.664-11.867-8.518-15.309c-0.15-0.106-0.303-0.21-0.458-0.313
	c-3.738-2.442-7.649-2.725-10.266-2.725c-2.438,0-4.995,0.271-7.405,0.548c-1.034,0.119-2.033,0.235-2.951,0.313
	c0.088-1.034,0.213-2.117,0.309-2.948c0.824-7.146,1.15-12.596-2.184-17.689c-0.101-0.153-0.206-0.307-0.313-0.459
	c-3.44-4.84-8.511-6.578-15.299-8.504c-0.816-0.231-1.878-0.532-2.878-0.848c0.465-0.895,0.977-1.814,1.371-2.522
	c3.551-6.387,5.96-11.353,4.758-17.414c-0.049-0.248-0.104-0.494-0.167-0.74c-1.405-5.562-5.319-9.007-10.695-13.267
	c-0.722-0.571-1.675-1.326-2.532-2.055c0.855-0.728,1.803-1.479,2.519-2.044c5.383-4.264,9.301-7.711,10.709-13.28
	c0.064-0.249,0.12-0.501,0.17-0.754c1.196-6.054-1.216-11.024-4.755-17.385c-0.397-0.714-0.911-1.638-1.378-2.534
	c1-0.317,2.062-0.618,2.876-0.849c6.793-1.926,11.864-3.664,15.303-8.506c0.11-0.154,0.217-0.312,0.32-0.47
	c3.326-5.09,3-10.537,2.176-17.678c-0.096-0.83-0.22-1.912-0.309-2.945c0.916,0.078,1.912,0.191,2.939,0.309
	c2.43,0.28,4.984,0.55,7.419,0.55c2.619,0,6.534-0.283,10.274-2.73c0.159-0.104,0.315-0.211,0.468-0.32
	c4.836-3.439,6.572-8.508,8.498-15.294c0.231-0.816,0.533-1.878,0.849-2.879c0.894,0.466,1.813,0.978,2.522,1.373
	c5.191,2.888,9.475,5.057,14.336,5.057c1.081,0,2.158-0.11,3.201-0.326c0.209-0.043,0.418-0.091,0.625-0.143
	c5.563-1.41,9.009-5.328,13.27-10.71c0.566-0.715,1.316-1.662,2.043-2.517c0.727,0.856,1.479,1.804,2.045,2.519
	c4.258,5.378,7.703,9.296,13.271,10.709c0.273,0.069,0.549,0.131,0.828,0.184c0.973,0.188,1.977,0.283,2.982,0.283
	c4.869,0,9.195-2.191,14.344-5.055c0.711-0.395,1.631-0.908,2.525-1.374c0.318,1.001,0.619,2.062,0.85,2.876
	c1.926,6.789,3.662,11.86,8.502,15.3c0.156,0.111,0.313,0.218,0.473,0.322c3.738,2.444,7.648,2.727,10.264,2.727
	c2.621,0,5.473-0.326,7.357-0.543c1.063-0.123,2.076-0.239,3.002-0.318c-0.088,1.034-0.213,2.117-0.309,2.948
	c-0.824,7.141-1.15,12.591,2.18,17.682c0.104,0.159,0.211,0.315,0.32,0.47c3.434,4.831,8.494,6.567,15.27,8.492
	c0.828,0.235,1.898,0.539,2.904,0.856c-0.465,0.894-0.979,1.813-1.371,2.521c-3.547,6.382-5.957,11.349-4.76,17.406
	c0.051,0.251,0.105,0.5,0.168,0.747c1.406,5.566,5.324,9.013,10.705,13.274c0.717,0.568,1.668,1.321,2.523,2.05
	c-0.855,0.726-1.803,1.477-2.518,2.044c-5.391,4.27-9.303,7.714-10.711,13.277c-0.064,0.252-0.121,0.505-0.17,0.759
	C177.822,120.474,180.232,125.441,183.769,131.799"/>
<g display="none">
	<defs>
		<rect id="SVGID_1_" x="0" width="196.681" height="196.68"/>
	</defs>
	<use xlink:href="#SVGID_1_"  overflow="visible" fill="#FFFFFF"/>
	<clipPath id="SVGID_2_" display="inline">
		<use xlink:href="#SVGID_1_"  display="none" overflow="visible"/>
	</clipPath>
	<path clip-path="url(#SVGID_2_)" fill="#FFFFFF" d="M188.099,110.402c4.021-3.186,8.582-6.797,8.582-12.063
		c0-5.265-4.561-8.876-8.582-12.063c-1.652-1.309-4.73-3.744-4.996-4.8c-0.223-1.126,1.771-4.71,2.842-6.636
		c2.455-4.409,5.236-9.405,3.271-14.145c-1.996-4.812-7.557-6.389-12.461-7.78c-2.068-0.588-5.92-1.68-6.561-2.582
		c-0.613-0.936-0.148-4.963,0.1-7.124c0.582-5.04,1.238-10.751-2.416-14.406c-3.654-3.655-9.367-2.998-14.404-2.417
		c-2.162,0.248-6.189,0.713-7.123,0.101c-0.906-0.642-1.998-4.493-2.584-6.562c-1.393-4.905-2.969-10.465-7.781-12.459
		c-4.74-1.965-9.736,0.815-14.145,3.269c-1.928,1.071-5.52,3.058-6.631,2.844c-1.061-0.269-3.498-3.345-4.807-4.997
		C107.218,4.56,103.607,0,98.341,0c-5.266,0-8.877,4.559-12.063,8.583c-1.308,1.652-3.745,4.728-4.8,4.995
		c-1.131,0.235-4.711-1.771-6.635-2.842c-4.41-2.455-9.41-5.237-14.146-3.27c-4.812,1.995-6.388,7.554-7.78,12.46
		c-0.587,2.068-1.679,5.918-2.582,6.56c-0.936,0.613-4.962,0.149-7.125-0.1c-5.037-0.579-10.75-1.238-14.405,2.417
		c-3.655,3.655-2.997,9.366-2.417,14.405c0.249,2.162,0.713,6.188,0.101,7.123c-0.643,0.905-4.493,1.997-6.562,2.584
		c-4.905,1.392-10.465,2.968-12.459,7.779c-1.967,4.741,0.815,9.738,3.268,14.147c1.072,1.926,3.067,5.51,2.845,6.63
		c-0.268,1.062-3.345,3.497-4.997,4.806C4.56,89.464,0,93.075,0,98.34c0,5.266,4.56,8.877,8.583,12.063
		c1.652,1.311,4.729,3.746,4.995,4.802c0.224,1.126-1.771,4.71-2.843,6.636c-2.454,4.408-5.235,9.405-3.269,14.145
		c1.995,4.812,7.555,6.39,12.46,7.78c2.069,0.586,5.918,1.68,6.56,2.582c0.613,0.937,0.149,4.962-0.1,7.124
		c-0.581,5.04-1.238,10.752,2.417,14.406c3.656,3.656,9.366,2.998,14.405,2.418c2.163-0.25,6.188-0.713,7.123-0.103
		c0.905,0.643,1.997,4.493,2.584,6.562c1.391,4.906,2.968,10.465,7.78,12.461c4.741,1.966,9.735-0.816,14.146-3.27
		c1.926-1.071,5.502-3.072,6.631-2.845c1.06,0.269,3.496,3.345,4.806,4.997c3.187,4.022,6.798,8.582,12.063,8.582
		c5.266,0,8.877-4.56,12.063-8.582c1.309-1.652,3.746-4.729,4.801-4.996c1.129-0.218,4.709,1.772,6.635,2.844
		c4.408,2.454,9.406,5.235,14.146,3.27c4.811-1.996,6.389-7.555,7.779-12.46c0.588-2.068,1.68-5.918,2.582-6.561
		c0.938-0.613,4.963-0.149,7.127,0.101c5.039,0.583,10.748,1.238,14.402-2.417c3.656-3.654,2.998-9.366,2.418-14.405
		c-0.25-2.162-0.713-6.188-0.102-7.123c0.643-0.905,4.494-1.997,6.563-2.584c4.904-1.392,10.465-2.968,12.461-7.78
		c1.965-4.739-0.816-9.735-3.27-14.145c-1.072-1.926-3.068-5.51-2.846-6.631C183.369,114.148,186.447,111.713,188.099,110.402
		 M183.769,131.799c0.398,0.718,0.914,1.642,1.381,2.539c-0.998,0.315-2.059,0.618-2.873,0.848
		c-6.791,1.926-11.863,3.662-15.303,8.503c-0.111,0.156-0.219,0.313-0.324,0.474c-3.322,5.085-2.998,10.529-2.176,17.667
		c0.096,0.837,0.221,1.923,0.309,2.959c-0.936-0.081-1.941-0.198-2.932-0.313c-2.436-0.281-4.986-0.55-7.42-0.55
		c-2.621,0-6.539,0.284-10.283,2.734c-0.154,0.102-0.307,0.206-0.459,0.313c-4.842,3.442-6.578,8.514-8.504,15.303
		c-0.23,0.814-0.531,1.875-0.848,2.875c-0.895-0.466-1.814-0.977-2.523-1.372c-5.139-2.862-9.463-5.056-14.346-5.056
		c-1.018,0-2.031,0.097-3.014,0.287c-0.266,0.052-0.527,0.112-0.791,0.178c-5.564,1.404-9.01,5.319-13.27,10.698
		c-0.572,0.721-1.326,1.672-2.053,2.529c-0.727-0.854-1.476-1.801-2.041-2.514c-4.272-5.393-7.719-9.308-13.287-10.716
		c-0.227-0.057-0.457-0.108-0.686-0.156c-1.02-0.205-2.072-0.31-3.127-0.31c-4.868,0-9.166,2.18-14.28,5.028
		c-0.738,0.41-1.674,0.931-2.578,1.401c-0.316-1-0.617-2.063-0.848-2.878c-1.925-6.792-3.664-11.867-8.518-15.309
		c-0.15-0.106-0.303-0.21-0.458-0.313c-3.738-2.442-7.649-2.725-10.266-2.725c-2.438,0-4.995,0.271-7.405,0.548
		c-1.034,0.119-2.033,0.235-2.951,0.313c0.088-1.034,0.213-2.117,0.309-2.948c0.824-7.146,1.15-12.596-2.184-17.689
		c-0.101-0.153-0.206-0.307-0.313-0.459c-3.44-4.84-8.511-6.578-15.299-8.504c-0.816-0.231-1.878-0.532-2.878-0.848
		c0.465-0.895,0.977-1.814,1.371-2.522c3.551-6.387,5.96-11.353,4.758-17.414c-0.049-0.248-0.104-0.494-0.167-0.74
		c-1.405-5.562-5.319-9.007-10.695-13.267c-0.722-0.571-1.675-1.326-2.532-2.055c0.855-0.728,1.803-1.479,2.519-2.044
		c5.383-4.264,9.301-7.711,10.709-13.28c0.064-0.249,0.12-0.501,0.17-0.754c1.196-6.054-1.216-11.024-4.755-17.385
		c-0.397-0.714-0.911-1.638-1.378-2.534c1-0.317,2.062-0.618,2.876-0.849c6.793-1.926,11.864-3.664,15.303-8.506
		c0.11-0.154,0.217-0.312,0.32-0.47c3.326-5.09,3-10.537,2.176-17.678c-0.096-0.83-0.22-1.912-0.309-2.945
		c0.916,0.078,1.912,0.191,2.939,0.309c2.43,0.28,4.984,0.55,7.419,0.55c2.619,0,6.534-0.283,10.274-2.73
		c0.159-0.104,0.315-0.211,0.468-0.32c4.836-3.439,6.572-8.508,8.498-15.294c0.231-0.816,0.533-1.878,0.849-2.879
		c0.894,0.466,1.813,0.978,2.522,1.373c5.191,2.888,9.475,5.057,14.336,5.057c1.081,0,2.158-0.11,3.201-0.326
		c0.209-0.043,0.418-0.091,0.625-0.143c5.563-1.41,9.009-5.328,13.27-10.71c0.566-0.715,1.316-1.662,2.043-2.517
		c0.727,0.856,1.479,1.804,2.045,2.519c4.258,5.378,7.703,9.296,13.271,10.709c0.273,0.069,0.549,0.131,0.828,0.184
		c0.973,0.188,1.977,0.283,2.982,0.283c4.869,0,9.195-2.191,14.344-5.055c0.711-0.395,1.631-0.908,2.525-1.374
		c0.318,1.001,0.619,2.062,0.85,2.876c1.926,6.789,3.662,11.86,8.502,15.3c0.156,0.111,0.313,0.218,0.473,0.322
		c3.738,2.444,7.648,2.727,10.264,2.727c2.621,0,5.473-0.326,7.357-0.543c1.063-0.123,2.076-0.239,3.002-0.318
		c-0.088,1.034-0.213,2.117-0.309,2.948c-0.824,7.141-1.15,12.591,2.18,17.682c0.104,0.159,0.211,0.315,0.32,0.47
		c3.434,4.831,8.494,6.567,15.27,8.492c0.828,0.235,1.898,0.539,2.904,0.856c-0.465,0.894-0.979,1.813-1.371,2.521
		c-3.547,6.382-5.957,11.349-4.76,17.406c0.051,0.251,0.105,0.5,0.168,0.747c1.406,5.566,5.324,9.013,10.705,13.274
		c0.717,0.568,1.668,1.321,2.523,2.05c-0.855,0.726-1.803,1.477-2.518,2.044c-5.391,4.27-9.303,7.714-10.711,13.277
		c-0.064,0.252-0.121,0.505-0.17,0.759C177.822,120.474,180.232,125.441,183.769,131.799"/>
</g>
<path fill="#B15D2B" d="M152.062,129.978c0,24.377-23.188,44.358-51.793,44.358c-28.605,0-51.794-19.981-51.794-44.358
	c0-24.375,23.189-44.137,51.794-44.137S152.062,105.603,152.062,129.978"/>
<path fill="#B83A2F" d="M79.912,39.285c2.28-0.874,4.437-0.672,6.396-0.135c1.954,0.572,3.72,1.604,5.194,2.965
	c1.474,1.357,2.642,3.065,3.358,4.988c0.683,1.939,0.968,4.084,0.261,6.4c-2.257-0.869-3.82-1.77-5.252-2.684
	c-1.411-0.914-2.621-1.854-3.746-2.906c-1.129-1.049-2.171-2.207-3.193-3.564C81.908,42.966,80.941,41.445,79.912,39.285"/>
<path fill="#B83A2F" d="M100.066,25.437c2.15,1.616,3.484,3.534,4.545,5.525c1.027,2.005,1.703,4.121,2.047,6.317
	c0.336,2.193,0.332,4.473-0.135,6.773c-0.506,2.265-1.405,4.715-3.488,6.486c-1.174-2.385-2.042-4.22-2.73-6.188
	c-0.674-1.938-1.17-3.879-1.469-5.879c-0.299-1.999-0.415-4.054-0.285-6.195C98.709,30.123,99.052,27.913,100.066,25.437"/>
<path fill="#B83A2F" d="M108.349,30.135c1.707,1.888,2.557,3.89,3.115,5.9c0.528,2.017,0.688,4.063,0.489,6.109
	c-0.194,2.045-0.752,4.1-1.793,6.058c-1.053,1.879-2.621,3.959-5.147,4.682c-0.305-2.477-0.756-4.201-0.916-6.073
	c-0.178-1.829-0.199-3.623-0.017-5.439c0.181-1.813,0.554-3.641,1.187-5.504C105.929,34.003,106.783,32.123,108.349,30.135"/>
<path fill="#3E3E3D" d="M44.057,87.655c2.813-1.615,6.077-2.336,9.493-2.385c1.706,0.037,3.442,0.285,5.145,0.773
	c1.687,0.516,3.324,1.268,4.842,2.207c1.517,0.941,3.02,1.957,4.377,3.145c1.353,1.191,2.394,2.66,3.069,4.26
	c1.316,3.226,1.779,6.697,0.628,10.296l-0.755,0.239c-3.001-2.228-4.87-4.459-6.683-6.502c-0.883-1.024-1.592-2.08-2.226-3.217
	c-0.619-1.146-1.327-2.273-2.247-3.182c-0.908-0.922-1.929-1.732-3.062-2.405c-1.112-0.709-2.348-1.278-3.668-1.7
	c-2.633-0.918-5.645-1.137-8.625-0.789L44.057,87.655z"/>
<path fill="#3E3E3D" d="M43.281,76.039c1.893-1.443,4.028-2.52,6.367-3.217c2.33-0.699,4.901-0.988,7.498-0.592
	c2.585,0.418,5.11,1.563,7.219,3.174c2.105,1.629,3.798,3.655,5.198,5.775c1.412,2.223,2.529,4.123,3.741,6.217
	c1.146,2.074,2.039,4.285,2.595,6.635c0.544,2.345,0.892,4.781,0.821,7.294c-0.088,2.479-0.33,5.129-1.959,7.475l-0.748-0.258
	c-1.617-4.279-3.818-7.984-5.607-11.957c-0.91-1.972-1.689-4.002-2.318-6.131c-0.612-2.078-1.25-4.4-2.045-6.17
	c-1.668-3.668-4.172-6.822-7.869-8.215c-3.68-1.494-8.345-0.979-12.477,0.646L43.281,76.039z"/>
<path fill="#3E3E3D" d="M63.807,69.858c1.995-0.859,4.271-0.939,6.54-0.439c1.119,0.277,2.228,0.71,3.275,1.271
	c1.025,0.592,1.985,1.307,2.856,2.104c0.873,0.799,1.776,1.596,2.581,2.48c0.792,0.893,1.306,1.949,1.502,3.08
	c0.193,1.125,0.194,2.287-0.077,3.453c-0.244,1.16-0.698,2.326-1.623,3.502l-0.78,0.15c-1.295-0.725-2.185-1.441-2.956-2.145
	c-0.792-0.693-1.397-1.377-1.919-2.043c-0.519-0.668-0.825-1.365-0.977-2.164c-0.145-0.799-0.307-1.623-0.659-2.322
	c-0.346-0.703-0.756-1.373-1.239-1.99c-0.46-0.646-1.005-1.248-1.64-1.781c-1.242-1.105-2.905-1.961-4.753-2.379L63.807,69.858z"/>
<path fill="#3E3E3D" d="M99.425,130.401c-0.385-0.01-0.756-0.049-1.126-0.103c-24.267-0.979-37.301-19.862-37.301-19.862
	c-3.569,10.737-3.584,22.819-3.584,22.819c0.562,23.188,19.519,41.812,42.84,41.812v-44.721c-0.182,0.012-0.352,0.055-0.531,0.055
	H99.425L99.425,130.401z"/>
<path fill="#B15D2B" d="M70.709,76.508l-0.014-0.018c0,0,0.001,0.086,0.001,0.223c-0.061,0.795-0.118,1.594-0.118,2.406
	c0,0.248,0.026,0.49,0.029,0.738c-0.167,2.99-0.611,7.66-1.912,12.586c-0.917,3.455-2.248,7.035-4.22,10.248
	c-1.434,2.344-2.568,5.002-3.477,7.744c0,0,13.034,18.883,37.301,19.863h0.006c0.365,0.053,0.738,0.092,1.121,0.102h0.297
	c0.181,0,0.349-0.043,0.531-0.055v-23.295V49.447C84.745,49.447,72.032,61.344,70.709,76.508"/>
<path fill="#595958" d="M139.677,110.908c0,0-13.902,19.438-39.424,19.438v44.721c23.338,0,42.307-18.653,42.836-41.862
	C143.089,133.205,143.078,121.51,139.677,110.908"/>
<path fill="#EA8330" d="M136.06,102.692c-1.801-2.955-3.076-6.219-3.98-9.408c-1.547-5.443-2.016-10.676-2.164-13.805
	c0-0.121,0.012-0.238,0.012-0.359c0-0.541-0.053-1.07-0.08-1.604c-0.012-0.639-0.004-1.025-0.004-1.025l-0.045,0.068
	c-1.303-15.191-14.021-27.113-29.545-27.113v57.604v23.296c25.521,0,39.424-19.438,39.424-19.438
	C138.748,108.002,137.573,105.174,136.06,102.692"/>
<path fill="#EA595D" d="M110.947,100.082v-0.019c0-6.592-5.965-11.939-10.881-11.939s-10.881,5.348-10.881,11.939
	c0,2.642-0.204,9.573,4.783,9.573c1.47,0,2.77-0.678,3.647-1.723c0.824,0.088,1.654,0.131,2.451,0.131
	c0.801,0,1.628-0.043,2.453-0.131c0.875,1.045,2.176,1.723,3.648,1.723C111.142,109.637,110.947,102.733,110.947,100.082"/>
<path fill="#B83A2F" d="M88.104,66.408c-7.293,0-13.206,5.617-13.206,12.545c0,6.934,5.913,12.549,13.206,12.549
	c5.453,0,10.132,0.795,12.15-3.668V74.033C98.236,69.549,93.559,66.408,88.104,66.408"/>
<path fill="#EA595D" d="M112.435,91.501c7.291,0,13.207-5.615,13.207-12.549c0-6.928-5.916-12.545-13.207-12.545
	c-5.469,0-10.158,3.157-12.166,7.655c-0.004-0.009-0.012-0.021-0.016-0.03v13.801c0.004-0.012,0.012-0.02,0.016-0.031
	C102.277,92.299,106.966,91.501,112.435,91.501"/>
<path fill="#F39F2D" d="M97.929,88.453l-3.198,2.109c-1.286,0.85-1.693,2.627-0.904,3.952l5.007,8.406
	c0.395,0.666,0.916,0.998,1.436,0.998V87.813C99.417,87.813,98.575,88.026,97.929,88.453"/>
<path fill="#FADD58" d="M101.704,102.92l5.007-8.405c0.791-1.326,0.383-3.104-0.904-3.953l-3.196-2.109
	c-0.646-0.426-1.492-0.639-2.341-0.639v16.104C100.789,103.918,101.308,103.586,101.704,102.92"/>
<path fill="#4C1A17" d="M90.417,78.981c0,2.365-1.92,4.281-4.279,4.281c-2.366,0-4.282-1.916-4.282-4.281
	c0-2.361,1.916-4.277,4.282-4.277C88.497,74.705,90.417,76.621,90.417,78.981"/>
<path fill="#4C1A17" d="M118.278,78.981c0,2.365-1.919,4.281-4.28,4.281c-2.363,0-4.281-1.916-4.281-4.281
	c0-2.361,1.918-4.277,4.281-4.277C116.359,74.705,118.278,76.621,118.278,78.981"/>
<path fill="#FFFFFF" d="M89.185,77.285c0,0.809-0.656,1.465-1.463,1.465c-0.808,0-1.463-0.656-1.463-1.465
	c0-0.809,0.655-1.463,1.463-1.463S89.185,76.476,89.185,77.285"/>
<path fill="#FFFFFF" d="M116.923,77.285c0,0.809-0.654,1.465-1.463,1.465s-1.463-0.656-1.463-1.465c0-0.809,0.654-1.463,1.463-1.463
	S116.923,76.476,116.923,77.285"/>
<path fill="#EA595D" d="M80.627,21.355c3.895,2.138,6.86,4.636,9.578,6.751c0.665,0.527,1.324,1.003,1.889,1.399
	c0.301,0.213,0.548,0.313,0.819,0.497l1.1,0.731c1.585,1.072,3.419,2.625,4.909,4.499c3.063,3.786,4.459,8.513,4.525,12.772
	c0.047,4.313-0.953,8.406-3.381,12.174c-2.514-3.699-4.093-7.105-5.716-10.084c-1.588-3.011-3.065-5.397-4.705-7.459
	c-0.84-1.063-1.757-2.063-3.002-3.424l-1.01-1.119c-0.42-0.446-0.843-1-1.173-1.475c-0.706-0.973-1.229-1.952-1.687-2.92
	C81.031,29.809,80.207,25.83,80.627,21.355"/>
</svg>
