<?xml version="1.0" encoding="utf-8"?>
<!-- Generator: Adobe Illustrator 15.0.0, SVG Export Plug-In  -->
<!DOCTYPE svg PUBLIC "-//W3C//DTD SVG 1.1//EN" "http://www.w3.org/Graphics/SVG/1.1/DTD/svg11.dtd" [
	<!ENTITY ns_flows "http://ns.adobe.com/Flows/1.0/">
]>
<svg version="1.1"
	 xmlns="http://www.w3.org/2000/svg" xmlns:xlink="http://www.w3.org/1999/xlink" xmlns:a="http://ns.adobe.com/AdobeSVGViewerExtensions/3.0/"
	 x="0px" y="0px" width="200px" height="200px" viewBox="0 0 200 200" enable-background="new 0 0 200 200" xml:space="preserve">
<defs>
</defs>
<path fill="#FFFFFF" d="M188.1,110.402c4.021-3.187,8.582-6.797,8.582-12.063c0-5.265-4.562-8.876-8.582-12.063
	c-1.652-1.309-4.73-3.744-4.996-4.8c-0.224-1.126,1.771-4.71,2.842-6.636c2.455-4.409,5.236-9.405,3.271-14.145
	c-1.995-4.812-7.557-6.389-12.461-7.78c-2.067-0.588-5.92-1.68-6.562-2.582c-0.612-0.936-0.147-4.963,0.101-7.124
	c0.582-5.04,1.238-10.751-2.416-14.406c-3.653-3.655-9.366-2.998-14.403-2.417c-2.162,0.248-6.189,0.713-7.123,0.101
	c-0.906-0.642-1.998-4.493-2.584-6.562c-1.394-4.905-2.97-10.465-7.781-12.459c-4.74-1.965-9.736,0.815-14.146,3.269
	c-1.928,1.071-5.521,3.058-6.631,2.844c-1.062-0.269-3.498-3.345-4.808-4.997C107.218,4.56,103.607,0,98.341,0
	c-5.266,0-8.877,4.559-12.063,8.583c-1.308,1.652-3.745,4.728-4.8,4.995c-1.131,0.235-4.711-1.771-6.635-2.842
	c-4.41-2.455-9.41-5.237-14.146-3.27c-4.812,1.995-6.388,7.554-7.78,12.46c-0.587,2.068-1.679,5.918-2.582,6.56
	c-0.936,0.613-4.962,0.149-7.125-0.1c-5.037-0.579-10.75-1.238-14.405,2.417c-3.655,3.655-2.997,9.366-2.417,14.405
	c0.249,2.162,0.713,6.188,0.101,7.123c-0.643,0.905-4.493,1.997-6.562,2.584c-4.905,1.392-10.465,2.968-12.459,7.779
	c-1.967,4.741,0.815,9.738,3.268,14.147c1.072,1.926,3.067,5.51,2.845,6.63c-0.268,1.062-3.345,3.497-4.997,4.806
	C4.56,89.464,0,93.075,0,98.34c0,5.266,4.56,8.877,8.583,12.063c1.652,1.312,4.729,3.746,4.995,4.803
	c0.224,1.126-1.771,4.71-2.843,6.636c-2.454,4.408-5.235,9.405-3.269,14.146c1.995,4.812,7.555,6.39,12.46,7.779
	c2.069,0.586,5.918,1.68,6.56,2.582c0.613,0.938,0.149,4.963-0.1,7.125c-0.581,5.039-1.238,10.752,2.417,14.405
	c3.656,3.656,9.366,2.998,14.405,2.418c2.163-0.25,6.188-0.713,7.123-0.103c0.905,0.643,1.997,4.492,2.584,6.562
	c1.391,4.906,2.968,10.466,7.78,12.461c4.741,1.966,9.735-0.815,14.146-3.271c1.926-1.07,5.502-3.071,6.631-2.844
	c1.06,0.269,3.496,3.344,4.806,4.996c3.187,4.022,6.798,8.582,12.063,8.582c5.267,0,8.877-4.56,12.063-8.582
	c1.309-1.652,3.746-4.729,4.801-4.996c1.129-0.218,4.709,1.772,6.635,2.844c4.408,2.455,9.406,5.236,14.146,3.271
	c4.811-1.995,6.389-7.555,7.779-12.46c0.588-2.068,1.68-5.918,2.582-6.561c0.938-0.613,4.963-0.149,7.127,0.101
	c5.039,0.583,10.748,1.238,14.401-2.417c3.656-3.654,2.998-9.365,2.418-14.404c-0.25-2.162-0.713-6.188-0.103-7.123
	c0.644-0.906,4.494-1.998,6.563-2.584c4.904-1.393,10.466-2.969,12.461-7.781c1.966-4.738-0.815-9.734-3.271-14.145
	c-1.071-1.926-3.067-5.51-2.846-6.631C183.369,114.148,186.447,111.713,188.1,110.402 M183.77,131.799
	c0.397,0.719,0.914,1.643,1.381,2.539c-0.998,0.314-2.06,0.618-2.873,0.848c-6.791,1.926-11.863,3.662-15.303,8.504
	c-0.111,0.156-0.22,0.313-0.324,0.474c-3.322,5.085-2.998,10.528-2.176,17.667c0.096,0.837,0.221,1.923,0.309,2.959
	c-0.936-0.081-1.941-0.198-2.932-0.313c-2.437-0.281-4.986-0.551-7.42-0.551c-2.621,0-6.539,0.284-10.283,2.734
	c-0.154,0.102-0.308,0.206-0.459,0.313c-4.842,3.442-6.578,8.514-8.504,15.303c-0.23,0.814-0.531,1.875-0.849,2.875
	c-0.896-0.465-1.813-0.977-2.522-1.371c-5.14-2.862-9.463-5.057-14.347-5.057c-1.018,0-2.03,0.098-3.014,0.287
	c-0.267,0.053-0.527,0.112-0.791,0.178c-5.563,1.404-9.011,5.319-13.27,10.699c-0.572,0.721-1.326,1.672-2.053,2.528
	c-0.727-0.854-1.476-1.802-2.041-2.515c-4.272-5.393-7.719-9.307-13.287-10.715c-0.227-0.058-0.457-0.108-0.686-0.156
	c-1.02-0.205-2.072-0.311-3.127-0.311c-4.868,0-9.166,2.18-14.28,5.028c-0.738,0.409-1.674,0.931-2.578,1.401
	c-0.316-1-0.617-2.063-0.848-2.879c-1.925-6.791-3.664-11.867-8.518-15.309c-0.15-0.105-0.303-0.21-0.458-0.313
	c-3.738-2.442-7.649-2.726-10.266-2.726c-2.438,0-4.995,0.271-7.405,0.548c-1.034,0.119-2.033,0.235-2.951,0.313
	c0.088-1.034,0.213-2.117,0.309-2.948c0.824-7.146,1.15-12.596-2.184-17.689c-0.101-0.152-0.206-0.307-0.313-0.459
	c-3.44-4.84-8.511-6.578-15.299-8.504c-0.816-0.23-1.878-0.531-2.878-0.848c0.465-0.895,0.977-1.814,1.371-2.521
	c3.551-6.388,5.96-11.354,4.758-17.414c-0.049-0.248-0.104-0.494-0.167-0.74c-1.405-5.563-5.319-9.008-10.695-13.267
	c-0.722-0.571-1.675-1.326-2.532-2.055c0.855-0.728,1.803-1.479,2.519-2.044c5.383-4.264,9.301-7.711,10.709-13.28
	c0.064-0.249,0.12-0.501,0.17-0.754c1.196-6.054-1.216-11.024-4.755-17.385c-0.397-0.714-0.911-1.638-1.378-2.534
	c1-0.317,2.062-0.618,2.876-0.849c6.793-1.926,11.864-3.664,15.303-8.506c0.11-0.154,0.217-0.312,0.32-0.47
	c3.326-5.09,3-10.537,2.176-17.678c-0.096-0.83-0.22-1.912-0.309-2.945c0.916,0.078,1.912,0.191,2.939,0.309
	c2.43,0.28,4.984,0.55,7.419,0.55c2.619,0,6.534-0.283,10.274-2.73c0.159-0.104,0.315-0.211,0.468-0.32
	c4.836-3.439,6.572-8.508,8.498-15.294c0.231-0.816,0.533-1.878,0.849-2.879c0.894,0.466,1.813,0.978,2.522,1.373
	c5.191,2.888,9.475,5.057,14.336,5.057c1.081,0,2.158-0.11,3.201-0.326c0.209-0.043,0.418-0.091,0.625-0.143
	c5.563-1.41,9.009-5.328,13.27-10.71c0.566-0.715,1.316-1.662,2.043-2.517c0.727,0.856,1.479,1.804,2.045,2.519
	c4.258,5.378,7.703,9.296,13.271,10.709c0.273,0.069,0.549,0.131,0.828,0.184c0.973,0.188,1.977,0.283,2.981,0.283
	c4.869,0,9.195-2.191,14.345-5.055c0.711-0.395,1.631-0.908,2.524-1.374c0.317,1.001,0.619,2.062,0.851,2.876
	c1.926,6.789,3.662,11.86,8.502,15.3c0.155,0.111,0.313,0.218,0.473,0.322c3.738,2.444,7.648,2.727,10.264,2.727
	c2.621,0,5.473-0.326,7.357-0.543c1.063-0.123,2.076-0.239,3.002-0.318c-0.088,1.034-0.213,2.117-0.309,2.948
	c-0.824,7.141-1.15,12.591,2.18,17.682c0.104,0.159,0.211,0.315,0.32,0.47c3.434,4.831,8.493,6.567,15.27,8.492
	c0.828,0.235,1.898,0.539,2.904,0.856c-0.465,0.894-0.979,1.813-1.371,2.521c-3.547,6.382-5.957,11.349-4.76,17.406
	c0.051,0.251,0.104,0.5,0.168,0.747c1.405,5.566,5.323,9.013,10.705,13.274c0.717,0.568,1.668,1.321,2.522,2.05
	c-0.854,0.726-1.804,1.477-2.519,2.044c-5.391,4.27-9.303,7.715-10.711,13.277c-0.063,0.252-0.121,0.505-0.17,0.759
	C177.822,120.475,180.232,125.441,183.77,131.799"/>
<rect id="SVGID_3_" display="none" fill="#FFFFFF" width="196.682" height="196.68"/>
<g display="none">
	<defs>
		<rect id="SVGID_2_" width="196.682" height="196.68"/>
	</defs>
	<clipPath id="SVGID_4_" display="inline">
		<use xlink:href="#SVGID_2_"  display="none" overflow="visible"/>
	</clipPath>
	<path clip-path="url(#SVGID_4_)" fill="#FFFFFF" d="M188.1,110.402c4.021-3.187,8.582-6.797,8.582-12.063
		c0-5.265-4.562-8.876-8.582-12.063c-1.652-1.309-4.73-3.744-4.996-4.8c-0.224-1.126,1.771-4.71,2.842-6.636
		c2.455-4.409,5.236-9.405,3.271-14.145c-1.995-4.812-7.557-6.389-12.461-7.78c-2.067-0.588-5.92-1.68-6.562-2.582
		c-0.612-0.936-0.147-4.963,0.101-7.124c0.582-5.04,1.238-10.751-2.416-14.406c-3.653-3.655-9.366-2.998-14.403-2.417
		c-2.162,0.248-6.189,0.713-7.123,0.101c-0.906-0.642-1.998-4.493-2.584-6.562c-1.394-4.905-2.97-10.465-7.781-12.459
		c-4.74-1.965-9.736,0.815-14.146,3.269c-1.928,1.071-5.521,3.058-6.631,2.844c-1.062-0.269-3.498-3.345-4.808-4.997
		C107.218,4.56,103.607,0,98.341,0c-5.266,0-8.877,4.559-12.063,8.583c-1.308,1.652-3.745,4.728-4.8,4.995
		c-1.131,0.235-4.711-1.771-6.635-2.842c-4.41-2.455-9.41-5.237-14.146-3.27c-4.812,1.995-6.388,7.554-7.78,12.46
		c-0.587,2.068-1.679,5.918-2.582,6.56c-0.936,0.613-4.962,0.149-7.125-0.1c-5.037-0.579-10.75-1.238-14.405,2.417
		c-3.655,3.655-2.997,9.366-2.417,14.405c0.249,2.162,0.713,6.188,0.101,7.123c-0.643,0.905-4.493,1.997-6.562,2.584
		c-4.905,1.392-10.465,2.968-12.459,7.779c-1.967,4.741,0.815,9.738,3.268,14.147c1.072,1.926,3.067,5.51,2.845,6.63
		c-0.268,1.062-3.345,3.497-4.997,4.806C4.56,89.464,0,93.075,0,98.34c0,5.266,4.56,8.877,8.583,12.063
		c1.652,1.312,4.729,3.746,4.995,4.803c0.224,1.126-1.771,4.71-2.843,6.636c-2.454,4.408-5.235,9.405-3.269,14.146
		c1.995,4.812,7.555,6.39,12.46,7.779c2.069,0.586,5.918,1.68,6.56,2.582c0.613,0.938,0.149,4.963-0.1,7.125
		c-0.581,5.039-1.238,10.752,2.417,14.405c3.656,3.656,9.366,2.998,14.405,2.418c2.163-0.25,6.188-0.713,7.123-0.103
		c0.905,0.643,1.997,4.492,2.584,6.562c1.391,4.906,2.968,10.466,7.78,12.461c4.741,1.966,9.735-0.815,14.146-3.271
		c1.926-1.07,5.502-3.071,6.631-2.844c1.06,0.269,3.496,3.344,4.806,4.996c3.187,4.022,6.798,8.582,12.063,8.582
		c5.267,0,8.877-4.56,12.063-8.582c1.309-1.652,3.746-4.729,4.801-4.996c1.129-0.218,4.709,1.772,6.635,2.844
		c4.408,2.455,9.406,5.236,14.146,3.271c4.811-1.995,6.389-7.555,7.779-12.46c0.588-2.068,1.68-5.918,2.582-6.561
		c0.938-0.613,4.963-0.149,7.127,0.101c5.039,0.583,10.748,1.238,14.401-2.417c3.656-3.654,2.998-9.365,2.418-14.404
		c-0.25-2.162-0.713-6.188-0.103-7.123c0.644-0.906,4.494-1.998,6.563-2.584c4.904-1.393,10.466-2.969,12.461-7.781
		c1.966-4.738-0.815-9.734-3.271-14.145c-1.071-1.926-3.067-5.51-2.846-6.631C183.369,114.148,186.447,111.713,188.1,110.402
		 M183.77,131.799c0.397,0.719,0.914,1.643,1.381,2.539c-0.998,0.314-2.06,0.618-2.873,0.848
		c-6.791,1.926-11.863,3.662-15.303,8.504c-0.111,0.156-0.22,0.313-0.324,0.474c-3.322,5.085-2.998,10.528-2.176,17.667
		c0.096,0.837,0.221,1.923,0.309,2.959c-0.936-0.081-1.941-0.198-2.932-0.313c-2.437-0.281-4.986-0.551-7.42-0.551
		c-2.621,0-6.539,0.284-10.283,2.734c-0.154,0.102-0.308,0.206-0.459,0.313c-4.842,3.442-6.578,8.514-8.504,15.303
		c-0.23,0.814-0.531,1.875-0.849,2.875c-0.896-0.465-1.813-0.977-2.522-1.371c-5.14-2.862-9.463-5.057-14.347-5.057
		c-1.018,0-2.03,0.098-3.014,0.287c-0.267,0.053-0.527,0.112-0.791,0.178c-5.563,1.404-9.011,5.319-13.27,10.699
		c-0.572,0.721-1.326,1.672-2.053,2.528c-0.727-0.854-1.476-1.802-2.041-2.515c-4.272-5.393-7.719-9.307-13.287-10.715
		c-0.227-0.058-0.457-0.108-0.686-0.156c-1.02-0.205-2.072-0.311-3.127-0.311c-4.868,0-9.166,2.18-14.28,5.028
		c-0.738,0.409-1.674,0.931-2.578,1.401c-0.316-1-0.617-2.063-0.848-2.879c-1.925-6.791-3.664-11.867-8.518-15.309
		c-0.15-0.105-0.303-0.21-0.458-0.313c-3.738-2.442-7.649-2.726-10.266-2.726c-2.438,0-4.995,0.271-7.405,0.548
		c-1.034,0.119-2.033,0.235-2.951,0.313c0.088-1.034,0.213-2.117,0.309-2.948c0.824-7.146,1.15-12.596-2.184-17.689
		c-0.101-0.152-0.206-0.307-0.313-0.459c-3.44-4.84-8.511-6.578-15.299-8.504c-0.816-0.23-1.878-0.531-2.878-0.848
		c0.465-0.895,0.977-1.814,1.371-2.521c3.551-6.388,5.96-11.354,4.758-17.414c-0.049-0.248-0.104-0.494-0.167-0.74
		c-1.405-5.563-5.319-9.008-10.695-13.267c-0.722-0.571-1.675-1.326-2.532-2.055c0.855-0.728,1.803-1.479,2.519-2.044
		c5.383-4.264,9.301-7.711,10.709-13.28c0.064-0.249,0.12-0.501,0.17-0.754c1.196-6.054-1.216-11.024-4.755-17.385
		c-0.397-0.714-0.911-1.638-1.378-2.534c1-0.317,2.062-0.618,2.876-0.849c6.793-1.926,11.864-3.664,15.303-8.506
		c0.11-0.154,0.217-0.312,0.32-0.47c3.326-5.09,3-10.537,2.176-17.678c-0.096-0.83-0.22-1.912-0.309-2.945
		c0.916,0.078,1.912,0.191,2.939,0.309c2.43,0.28,4.984,0.55,7.419,0.55c2.619,0,6.534-0.283,10.274-2.73
		c0.159-0.104,0.315-0.211,0.468-0.32c4.836-3.439,6.572-8.508,8.498-15.294c0.231-0.816,0.533-1.878,0.849-2.879
		c0.894,0.466,1.813,0.978,2.522,1.373c5.191,2.888,9.475,5.057,14.336,5.057c1.081,0,2.158-0.11,3.201-0.326
		c0.209-0.043,0.418-0.091,0.625-0.143c5.563-1.41,9.009-5.328,13.27-10.71c0.566-0.715,1.316-1.662,2.043-2.517
		c0.727,0.856,1.479,1.804,2.045,2.519c4.258,5.378,7.703,9.296,13.271,10.709c0.273,0.069,0.549,0.131,0.828,0.184
		c0.973,0.188,1.977,0.283,2.981,0.283c4.869,0,9.195-2.191,14.345-5.055c0.711-0.395,1.631-0.908,2.524-1.374
		c0.317,1.001,0.619,2.062,0.851,2.876c1.926,6.789,3.662,11.86,8.502,15.3c0.155,0.111,0.313,0.218,0.473,0.322
		c3.738,2.444,7.648,2.727,10.264,2.727c2.621,0,5.473-0.326,7.357-0.543c1.063-0.123,2.076-0.239,3.002-0.318
		c-0.088,1.034-0.213,2.117-0.309,2.948c-0.824,7.141-1.15,12.591,2.18,17.682c0.104,0.159,0.211,0.315,0.32,0.47
		c3.434,4.831,8.493,6.567,15.27,8.492c0.828,0.235,1.898,0.539,2.904,0.856c-0.465,0.894-0.979,1.813-1.371,2.521
		c-3.547,6.382-5.957,11.349-4.76,17.406c0.051,0.251,0.104,0.5,0.168,0.747c1.405,5.566,5.323,9.013,10.705,13.274
		c0.717,0.568,1.668,1.321,2.522,2.05c-0.854,0.726-1.804,1.477-2.519,2.044c-5.391,4.27-9.303,7.715-10.711,13.277
		c-0.063,0.252-0.121,0.505-0.17,0.759C177.822,120.475,180.232,125.441,183.77,131.799"/>
</g>
<path fill="#F6E9E5" d="M34.523,42.001c0,0,3.369,23.167,16.418,23.167h17.432c0,0-5.994-23.167-19.043-23.167H34.523z"/>
<path fill="#D86D7A" d="M40.52,46.107c0,0,2.177,14.955,10.602,14.955h11.252c0,0-3.871-14.955-12.293-14.955H40.52z"/>
<path fill="#F6E9E5" d="M145,42.001c0,0-3.371,23.167-16.42,23.167h-17.432c0,0,5.994-23.167,19.043-23.167H145z"/>
<path fill="#D86D7A" d="M139.002,46.107c0,0-2.18,14.955-10.6,14.955h-11.256c0,0,3.871-14.955,12.297-14.955H139.002z"/>
<path fill="#D3C5C1" d="M86.545,33.177c-0.789,0.791-1.239,1.896-1.239,3.016c0,0.08,0.019,0.159,0.022,0.24
	c-0.058,0.007-0.117,0.015-0.177,0.021c-0.012-0.081-0.012-0.158-0.028-0.238c-0.498-2.298-2.772-3.745-5.07-3.234
	c-2.299,0.498-3.744,2.772-3.234,5.07c0.018,0.081,0.051,0.152,0.073,0.229c-0.056,0.018-0.109,0.04-0.162,0.057
	c-0.033-0.082-0.052-0.169-0.093-0.25c-1.021-2.114-3.574-2.989-5.678-1.957c-2.117,1.021-2.992,3.575-1.969,5.691
	c0.041,0.082,0.09,0.155,0.135,0.234c-0.043,0.029-0.086,0.057-0.131,0.085c-0.056-0.075-0.099-0.161-0.164-0.235
	c-1.529-1.774-4.22-1.968-6.006-0.437c-1.775,1.544-1.968,4.219-0.438,6.006c0.064,0.074,0.143,0.127,0.212,0.195
	c-0.036,0.041-0.073,0.088-0.11,0.129c-0.078-0.061-0.146-0.135-0.236-0.19c-1.967-1.287-4.606-0.743-5.883,1.229
	c-1.289,1.968-0.74,4.606,1.227,5.896c0.09,0.057,0.184,0.1,0.273,0.149c-0.02,0.047-0.045,0.093-0.066,0.142
	c-0.098-0.039-0.188-0.092-0.291-0.12c-2.25-0.669-4.618,0.62-5.288,2.869c-0.667,2.26,0.618,4.619,2.883,5.287
	c0.099,0.031,0.201,0.046,0.304,0.069c-0.008,0.052-0.015,0.106-0.021,0.156c-0.104-0.007-0.203-0.029-0.31-0.029
	c-2.357,0.012-4.256,1.92-4.242,4.266c0,2.346,1.906,4.245,4.254,4.245h0.015c0.071,0,0.142-0.02,0.212-0.025
	c0.005,0.054,0.012,0.107,0.018,0.16c-0.056,0.005-0.104,0.002-0.158,0.01c-2.323,0.402-3.879,2.601-3.489,4.911v0.012
	c0.364,2.069,2.151,3.538,4.192,3.538c0.233,0,0.477-0.023,0.72-0.074c0.041-0.005,0.073-0.021,0.112-0.029
	c0.01,0.048,0.019,0.097,0.031,0.144c-2.289,0.506-3.742,2.774-3.244,5.066h0.012c0.427,1.995,2.187,3.342,4.146,3.342
	c0.284,0,0.572-0.024,0.856-0.085c0.006,0.048,0.018,0.102,0.027,0.155c-0.015,0.003-0.027,0.001-0.043,0.005
	c-2.301,0.498-3.759,2.758-3.248,5.057c0.426,1.995,2.19,3.354,4.147,3.354c0.304,0,0.608-0.035,0.911-0.096
	c0.007,0,0.01-0.005,0.018-0.005c0.01,0.069,0.022,0.14,0.036,0.21c-0.743,0.169-1.442,0.514-1.985,1.059
	c-0.805,0.791-1.256,1.896-1.256,3.017s0.451,2.213,1.256,3.004c0.283,0.282,0.617,0.509,0.973,0.703
	c-0.055-0.017-0.104-0.046-0.159-0.06c-2.276-0.598-4.61,0.754-5.217,3.014c-0.597,2.273,0.741,4.597,3.004,5.205
	c-2.336-0.024-4.255,1.836-4.304,4.17c-0.049,2.347,1.824,4.291,4.17,4.341h0.121c-0.062,0.024-0.121,0.048-0.172,0.062
	c-2.176,0.899-3.221,3.379-2.334,5.557h0.012c0.889,2.176,3.371,3.209,5.547,2.322c0.048-0.013,0.095-0.037,0.143-0.063
	c-0.023,0.023-0.048,0.05-0.07,0.063c-1.713,1.617-1.801,4.303-0.194,6.016c1.606,1.716,4.302,1.801,6.017,0.197
	c0.012-0.014,0.024-0.024,0.039-0.024c-1.205,2.019-0.537,4.618,1.492,5.825c2.006,1.189,4.609,0.533,5.814-1.473
	c-0.67,2.223,0.582,4.582,2.808,5.274c2.224,0.694,4.583-0.533,5.313-2.735c-0.183,2.311,1.52,4.342,3.828,4.561
	c0.135,0.012,0.278,0.012,0.414,0.012c1.756,0,3.303-1.096,3.937-2.688V32.009C88.446,32.009,87.34,32.388,86.545,33.177"/>
<path fill="#F6E9E5" d="M94.484,147.428c2.309-0.23,4-2.264,3.816-4.562c0.742,2.188,3.102,3.393,5.326,2.7
	c2.211-0.707,3.453-3.064,2.785-5.291c1.215,1.996,3.816,2.64,5.82,1.436c2.008-1.203,2.665-3.816,1.459-5.834
	c0.014,0.012,0.023,0.023,0.036,0.034c1.729,1.595,4.427,1.485,6.021-0.241c1.59-1.727,1.481-4.414-0.246-6.007
	c-0.022-0.024-0.047-0.05-0.084-0.072c0.062,0.022,0.108,0.036,0.158,0.062c2.19,0.863,4.656-0.194,5.533-2.381
	c0.861-2.18-0.211-4.66-2.384-5.533c-0.062-0.025-0.122-0.037-0.185-0.063h0.147c2.356-0.062,4.205-2.019,4.146-4.364
	c-0.063-2.332-1.994-4.184-4.317-4.146c2.263-0.634,3.586-2.968,2.967-5.218c-0.619-2.271-2.967-3.608-5.228-2.989
	c-0.102,0.026-0.188,0.073-0.284,0.108c-0.005-0.01-0.009-0.024-0.015-0.035c0.381-0.196,0.744-0.438,1.051-0.742
	c0.791-0.791,1.24-1.885,1.24-3.016c0-1.119-0.449-2.211-1.24-3.002c-0.549-0.555-1.262-0.899-2.016-1.066
	c0.004-0.034,0.012-0.068,0.016-0.104c0,0,0.007-0.024,0.017-0.067c0.011,0.002,0.021,0.009,0.028,0.009
	c0.305,0.063,0.607,0.098,0.9,0.098c1.955,0,3.717-1.361,4.156-3.356c0.484-2.296-0.961-4.571-3.257-5.069
	c-0.017-0.003-0.031-0.001-0.045-0.006c0.001-0.014,0.006-0.03,0.009-0.044c0.005-0.027,0.01-0.048,0.014-0.073
	c0.283,0.062,0.578,0.087,0.859,0.087c1.947,0,3.708-1.35,4.146-3.344c0.498-2.294-0.945-4.553-3.236-5.054
	c0.01-0.043,0.018-0.086,0.025-0.131c0.039,0.008,0.071,0.023,0.109,0.03c0.243,0.049,0.475,0.06,0.719,0.06
	c2.041,0,3.842-1.47,4.18-3.536c0.402-2.322-1.166-4.524-3.476-4.913c-0.055-0.01-0.112-0.005-0.168-0.01
	c0.005-0.045,0.013-0.09,0.013-0.135c0.078,0.005,0.149,0.023,0.229,0.023c2.346-0.011,4.244-1.92,4.244-4.265
	c0-2.348-1.908-4.256-4.256-4.246c-0.104,0-0.205,0.024-0.305,0.032c-0.009-0.045-0.014-0.091-0.021-0.136
	c0.101-0.023,0.2-0.035,0.3-0.066c2.264-0.68,3.536-3.052,2.869-5.299c-0.682-2.25-3.053-3.528-5.299-2.858
	c-0.104,0.031-0.194,0.08-0.29,0.118c-0.021-0.043-0.039-0.084-0.06-0.122c0.092-0.053,0.185-0.095,0.273-0.155
	c1.958-1.288,2.505-3.927,1.216-5.885c-1.288-1.967-3.927-2.516-5.885-1.229c-0.086,0.057-0.155,0.133-0.235,0.192
	c-0.033-0.037-0.066-0.076-0.098-0.113c0.066-0.071,0.148-0.124,0.212-0.198c1.532-1.778,1.337-4.463-0.45-5.994
	c-1.773-1.534-4.461-1.339-5.994,0.437c-0.065,0.074-0.107,0.161-0.166,0.239c-0.039-0.025-0.078-0.05-0.119-0.076
	c0.045-0.08,0.101-0.153,0.14-0.238c1.032-2.113,0.146-4.656-1.957-5.689c-2.116-1.033-4.669-0.145-5.701,1.969
	c-0.037,0.079-0.06,0.163-0.091,0.242c-0.044-0.015-0.085-0.031-0.127-0.045c0.021-0.079,0.054-0.152,0.068-0.233
	c0.515-2.298-0.935-4.572-3.229-5.07c-2.298-0.511-4.562,0.936-5.069,3.234c-0.019,0.08-0.018,0.159-0.031,0.238
	c-0.06-0.006-0.119-0.014-0.178-0.021c0.006-0.08,0.024-0.16,0.024-0.24c0-1.119-0.464-2.225-1.252-3.016
	c-0.816-0.814-1.968-1.202-3.108-1.176c-0.031,0-0.068,0.009-0.1,0.009v112.767c0.133-0.334,0.24-0.685,0.281-1.057
	C90.119,146.005,92.172,147.658,94.484,147.428"/>
<rect x="72.446" y="133.361" fill="#D3C5C1" width="11.892" height="16.397"/>
<rect x="95.184" y="133.361" fill="#F6E9E5" width="11.896" height="16.397"/>
<path fill="#D86D7A" d="M78.266,151.883c0.505,0,0.912,0.408,0.912,0.913v2.276h9.566c0-5.717-4.636-10.352-10.352-10.352
	c-5.715,0-10.352,4.635-10.352,10.352h9.313v-2.276C77.354,152.292,77.764,151.883,78.266,151.883"/>
<path fill="#D86D7A" d="M101.004,151.883c0.504,0,0.91,0.408,0.91,0.913v2.276h9.567c0-5.717-4.638-10.352-10.353-10.352
	s-10.352,4.635-10.352,10.352h9.313v-2.276C100.092,152.292,100.5,151.883,101.004,151.883"/>
<path fill="#D3C5C1" d="M89.762,126.469c19.254,0,26.186-11.092,30.197-21.438c0,0-12.113,16.679-29.674,16.039
	c-14.895-0.541-31.097-15.93-31.097-15.93C63.203,115.486,74.86,126.469,89.762,126.469"/>
<path fill="#F5C89A" d="M121.662,74.199c0-8.953-7.255-16.211-16.211-16.211c-7.563,0-13.896,5.184-15.688,12.191
	c-1.791-7.007-8.129-12.191-15.689-12.191c-8.955,0-16.217,7.256-16.217,16.211c0,8.956,6.046,16.213,14.999,16.213
	c0,0,1.065,6.26,1.218,8.367c0.646,8.933,4.318,22.293,16.213,22.293c10.844,0,15.568-13.36,16.211-22.293
	c0.154-2.123,1.217-8.42,1.217-8.42C116.178,89.818,121.662,82.8,121.662,74.199"/>
<path fill="#411712" d="M79.43,75.769c0,3.211-2.604,5.814-5.814,5.814c-3.214,0-5.814-2.603-5.814-5.814
	c0-3.212,2.601-5.815,5.814-5.815C76.826,69.954,79.43,72.557,79.43,75.769"/>
<path fill="#411712" d="M111.726,75.769c0,3.211-2.604,5.814-5.815,5.814s-5.816-2.603-5.816-5.814c0-3.212,2.605-5.815,5.816-5.815
	S111.726,72.557,111.726,75.769"/>
<path fill="#FFFFFF" d="M77.518,73.83c0,1.069-0.866,1.939-1.939,1.939c-1.07,0-1.938-0.87-1.938-1.939
	c0-1.072,0.867-1.941,1.938-1.941C76.651,71.889,77.518,72.758,77.518,73.83"/>
<path fill="#FFFFFF" d="M109.785,73.83c0,1.069-0.869,1.939-1.938,1.939c-1.073,0-1.939-0.87-1.939-1.939
	c0-1.072,0.866-1.941,1.939-1.941C108.916,71.889,109.785,72.758,109.785,73.83"/>
<path fill="#F19EA0" d="M96.793,101.713l-7.033,0.805l-7.031-0.805c-0.659-0.083-1.271,0.4-1.35,1.068
	c-0.073,0.669,0.406,1.271,1.068,1.347l6.016,0.688v8.836c-0.398,0.476-1.321,1.365-2.26,0.861c-0.595-0.32-1.33-0.096-1.645,0.494
	c-0.318,0.592-0.098,1.33,0.494,1.646c0.595,0.322,1.178,0.455,1.727,0.455c1.176,0,2.211-0.608,2.967-1.299
	c0.744,0.691,1.771,1.299,2.961,1.299c0.551,0,1.139-0.129,1.746-0.446c0.598-0.308,0.828-1.042,0.521-1.638
	c-0.306-0.598-1.043-0.83-1.64-0.521c-1.004,0.517-1.893-0.358-2.272-0.836v-8.854l6.01-0.688c0.668-0.076,1.146-0.679,1.07-1.347
	C98.064,102.113,97.461,101.627,96.793,101.713"/>
<path fill="#B05C2B" d="M165,138.604c0,15.736-15.54,28.635-34.709,28.635c-19.171,0-34.711-12.898-34.711-28.635
	c0-15.734,15.54-28.492,34.711-28.492C149.461,110.112,165,122.87,165,138.604"/>
<path fill="#B7392F" d="M116.648,80.059c1.527-0.564,2.974-0.434,4.286-0.087c1.309,0.369,2.493,1.035,3.48,1.914
	c0.988,0.876,1.771,1.979,2.251,3.22c0.457,1.251,0.648,2.637,0.175,4.132c-1.513-0.562-2.561-1.144-3.521-1.732
	c-0.944-0.59-1.756-1.197-2.51-1.876c-0.757-0.678-1.455-1.425-2.141-2.3C117.985,82.436,117.338,81.454,116.648,80.059"/>
<path fill="#B7392F" d="M130.154,71.119c1.441,1.043,2.335,2.281,3.046,3.567c0.688,1.294,1.142,2.66,1.372,4.077
	c0.225,1.417,0.223,2.888-0.091,4.372c-0.339,1.463-0.941,3.044-2.337,4.188c-0.787-1.54-1.369-2.724-1.83-3.995
	c-0.452-1.25-0.784-2.504-0.984-3.795c-0.2-1.29-0.277-2.616-0.191-3.999C129.245,74.144,129.476,72.717,130.154,71.119"/>
<path fill="#B7392F" d="M135.705,74.152c1.145,1.219,1.714,2.511,2.088,3.809c0.354,1.302,0.462,2.623,0.328,3.943
	c-0.13,1.32-0.504,2.647-1.201,3.911c-0.706,1.213-1.757,2.556-3.45,3.022c-0.204-1.599-0.506-2.712-0.613-3.919
	c-0.119-1.182-0.134-2.339-0.012-3.512c0.121-1.17,0.371-2.351,0.795-3.553C134.084,76.649,134.656,75.435,135.705,74.152"/>
<path fill="#3D3D3C" d="M92.619,111.284c1.886-1.043,4.073-1.508,6.362-1.54c1.143,0.024,2.307,0.185,3.448,0.499
	c1.131,0.333,2.228,0.819,3.244,1.425c1.018,0.607,2.023,1.263,2.934,2.031c0.907,0.769,1.604,1.716,2.057,2.75
	c0.882,2.082,1.192,4.322,0.421,6.645l-0.506,0.155c-2.011-1.438-3.264-2.879-4.479-4.197c-0.592-0.661-1.067-1.343-1.492-2.076
	c-0.415-0.74-0.889-1.468-1.506-2.055c-0.607-0.595-1.292-1.117-2.052-1.552c-0.745-0.459-1.573-0.826-2.458-1.098
	c-1.764-0.593-3.783-0.734-5.78-0.51L92.619,111.284z"/>
<path fill="#3D3D3C" d="M92.1,103.785c1.269-0.933,2.699-1.627,4.267-2.077c1.562-0.45,3.284-0.638,5.025-0.382
	c1.732,0.27,3.424,1.009,4.838,2.049c1.411,1.052,2.545,2.359,3.483,3.728c0.945,1.436,1.694,2.661,2.507,4.014
	c0.768,1.339,1.367,2.767,1.739,4.282c0.364,1.515,0.598,3.087,0.55,4.71c-0.059,1.6-0.221,3.311-1.313,4.824l-0.501-0.166
	c-1.084-2.763-2.559-5.154-3.758-7.719c-0.61-1.273-1.133-2.583-1.554-3.958c-0.41-1.342-0.838-2.841-1.37-3.982
	c-1.118-2.369-2.796-4.404-5.274-5.304c-2.466-0.964-5.592-0.632-8.361,0.417L92.1,103.785z"/>
<path fill="#3D3D3C" d="M105.854,99.796c1.338-0.556,2.863-0.606,4.384-0.284c0.75,0.179,1.493,0.458,2.194,0.821
	c0.688,0.382,1.331,0.844,1.914,1.357c0.585,0.516,1.19,1.03,1.729,1.602c0.531,0.576,0.875,1.258,1.007,1.988
	c0.129,0.726,0.131,1.476-0.052,2.229c-0.163,0.749-0.468,1.502-1.088,2.261l-0.522,0.097c-0.868-0.468-1.464-0.93-1.981-1.384
	c-0.529-0.448-0.936-0.89-1.285-1.319c-0.348-0.431-0.554-0.882-0.655-1.396c-0.097-0.517-0.206-1.048-0.441-1.499
	c-0.231-0.454-0.507-0.887-0.83-1.285c-0.309-0.417-0.674-0.806-1.1-1.15c-0.832-0.713-1.946-1.265-3.185-1.535L105.854,99.796z"/>
<path fill="#3D3D3C" d="M129.726,138.878c-0.258-0.006-0.507-0.031-0.756-0.065c-16.262-0.633-24.997-12.822-24.997-12.822
	c-2.392,6.932-2.402,14.73-2.402,14.73c0.377,14.969,13.082,26.991,28.71,26.991v-28.869c-0.122,0.008-0.235,0.035-0.356,0.035
	H129.726L129.726,138.878z"/>
<path fill="#B05C2B" d="M110.48,104.088l-0.009-0.011c0,0,0,0.056,0,0.144c-0.041,0.513-0.079,1.029-0.079,1.553
	c0,0.16,0.018,0.316,0.02,0.477c-0.111,1.931-0.409,4.945-1.281,8.125c-0.614,2.23-1.507,4.542-2.828,6.615
	c-0.961,1.514-1.721,3.229-2.33,5c0,0,8.735,12.188,24.997,12.822h0.004c0.245,0.034,0.495,0.059,0.752,0.065h0.198
	c0.121,0,0.234-0.028,0.356-0.036v-15.037V86.619C119.887,86.619,111.367,94.3,110.48,104.088"/>
<path fill="#585857" d="M156.7,126.295c0,0-9.316,12.548-26.42,12.548v28.869c15.64,0,28.352-12.042,28.707-27.024
	C158.987,140.688,158.979,133.139,156.7,126.295"/>
<path fill="#EA8231" d="M154.276,120.991c-1.207-1.908-2.062-4.015-2.668-6.073c-1.036-3.514-1.351-6.892-1.45-8.912
	c0-0.077,0.008-0.153,0.008-0.231c0-0.35-0.035-0.691-0.054-1.035c-0.008-0.413-0.002-0.662-0.002-0.662l-0.03,0.045
	c-0.873-9.808-9.396-17.504-19.8-17.504v37.187v15.038c17.104,0,26.42-12.548,26.42-12.548
	C156.077,124.419,155.29,122.593,154.276,120.991"/>
<path fill="#EA585C" d="M137.446,119.307v-0.012c0-4.257-3.997-7.708-7.292-7.708c-3.294,0-7.292,3.452-7.292,7.708
	c0,1.704-0.137,6.179,3.206,6.179c0.984,0,1.855-0.438,2.443-1.111c0.553,0.057,1.108,0.085,1.643,0.085
	c0.537,0,1.091-0.028,1.645-0.085c0.586,0.674,1.458,1.111,2.444,1.111C137.577,125.474,137.446,121.018,137.446,119.307"/>
<path fill="#B7392F" d="M122.138,97.567c-4.888,0-8.85,3.626-8.85,8.099c0,4.476,3.962,8.101,8.85,8.101
	c3.654,0,6.79,0.514,8.143-2.368v-8.908C128.928,99.596,125.793,97.567,122.138,97.567"/>
<path fill="#EA585C" d="M138.443,113.767c4.887,0,8.852-3.625,8.852-8.101c0-4.473-3.965-8.099-8.852-8.099
	c-3.664,0-6.808,2.038-8.152,4.942c-0.003-0.007-0.008-0.014-0.011-0.02v8.908c0.003-0.007,0.008-0.013,0.011-0.02
	C131.636,114.281,134.779,113.767,138.443,113.767"/>
<path fill="#F39E2C" d="M128.723,111.799l-2.144,1.361c-0.861,0.549-1.135,1.695-0.605,2.552l3.354,5.427
	c0.265,0.429,0.614,0.644,0.963,0.644v-10.396C129.72,111.386,129.155,111.524,128.723,111.799"/>
<path fill="#FADD58" d="M131.252,121.139l3.355-5.427c0.53-0.856,0.257-2.003-0.606-2.552l-2.142-1.361
	c-0.433-0.274-1-0.413-1.568-0.413v10.396C130.639,121.782,130.987,121.567,131.252,121.139"/>
<path fill="#4D1815" d="M123.688,105.685c0,1.526-1.287,2.764-2.868,2.764c-1.585,0-2.869-1.237-2.869-2.764
	c0-1.523,1.284-2.761,2.869-2.761C122.401,102.924,123.688,104.161,123.688,105.685"/>
<path fill="#4D1815" d="M142.359,105.685c0,1.526-1.286,2.764-2.868,2.764c-1.584,0-2.869-1.237-2.869-2.764
	c0-1.523,1.285-2.761,2.869-2.761C141.073,102.924,142.359,104.161,142.359,105.685"/>
<path fill="#FFFFFF" d="M122.862,104.589c0,0.522-0.439,0.946-0.98,0.946s-0.979-0.424-0.979-0.946c0-0.521,0.438-0.944,0.979-0.944
	C122.424,103.645,122.862,104.067,122.862,104.589"/>
<path fill="#FFFFFF" d="M141.451,104.589c0,0.522-0.438,0.946-0.979,0.946c-0.542,0-0.98-0.424-0.98-0.946
	c0-0.521,0.438-0.944,0.98-0.944C141.013,103.645,141.451,104.067,141.451,104.589"/>
<path fill="#EA585C" d="M117.127,68.485c2.61,1.38,4.598,2.993,6.419,4.358c0.445,0.34,0.888,0.647,1.266,0.903
	c0.201,0.137,0.368,0.202,0.549,0.321l0.738,0.472c1.062,0.692,2.29,1.694,3.289,2.904c2.052,2.444,2.988,5.496,3.032,8.245
	c0.031,2.784-0.639,5.426-2.266,7.859c-1.685-2.388-2.743-4.587-3.831-6.51c-1.064-1.943-2.054-3.484-3.153-4.815
	c-0.563-0.686-1.177-1.332-2.012-2.21l-0.677-0.723c-0.281-0.288-0.564-0.646-0.785-0.952c-0.474-0.628-0.824-1.26-1.131-1.885
	C117.398,73.941,116.846,71.373,117.127,68.485"/>
</svg>
