<?xml version="1.0" encoding="utf-8"?>
<!-- Generator: Adobe Illustrator 15.0.0, SVG Export Plug-In  -->
<!DOCTYPE svg PUBLIC "-//W3C//DTD SVG 1.1//EN" "http://www.w3.org/Graphics/SVG/1.1/DTD/svg11.dtd" [
	<!ENTITY ns_flows "http://ns.adobe.com/Flows/1.0/">
]>
<svg version="1.1"
	 xmlns="http://www.w3.org/2000/svg" xmlns:xlink="http://www.w3.org/1999/xlink" xmlns:a="http://ns.adobe.com/AdobeSVGViewerExtensions/3.0/"
	 x="0px" y="0px" width="200px" height="200px" viewBox="0 0 200 200" enable-background="new 0 0 200 200" xml:space="preserve">
<defs>
</defs>
<path fill="#FFFFFF" d="M188.1,110.402c4.021-3.187,8.582-6.797,8.582-12.063c0-5.265-4.562-8.876-8.582-12.063
	c-1.652-1.309-4.73-3.744-4.996-4.8c-0.224-1.126,1.771-4.71,2.842-6.636c2.455-4.409,5.236-9.405,3.271-14.145
	c-1.995-4.812-7.557-6.389-12.461-7.78c-2.067-0.588-5.92-1.68-6.562-2.582c-0.612-0.936-0.147-4.963,0.101-7.124
	c0.582-5.04,1.238-10.751-2.416-14.406c-3.653-3.655-9.366-2.998-14.403-2.417c-2.162,0.248-6.189,0.713-7.123,0.101
	c-0.906-0.642-1.998-4.493-2.584-6.562c-1.394-4.905-2.97-10.465-7.781-12.459c-4.74-1.965-9.736,0.815-14.146,3.269
	c-1.928,1.071-5.521,3.058-6.631,2.844c-1.062-0.269-3.498-3.345-4.808-4.997C107.218,4.56,103.607,0,98.341,0
	c-5.266,0-8.877,4.559-12.063,8.583c-1.308,1.652-3.745,4.728-4.8,4.995c-1.131,0.235-4.711-1.771-6.635-2.842
	c-4.41-2.455-9.41-5.237-14.146-3.27c-4.812,1.995-6.388,7.554-7.78,12.46c-0.587,2.068-1.679,5.918-2.582,6.56
	c-0.936,0.613-4.962,0.149-7.125-0.1c-5.037-0.579-10.75-1.238-14.405,2.417c-3.655,3.655-2.997,9.366-2.417,14.405
	c0.249,2.162,0.713,6.188,0.101,7.123c-0.643,0.905-4.493,1.997-6.562,2.584c-4.905,1.392-10.465,2.968-12.459,7.779
	c-1.967,4.741,0.815,9.738,3.268,14.147c1.072,1.926,3.067,5.51,2.845,6.63c-0.268,1.062-3.345,3.497-4.997,4.806
	C4.56,89.464,0,93.075,0,98.34c0,5.266,4.56,8.877,8.583,12.063c1.652,1.312,4.729,3.746,4.995,4.803
	c0.224,1.126-1.771,4.71-2.843,6.636c-2.454,4.408-5.235,9.405-3.269,14.146c1.995,4.812,7.555,6.39,12.46,7.779
	c2.069,0.586,5.918,1.68,6.56,2.582c0.613,0.938,0.149,4.963-0.1,7.125c-0.581,5.039-1.238,10.752,2.417,14.405
	c3.656,3.656,9.366,2.998,14.405,2.418c2.163-0.25,6.188-0.713,7.123-0.103c0.905,0.643,1.997,4.492,2.584,6.562
	c1.391,4.906,2.968,10.466,7.78,12.461c4.741,1.966,9.735-0.815,14.146-3.271c1.926-1.07,5.502-3.071,6.631-2.844
	c1.06,0.269,3.496,3.344,4.806,4.996c3.187,4.022,6.798,8.582,12.063,8.582c5.267,0,8.877-4.56,12.063-8.582
	c1.309-1.652,3.746-4.729,4.801-4.996c1.129-0.218,4.709,1.772,6.635,2.844c4.408,2.455,9.406,5.236,14.146,3.271
	c4.811-1.995,6.389-7.555,7.779-12.46c0.588-2.068,1.68-5.918,2.582-6.561c0.938-0.613,4.963-0.149,7.127,0.101
	c5.039,0.583,10.748,1.238,14.401-2.417c3.656-3.654,2.998-9.365,2.418-14.404c-0.25-2.162-0.713-6.188-0.103-7.123
	c0.644-0.906,4.494-1.998,6.563-2.584c4.904-1.393,10.466-2.969,12.461-7.781c1.966-4.738-0.815-9.734-3.271-14.145
	c-1.071-1.926-3.067-5.51-2.846-6.631C183.369,114.148,186.447,111.713,188.1,110.402 M183.77,131.799
	c0.397,0.719,0.914,1.643,1.381,2.539c-0.998,0.314-2.06,0.618-2.873,0.848c-6.791,1.926-11.863,3.662-15.303,8.504
	c-0.111,0.156-0.22,0.313-0.324,0.474c-3.322,5.085-2.998,10.528-2.176,17.667c0.096,0.837,0.221,1.923,0.309,2.959
	c-0.936-0.081-1.941-0.198-2.932-0.313c-2.437-0.281-4.986-0.551-7.42-0.551c-2.621,0-6.539,0.284-10.283,2.734
	c-0.154,0.102-0.308,0.206-0.459,0.313c-4.842,3.442-6.578,8.514-8.504,15.303c-0.23,0.814-0.531,1.875-0.849,2.875
	c-0.896-0.465-1.813-0.977-2.522-1.371c-5.14-2.862-9.463-5.057-14.347-5.057c-1.018,0-2.03,0.098-3.014,0.287
	c-0.267,0.053-0.527,0.112-0.791,0.178c-5.563,1.404-9.011,5.319-13.27,10.699c-0.572,0.721-1.326,1.672-2.053,2.528
	c-0.727-0.854-1.476-1.802-2.041-2.515c-4.272-5.393-7.719-9.307-13.287-10.715c-0.227-0.058-0.457-0.108-0.686-0.156
	c-1.02-0.205-2.072-0.311-3.127-0.311c-4.868,0-9.166,2.18-14.28,5.028c-0.738,0.409-1.674,0.931-2.578,1.401
	c-0.316-1-0.617-2.063-0.848-2.879c-1.925-6.791-3.664-11.867-8.518-15.309c-0.15-0.105-0.303-0.21-0.458-0.313
	c-3.738-2.442-7.649-2.726-10.266-2.726c-2.438,0-4.995,0.271-7.405,0.548c-1.034,0.119-2.033,0.235-2.951,0.313
	c0.088-1.034,0.213-2.117,0.309-2.948c0.824-7.146,1.15-12.596-2.184-17.689c-0.101-0.152-0.206-0.307-0.313-0.459
	c-3.44-4.84-8.511-6.578-15.299-8.504c-0.816-0.23-1.878-0.531-2.878-0.848c0.465-0.895,0.977-1.814,1.371-2.521
	c3.551-6.388,5.96-11.354,4.758-17.414c-0.049-0.248-0.104-0.494-0.167-0.74c-1.405-5.563-5.319-9.008-10.695-13.267
	c-0.722-0.571-1.675-1.326-2.532-2.055c0.855-0.728,1.803-1.479,2.519-2.044c5.383-4.264,9.301-7.711,10.709-13.28
	c0.064-0.249,0.12-0.501,0.17-0.754c1.196-6.054-1.216-11.024-4.755-17.385c-0.397-0.714-0.911-1.638-1.378-2.534
	c1-0.317,2.062-0.618,2.876-0.849c6.793-1.926,11.864-3.664,15.303-8.506c0.11-0.154,0.217-0.312,0.32-0.47
	c3.326-5.09,3-10.537,2.176-17.678c-0.096-0.83-0.22-1.912-0.309-2.945c0.916,0.078,1.912,0.191,2.939,0.309
	c2.43,0.28,4.984,0.55,7.419,0.55c2.619,0,6.534-0.283,10.274-2.73c0.159-0.104,0.315-0.211,0.468-0.32
	c4.836-3.439,6.572-8.508,8.498-15.294c0.231-0.816,0.533-1.878,0.849-2.879c0.894,0.466,1.813,0.978,2.522,1.373
	c5.191,2.888,9.475,5.057,14.336,5.057c1.081,0,2.158-0.11,3.201-0.326c0.209-0.043,0.418-0.091,0.625-0.143
	c5.563-1.41,9.009-5.328,13.27-10.71c0.566-0.715,1.316-1.662,2.043-2.517c0.727,0.856,1.479,1.804,2.045,2.519
	c4.258,5.378,7.703,9.296,13.271,10.709c0.273,0.069,0.549,0.131,0.828,0.184c0.973,0.188,1.977,0.283,2.981,0.283
	c4.869,0,9.195-2.191,14.345-5.055c0.711-0.395,1.631-0.908,2.524-1.374c0.317,1.001,0.619,2.062,0.851,2.876
	c1.926,6.789,3.662,11.86,8.502,15.3c0.155,0.111,0.313,0.218,0.473,0.322c3.738,2.444,7.648,2.727,10.264,2.727
	c2.621,0,5.473-0.326,7.357-0.543c1.063-0.123,2.076-0.239,3.002-0.318c-0.088,1.034-0.213,2.117-0.309,2.948
	c-0.824,7.141-1.15,12.591,2.18,17.682c0.104,0.159,0.211,0.315,0.32,0.47c3.434,4.831,8.493,6.567,15.27,8.492
	c0.828,0.235,1.898,0.539,2.904,0.856c-0.465,0.894-0.979,1.813-1.371,2.521c-3.547,6.382-5.957,11.349-4.76,17.406
	c0.051,0.251,0.104,0.5,0.168,0.747c1.405,5.566,5.323,9.013,10.705,13.274c0.717,0.568,1.668,1.321,2.522,2.05
	c-0.854,0.726-1.804,1.477-2.519,2.044c-5.391,4.27-9.303,7.715-10.711,13.277c-0.063,0.252-0.121,0.505-0.17,0.759
	C177.822,120.475,180.232,125.441,183.77,131.799"/>
<rect id="SVGID_3_" display="none" fill="#FFFFFF" width="196.682" height="196.68"/>
<g display="none">
	<defs>
		<rect id="SVGID_2_" width="196.682" height="196.68"/>
	</defs>
	<clipPath id="SVGID_4_" display="inline">
		<use xlink:href="#SVGID_2_"  display="none" overflow="visible"/>
	</clipPath>
	<path clip-path="url(#SVGID_4_)" fill="#FFFFFF" d="M188.1,110.402c4.021-3.187,8.582-6.797,8.582-12.063
		c0-5.265-4.562-8.876-8.582-12.063c-1.652-1.309-4.73-3.744-4.996-4.8c-0.224-1.126,1.771-4.71,2.842-6.636
		c2.455-4.409,5.236-9.405,3.271-14.145c-1.995-4.812-7.557-6.389-12.461-7.78c-2.067-0.588-5.92-1.68-6.562-2.582
		c-0.612-0.936-0.147-4.963,0.101-7.124c0.582-5.04,1.238-10.751-2.416-14.406c-3.653-3.655-9.366-2.998-14.403-2.417
		c-2.162,0.248-6.189,0.713-7.123,0.101c-0.906-0.642-1.998-4.493-2.584-6.562c-1.394-4.905-2.97-10.465-7.781-12.459
		c-4.74-1.965-9.736,0.815-14.146,3.269c-1.928,1.071-5.521,3.058-6.631,2.844c-1.062-0.269-3.498-3.345-4.808-4.997
		C107.218,4.56,103.607,0,98.341,0c-5.266,0-8.877,4.559-12.063,8.583c-1.308,1.652-3.745,4.728-4.8,4.995
		c-1.131,0.235-4.711-1.771-6.635-2.842c-4.41-2.455-9.41-5.237-14.146-3.27c-4.812,1.995-6.388,7.554-7.78,12.46
		c-0.587,2.068-1.679,5.918-2.582,6.56c-0.936,0.613-4.962,0.149-7.125-0.1c-5.037-0.579-10.75-1.238-14.405,2.417
		c-3.655,3.655-2.997,9.366-2.417,14.405c0.249,2.162,0.713,6.188,0.101,7.123c-0.643,0.905-4.493,1.997-6.562,2.584
		c-4.905,1.392-10.465,2.968-12.459,7.779c-1.967,4.741,0.815,9.738,3.268,14.147c1.072,1.926,3.067,5.51,2.845,6.63
		c-0.268,1.062-3.345,3.497-4.997,4.806C4.56,89.464,0,93.075,0,98.34c0,5.266,4.56,8.877,8.583,12.063
		c1.652,1.312,4.729,3.746,4.995,4.803c0.224,1.126-1.771,4.71-2.843,6.636c-2.454,4.408-5.235,9.405-3.269,14.146
		c1.995,4.812,7.555,6.39,12.46,7.779c2.069,0.586,5.918,1.68,6.56,2.582c0.613,0.938,0.149,4.963-0.1,7.125
		c-0.581,5.039-1.238,10.752,2.417,14.405c3.656,3.656,9.366,2.998,14.405,2.418c2.163-0.25,6.188-0.713,7.123-0.103
		c0.905,0.643,1.997,4.492,2.584,6.562c1.391,4.906,2.968,10.466,7.78,12.461c4.741,1.966,9.735-0.815,14.146-3.271
		c1.926-1.07,5.502-3.071,6.631-2.844c1.06,0.269,3.496,3.344,4.806,4.996c3.187,4.022,6.798,8.582,12.063,8.582
		c5.267,0,8.877-4.56,12.063-8.582c1.309-1.652,3.746-4.729,4.801-4.996c1.129-0.218,4.709,1.772,6.635,2.844
		c4.408,2.455,9.406,5.236,14.146,3.271c4.811-1.995,6.389-7.555,7.779-12.46c0.588-2.068,1.68-5.918,2.582-6.561
		c0.938-0.613,4.963-0.149,7.127,0.101c5.039,0.583,10.748,1.238,14.401-2.417c3.656-3.654,2.998-9.365,2.418-14.404
		c-0.25-2.162-0.713-6.188-0.103-7.123c0.644-0.906,4.494-1.998,6.563-2.584c4.904-1.393,10.466-2.969,12.461-7.781
		c1.966-4.738-0.815-9.734-3.271-14.145c-1.071-1.926-3.067-5.51-2.846-6.631C183.369,114.148,186.447,111.713,188.1,110.402
		 M183.77,131.799c0.397,0.719,0.914,1.643,1.381,2.539c-0.998,0.314-2.06,0.618-2.873,0.848
		c-6.791,1.926-11.863,3.662-15.303,8.504c-0.111,0.156-0.22,0.313-0.324,0.474c-3.322,5.085-2.998,10.528-2.176,17.667
		c0.096,0.837,0.221,1.923,0.309,2.959c-0.936-0.081-1.941-0.198-2.932-0.313c-2.437-0.281-4.986-0.551-7.42-0.551
		c-2.621,0-6.539,0.284-10.283,2.734c-0.154,0.102-0.308,0.206-0.459,0.313c-4.842,3.442-6.578,8.514-8.504,15.303
		c-0.23,0.814-0.531,1.875-0.849,2.875c-0.896-0.465-1.813-0.977-2.522-1.371c-5.14-2.862-9.463-5.057-14.347-5.057
		c-1.018,0-2.03,0.098-3.014,0.287c-0.267,0.053-0.527,0.112-0.791,0.178c-5.563,1.404-9.011,5.319-13.27,10.699
		c-0.572,0.721-1.326,1.672-2.053,2.528c-0.727-0.854-1.476-1.802-2.041-2.515c-4.272-5.393-7.719-9.307-13.287-10.715
		c-0.227-0.058-0.457-0.108-0.686-0.156c-1.02-0.205-2.072-0.311-3.127-0.311c-4.868,0-9.166,2.18-14.28,5.028
		c-0.738,0.409-1.674,0.931-2.578,1.401c-0.316-1-0.617-2.063-0.848-2.879c-1.925-6.791-3.664-11.867-8.518-15.309
		c-0.15-0.105-0.303-0.21-0.458-0.313c-3.738-2.442-7.649-2.726-10.266-2.726c-2.438,0-4.995,0.271-7.405,0.548
		c-1.034,0.119-2.033,0.235-2.951,0.313c0.088-1.034,0.213-2.117,0.309-2.948c0.824-7.146,1.15-12.596-2.184-17.689
		c-0.101-0.152-0.206-0.307-0.313-0.459c-3.44-4.84-8.511-6.578-15.299-8.504c-0.816-0.23-1.878-0.531-2.878-0.848
		c0.465-0.895,0.977-1.814,1.371-2.521c3.551-6.388,5.96-11.354,4.758-17.414c-0.049-0.248-0.104-0.494-0.167-0.74
		c-1.405-5.563-5.319-9.008-10.695-13.267c-0.722-0.571-1.675-1.326-2.532-2.055c0.855-0.728,1.803-1.479,2.519-2.044
		c5.383-4.264,9.301-7.711,10.709-13.28c0.064-0.249,0.12-0.501,0.17-0.754c1.196-6.054-1.216-11.024-4.755-17.385
		c-0.397-0.714-0.911-1.638-1.378-2.534c1-0.317,2.062-0.618,2.876-0.849c6.793-1.926,11.864-3.664,15.303-8.506
		c0.11-0.154,0.217-0.312,0.32-0.47c3.326-5.09,3-10.537,2.176-17.678c-0.096-0.83-0.22-1.912-0.309-2.945
		c0.916,0.078,1.912,0.191,2.939,0.309c2.43,0.28,4.984,0.55,7.419,0.55c2.619,0,6.534-0.283,10.274-2.73
		c0.159-0.104,0.315-0.211,0.468-0.32c4.836-3.439,6.572-8.508,8.498-15.294c0.231-0.816,0.533-1.878,0.849-2.879
		c0.894,0.466,1.813,0.978,2.522,1.373c5.191,2.888,9.475,5.057,14.336,5.057c1.081,0,2.158-0.11,3.201-0.326
		c0.209-0.043,0.418-0.091,0.625-0.143c5.563-1.41,9.009-5.328,13.27-10.71c0.566-0.715,1.316-1.662,2.043-2.517
		c0.727,0.856,1.479,1.804,2.045,2.519c4.258,5.378,7.703,9.296,13.271,10.709c0.273,0.069,0.549,0.131,0.828,0.184
		c0.973,0.188,1.977,0.283,2.981,0.283c4.869,0,9.195-2.191,14.345-5.055c0.711-0.395,1.631-0.908,2.524-1.374
		c0.317,1.001,0.619,2.062,0.851,2.876c1.926,6.789,3.662,11.86,8.502,15.3c0.155,0.111,0.313,0.218,0.473,0.322
		c3.738,2.444,7.648,2.727,10.264,2.727c2.621,0,5.473-0.326,7.357-0.543c1.063-0.123,2.076-0.239,3.002-0.318
		c-0.088,1.034-0.213,2.117-0.309,2.948c-0.824,7.141-1.15,12.591,2.18,17.682c0.104,0.159,0.211,0.315,0.32,0.47
		c3.434,4.831,8.493,6.567,15.27,8.492c0.828,0.235,1.898,0.539,2.904,0.856c-0.465,0.894-0.979,1.813-1.371,2.521
		c-3.547,6.382-5.957,11.349-4.76,17.406c0.051,0.251,0.104,0.5,0.168,0.747c1.405,5.566,5.323,9.013,10.705,13.274
		c0.717,0.568,1.668,1.321,2.522,2.05c-0.854,0.726-1.804,1.477-2.519,2.044c-5.391,4.27-9.303,7.715-10.711,13.277
		c-0.063,0.252-0.121,0.505-0.17,0.759C177.822,120.475,180.232,125.441,183.77,131.799"/>
</g>
<path fill="#F19EA0" d="M165,62.682c0,0-30.374,13.251-37.11-0.377c-6.721-13.602-7.828-21.583-7.828-21.583
	s27.045-5.116,35.428,7.567C163.87,60.973,165,62.682,165,62.682"/>
<path fill="#D86D7A" d="M157.157,59.489c0,0-22.125,9.259-25.395,0.003c-3.593-10.169-3.521-13.608-3.521-13.608
	s17.365-3.874,22.775,4.315C156.431,58.384,157.157,59.489,157.157,59.489"/>
<path fill="#F19EA0" d="M36.378,63.219c0,0,29.915,14.254,37.102,0.858c7.17-13.37,8.543-21.31,8.543-21.31
	s-26.859-6.013-35.66,6.384C37.563,61.548,36.378,63.219,36.378,63.219"/>
<path fill="#D86D7A" d="M44.322,60.289c0,0,21.803,9.991,25.378,0.849c3.931-10.043,3.973-13.484,3.973-13.484
	s-17.227-4.45-22.906,3.555C45.086,59.209,44.322,60.289,44.322,60.289"/>
<rect x="81.587" y="120.072" fill="#D87C81" width="13.023" height="17.955"/>
<rect x="106.481" y="120.072" fill="#F19EA0" width="13.023" height="17.955"/>
<path fill="#3D3D3C" d="M87.961,140.354c0.551,0,0.999,0.446,0.999,0.998v2.494h10.473c0-6.261-5.078-11.332-11.334-11.332
	c-6.258,0-11.336,5.071-11.336,11.332h10.2v-2.494C86.963,140.8,87.407,140.354,87.961,140.354"/>
<path fill="#3D3D3C" d="M112.856,140.354c0.551,0,1,0.446,1,0.998v2.494h10.474c0-6.261-5.072-11.332-11.339-11.332
	c-6.252,0-11.329,5.071-11.329,11.332h10.198v-2.494C111.858,140.8,112.304,140.354,112.856,140.354"/>
<path fill="#D87C81" d="M63.587,96.1c-0.096,0.983-0.162,1.977-0.162,2.983c0,18.843,16.629,34.119,37.15,34.119v-16.526
	C84.003,116.676,69.778,108.203,63.587,96.1"/>
<path fill="#D87C81" d="M100.575,116.676V64.964c-19.441,0-35.383,13.691-37.031,31.136
	C69.743,108.203,83.983,116.676,100.575,116.676"/>
<path fill="#D87C81" d="M99.575,65.964v51.712c16.807,0,31.228-8.474,37.506-20.574C135.411,79.654,119.269,65.964,99.575,65.964"/>
<path fill="#F19EA0" d="M138.342,99.083c0-1.008,0-4.423-1.601-9.787c-5.352,19.343-19.317,27.38-36.166,27.38v16.525
	C121.437,133.202,138.342,117.926,138.342,99.083"/>
<path fill="#F19EA0" d="M134.47,103.798c3.164,2.669,8.41,3.188,12.141,1.464c2.203-1.017,7.574-5.5,2.728-6.887
	c-2.628-0.751-5.13,0.98-4.84,3.697c0.407,3.826,4.346,5.709,7.767,5.533c1.219-0.063,3.93-2.01,1.479-1.883
	c-2.987,0.151-5.954-2.443-5.592-5.604c0.023-0.11,0.057-0.222,0.086-0.333c-1.709-0.006-1.901,0.396-0.58,1.21
	c0.436,1.028-1.707,2.476-2.289,2.856c-2.096,1.377-5.742,0.032-7.473-1.43C136.978,101.654,133.599,103.064,134.47,103.798"/>
<path fill="#F19EA0" d="M138.321,82.634c-0.489,2.645-1.58,6.662-1.58,6.662c-2.276,12.521-21.902,21.972-36.205,21.972V32
	c18.885,0,32.486,13.12,32.486,29.306c0,7.673,5.059,9.407,5.059,16.747"/>
<path fill="#3D3D3C" d="M96.757,92.833c0,1.799-1.458,3.259-3.259,3.259c-1.802,0-3.259-1.46-3.259-3.259s1.457-3.257,3.259-3.257
	C95.299,89.577,96.757,91.035,96.757,92.833"/>
<path fill="#3D3D3C" d="M126.685,70.935c0,1.984-1.604,3.593-3.588,3.593c-1.988,0-3.592-1.609-3.592-3.593
	c0-1.982,1.604-3.592,3.592-3.592C125.079,67.343,126.685,68.953,126.685,70.935"/>
<path fill="#FFFFFF" d="M125.687,69.817c0,0.748-0.608,1.354-1.356,1.354s-1.356-0.606-1.356-1.354c0-0.75,0.608-1.356,1.356-1.356
	S125.687,69.067,125.687,69.817"/>
<path fill="#D87C81" d="M63.37,82.634c0.463,2.489,0.415,2.365,1.605,6.662c2.282,12.521,21.969,21.972,36.315,21.972V32
	c-18.942,0-32.585,13.121-32.585,29.306c0,7.674-5.074,9.408-5.074,16.746"/>
<path fill="#3D3D3C" d="M81.587,70.935c0,1.983-1.605,3.592-3.594,3.592c-1.982,0-3.588-1.608-3.588-3.592
	c0-1.982,1.604-3.592,3.588-3.592C79.981,67.343,81.587,68.953,81.587,70.935"/>
<path fill="#FFFFFF" d="M81.065,69.817c0,0.748-0.605,1.354-1.355,1.354c-0.748,0-1.355-0.606-1.355-1.354
	c0-0.75,0.607-1.355,1.355-1.355C80.46,68.461,81.065,69.067,81.065,69.817"/>
<path fill="#3D3D3C" d="M95.364,94.811c0,1.799-1.457,3.26-3.258,3.26c-1.799,0-3.258-1.461-3.258-3.26s1.459-3.256,3.258-3.256
	C93.907,91.555,95.364,93.012,95.364,94.811"/>
<path fill="#3D3D3C" d="M113.735,94.811c0,1.799-1.457,3.26-3.258,3.26c-1.8,0-3.259-1.461-3.259-3.26s1.459-3.256,3.259-3.256
	C112.278,91.555,113.735,93.012,113.735,94.811"/>
<ellipse fill="#D87C81" stroke="#F09EA1" stroke-width="2" stroke-miterlimit="10" cx="101.335" cy="94.812" rx="15.979" ry="9.709"/>
<path fill="#3D3D3C" d="M96.364,94.811c0,1.799-1.457,3.26-3.258,3.26c-1.799,0-3.258-1.461-3.258-3.26s1.459-3.256,3.258-3.256
	C94.907,91.555,96.364,93.012,96.364,94.811"/>
<path fill="#3D3D3C" d="M111.735,94.811c0,1.799-1.457,3.26-3.258,3.26c-1.8,0-3.259-1.461-3.259-3.26s1.459-3.256,3.259-3.256
	C110.278,91.555,111.735,93.012,111.735,94.811"/>
<path fill="#A94824" d="M121.001,135.681c0.153-0.952,0.334-1.896,0.501-2.845c0.174-0.947,0.364-1.889,0.548-2.83
	c0.361-1.89,0.759-3.766,1.164-5.642c0.4-1.876,0.819-3.747,1.249-5.614c0.429-1.867,0.873-3.73,1.324-5.593l0.39-1.616l1.755,0.49
	c0.537,0.15,1.021,0.307,1.525,0.471l1.49,0.508c0.987,0.351,1.962,0.735,2.935,1.132c0.969,0.406,1.925,0.84,2.88,1.29
	c0.953,0.454,1.892,0.946,2.823,1.456c0.933,0.508,1.843,1.066,2.747,1.646c0.906,0.576,1.789,1.199,2.654,1.87
	c0.435,0.327,0.854,0.682,1.279,1.032c0.417,0.359,0.827,0.734,1.23,1.123c0.4,0.391,0.797,0.791,1.176,1.215
	c0.387,0.415,0.744,0.873,1.1,1.328l0.073,0.094l0.03,0.045c0.09,0.143,0.113,0.188,0.16,0.271l0.114,0.212
	c0.068,0.137,0.134,0.271,0.194,0.402c0.123,0.264,0.229,0.521,0.331,0.781c0.2,0.516,0.362,1.031,0.499,1.549
	c0.271,1.034,0.469,2.065,0.576,3.098c0.104,1.03,0.155,2.058,0.129,3.073c-0.007,0.51-0.034,1.016-0.07,1.518
	c-0.03,0.505-0.088,1.005-0.153,1.5c-0.127,0.994-0.3,1.975-0.526,2.938c-0.213,0.967-0.49,1.912-0.787,2.844
	c-0.15,0.467-0.316,0.927-0.48,1.386l-0.546,1.354c-0.193,0.445-0.384,0.891-0.594,1.326c-0.217,0.436-0.429,0.87-0.656,1.294
	l0.343-2.87c0.1-0.951,0.184-1.897,0.253-2.838c0.021-0.472,0.071-0.938,0.084-1.405c0.021-0.469,0.04-0.935,0.05-1.401
	c0.017-0.463,0.009-0.927,0.008-1.39c-0.005-0.461-0.01-0.921-0.032-1.377c-0.083-1.829-0.281-3.625-0.67-5.333
	c-0.196-0.853-0.425-1.688-0.719-2.473c-0.15-0.391-0.306-0.773-0.472-1.135c-0.086-0.179-0.174-0.357-0.262-0.518l-0.135-0.231
	l-0.061-0.097c-0.016-0.021-0.053-0.076-0.026-0.033l0.102,0.138c-0.309-0.338-0.614-0.674-0.943-1.005
	c-0.322-0.33-0.667-0.65-1.018-0.966c-0.352-0.316-0.72-0.616-1.089-0.921c-0.375-0.3-0.746-0.604-1.138-0.889
	c-0.385-0.293-0.784-0.572-1.182-0.852c-0.405-0.271-0.799-0.56-1.213-0.824c-0.813-0.549-1.66-1.055-2.507-1.569
	c-1.698-1.019-3.45-1.981-5.224-2.902c-0.886-0.471-1.783-0.918-2.684-1.359l-1.353-0.657l-1.344-0.627l2.145-1.127
	c-0.612,1.813-1.232,3.623-1.87,5.428c-0.633,1.805-1.276,3.607-1.938,5.406c-0.66,1.799-1.326,3.594-2.026,5.377
	c-0.35,0.894-0.691,1.791-1.049,2.681C121.731,133.904,121.381,134.797,121.001,135.681"/>
<path fill="#A94824" d="M82.991,141.008c-0.595-0.75-1.162-1.516-1.743-2.273c-0.576-0.762-1.137-1.535-1.704-2.301
	c-1.139-1.532-2.244-3.083-3.346-4.638c-1.103-1.556-2.188-3.12-3.265-4.69c-1.08-1.566-2.146-3.146-3.205-4.729l2.359,0.506
	l-1.133,0.966l-1.133,1c-0.756,0.669-1.506,1.343-2.237,2.037c-1.474,1.37-2.914,2.771-4.288,4.213
	c-0.685,0.726-1.37,1.443-2.013,2.191c-0.331,0.368-0.635,0.753-0.958,1.124c-0.311,0.376-0.624,0.754-0.919,1.141
	c-0.304,0.381-0.583,0.775-0.866,1.164c-0.277,0.395-0.555,0.784-0.812,1.184c-0.259,0.398-0.508,0.8-0.733,1.207
	c-0.231,0.406-0.44,0.815-0.65,1.224l0.063-0.16c0.013-0.05-0.01,0.016-0.018,0.04l-0.035,0.11l-0.068,0.259
	c-0.045,0.179-0.082,0.374-0.119,0.57c-0.067,0.394-0.118,0.804-0.162,1.221c-0.08,0.838-0.086,1.704-0.056,2.58
	c0.068,1.753,0.342,3.539,0.732,5.323c0.097,0.447,0.21,0.891,0.324,1.338c0.119,0.445,0.231,0.896,0.367,1.339
	c0.129,0.446,0.268,0.89,0.409,1.337c0.133,0.448,0.304,0.884,0.445,1.333c0.311,0.888,0.635,1.778,0.978,2.669l1.072,2.675
	c-0.332-0.347-0.646-0.708-0.969-1.069c-0.314-0.364-0.614-0.742-0.915-1.119l-0.875-1.158c-0.28-0.398-0.557-0.797-0.823-1.206
	c-0.525-0.819-1.04-1.655-1.493-2.529c-0.468-0.868-0.889-1.768-1.268-2.692c-0.191-0.461-0.374-0.927-0.535-1.406
	c-0.164-0.474-0.321-0.954-0.46-1.443c-0.287-0.973-0.502-1.978-0.668-2.999c-0.162-1.023-0.24-2.072-0.247-3.143
	c-0.001-0.536,0.023-1.078,0.084-1.63c0.03-0.277,0.064-0.556,0.115-0.843c0.024-0.143,0.054-0.291,0.085-0.441l0.055-0.234
	c0.023-0.093,0.033-0.143,0.084-0.305l0.018-0.052l0.046-0.108c0.227-0.536,0.45-1.074,0.718-1.579
	c0.257-0.511,0.536-1.005,0.821-1.49c0.288-0.484,0.586-0.957,0.896-1.416c0.318-0.453,0.634-0.909,0.97-1.342
	c0.659-0.88,1.35-1.721,2.075-2.522c0.722-0.802,1.456-1.587,2.226-2.329c0.767-0.743,1.544-1.472,2.345-2.167
	c0.805-0.693,1.615-1.37,2.445-2.023c0.835-0.646,1.676-1.279,2.537-1.887l1.307-0.892c0.442-0.296,0.871-0.577,1.35-0.866
	l1.564-0.949l0.795,1.453c0.915,1.674,1.825,3.351,2.72,5.036c0.896,1.685,1.787,3.376,2.657,5.076
	c0.874,1.699,1.742,3.402,2.58,5.125c0.419,0.86,0.847,1.717,1.259,2.583C82.18,139.27,82.599,140.131,82.991,141.008"/>
<path fill="#A94824" d="M118.949,141.008c0.395-0.877,0.813-1.738,1.219-2.608c0.41-0.866,0.84-1.722,1.258-2.582
	c0.838-1.724,1.705-3.426,2.58-5.126c0.871-1.7,1.76-3.391,2.657-5.075c0.895-1.687,1.804-3.362,2.722-5.036l0.793-1.453
	l1.566,0.949c0.479,0.289,0.905,0.57,1.35,0.865l1.306,0.893c0.861,0.605,1.702,1.24,2.537,1.886
	c0.829,0.655,1.641,1.331,2.444,2.023c0.802,0.694,1.579,1.424,2.346,2.167c0.769,0.742,1.503,1.527,2.225,2.33
	c0.726,0.801,1.416,1.642,2.075,2.522c0.336,0.434,0.649,0.889,0.969,1.342c0.312,0.459,0.609,0.931,0.896,1.416
	c0.284,0.484,0.564,0.979,0.821,1.49c0.266,0.504,0.491,1.042,0.717,1.578l0.047,0.109l0.017,0.052
	c0.051,0.162,0.061,0.212,0.084,0.304l0.055,0.235c0.03,0.149,0.06,0.299,0.085,0.44c0.05,0.288,0.085,0.565,0.115,0.844
	c0.061,0.552,0.083,1.092,0.083,1.629c-0.007,1.071-0.083,2.118-0.246,3.144c-0.166,1.022-0.381,2.026-0.669,2.999
	c-0.139,0.489-0.295,0.969-0.46,1.442c-0.161,0.48-0.345,0.946-0.535,1.406c-0.381,0.924-0.8,1.824-1.269,2.692
	c-0.453,0.874-0.967,1.71-1.493,2.53c-0.267,0.408-0.544,0.807-0.822,1.205l-0.875,1.159c-0.302,0.377-0.602,0.756-0.916,1.119
	c-0.323,0.36-0.638,0.723-0.969,1.069l1.073-2.675c0.343-0.891,0.667-1.781,0.977-2.669c0.142-0.45,0.313-0.885,0.446-1.333
	c0.142-0.447,0.28-0.891,0.409-1.338c0.136-0.442,0.249-0.892,0.367-1.338c0.114-0.446,0.229-0.89,0.324-1.338
	c0.393-1.786,0.664-3.57,0.732-5.324c0.029-0.875,0.024-1.741-0.056-2.579c-0.044-0.417-0.095-0.828-0.162-1.222
	c-0.036-0.195-0.074-0.391-0.119-0.569l-0.068-0.259l-0.035-0.111c-0.008-0.023-0.03-0.088-0.017-0.04l0.063,0.161
	c-0.21-0.408-0.419-0.816-0.651-1.225c-0.225-0.404-0.475-0.809-0.732-1.207c-0.256-0.4-0.534-0.789-0.812-1.183
	c-0.282-0.39-0.562-0.783-0.866-1.165c-0.296-0.386-0.609-0.763-0.92-1.141c-0.321-0.371-0.626-0.756-0.956-1.124
	c-0.643-0.748-1.33-1.466-2.014-2.191c-1.373-1.441-2.815-2.843-4.288-4.213c-0.732-0.693-1.482-1.367-2.236-2.037l-1.135-1
	l-1.132-0.966l2.359-0.505c-1.06,1.582-2.125,3.16-3.204,4.729c-1.076,1.568-2.164,3.134-3.267,4.689
	c-1.102,1.556-2.207,3.106-3.343,4.638c-0.57,0.767-1.13,1.539-1.705,2.302C120.114,139.492,119.544,140.258,118.949,141.008"/>
<path fill="#A94824" d="M75.203,135.962c0,0,7.701-18.813,25.768-18.813v29.934C100.971,147.083,86.349,147.362,75.203,135.962"/>
<path fill="#B96428" d="M126.738,135.962c0,0-7.703-18.813-25.768-18.813v29.934C100.971,147.083,115.595,147.362,126.738,135.962"
	/>
<path fill="#A94824" d="M71.803,135.031l3.637,10.866c0,0,9.8,8.878,17.23,8.988c7.432,0.112,4.5,4.179,0.861,5.484
	c-3.641,1.308-18.473,2.79-28.865-10.168c-5.198-6.479-2.575-11.696,0.36-13.555C67.964,134.79,71.803,135.031,71.803,135.031"/>
<path fill="#B96428" d="M71.803,135.031c0,0,11.957,1.718,19.361,12.262c5.532,7.878-1.756,4.913-4.228,2.335
	c-1.946-2.03-9.646-4.98-11.497-3.73L71.803,135.031z"/>
<path fill="#A94824" d="M130.138,135.031l-3.639,10.866c0,0-9.797,8.878-17.229,8.988c-7.431,0.112-4.5,4.179-0.86,5.484
	c3.64,1.308,18.47,2.79,28.863-10.168c5.198-6.479,2.575-11.696-0.361-13.555C133.978,134.79,130.138,135.031,130.138,135.031"/>
<path fill="#B96428" d="M130.138,135.031c0,0-11.958,1.718-19.361,12.262c-5.533,7.878,1.757,4.913,4.227,2.335
	c1.948-2.03,9.649-4.98,11.496-3.73L130.138,135.031z"/>
<path fill="#A94824" d="M109.2,135.031c0.004-0.015-0.021,0.072-0.005,0.049c0.02-0.023,0.012,0.025-0.002,0.095
	c-0.032,0.137-0.087,0.364-0.206,0.641c-0.114,0.277-0.276,0.604-0.494,0.937c-0.104,0.171-0.227,0.338-0.361,0.504
	c-0.122,0.178-0.283,0.323-0.43,0.492c-0.151,0.161-0.324,0.302-0.486,0.46c-0.178,0.137-0.353,0.271-0.525,0.403
	c-0.186,0.118-0.365,0.232-0.536,0.34c-0.171,0.112-0.354,0.184-0.514,0.27c-0.319,0.177-0.616,0.271-0.817,0.354
	c-0.205,0.08-0.321,0.126-0.321,0.126l-0.178,0.067c-0.78,0.308-1.172,1.205-0.873,2.004c0.246,0.653,0.878,1.039,1.526,0.99
	c0,0,0.16-0.011,0.443-0.031c0.281-0.027,0.69-0.038,1.177-0.137c0.246-0.048,0.515-0.076,0.794-0.154
	c0.281-0.077,0.579-0.158,0.886-0.243c0.305-0.114,0.618-0.232,0.938-0.352c0.311-0.148,0.635-0.289,0.945-0.462
	c0.305-0.182,0.624-0.35,0.91-0.563c0.297-0.199,0.58-0.41,0.843-0.634c0.532-0.438,0.99-0.909,1.357-1.349
	c0.373-0.434,0.649-0.85,0.846-1.162c0.095-0.158,0.171-0.29,0.242-0.438c0.049-0.094,0.072-0.146,0.072-0.146
	c0.557-1.478-0.163-3.138-1.608-3.707S109.756,133.553,109.2,135.031"/>
<path fill="#4A1C12" d="M109.412,135.455c0,1.335,1.584,2.416,3.537,2.416s3.536-1.082,3.536-2.416s-1.583-2.416-3.536-2.416
	C110.997,133.039,109.412,134.12,109.412,135.455"/>
<path fill="#FAF4F0" d="M113.123,134.781c0,0.772,0.613,1.398,1.366,1.398c0.754,0,1.366-0.626,1.366-1.398
	c0-0.771-0.612-1.396-1.366-1.396C113.736,133.385,113.123,134.011,113.123,134.781"/>
<path fill="#8A3D1D" d="M92.198,135.031c-0.005-0.015,0.021,0.072,0.005,0.049c-0.021-0.023-0.013,0.025,0,0.095
	c0.032,0.137,0.088,0.364,0.206,0.641c0.115,0.277,0.277,0.604,0.495,0.937c0.103,0.171,0.226,0.338,0.36,0.504
	c0.122,0.178,0.284,0.323,0.43,0.492c0.151,0.161,0.324,0.302,0.486,0.46c0.18,0.137,0.355,0.271,0.526,0.403
	c0.186,0.118,0.365,0.232,0.536,0.34c0.171,0.112,0.354,0.184,0.514,0.27c0.32,0.178,0.616,0.271,0.818,0.354
	c0.205,0.081,0.322,0.126,0.322,0.126l0.176,0.067c0.781,0.308,1.172,1.205,0.873,2.004c-0.244,0.654-0.878,1.039-1.526,0.991
	c0,0-0.16-0.011-0.442-0.032c-0.281-0.025-0.689-0.037-1.177-0.136c-0.245-0.047-0.515-0.076-0.795-0.155
	c-0.282-0.077-0.578-0.158-0.886-0.243c-0.304-0.113-0.617-0.232-0.938-0.351c-0.311-0.148-0.633-0.29-0.945-0.463
	c-0.304-0.182-0.624-0.35-0.911-0.563c-0.296-0.198-0.579-0.41-0.841-0.634c-0.532-0.438-0.99-0.909-1.359-1.348
	c-0.371-0.435-0.647-0.851-0.845-1.162c-0.095-0.159-0.172-0.291-0.242-0.438c-0.047-0.094-0.072-0.146-0.072-0.146
	c-0.557-1.478,0.164-3.139,1.609-3.707C90.021,132.815,91.643,133.553,92.198,135.031"/>
<path fill="#4A1C12" d="M91.984,135.455c0,1.335-1.583,2.416-3.537,2.416s-3.537-1.082-3.537-2.416s1.583-2.416,3.537-2.416
	S91.984,134.12,91.984,135.455"/>
<path fill="#FAF4F0" d="M91.305,134.781c0,0.772-0.612,1.398-1.365,1.398c-0.754,0-1.365-0.626-1.365-1.398
	c0-0.771,0.611-1.396,1.365-1.396C90.692,133.385,91.305,134.011,91.305,134.781"/>
<path fill="#A94824" d="M78.903,133.623c-0.369-0.772-0.713-1.553-1.066-2.329c-0.352-0.778-0.686-1.563-1.027-2.345
	c-0.687-1.561-1.341-3.131-1.99-4.705c-0.651-1.573-1.286-3.152-1.912-4.73c-0.628-1.58-1.242-3.166-1.85-4.753l1.97,0.952
	l-1.192,0.578l-1.199,0.607c-0.801,0.407-1.598,0.819-2.383,1.253c-1.574,0.849-3.128,1.731-4.629,2.664
	c-0.749,0.472-1.499,0.936-2.218,1.435c-0.365,0.243-0.712,0.505-1.069,0.752c-0.351,0.256-0.703,0.51-1.041,0.775
	c-0.346,0.26-0.671,0.535-1,0.807c-0.324,0.275-0.647,0.549-0.953,0.835c-0.31,0.284-0.611,0.574-0.892,0.872
	c-0.287,0.299-0.555,0.601-0.821,0.906l0.087-0.125c0.021-0.037-0.012,0.012-0.022,0.03l-0.054,0.087l-0.113,0.207
	c-0.076,0.143-0.149,0.302-0.221,0.461c-0.14,0.322-0.269,0.663-0.394,1.01c-0.241,0.7-0.423,1.441-0.576,2.197
	c-0.298,1.515-0.423,3.104-0.443,4.719c-0.007,0.404,0.002,0.808,0.011,1.216c0.014,0.407,0.021,0.816,0.05,1.226
	c0.022,0.411,0.054,0.821,0.086,1.235c0.024,0.413,0.086,0.822,0.119,1.239c0.091,0.827,0.194,1.662,0.313,2.499l0.396,2.525
	c-0.22-0.368-0.423-0.749-0.633-1.127c-0.201-0.381-0.388-0.771-0.575-1.16l-0.532-1.184c-0.163-0.402-0.325-0.804-0.477-1.212
	c-0.294-0.817-0.575-1.646-0.795-2.494c-0.233-0.846-0.419-1.708-0.563-2.583c-0.075-0.437-0.14-0.876-0.184-1.32
	c-0.047-0.442-0.088-0.889-0.108-1.338c-0.054-0.896-0.038-1.803,0.026-2.715c0.065-0.911,0.212-1.825,0.425-2.745
	c0.108-0.459,0.24-0.916,0.406-1.375c0.083-0.232,0.171-0.461,0.273-0.696c0.051-0.116,0.107-0.237,0.165-0.358l0.097-0.189
	c0.039-0.073,0.059-0.115,0.136-0.242l0.025-0.041l0.063-0.083c0.309-0.409,0.615-0.819,0.952-1.192
	c0.331-0.383,0.677-0.744,1.026-1.097c0.352-0.353,0.71-0.69,1.076-1.016c0.372-0.318,0.743-0.64,1.125-0.937
	c0.76-0.609,1.538-1.178,2.339-1.703c0.798-0.529,1.604-1.039,2.432-1.506c0.825-0.468,1.656-0.92,2.502-1.34
	c0.85-0.416,1.7-0.817,2.562-1.196c0.867-0.369,1.735-0.728,2.616-1.057l1.329-0.478c0.45-0.154,0.884-0.303,1.362-0.445l1.57-0.468
	l0.401,1.419c0.462,1.633,0.918,3.268,1.359,4.908c0.443,1.639,0.88,3.281,1.298,4.928c0.42,1.647,0.836,3.295,1.219,4.955
	c0.192,0.828,0.395,1.655,0.578,2.487C78.546,131.956,78.737,132.786,78.903,133.623"/>
</svg>
