<?xml version="1.0" encoding="utf-8"?>
<!-- Generator: Adobe Illustrator 15.0.0, SVG Export Plug-In  -->
<!DOCTYPE svg PUBLIC "-//W3C//DTD SVG 1.1//EN" "http://www.w3.org/Graphics/SVG/1.1/DTD/svg11.dtd" [
	<!ENTITY ns_flows "http://ns.adobe.com/Flows/1.0/">
]>
<svg version="1.1"
	 xmlns="http://www.w3.org/2000/svg" xmlns:xlink="http://www.w3.org/1999/xlink" xmlns:a="http://ns.adobe.com/AdobeSVGViewerExtensions/3.0/"
	 x="0px" y="0px" width="200px" height="200px" viewBox="0 0 200 200" enable-background="new 0 0 200 200" xml:space="preserve">
<defs>
</defs>
<path fill="#FFFFFF" d="M188.1,110.402c4.021-3.187,8.582-6.797,8.582-12.063c0-5.265-4.562-8.876-8.582-12.063
	c-1.652-1.309-4.73-3.744-4.996-4.8c-0.224-1.126,1.771-4.71,2.842-6.636c2.455-4.409,5.236-9.405,3.271-14.145
	c-1.995-4.812-7.557-6.389-12.461-7.78c-2.067-0.588-5.92-1.68-6.562-2.582c-0.612-0.936-0.147-4.963,0.101-7.124
	c0.582-5.04,1.238-10.751-2.416-14.406c-3.653-3.655-9.366-2.998-14.403-2.417c-2.162,0.248-6.189,0.713-7.123,0.101
	c-0.906-0.642-1.998-4.493-2.584-6.562c-1.394-4.905-2.97-10.465-7.781-12.459c-4.74-1.965-9.736,0.815-14.146,3.269
	c-1.928,1.071-5.521,3.058-6.631,2.844c-1.062-0.269-3.498-3.345-4.808-4.997C107.218,4.56,103.607,0,98.341,0
	c-5.266,0-8.877,4.559-12.063,8.583c-1.308,1.652-3.745,4.728-4.8,4.995c-1.131,0.235-4.711-1.771-6.635-2.842
	c-4.41-2.455-9.41-5.237-14.146-3.27c-4.812,1.995-6.388,7.554-7.78,12.46c-0.587,2.068-1.679,5.918-2.582,6.56
	c-0.936,0.613-4.962,0.149-7.125-0.1c-5.037-0.579-10.75-1.238-14.405,2.417c-3.655,3.655-2.997,9.366-2.417,14.405
	c0.249,2.162,0.713,6.188,0.101,7.123c-0.643,0.905-4.493,1.997-6.562,2.584c-4.905,1.392-10.465,2.968-12.459,7.779
	c-1.967,4.741,0.815,9.738,3.268,14.147c1.072,1.926,3.067,5.51,2.845,6.63c-0.268,1.062-3.345,3.497-4.997,4.806
	C4.56,89.464,0,93.075,0,98.34c0,5.266,4.56,8.877,8.583,12.063c1.652,1.312,4.729,3.746,4.995,4.803
	c0.224,1.126-1.771,4.71-2.843,6.636c-2.454,4.408-5.235,9.405-3.269,14.146c1.995,4.812,7.555,6.39,12.46,7.779
	c2.069,0.586,5.918,1.68,6.56,2.582c0.613,0.938,0.149,4.963-0.1,7.125c-0.581,5.039-1.238,10.752,2.417,14.405
	c3.656,3.656,9.366,2.998,14.405,2.418c2.163-0.25,6.188-0.713,7.123-0.103c0.905,0.643,1.997,4.492,2.584,6.562
	c1.391,4.906,2.968,10.466,7.78,12.461c4.741,1.966,9.735-0.815,14.146-3.271c1.926-1.07,5.502-3.071,6.631-2.844
	c1.06,0.269,3.496,3.344,4.806,4.996c3.187,4.022,6.798,8.582,12.063,8.582c5.267,0,8.877-4.56,12.063-8.582
	c1.309-1.652,3.746-4.729,4.801-4.996c1.129-0.218,4.709,1.772,6.635,2.844c4.408,2.455,9.406,5.236,14.146,3.271
	c4.811-1.995,6.389-7.555,7.779-12.46c0.588-2.068,1.68-5.918,2.582-6.561c0.938-0.613,4.963-0.149,7.127,0.101
	c5.039,0.583,10.748,1.238,14.401-2.417c3.656-3.654,2.998-9.365,2.418-14.404c-0.25-2.162-0.713-6.188-0.103-7.123
	c0.644-0.906,4.494-1.998,6.563-2.584c4.904-1.393,10.466-2.969,12.461-7.781c1.966-4.738-0.815-9.734-3.271-14.145
	c-1.071-1.926-3.067-5.51-2.846-6.631C183.369,114.148,186.447,111.713,188.1,110.402 M183.77,131.799
	c0.397,0.719,0.914,1.643,1.381,2.539c-0.998,0.314-2.06,0.618-2.873,0.848c-6.791,1.926-11.863,3.662-15.303,8.504
	c-0.111,0.156-0.22,0.313-0.324,0.474c-3.322,5.085-2.998,10.528-2.176,17.667c0.096,0.837,0.221,1.923,0.309,2.959
	c-0.936-0.081-1.941-0.198-2.932-0.313c-2.437-0.281-4.986-0.551-7.42-0.551c-2.621,0-6.539,0.284-10.283,2.734
	c-0.154,0.102-0.308,0.206-0.459,0.313c-4.842,3.442-6.578,8.514-8.504,15.303c-0.23,0.814-0.531,1.875-0.849,2.875
	c-0.896-0.465-1.813-0.977-2.522-1.371c-5.14-2.862-9.463-5.057-14.347-5.057c-1.018,0-2.03,0.098-3.014,0.287
	c-0.267,0.053-0.527,0.112-0.791,0.178c-5.563,1.404-9.011,5.319-13.27,10.699c-0.572,0.721-1.326,1.672-2.053,2.528
	c-0.727-0.854-1.476-1.802-2.041-2.515c-4.272-5.393-7.719-9.307-13.287-10.715c-0.227-0.058-0.457-0.108-0.686-0.156
	c-1.02-0.205-2.072-0.311-3.127-0.311c-4.868,0-9.166,2.18-14.28,5.028c-0.738,0.409-1.674,0.931-2.578,1.401
	c-0.316-1-0.617-2.063-0.848-2.879c-1.925-6.791-3.664-11.867-8.518-15.309c-0.15-0.105-0.303-0.21-0.458-0.313
	c-3.738-2.442-7.649-2.726-10.266-2.726c-2.438,0-4.995,0.271-7.405,0.548c-1.034,0.119-2.033,0.235-2.951,0.313
	c0.088-1.034,0.213-2.117,0.309-2.948c0.824-7.146,1.15-12.596-2.184-17.689c-0.101-0.152-0.206-0.307-0.313-0.459
	c-3.44-4.84-8.511-6.578-15.299-8.504c-0.816-0.23-1.878-0.531-2.878-0.848c0.465-0.895,0.977-1.814,1.371-2.521
	c3.551-6.388,5.96-11.354,4.758-17.414c-0.049-0.248-0.104-0.494-0.167-0.74c-1.405-5.563-5.319-9.008-10.695-13.267
	c-0.722-0.571-1.675-1.326-2.532-2.055c0.855-0.728,1.803-1.479,2.519-2.044c5.383-4.264,9.301-7.711,10.709-13.28
	c0.064-0.249,0.12-0.501,0.17-0.754c1.196-6.054-1.216-11.024-4.755-17.385c-0.397-0.714-0.911-1.638-1.378-2.534
	c1-0.317,2.062-0.618,2.876-0.849c6.793-1.926,11.864-3.664,15.303-8.506c0.11-0.154,0.217-0.312,0.32-0.47
	c3.326-5.09,3-10.537,2.176-17.678c-0.096-0.83-0.22-1.912-0.309-2.945c0.916,0.078,1.912,0.191,2.939,0.309
	c2.43,0.28,4.984,0.55,7.419,0.55c2.619,0,6.534-0.283,10.274-2.73c0.159-0.104,0.315-0.211,0.468-0.32
	c4.836-3.439,6.572-8.508,8.498-15.294c0.231-0.816,0.533-1.878,0.849-2.879c0.894,0.466,1.813,0.978,2.522,1.373
	c5.191,2.888,9.475,5.057,14.336,5.057c1.081,0,2.158-0.11,3.201-0.326c0.209-0.043,0.418-0.091,0.625-0.143
	c5.563-1.41,9.009-5.328,13.27-10.71c0.566-0.715,1.316-1.662,2.043-2.517c0.727,0.856,1.479,1.804,2.045,2.519
	c4.258,5.378,7.703,9.296,13.271,10.709c0.273,0.069,0.549,0.131,0.828,0.184c0.973,0.188,1.977,0.283,2.981,0.283
	c4.869,0,9.195-2.191,14.345-5.055c0.711-0.395,1.631-0.908,2.524-1.374c0.317,1.001,0.619,2.062,0.851,2.876
	c1.926,6.789,3.662,11.86,8.502,15.3c0.155,0.111,0.313,0.218,0.473,0.322c3.738,2.444,7.648,2.727,10.264,2.727
	c2.621,0,5.473-0.326,7.357-0.543c1.063-0.123,2.076-0.239,3.002-0.318c-0.088,1.034-0.213,2.117-0.309,2.948
	c-0.824,7.141-1.15,12.591,2.18,17.682c0.104,0.159,0.211,0.315,0.32,0.47c3.434,4.831,8.493,6.567,15.27,8.492
	c0.828,0.235,1.898,0.539,2.904,0.856c-0.465,0.894-0.979,1.813-1.371,2.521c-3.547,6.382-5.957,11.349-4.76,17.406
	c0.051,0.251,0.104,0.5,0.168,0.747c1.405,5.566,5.323,9.013,10.705,13.274c0.717,0.568,1.668,1.321,2.522,2.05
	c-0.854,0.726-1.804,1.477-2.519,2.044c-5.391,4.27-9.303,7.715-10.711,13.277c-0.063,0.252-0.121,0.505-0.17,0.759
	C177.822,120.475,180.232,125.441,183.77,131.799"/>
<rect id="SVGID_3_" display="none" fill="#FFFFFF" width="196.682" height="196.68"/>
<g display="none">
	<defs>
		<rect id="SVGID_2_" width="196.682" height="196.68"/>
	</defs>
	<clipPath id="SVGID_4_" display="inline">
		<use xlink:href="#SVGID_2_"  display="none" overflow="visible"/>
	</clipPath>
	<path clip-path="url(#SVGID_4_)" fill="#FFFFFF" d="M188.1,110.402c4.021-3.187,8.582-6.797,8.582-12.063
		c0-5.265-4.562-8.876-8.582-12.063c-1.652-1.309-4.73-3.744-4.996-4.8c-0.224-1.126,1.771-4.71,2.842-6.636
		c2.455-4.409,5.236-9.405,3.271-14.145c-1.995-4.812-7.557-6.389-12.461-7.78c-2.067-0.588-5.92-1.68-6.562-2.582
		c-0.612-0.936-0.147-4.963,0.101-7.124c0.582-5.04,1.238-10.751-2.416-14.406c-3.653-3.655-9.366-2.998-14.403-2.417
		c-2.162,0.248-6.189,0.713-7.123,0.101c-0.906-0.642-1.998-4.493-2.584-6.562c-1.394-4.905-2.97-10.465-7.781-12.459
		c-4.74-1.965-9.736,0.815-14.146,3.269c-1.928,1.071-5.521,3.058-6.631,2.844c-1.062-0.269-3.498-3.345-4.808-4.997
		C107.218,4.56,103.607,0,98.341,0c-5.266,0-8.877,4.559-12.063,8.583c-1.308,1.652-3.745,4.728-4.8,4.995
		c-1.131,0.235-4.711-1.771-6.635-2.842c-4.41-2.455-9.41-5.237-14.146-3.27c-4.812,1.995-6.388,7.554-7.78,12.46
		c-0.587,2.068-1.679,5.918-2.582,6.56c-0.936,0.613-4.962,0.149-7.125-0.1c-5.037-0.579-10.75-1.238-14.405,2.417
		c-3.655,3.655-2.997,9.366-2.417,14.405c0.249,2.162,0.713,6.188,0.101,7.123c-0.643,0.905-4.493,1.997-6.562,2.584
		c-4.905,1.392-10.465,2.968-12.459,7.779c-1.967,4.741,0.815,9.738,3.268,14.147c1.072,1.926,3.067,5.51,2.845,6.63
		c-0.268,1.062-3.345,3.497-4.997,4.806C4.56,89.464,0,93.075,0,98.34c0,5.266,4.56,8.877,8.583,12.063
		c1.652,1.312,4.729,3.746,4.995,4.803c0.224,1.126-1.771,4.71-2.843,6.636c-2.454,4.408-5.235,9.405-3.269,14.146
		c1.995,4.812,7.555,6.39,12.46,7.779c2.069,0.586,5.918,1.68,6.56,2.582c0.613,0.938,0.149,4.963-0.1,7.125
		c-0.581,5.039-1.238,10.752,2.417,14.405c3.656,3.656,9.366,2.998,14.405,2.418c2.163-0.25,6.188-0.713,7.123-0.103
		c0.905,0.643,1.997,4.492,2.584,6.562c1.391,4.906,2.968,10.466,7.78,12.461c4.741,1.966,9.735-0.815,14.146-3.271
		c1.926-1.07,5.502-3.071,6.631-2.844c1.06,0.269,3.496,3.344,4.806,4.996c3.187,4.022,6.798,8.582,12.063,8.582
		c5.267,0,8.877-4.56,12.063-8.582c1.309-1.652,3.746-4.729,4.801-4.996c1.129-0.218,4.709,1.772,6.635,2.844
		c4.408,2.455,9.406,5.236,14.146,3.271c4.811-1.995,6.389-7.555,7.779-12.46c0.588-2.068,1.68-5.918,2.582-6.561
		c0.938-0.613,4.963-0.149,7.127,0.101c5.039,0.583,10.748,1.238,14.401-2.417c3.656-3.654,2.998-9.365,2.418-14.404
		c-0.25-2.162-0.713-6.188-0.103-7.123c0.644-0.906,4.494-1.998,6.563-2.584c4.904-1.393,10.466-2.969,12.461-7.781
		c1.966-4.738-0.815-9.734-3.271-14.145c-1.071-1.926-3.067-5.51-2.846-6.631C183.369,114.148,186.447,111.713,188.1,110.402
		 M183.77,131.799c0.397,0.719,0.914,1.643,1.381,2.539c-0.998,0.314-2.06,0.618-2.873,0.848
		c-6.791,1.926-11.863,3.662-15.303,8.504c-0.111,0.156-0.22,0.313-0.324,0.474c-3.322,5.085-2.998,10.528-2.176,17.667
		c0.096,0.837,0.221,1.923,0.309,2.959c-0.936-0.081-1.941-0.198-2.932-0.313c-2.437-0.281-4.986-0.551-7.42-0.551
		c-2.621,0-6.539,0.284-10.283,2.734c-0.154,0.102-0.308,0.206-0.459,0.313c-4.842,3.442-6.578,8.514-8.504,15.303
		c-0.23,0.814-0.531,1.875-0.849,2.875c-0.896-0.465-1.813-0.977-2.522-1.371c-5.14-2.862-9.463-5.057-14.347-5.057
		c-1.018,0-2.03,0.098-3.014,0.287c-0.267,0.053-0.527,0.112-0.791,0.178c-5.563,1.404-9.011,5.319-13.27,10.699
		c-0.572,0.721-1.326,1.672-2.053,2.528c-0.727-0.854-1.476-1.802-2.041-2.515c-4.272-5.393-7.719-9.307-13.287-10.715
		c-0.227-0.058-0.457-0.108-0.686-0.156c-1.02-0.205-2.072-0.311-3.127-0.311c-4.868,0-9.166,2.18-14.28,5.028
		c-0.738,0.409-1.674,0.931-2.578,1.401c-0.316-1-0.617-2.063-0.848-2.879c-1.925-6.791-3.664-11.867-8.518-15.309
		c-0.15-0.105-0.303-0.21-0.458-0.313c-3.738-2.442-7.649-2.726-10.266-2.726c-2.438,0-4.995,0.271-7.405,0.548
		c-1.034,0.119-2.033,0.235-2.951,0.313c0.088-1.034,0.213-2.117,0.309-2.948c0.824-7.146,1.15-12.596-2.184-17.689
		c-0.101-0.152-0.206-0.307-0.313-0.459c-3.44-4.84-8.511-6.578-15.299-8.504c-0.816-0.23-1.878-0.531-2.878-0.848
		c0.465-0.895,0.977-1.814,1.371-2.521c3.551-6.388,5.96-11.354,4.758-17.414c-0.049-0.248-0.104-0.494-0.167-0.74
		c-1.405-5.563-5.319-9.008-10.695-13.267c-0.722-0.571-1.675-1.326-2.532-2.055c0.855-0.728,1.803-1.479,2.519-2.044
		c5.383-4.264,9.301-7.711,10.709-13.28c0.064-0.249,0.12-0.501,0.17-0.754c1.196-6.054-1.216-11.024-4.755-17.385
		c-0.397-0.714-0.911-1.638-1.378-2.534c1-0.317,2.062-0.618,2.876-0.849c6.793-1.926,11.864-3.664,15.303-8.506
		c0.11-0.154,0.217-0.312,0.32-0.47c3.326-5.09,3-10.537,2.176-17.678c-0.096-0.83-0.22-1.912-0.309-2.945
		c0.916,0.078,1.912,0.191,2.939,0.309c2.43,0.28,4.984,0.55,7.419,0.55c2.619,0,6.534-0.283,10.274-2.73
		c0.159-0.104,0.315-0.211,0.468-0.32c4.836-3.439,6.572-8.508,8.498-15.294c0.231-0.816,0.533-1.878,0.849-2.879
		c0.894,0.466,1.813,0.978,2.522,1.373c5.191,2.888,9.475,5.057,14.336,5.057c1.081,0,2.158-0.11,3.201-0.326
		c0.209-0.043,0.418-0.091,0.625-0.143c5.563-1.41,9.009-5.328,13.27-10.71c0.566-0.715,1.316-1.662,2.043-2.517
		c0.727,0.856,1.479,1.804,2.045,2.519c4.258,5.378,7.703,9.296,13.271,10.709c0.273,0.069,0.549,0.131,0.828,0.184
		c0.973,0.188,1.977,0.283,2.981,0.283c4.869,0,9.195-2.191,14.345-5.055c0.711-0.395,1.631-0.908,2.524-1.374
		c0.317,1.001,0.619,2.062,0.851,2.876c1.926,6.789,3.662,11.86,8.502,15.3c0.155,0.111,0.313,0.218,0.473,0.322
		c3.738,2.444,7.648,2.727,10.264,2.727c2.621,0,5.473-0.326,7.357-0.543c1.063-0.123,2.076-0.239,3.002-0.318
		c-0.088,1.034-0.213,2.117-0.309,2.948c-0.824,7.141-1.15,12.591,2.18,17.682c0.104,0.159,0.211,0.315,0.32,0.47
		c3.434,4.831,8.493,6.567,15.27,8.492c0.828,0.235,1.898,0.539,2.904,0.856c-0.465,0.894-0.979,1.813-1.371,2.521
		c-3.547,6.382-5.957,11.349-4.76,17.406c0.051,0.251,0.104,0.5,0.168,0.747c1.405,5.566,5.323,9.013,10.705,13.274
		c0.717,0.568,1.668,1.321,2.522,2.05c-0.854,0.726-1.804,1.477-2.519,2.044c-5.391,4.27-9.303,7.715-10.711,13.277
		c-0.063,0.252-0.121,0.505-0.17,0.759C177.822,120.475,180.232,125.441,183.77,131.799"/>
</g>
<path fill="#B05C2B" d="M150,127.622c0,24.377-23.188,44.358-51.793,44.358c-28.605,0-51.795-19.981-51.795-44.358
	c0-24.375,23.189-44.137,51.795-44.137S150,103.247,150,127.622"/>
<path fill="#B7392F" d="M77.85,36.929c2.28-0.874,4.438-0.672,6.396-0.135c1.953,0.572,3.72,1.604,5.193,2.965
	c1.475,1.357,2.643,3.065,3.358,4.988c0.683,1.939,0.968,4.084,0.261,6.4c-2.257-0.869-3.82-1.77-5.252-2.684
	c-1.41-0.914-2.621-1.854-3.746-2.906c-1.129-1.049-2.171-2.207-3.193-3.564C79.846,40.611,78.879,39.09,77.85,36.929"/>
<path fill="#B7392F" d="M98.004,23.081c2.15,1.616,3.484,3.534,4.545,5.525c1.027,2.005,1.703,4.121,2.047,6.317
	c0.336,2.193,0.332,4.473-0.135,6.773c-0.506,2.265-1.405,4.715-3.488,6.486c-1.174-2.385-2.042-4.22-2.73-6.188
	c-0.674-1.938-1.17-3.879-1.469-5.879c-0.299-1.999-0.414-4.054-0.285-6.195C96.646,27.767,96.99,25.557,98.004,23.081"/>
<path fill="#B7392F" d="M106.287,27.78c1.707,1.888,2.557,3.89,3.115,5.9c0.528,2.017,0.688,4.063,0.489,6.109
	c-0.194,2.045-0.752,4.1-1.793,6.058c-1.053,1.879-2.621,3.959-5.147,4.682c-0.305-2.477-0.756-4.201-0.916-6.073
	c-0.178-1.829-0.199-3.623-0.017-5.439c0.181-1.813,0.554-3.641,1.187-5.504C103.867,31.648,104.721,29.767,106.287,27.78"/>
<path fill="#3D3D3C" d="M41.994,85.3c2.813-1.615,6.078-2.336,9.494-2.385c1.705,0.037,3.441,0.285,5.145,0.773
	c1.688,0.516,3.324,1.268,4.842,2.207c1.518,0.941,3.02,1.957,4.377,3.145c1.354,1.191,2.395,2.66,3.069,4.26
	c1.315,3.226,1.778,6.697,0.628,10.296l-0.755,0.239c-3.001-2.228-4.87-4.459-6.683-6.502c-0.884-1.025-1.593-2.08-2.227-3.217
	c-0.619-1.146-1.327-2.273-2.247-3.182c-0.907-0.922-1.929-1.732-3.062-2.405c-1.112-0.709-2.349-1.278-3.668-1.7
	c-2.633-0.918-5.646-1.137-8.625-0.789L41.994,85.3z"/>
<path fill="#3D3D3C" d="M41.219,73.683c1.893-1.443,4.027-2.52,6.367-3.217c2.33-0.699,4.9-0.988,7.498-0.592
	c2.585,0.418,5.109,1.563,7.219,3.174c2.105,1.629,3.798,3.655,5.198,5.775c1.411,2.223,2.528,4.123,3.741,6.217
	c1.146,2.074,2.039,4.285,2.595,6.635c0.544,2.344,0.892,4.781,0.821,7.294c-0.088,2.479-0.33,5.129-1.959,7.475l-0.748-0.258
	c-1.617-4.279-3.818-7.984-5.607-11.958c-0.91-1.971-1.689-4.002-2.318-6.131c-0.611-2.078-1.25-4.4-2.045-6.17
	c-1.668-3.668-4.172-6.822-7.869-8.215c-3.68-1.494-8.345-0.979-12.477,0.646L41.219,73.683z"/>
<path fill="#3D3D3C" d="M61.744,67.503c1.996-0.859,4.271-0.939,6.541-0.439c1.119,0.277,2.228,0.71,3.274,1.271
	c1.025,0.592,1.985,1.307,2.856,2.104c0.873,0.799,1.775,1.596,2.58,2.48c0.793,0.893,1.307,1.949,1.502,3.08
	c0.193,1.125,0.195,2.287-0.076,3.453c-0.244,1.16-0.698,2.326-1.623,3.502l-0.78,0.15c-1.295-0.725-2.185-1.441-2.956-2.145
	c-0.791-0.693-1.396-1.377-1.919-2.043c-0.519-0.668-0.825-1.365-0.978-2.164c-0.145-0.799-0.307-1.623-0.658-2.322
	c-0.346-0.703-0.756-1.373-1.239-1.99c-0.46-0.646-1.005-1.248-1.64-1.781c-1.242-1.105-2.905-1.961-4.753-2.379L61.744,67.503z"/>
<path fill="#3D3D3C" d="M97.363,128.046c-0.385-0.01-0.756-0.049-1.127-0.103c-24.267-0.979-37.301-19.862-37.301-19.862
	c-3.568,10.737-3.584,22.819-3.584,22.819c0.563,23.188,19.52,41.812,42.84,41.812v-44.721c-0.182,0.012-0.352,0.055-0.531,0.055
	H97.363L97.363,128.046z"/>
<path fill="#B05C2B" d="M68.646,74.153l-0.014-0.018c0,0,0.001,0.086,0.001,0.223c-0.062,0.795-0.118,1.594-0.118,2.406
	c0,0.248,0.025,0.49,0.029,0.738c-0.167,2.99-0.611,7.66-1.912,12.586c-0.917,3.455-2.248,7.035-4.221,10.248
	c-1.434,2.344-2.567,5.002-3.477,7.744c0,0,13.034,18.883,37.301,19.863h0.006c0.365,0.053,0.738,0.092,1.121,0.102h0.297
	c0.181,0,0.349-0.043,0.531-0.055v-23.295V47.092C82.683,47.092,69.97,58.989,68.646,74.153"/>
<path fill="#585857" d="M137.615,108.553c0,0-13.902,19.438-39.424,19.438v44.721c23.338,0,42.307-18.653,42.836-41.862
	C141.027,130.85,141.016,119.154,137.615,108.553"/>
<path fill="#EA8231" d="M133.998,100.337c-1.801-2.955-3.076-6.219-3.98-9.408c-1.547-5.443-2.016-10.676-2.164-13.805
	c0-0.121,0.012-0.238,0.012-0.359c0-0.541-0.053-1.07-0.08-1.604c-0.012-0.639-0.004-1.025-0.004-1.025l-0.045,0.068
	c-1.303-15.191-14.021-27.113-29.545-27.113v57.604v23.296c25.521,0,39.424-19.438,39.424-19.438
	C136.686,105.646,135.511,102.818,133.998,100.337"/>
<path fill="#EA585C" d="M108.885,97.727v-0.019c0-6.592-5.965-11.939-10.881-11.939s-10.881,5.348-10.881,11.939
	c0,2.642-0.204,9.573,4.783,9.573c1.47,0,2.77-0.678,3.646-1.723c0.824,0.088,1.654,0.131,2.451,0.131
	c0.801,0,1.628-0.043,2.453-0.131c0.875,1.045,2.176,1.723,3.648,1.723C109.08,107.281,108.885,100.378,108.885,97.727"/>
<path fill="#B7392F" d="M86.041,64.052c-7.293,0-13.205,5.617-13.205,12.545c0,6.934,5.912,12.549,13.205,12.549
	c5.453,0,10.133,0.795,12.15-3.668V71.677C96.174,67.194,91.496,64.052,86.041,64.052"/>
<path fill="#EA585C" d="M110.373,89.146c7.291,0,13.207-5.615,13.207-12.549c0-6.928-5.916-12.545-13.207-12.545
	c-5.469,0-10.158,3.157-12.166,7.655c-0.004-0.009-0.012-0.021-0.016-0.03v13.801c0.004-0.012,0.012-0.02,0.016-0.031
	C100.215,89.944,104.904,89.146,110.373,89.146"/>
<path fill="#F39E2C" d="M95.867,86.097l-3.198,2.109c-1.286,0.85-1.693,2.627-0.904,3.952l5.007,8.406
	c0.395,0.666,0.916,0.998,1.436,0.998V85.458C97.355,85.458,96.513,85.671,95.867,86.097"/>
<path fill="#FADD58" d="M99.642,100.564l5.007-8.405c0.791-1.326,0.383-3.104-0.904-3.953l-3.196-2.109
	c-0.646-0.426-1.492-0.639-2.341-0.639v16.104C98.727,101.563,99.246,101.23,99.642,100.564"/>
<path fill="#4D1815" d="M88.355,76.626c0,2.365-1.921,4.281-4.279,4.281c-2.366,0-4.282-1.916-4.282-4.281
	c0-2.361,1.916-4.277,4.282-4.277C86.435,72.349,88.355,74.265,88.355,76.626"/>
<path fill="#4D1815" d="M116.216,76.626c0,2.365-1.919,4.281-4.28,4.281c-2.363,0-4.281-1.916-4.281-4.281
	c0-2.361,1.918-4.277,4.281-4.277C114.297,72.349,116.216,74.265,116.216,76.626"/>
<path fill="#FFFFFF" d="M87.123,74.929c0,0.809-0.656,1.465-1.463,1.465c-0.809,0-1.463-0.656-1.463-1.465
	c0-0.809,0.654-1.463,1.463-1.463C86.468,73.466,87.123,74.12,87.123,74.929"/>
<path fill="#FFFFFF" d="M114.861,74.929c0,0.809-0.654,1.465-1.463,1.465s-1.463-0.656-1.463-1.465c0-0.809,0.654-1.463,1.463-1.463
	S114.861,74.12,114.861,74.929"/>
<path fill="#EA585C" d="M78.564,19c3.896,2.138,6.86,4.636,9.578,6.751c0.665,0.527,1.324,1.003,1.889,1.399
	c0.301,0.213,0.549,0.313,0.819,0.497l1.101,0.731c1.584,1.072,3.418,2.625,4.908,4.499c3.063,3.786,4.459,8.513,4.525,12.772
	c0.047,4.313-0.953,8.406-3.381,12.174c-2.514-3.699-4.094-7.105-5.717-10.084c-1.588-3.011-3.064-5.397-4.705-7.459
	c-0.84-1.063-1.756-2.063-3.002-3.424l-1.01-1.119c-0.42-0.446-0.843-1-1.172-1.475c-0.707-0.973-1.229-1.952-1.688-2.92
	C78.969,27.453,78.145,23.474,78.564,19"/>
<path fill="#A94824" d="M115.814,154.08c0.135-0.856,0.294-1.705,0.441-2.559c0.152-0.851,0.32-1.698,0.481-2.545
	c0.318-1.699,0.668-3.388,1.025-5.073c0.352-1.688,0.721-3.371,1.099-5.05c0.378-1.68,0.769-3.356,1.166-5.031l0.343-1.453
	l1.545,0.44c0.473,0.136,0.898,0.275,1.343,0.423l1.312,0.457c0.869,0.316,1.727,0.662,2.583,1.019
	c0.854,0.365,1.694,0.755,2.534,1.161c0.839,0.406,1.666,0.85,2.485,1.309c0.822,0.456,1.623,0.959,2.418,1.479
	c0.798,0.519,1.575,1.079,2.337,1.683c0.382,0.295,0.753,0.613,1.126,0.929c0.367,0.322,0.729,0.66,1.083,1.01
	c0.353,0.352,0.702,0.712,1.036,1.093c0.34,0.373,0.653,0.784,0.967,1.194l0.064,0.084l0.026,0.04
	c0.08,0.129,0.101,0.17,0.142,0.244l0.101,0.19c0.061,0.123,0.117,0.244,0.171,0.362c0.108,0.236,0.202,0.468,0.291,0.702
	c0.176,0.465,0.319,0.928,0.439,1.393c0.24,0.931,0.413,1.858,0.507,2.787c0.093,0.927,0.138,1.851,0.114,2.764
	c-0.006,0.459-0.03,0.913-0.062,1.364c-0.027,0.455-0.078,0.904-0.136,1.351c-0.111,0.894-0.264,1.775-0.463,2.643
	c-0.188,0.869-0.432,1.72-0.692,2.557c-0.133,0.421-0.279,0.835-0.424,1.247l-0.48,1.218c-0.17,0.401-0.338,0.802-0.522,1.193
	c-0.191,0.393-0.377,0.782-0.577,1.164l0.301-2.581c0.088-0.857,0.162-1.707,0.223-2.553c0.019-0.425,0.063-0.844,0.075-1.264
	c0.017-0.422,0.034-0.842,0.043-1.261c0.014-0.417,0.008-0.834,0.007-1.25c-0.004-0.415-0.009-0.829-0.028-1.238
	c-0.072-1.645-0.248-3.261-0.59-4.798c-0.173-0.766-0.374-1.516-0.632-2.223c-0.132-0.352-0.27-0.695-0.416-1.021
	c-0.075-0.16-0.152-0.321-0.229-0.465l-0.119-0.209l-0.054-0.087c-0.014-0.019-0.047-0.068-0.023-0.03l0.091,0.125
	c-0.272-0.305-0.541-0.606-0.831-0.903c-0.284-0.298-0.588-0.586-0.896-0.869c-0.309-0.285-0.633-0.555-0.958-0.829
	c-0.33-0.27-0.656-0.542-1.001-0.799c-0.339-0.263-0.69-0.515-1.04-0.766c-0.357-0.244-0.703-0.503-1.068-0.742
	c-0.716-0.492-1.461-0.948-2.206-1.411c-1.495-0.917-3.037-1.781-4.599-2.61c-0.778-0.423-1.568-0.825-2.361-1.223l-1.19-0.591
	l-1.183-0.564l1.887-1.014c-0.538,1.632-1.085,3.26-1.646,4.883c-0.558,1.624-1.124,3.244-1.706,4.863
	c-0.581,1.616-1.168,3.23-1.785,4.836c-0.307,0.802-0.607,1.61-0.923,2.409C116.458,152.482,116.148,153.286,115.814,154.08"/>
<path fill="#A94824" d="M82.358,158.872c-0.523-0.674-1.023-1.364-1.534-2.045c-0.508-0.686-1.001-1.38-1.5-2.069
	c-1.002-1.379-1.975-2.773-2.945-4.172c-0.97-1.398-1.927-2.806-2.874-4.218c-0.951-1.41-1.889-2.829-2.821-4.253l2.077,0.455
	l-0.998,0.868l-0.997,0.899c-0.666,0.602-1.325,1.208-1.969,1.833c-1.297,1.231-2.565,2.49-3.774,3.789
	c-0.603,0.651-1.206,1.298-1.772,1.971c-0.291,0.331-0.559,0.677-0.843,1.011c-0.274,0.338-0.549,0.678-0.809,1.025
	c-0.268,0.344-0.514,0.697-0.762,1.048c-0.245,0.355-0.489,0.705-0.714,1.064c-0.228,0.357-0.447,0.72-0.646,1.085
	c-0.204,0.366-0.388,0.734-0.573,1.102l0.056-0.145c0.011-0.044-0.009,0.014-0.016,0.035l-0.031,0.1l-0.06,0.233
	c-0.04,0.161-0.073,0.337-0.105,0.512c-0.06,0.354-0.104,0.724-0.143,1.099c-0.07,0.754-0.075,1.533-0.049,2.32
	c0.06,1.577,0.3,3.184,0.644,4.788c0.085,0.402,0.186,0.802,0.286,1.204c0.105,0.4,0.204,0.805,0.324,1.203
	c0.113,0.402,0.235,0.801,0.36,1.204c0.117,0.402,0.267,0.794,0.392,1.197c0.273,0.799,0.559,1.6,0.86,2.401l0.944,2.406
	c-0.292-0.313-0.569-0.638-0.853-0.962c-0.277-0.328-0.541-0.668-0.806-1.007l-0.771-1.043c-0.246-0.358-0.49-0.716-0.725-1.084
	c-0.463-0.737-0.915-1.489-1.314-2.275c-0.411-0.78-0.782-1.59-1.115-2.422c-0.168-0.414-0.33-0.832-0.472-1.264
	c-0.144-0.426-0.282-0.858-0.405-1.298c-0.252-0.875-0.441-1.779-0.587-2.698c-0.144-0.92-0.211-1.863-0.218-2.826
	c0-0.482,0.021-0.97,0.073-1.466c0.027-0.25,0.058-0.5,0.102-0.759c0.021-0.128,0.047-0.262,0.075-0.396l0.048-0.211
	c0.021-0.083,0.029-0.128,0.074-0.273l0.015-0.046l0.041-0.099c0.2-0.482,0.397-0.966,0.632-1.42
	c0.226-0.461,0.471-0.904,0.723-1.341c0.253-0.436,0.515-0.86,0.789-1.273c0.28-0.407,0.558-0.817,0.853-1.207
	c0.581-0.792,1.188-1.548,1.827-2.269c0.636-0.721,1.283-1.428,1.959-2.095c0.675-0.669,1.359-1.324,2.064-1.95
	c0.708-0.622,1.422-1.231,2.152-1.819c0.735-0.58,1.475-1.149,2.233-1.697l1.149-0.801c0.39-0.267,0.767-0.52,1.188-0.779
	l1.377-0.854l0.7,1.307c0.805,1.505,1.606,3.013,2.394,4.529c0.789,1.515,1.573,3.036,2.339,4.565
	c0.769,1.529,1.534,3.061,2.271,4.61c0.369,0.773,0.745,1.544,1.108,2.322C81.643,157.308,82.012,158.083,82.358,158.872"/>
<path fill="#A94824" d="M114.009,158.872c0.347-0.789,0.715-1.564,1.072-2.346c0.361-0.779,0.74-1.55,1.107-2.323
	c0.737-1.55,1.501-3.081,2.271-4.61c0.768-1.528,1.55-3.05,2.34-4.565c0.787-1.516,1.588-3.023,2.396-4.529l0.698-1.307l1.378,0.854
	c0.422,0.26,0.797,0.514,1.188,0.78l1.149,0.801c0.758,0.546,1.497,1.117,2.233,1.697c0.729,0.588,1.443,1.197,2.151,1.819
	c0.705,0.625,1.39,1.28,2.064,1.949c0.677,0.667,1.323,1.374,1.958,2.096c0.639,0.721,1.246,1.477,1.827,2.269
	c0.295,0.39,0.571,0.8,0.853,1.206c0.273,0.413,0.536,0.839,0.789,1.274c0.251,0.436,0.497,0.88,0.723,1.34
	c0.234,0.454,0.432,0.938,0.631,1.42l0.041,0.099l0.016,0.046c0.044,0.146,0.053,0.19,0.073,0.274l0.049,0.211
	c0.026,0.135,0.052,0.269,0.074,0.396c0.044,0.259,0.074,0.509,0.103,0.759c0.052,0.496,0.072,0.982,0.072,1.466
	c-0.006,0.963-0.072,1.905-0.218,2.827c-0.146,0.919-0.334,1.823-0.589,2.697c-0.121,0.439-0.259,0.872-0.403,1.297
	c-0.143,0.433-0.304,0.852-0.472,1.266c-0.335,0.83-0.704,1.641-1.116,2.422c-0.398,0.786-0.852,1.537-1.315,2.274
	c-0.233,0.368-0.479,0.727-0.724,1.085l-0.771,1.042c-0.265,0.339-0.528,0.68-0.805,1.007c-0.284,0.324-0.562,0.65-0.854,0.962
	l0.944-2.405c0.302-0.802,0.588-1.604,0.859-2.401c0.125-0.404,0.276-0.796,0.394-1.199c0.124-0.401,0.246-0.8,0.36-1.202
	c0.119-0.397,0.219-0.803,0.322-1.203c0.102-0.401,0.201-0.801,0.286-1.204c0.345-1.606,0.585-3.211,0.645-4.788
	c0.025-0.788,0.021-1.566-0.05-2.32c-0.037-0.376-0.083-0.744-0.142-1.099c-0.032-0.176-0.065-0.352-0.104-0.513l-0.061-0.232
	l-0.031-0.1c-0.007-0.021-0.026-0.079-0.015-0.036l0.056,0.144c-0.185-0.366-0.369-0.733-0.572-1.1
	c-0.199-0.364-0.419-0.728-0.645-1.086c-0.227-0.36-0.471-0.71-0.715-1.063c-0.249-0.351-0.495-0.705-0.763-1.049
	c-0.261-0.347-0.536-0.686-0.811-1.025c-0.282-0.335-0.55-0.681-0.841-1.011c-0.566-0.673-1.171-1.32-1.772-1.971
	c-1.209-1.297-2.478-2.557-3.775-3.789c-0.645-0.625-1.304-1.231-1.968-1.832l-0.999-0.899l-0.995-0.87l2.076-0.454
	c-0.934,1.424-1.87,2.843-2.82,4.254c-0.947,1.411-1.905,2.818-2.875,4.217c-0.971,1.399-1.942,2.795-2.943,4.173
	c-0.501,0.688-0.994,1.383-1.501,2.069C115.034,157.508,114.532,158.198,114.009,158.872"/>
<path fill="#A94824" d="M75.502,154.334c0,0,6.779-16.92,22.68-16.92v26.923C98.183,164.337,85.313,164.587,75.502,154.334"/>
<path fill="#B96428" d="M120.864,154.334c0,0-6.78-16.92-22.682-16.92v26.923C98.183,164.337,111.056,164.587,120.864,154.334"/>
<path fill="#A94824" d="M72.509,153.496l3.202,9.773c0,0,8.626,7.985,15.166,8.085c6.542,0.101,3.961,3.758,0.758,4.933
	c-3.205,1.176-16.26,2.51-25.408-9.146c-4.575-5.827-2.266-10.521,0.317-12.192C69.13,153.279,72.509,153.496,72.509,153.496"/>
<path fill="#B96428" d="M72.509,153.496c0,0,10.525,1.545,17.042,11.028c4.869,7.086-1.545,4.42-3.721,2.101
	c-1.713-1.826-8.492-4.479-10.12-3.355L72.509,153.496z"/>
<path fill="#A94824" d="M123.856,153.496l-3.202,9.773c0,0-8.624,7.985-15.165,8.085c-6.541,0.101-3.961,3.758-0.757,4.933
	c3.202,1.176,16.256,2.51,25.405-9.146c4.576-5.827,2.268-10.521-0.318-12.192C127.237,153.279,123.856,153.496,123.856,153.496"/>
<path fill="#B96428" d="M123.856,153.496c0,0-10.525,1.545-17.041,11.028c-4.871,7.086,1.546,4.42,3.72,2.101
	c1.714-1.826,8.493-4.479,10.119-3.355L123.856,153.496z"/>
<path fill="#A94824" d="M105.427,153.496c0.004-0.012-0.018,0.065-0.004,0.044c0.017-0.021,0.011,0.023-0.001,0.086
	c-0.029,0.122-0.077,0.326-0.183,0.576c-0.1,0.249-0.243,0.544-0.434,0.842c-0.093,0.154-0.2,0.304-0.318,0.454
	c-0.108,0.159-0.249,0.289-0.379,0.442c-0.134,0.144-0.286,0.271-0.428,0.413c-0.157,0.124-0.311,0.244-0.462,0.363
	c-0.163,0.106-0.322,0.208-0.472,0.305c-0.151,0.102-0.313,0.165-0.452,0.243c-0.282,0.159-0.543,0.243-0.721,0.318
	c-0.18,0.072-0.283,0.113-0.283,0.113l-0.155,0.062c-0.687,0.275-1.031,1.083-0.768,1.803c0.216,0.587,0.771,0.935,1.342,0.89
	c0,0,0.142-0.01,0.391-0.027c0.248-0.025,0.607-0.035,1.035-0.124c0.217-0.042,0.454-0.068,0.7-0.138
	c0.247-0.07,0.509-0.144,0.778-0.22c0.269-0.103,0.545-0.208,0.825-0.316c0.274-0.133,0.561-0.26,0.833-0.415
	c0.269-0.163,0.55-0.314,0.802-0.507c0.261-0.178,0.51-0.368,0.741-0.569c0.468-0.394,0.871-0.817,1.194-1.213
	c0.328-0.389,0.571-0.764,0.744-1.045c0.084-0.143,0.151-0.262,0.214-0.395c0.042-0.084,0.063-0.132,0.063-0.132
	c0.491-1.329-0.143-2.821-1.415-3.334C107.344,151.503,105.916,152.167,105.427,153.496"/>
<path fill="#4A1C12" d="M105.614,153.878c0,1.2,1.394,2.173,3.112,2.173c1.72,0,3.113-0.973,3.113-2.173
	c0-1.199-1.394-2.173-3.113-2.173C107.009,151.705,105.614,152.678,105.614,153.878"/>
<path fill="#FAF4F0" d="M108.881,153.271c0,0.694,0.539,1.257,1.202,1.257s1.202-0.563,1.202-1.257c0-0.693-0.539-1.256-1.202-1.256
	S108.881,152.578,108.881,153.271"/>
<path fill="#8A3D1D" d="M90.461,153.496c-0.003-0.012,0.019,0.065,0.004,0.044c-0.018-0.021-0.011,0.023,0,0.086
	c0.029,0.122,0.077,0.326,0.182,0.576c0.101,0.249,0.244,0.544,0.436,0.842c0.091,0.154,0.199,0.304,0.318,0.454
	c0.108,0.159,0.25,0.289,0.378,0.442c0.132,0.144,0.285,0.271,0.428,0.413c0.158,0.124,0.313,0.244,0.463,0.363
	c0.163,0.106,0.321,0.208,0.472,0.305c0.15,0.102,0.311,0.165,0.452,0.243c0.282,0.16,0.542,0.244,0.72,0.318
	c0.18,0.073,0.284,0.113,0.284,0.113l0.155,0.062c0.688,0.276,1.031,1.083,0.769,1.803c-0.215,0.588-0.773,0.935-1.344,0.891
	c0,0-0.141-0.01-0.39-0.028c-0.247-0.024-0.606-0.035-1.036-0.123c-0.215-0.042-0.453-0.068-0.699-0.139
	c-0.249-0.069-0.51-0.144-0.78-0.22c-0.268-0.102-0.543-0.208-0.825-0.315c-0.273-0.133-0.557-0.261-0.832-0.416
	c-0.267-0.163-0.548-0.314-0.801-0.506c-0.261-0.178-0.51-0.369-0.74-0.57c-0.469-0.393-0.873-0.817-1.197-1.212
	c-0.327-0.39-0.57-0.765-0.744-1.045c-0.083-0.143-0.151-0.262-0.213-0.395c-0.042-0.084-0.064-0.133-0.064-0.133
	c-0.49-1.328,0.145-2.821,1.417-3.333C88.545,151.503,89.973,152.167,90.461,153.496"/>
<path fill="#4A1C12" d="M90.273,153.878c0,1.2-1.394,2.173-3.113,2.173c-1.72,0-3.114-0.973-3.114-2.173
	c0-1.199,1.394-2.173,3.114-2.173C88.88,151.705,90.273,152.678,90.273,153.878"/>
<path fill="#FAF4F0" d="M89.675,153.271c0,0.694-0.538,1.257-1.202,1.257c-0.663,0-1.201-0.563-1.201-1.257
	c0-0.693,0.539-1.256,1.201-1.256C89.137,152.016,89.675,152.578,89.675,153.271"/>
<path fill="#A94824" d="M78.759,152.231c-0.325-0.697-0.627-1.398-0.939-2.096c-0.309-0.701-0.603-1.407-0.904-2.109
	c-0.604-1.403-1.18-2.815-1.751-4.231c-0.573-1.415-1.132-2.835-1.683-4.256c-0.554-1.42-1.094-2.846-1.629-4.274l1.734,0.856
	l-1.049,0.521l-1.057,0.546c-0.704,0.366-1.405,0.737-2.097,1.127c-1.386,0.764-2.753,1.558-4.075,2.396
	c-0.659,0.424-1.319,0.841-1.951,1.29c-0.322,0.219-0.627,0.454-0.942,0.677c-0.309,0.229-0.619,0.458-0.917,0.696
	c-0.304,0.234-0.591,0.481-0.88,0.727c-0.286,0.248-0.57,0.492-0.839,0.751c-0.272,0.255-0.538,0.516-0.785,0.784
	c-0.253,0.268-0.488,0.54-0.723,0.814l0.077-0.112c0.019-0.033-0.011,0.01-0.02,0.027l-0.047,0.078l-0.1,0.186
	c-0.067,0.13-0.131,0.272-0.194,0.416c-0.123,0.289-0.236,0.596-0.346,0.908c-0.212,0.629-0.373,1.296-0.507,1.975
	c-0.262,1.363-0.373,2.793-0.39,4.245c-0.006,0.363,0.001,0.727,0.009,1.094c0.012,0.366,0.018,0.734,0.044,1.103
	c0.02,0.369,0.047,0.737,0.076,1.111c0.021,0.371,0.076,0.739,0.104,1.113c0.081,0.744,0.171,1.495,0.277,2.248l0.348,2.272
	c-0.194-0.332-0.373-0.674-0.557-1.015c-0.178-0.343-0.341-0.692-0.506-1.043l-0.469-1.064c-0.144-0.362-0.287-0.724-0.419-1.091
	c-0.259-0.735-0.506-1.48-0.699-2.243c-0.206-0.761-0.369-1.536-0.496-2.322c-0.066-0.393-0.123-0.788-0.161-1.188
	c-0.042-0.397-0.078-0.799-0.096-1.202c-0.047-0.807-0.033-1.621,0.023-2.442c0.058-0.82,0.186-1.643,0.374-2.469
	c0.096-0.412,0.211-0.823,0.358-1.237c0.073-0.209,0.15-0.415,0.24-0.626c0.045-0.105,0.095-0.214,0.146-0.322l0.085-0.171
	c0.034-0.065,0.051-0.103,0.12-0.218l0.022-0.036l0.055-0.075c0.272-0.369,0.542-0.737,0.838-1.072
	c0.291-0.345,0.596-0.669,0.904-0.986c0.309-0.317,0.625-0.621,0.947-0.914c0.328-0.286,0.654-0.575,0.99-0.842
	c0.669-0.548,1.354-1.059,2.059-1.532c0.703-0.476,1.412-0.934,2.141-1.354c0.726-0.421,1.458-0.827,2.202-1.205
	c0.748-0.373,1.496-0.735,2.255-1.076c0.763-0.331,1.527-0.654,2.303-0.949l1.169-0.43c0.396-0.14,0.778-0.272,1.2-0.4l1.382-0.421
	l0.353,1.275c0.407,1.47,0.809,2.939,1.197,4.414c0.391,1.475,0.774,2.952,1.143,4.433c0.37,1.482,0.736,2.965,1.073,4.457
	c0.169,0.745,0.347,1.488,0.509,2.237C78.445,150.73,78.613,151.478,78.759,152.231"/>
</svg>
